%FSLAX25Y25*%
%MOIN*%
G70*
G01*
G75*
%ADD10C,0.01000*%
%ADD11C,0.03000*%
%ADD12C,0.02000*%
%ADD13C,0.00800*%
%ADD14R,0.00984X0.09843*%
%ADD15R,0.09843X0.00984*%
%ADD16R,0.05315X0.05118*%
%ADD17R,0.05118X0.05315*%
%ADD18R,0.20000X0.02000*%
%ADD19O,0.20000X0.02000*%
%ADD20R,0.13780X0.08465*%
%ADD21R,0.04331X0.08465*%
%ADD22R,0.04331X0.08465*%
%ADD23C,0.11811*%
%ADD24C,0.05906*%
%ADD25R,0.05906X0.05906*%
%ADD26C,0.06200*%
%ADD27C,0.08000*%
%ADD28O,0.07874X0.03937*%
%ADD29O,0.07874X0.03937*%
%ADD30C,0.03937*%
%ADD31C,0.03000*%
%ADD32C,0.06500*%
%ADD33C,0.15000*%
%ADD34C,0.05500*%
%ADD35C,0.05906*%
%ADD36R,0.05906X0.05906*%
%ADD37R,0.05906X0.05906*%
%ADD38C,0.06654*%
%ADD39R,0.06654X0.06654*%
%ADD40C,0.18740*%
%ADD41C,0.00787*%
%ADD42C,0.00984*%
%ADD43C,0.00500*%
%ADD44C,0.00600*%
%ADD45C,0.01200*%
%ADD46C,0.00591*%
%ADD47R,0.04520X0.01680*%
%ADD48R,0.01680X0.04520*%
%ADD49R,0.01784X0.10642*%
%ADD50R,0.10642X0.01784*%
%ADD51R,0.06115X0.05918*%
%ADD52R,0.05918X0.06115*%
%ADD53R,0.20800X0.02800*%
%ADD54O,0.20800X0.02800*%
%ADD55R,0.14579X0.09265*%
%ADD56R,0.05131X0.09265*%
%ADD57R,0.05131X0.09265*%
%ADD58C,0.12611*%
%ADD59C,0.06706*%
%ADD60R,0.06706X0.06706*%
%ADD61C,0.07000*%
%ADD62C,0.08800*%
%ADD63O,0.08674X0.04737*%
%ADD64O,0.08674X0.04737*%
%ADD65C,0.04737*%
%ADD66C,0.03800*%
%ADD67C,0.07300*%
%ADD68C,0.15800*%
%ADD69C,0.06300*%
%ADD70C,0.06706*%
%ADD71R,0.06706X0.06706*%
%ADD72R,0.06706X0.06706*%
%ADD73C,0.07453*%
%ADD74R,0.07453X0.07453*%
%ADD75C,0.19540*%
%ADD76C,0.00667*%
%ADD77C,0.00400*%
D43*
X226500Y373000D02*
Y377000D01*
X230500D01*
Y373000D01*
X226500D01*
X461000Y372500D02*
Y376500D01*
X465000D01*
Y372500D01*
X461000D01*
X181000Y167500D02*
Y171500D01*
X185000D01*
Y167500D01*
X181000D01*
X417000Y345500D02*
X415000Y349500D01*
X419000D01*
X417000Y345500D01*
Y335500D02*
X415000Y339500D01*
X419000D01*
X417000Y335500D01*
X465600Y294000D02*
X466600Y295000D01*
X467600D01*
X466600Y296000D01*
X467600Y297000D01*
X466600D01*
X465600Y298000D01*
X464600Y297000D01*
X463600D01*
X464600Y296000D01*
X463600Y295000D01*
X464600D01*
X465600Y294000D01*
Y311700D02*
X466600Y312700D01*
X467600D01*
X466600Y313700D01*
X467600Y314700D01*
X466600D01*
X465600Y315700D01*
X464600Y314700D01*
X463600D01*
X464600Y313700D01*
X463600Y312700D01*
X464600D01*
X465600Y311700D01*
X440000D02*
X441000Y312700D01*
X442000D01*
X441000Y313700D01*
X442000Y314700D01*
X441000D01*
X440000Y315700D01*
X439000Y314700D01*
X438000D01*
X439000Y313700D01*
X438000Y312700D01*
X439000D01*
X440000Y311700D01*
Y294000D02*
X441000Y295000D01*
X442000D01*
X441000Y296000D01*
X442000Y297000D01*
X441000D01*
X440000Y298000D01*
X439000Y297000D01*
X438000D01*
X439000Y296000D01*
X438000Y295000D01*
X439000D01*
X440000Y294000D01*
X296500Y242500D02*
X297500Y244500D01*
X296500Y246500D01*
X298500Y245500D01*
X300500Y246500D01*
X299500Y244500D01*
X300500Y242500D01*
X298500Y243500D01*
X296500Y242500D01*
X316500D02*
X317500Y244500D01*
X316500Y246500D01*
X318500Y245500D01*
X320500Y246500D01*
X319500Y244500D01*
X320500Y242500D01*
X318500Y243500D01*
X316500Y242500D01*
X313000Y329000D02*
Y328000D01*
X315000D01*
Y329000D01*
X316000D01*
Y331000D01*
X315000D01*
Y332000D01*
X313000D01*
Y331000D01*
X312000D01*
Y329000D01*
X313000D01*
X309000Y335000D02*
Y334000D01*
X311000D01*
Y335000D01*
X312000D01*
Y337000D01*
X311000D01*
Y338000D01*
X309000D01*
Y337000D01*
X308000D01*
Y335000D01*
X309000D01*
X293500Y361000D02*
X294500D01*
X295500Y362000D01*
X296500Y361000D01*
X297500D01*
Y362000D01*
X296500Y363000D01*
X297500Y364000D01*
Y365000D01*
X296500D01*
X295500Y364000D01*
X294500Y365000D01*
X293500D01*
Y364000D01*
X294500Y363000D01*
X293500Y362000D01*
Y361000D01*
X281400Y373700D02*
X283400Y375700D01*
X285400Y373700D01*
X283400Y371700D01*
X281400Y373700D01*
X333200D02*
X335200Y375700D01*
X337200Y373700D01*
X335200Y371700D01*
X333200Y373700D01*
X321060Y361000D02*
X322060D01*
X323060Y362000D01*
X324060Y361000D01*
X325060D01*
Y362000D01*
X324060Y363000D01*
X325060Y364000D01*
Y365000D01*
X324060D01*
X323060Y364000D01*
X322060Y365000D01*
X321060D01*
Y364000D01*
X322060Y363000D01*
X321060Y362000D01*
Y361000D01*
X311200D02*
X312200D01*
X313200Y362000D01*
X314200Y361000D01*
X315200D01*
Y362000D01*
X314200Y363000D01*
X315200Y364000D01*
Y365000D01*
X314200D01*
X313200Y364000D01*
X312200Y365000D01*
X311200D01*
Y364000D01*
X312200Y363000D01*
X311200Y362000D01*
Y361000D01*
X303350D02*
X304350D01*
X305350Y362000D01*
X306350Y361000D01*
X307350D01*
Y362000D01*
X306350Y363000D01*
X307350Y364000D01*
Y365000D01*
X306350D01*
X305350Y364000D01*
X304350Y365000D01*
X303350D01*
Y364000D01*
X304350Y363000D01*
X303350Y362000D01*
Y361000D01*
X463000Y335500D02*
X461000Y339500D01*
X465000D01*
X463000Y335500D01*
Y345500D02*
X461000Y349500D01*
X465000D01*
X463000Y345500D01*
X429008Y194189D02*
Y198189D01*
X433008D01*
Y194189D01*
X429008D01*
X429808Y194989D02*
Y197389D01*
X432208D01*
Y194989D01*
X429808D01*
X440189Y199642D02*
Y203642D01*
X444189D01*
Y199642D01*
X440189D01*
X440989Y200442D02*
Y202842D01*
X443389D01*
Y200442D01*
X440989D01*
X429008Y205095D02*
Y209095D01*
X433008D01*
Y205095D01*
X429008D01*
X429808Y205894D02*
Y208295D01*
X432208D01*
Y205894D01*
X429808D01*
X440189Y210547D02*
Y214547D01*
X444189D01*
Y210547D01*
X440189D01*
X440989Y211347D02*
Y213747D01*
X443389D01*
Y211347D01*
X440989D01*
X429008Y216000D02*
Y220000D01*
X433008D01*
Y216000D01*
X429008D01*
X429808Y216800D02*
Y219200D01*
X432208D01*
Y216800D01*
X429808D01*
X440189Y221453D02*
Y225453D01*
X444189D01*
Y221453D01*
X440189D01*
X440989Y222253D02*
Y224653D01*
X443389D01*
Y222253D01*
X440989D01*
X429008Y226905D02*
Y230906D01*
X433008D01*
Y226905D01*
X429008D01*
X429808Y227706D02*
Y230105D01*
X432208D01*
Y227706D01*
X429808D01*
X440189Y232358D02*
Y236358D01*
X444189D01*
Y232358D01*
X440189D01*
X440989Y233158D02*
Y235558D01*
X443389D01*
Y233158D01*
X440989D01*
X429008Y237811D02*
Y241811D01*
X433008D01*
Y237811D01*
X429008D01*
X429808Y238611D02*
Y241011D01*
X432208D01*
Y238611D01*
X429808D01*
D76*
X351500Y262500D02*
G03*
X351500Y262500I-2000J0D01*
G01*
Y252500D02*
G03*
X351500Y252500I-2000J0D01*
G01*
Y242500D02*
G03*
X351500Y242500I-2000J0D01*
G01*
Y232500D02*
G03*
X351500Y232500I-2000J0D01*
G01*
X381500Y262500D02*
G03*
X381500Y262500I-2000J0D01*
G01*
Y252500D02*
G03*
X381500Y252500I-2000J0D01*
G01*
Y242500D02*
G03*
X381500Y242500I-2000J0D01*
G01*
Y232500D02*
G03*
X381500Y232500I-2000J0D01*
G01*
X352000Y337000D02*
G03*
X352000Y337000I-2000J0D01*
G01*
Y342000D02*
G03*
X352000Y342000I-2000J0D01*
G01*
Y347000D02*
G03*
X352000Y347000I-2000J0D01*
G01*
X248000Y290000D02*
G03*
X248000Y290000I-2000J0D01*
G01*
X238000D02*
G03*
X238000Y290000I-2000J0D01*
G01*
X248000Y300000D02*
G03*
X248000Y300000I-2000J0D01*
G01*
X238000D02*
G03*
X238000Y300000I-2000J0D01*
G01*
X248000Y310000D02*
G03*
X248000Y310000I-2000J0D01*
G01*
X238000D02*
G03*
X238000Y310000I-2000J0D01*
G01*
X248000Y320000D02*
G03*
X248000Y320000I-2000J0D01*
G01*
X238000D02*
G03*
X238000Y320000I-2000J0D01*
G01*
X248000Y330000D02*
G03*
X248000Y330000I-2000J0D01*
G01*
X238000D02*
G03*
X238000Y330000I-2000J0D01*
G01*
X248000Y340000D02*
G03*
X248000Y340000I-2000J0D01*
G01*
X238000D02*
G03*
X238000Y340000I-2000J0D01*
G01*
X248000Y350000D02*
G03*
X248000Y350000I-2000J0D01*
G01*
X238000D02*
G03*
X238000Y350000I-2000J0D01*
G01*
X248000Y360000D02*
G03*
X248000Y360000I-2000J0D01*
G01*
X238000D02*
G03*
X238000Y360000I-2000J0D01*
G01*
X294000Y214000D02*
G03*
X294000Y214000I-2000J0D01*
G01*
Y204000D02*
G03*
X294000Y204000I-2000J0D01*
G01*
X284000Y214000D02*
G03*
X284000Y214000I-2000J0D01*
G01*
Y204000D02*
G03*
X284000Y204000I-2000J0D01*
G01*
X274000Y214000D02*
G03*
X274000Y214000I-2000J0D01*
G01*
Y204000D02*
G03*
X274000Y204000I-2000J0D01*
G01*
X264000Y214000D02*
G03*
X264000Y214000I-2000J0D01*
G01*
Y204000D02*
G03*
X264000Y204000I-2000J0D01*
G01*
X254000Y214000D02*
G03*
X254000Y214000I-2000J0D01*
G01*
Y204000D02*
G03*
X254000Y204000I-2000J0D01*
G01*
X244000Y214000D02*
G03*
X244000Y214000I-2000J0D01*
G01*
Y204000D02*
G03*
X244000Y204000I-2000J0D01*
G01*
X234000Y214000D02*
G03*
X234000Y214000I-2000J0D01*
G01*
Y204000D02*
G03*
X234000Y204000I-2000J0D01*
G01*
X224000Y214000D02*
G03*
X224000Y214000I-2000J0D01*
G01*
Y204000D02*
G03*
X224000Y204000I-2000J0D01*
G01*
X438598Y267193D02*
G03*
X438598Y267193I-2000J0D01*
G01*
Y168807D02*
G03*
X438598Y168807I-2000J0D01*
G01*
D77*
X437798Y267193D02*
G03*
X437798Y267193I-1200J0D01*
G01*
Y168807D02*
G03*
X437798Y168807I-1200J0D01*
G01*
X224000Y162000D02*
X225000Y163000D01*
X226000D01*
X225000Y164000D01*
X226000Y165000D01*
X225000D01*
X224000Y166000D01*
X223000Y165000D01*
X222000D01*
X223000Y164000D01*
X222000Y163000D01*
X223000D01*
X224000Y162000D01*
X206300D02*
X207300Y163000D01*
X208300D01*
X207300Y164000D01*
X208300Y165000D01*
X207300D01*
X206300Y166000D01*
X205300Y165000D01*
X204300D01*
X205300Y164000D01*
X204300Y163000D01*
X205300D01*
X206300Y162000D01*
Y187600D02*
X207300Y188600D01*
X208300D01*
X207300Y189600D01*
X208300Y190600D01*
X207300D01*
X206300Y191600D01*
X205300Y190600D01*
X204300D01*
X205300Y189600D01*
X204300Y188600D01*
X205300D01*
X206300Y187600D01*
X224000D02*
X225000Y188600D01*
X226000D01*
X225000Y189600D01*
X226000Y190600D01*
X225000D01*
X224000Y191600D01*
X223000Y190600D01*
X222000D01*
X223000Y189600D01*
X222000Y188600D01*
X223000D01*
X224000Y187600D01*
X252000Y162000D02*
X253000Y163000D01*
X254000D01*
X253000Y164000D01*
X254000Y165000D01*
X253000D01*
X252000Y166000D01*
X251000Y165000D01*
X250000D01*
X251000Y164000D01*
X250000Y163000D01*
X251000D01*
X252000Y162000D01*
X234300D02*
X235300Y163000D01*
X236300D01*
X235300Y164000D01*
X236300Y165000D01*
X235300D01*
X234300Y166000D01*
X233300Y165000D01*
X232300D01*
X233300Y164000D01*
X232300Y163000D01*
X233300D01*
X234300Y162000D01*
Y187600D02*
X235300Y188600D01*
X236300D01*
X235300Y189600D01*
X236300Y190600D01*
X235300D01*
X234300Y191600D01*
X233300Y190600D01*
X232300D01*
X233300Y189600D01*
X232300Y188600D01*
X233300D01*
X234300Y187600D01*
X252000D02*
X253000Y188600D01*
X254000D01*
X253000Y189600D01*
X254000Y190600D01*
X253000D01*
X252000Y191600D01*
X251000Y190600D01*
X250000D01*
X251000Y189600D01*
X250000Y188600D01*
X251000D01*
X252000Y187600D01*
X280000Y162000D02*
X281000Y163000D01*
X282000D01*
X281000Y164000D01*
X282000Y165000D01*
X281000D01*
X280000Y166000D01*
X279000Y165000D01*
X278000D01*
X279000Y164000D01*
X278000Y163000D01*
X279000D01*
X280000Y162000D01*
X262300D02*
X263300Y163000D01*
X264300D01*
X263300Y164000D01*
X264300Y165000D01*
X263300D01*
X262300Y166000D01*
X261300Y165000D01*
X260300D01*
X261300Y164000D01*
X260300Y163000D01*
X261300D01*
X262300Y162000D01*
Y187600D02*
X263300Y188600D01*
X264300D01*
X263300Y189600D01*
X264300Y190600D01*
X263300D01*
X262300Y191600D01*
X261300Y190600D01*
X260300D01*
X261300Y189600D01*
X260300Y188600D01*
X261300D01*
X262300Y187600D01*
X280000D02*
X281000Y188600D01*
X282000D01*
X281000Y189600D01*
X282000Y190600D01*
X281000D01*
X280000Y191600D01*
X279000Y190600D01*
X278000D01*
X279000Y189600D01*
X278000Y188600D01*
X279000D01*
X280000Y187600D01*
X195500Y367000D02*
X193500Y371000D01*
X197500D01*
X195500Y367000D01*
X185500D02*
X183500Y371000D01*
X187500D01*
X185500Y367000D01*
X195500Y345000D02*
X193500Y349000D01*
X197500D01*
X195500Y345000D01*
X185500D02*
X183500Y349000D01*
X187500D01*
X185500Y345000D01*
X195500Y323000D02*
X193500Y327000D01*
X197500D01*
X195500Y323000D01*
X185500D02*
X183500Y327000D01*
X187500D01*
X185500Y323000D01*
X195500Y301000D02*
X193500Y305000D01*
X197500D01*
X195500Y301000D01*
X185500D02*
X183500Y305000D01*
X187500D01*
X185500Y301000D01*
X195500Y279000D02*
X193500Y283000D01*
X197500D01*
X195500Y279000D01*
X185500D02*
X183500Y283000D01*
X187500D01*
X185500Y279000D01*
X195500Y257000D02*
X193500Y261000D01*
X197500D01*
X195500Y257000D01*
X185500D02*
X183500Y261000D01*
X187500D01*
X185500Y257000D01*
X195500Y235000D02*
X193500Y239000D01*
X197500D01*
X195500Y235000D01*
X185500D02*
X183500Y239000D01*
X187500D01*
X185500Y235000D01*
X195500Y213000D02*
X193500Y217000D01*
X197500D01*
X195500Y213000D01*
X185500D02*
X183500Y217000D01*
X187500D01*
X185500Y213000D01*
X310000Y162000D02*
X311000Y163000D01*
X312000D01*
X311000Y164000D01*
X312000Y165000D01*
X311000D01*
X310000Y166000D01*
X309000Y165000D01*
X308000D01*
X309000Y164000D01*
X308000Y163000D01*
X309000D01*
X310000Y162000D01*
X292300D02*
X293300Y163000D01*
X294300D01*
X293300Y164000D01*
X294300Y165000D01*
X293300D01*
X292300Y166000D01*
X291300Y165000D01*
X290300D01*
X291300Y164000D01*
X290300Y163000D01*
X291300D01*
X292300Y162000D01*
Y187600D02*
X293300Y188600D01*
X294300D01*
X293300Y189600D01*
X294300Y190600D01*
X293300D01*
X292300Y191600D01*
X291300Y190600D01*
X290300D01*
X291300Y189600D01*
X290300Y188600D01*
X291300D01*
X292300Y187600D01*
X310000D02*
X311000Y188600D01*
X312000D01*
X311000Y189600D01*
X312000Y190600D01*
X311000D01*
X310000Y191600D01*
X309000Y190600D01*
X308000D01*
X309000Y189600D01*
X308000Y188600D01*
X309000D01*
X310000Y187600D01*
X332500Y296500D02*
X330500Y300500D01*
X334500D01*
X332500Y296500D01*
Y297300D02*
X331300Y299700D01*
X333700D01*
X332500Y297300D01*
X332000Y178500D02*
X330000Y182500D01*
X334000D01*
X332000Y178500D01*
Y179300D02*
X330800Y181700D01*
X333200D01*
X332000Y179300D01*
X385000Y292500D02*
X383000Y296500D01*
X387000D01*
X385000Y292500D01*
Y293300D02*
X383800Y295700D01*
X386200D01*
X385000Y293300D01*
X345000Y167000D02*
X343000Y171000D01*
X347000D01*
X345000Y167000D01*
Y167800D02*
X343800Y170200D01*
X346200D01*
X345000Y167800D01*
X250500Y278000D02*
X248500Y282000D01*
X252500D01*
X250500Y278000D01*
Y278800D02*
X249300Y281200D01*
X251700D01*
X250500Y278800D01*
X250000Y273500D02*
X248000Y277500D01*
X252000D01*
X250000Y273500D01*
Y274300D02*
X248800Y276700D01*
X251200D01*
X250000Y274300D01*
X249500Y269000D02*
X247500Y273000D01*
X251500D01*
X249500Y269000D01*
Y269800D02*
X248300Y272200D01*
X250700D01*
X249500Y269800D01*
X249000Y264500D02*
X247000Y268500D01*
X251000D01*
X249000Y264500D01*
Y265300D02*
X247800Y267700D01*
X250200D01*
X249000Y265300D01*
Y260000D02*
X247000Y264000D01*
X251000D01*
X249000Y260000D01*
Y260800D02*
X247800Y263200D01*
X250200D01*
X249000Y260800D01*
X255000Y256000D02*
X253000Y260000D01*
X257000D01*
X255000Y256000D01*
Y256800D02*
X253800Y259200D01*
X256200D01*
X255000Y256800D01*
X252000Y233500D02*
X250000Y237500D01*
X254000D01*
X252000Y233500D01*
Y234300D02*
X250800Y236700D01*
X253200D01*
X252000Y234300D01*
X345500Y281500D02*
X343500Y285500D01*
X347500D01*
X345500Y281500D01*
Y282300D02*
X344300Y284700D01*
X346700D01*
X345500Y282300D01*
X346000Y294000D02*
X344000Y298000D01*
X348000D01*
X346000Y294000D01*
Y294800D02*
X344800Y297200D01*
X347200D01*
X346000Y294800D01*
X252378Y284500D02*
X250378Y288500D01*
X254378D01*
X252378Y284500D01*
Y285300D02*
X251178Y287700D01*
X253578D01*
X252378Y285300D01*
X265500Y294500D02*
X263500Y298500D01*
X267500D01*
X265500Y294500D01*
Y295300D02*
X264300Y297700D01*
X266700D01*
X265500Y295300D01*
X338500Y293000D02*
X336500Y297000D01*
X340500D01*
X338500Y293000D01*
Y293800D02*
X337300Y296200D01*
X339700D01*
X338500Y293800D01*
X292000Y287000D02*
X290000Y291000D01*
X294000D01*
X292000Y287000D01*
Y287800D02*
X290800Y290200D01*
X293200D01*
X292000Y287800D01*
X301500Y303500D02*
X299500Y307500D01*
X303500D01*
X301500Y303500D01*
Y304300D02*
X300300Y306700D01*
X302700D01*
X301500Y304300D01*
X314000Y282500D02*
X312000Y286500D01*
X316000D01*
X314000Y282500D01*
Y283300D02*
X312800Y285700D01*
X315200D01*
X314000Y283300D01*
X357500Y307000D02*
X355500Y311000D01*
X359500D01*
X357500Y307000D01*
Y307800D02*
X356300Y310200D01*
X358700D01*
X357500Y307800D01*
X434000Y330000D02*
X432000Y334000D01*
X436000D01*
X434000Y330000D01*
Y330800D02*
X432800Y333200D01*
X435200D01*
X434000Y330800D01*
X392500Y292500D02*
X390500Y296500D01*
X394500D01*
X392500Y292500D01*
Y293300D02*
X391300Y295700D01*
X393700D01*
X392500Y293300D01*
X369500Y279000D02*
X367500Y283000D01*
X371500D01*
X369500Y279000D01*
Y279800D02*
X368300Y282200D01*
X370700D01*
X369500Y279800D01*
X283500Y291500D02*
X281500Y295500D01*
X285500D01*
X283500Y291500D01*
Y292300D02*
X282300Y294700D01*
X284700D01*
X283500Y292300D01*
M02*
