%FSLAX25Y25*%
%MOIN*%
G70*
G01*
G75*
G04 Layer_Color=0*
%ADD10C,0.01000*%
%ADD11C,0.03000*%
%ADD12C,0.02000*%
%ADD13C,0.00800*%
%ADD14R,0.00984X0.09843*%
%ADD15R,0.09843X0.00984*%
%ADD16R,0.05315X0.05118*%
%ADD17R,0.05118X0.05315*%
%ADD18R,0.20000X0.02000*%
%ADD19O,0.20000X0.02000*%
%ADD20R,0.13780X0.08465*%
%ADD21R,0.04331X0.08465*%
%ADD22R,0.04331X0.08465*%
%ADD23C,0.11811*%
%ADD24C,0.05906*%
%ADD25R,0.05906X0.05906*%
%ADD26C,0.06200*%
%ADD27C,0.08000*%
%ADD28O,0.07874X0.03937*%
%ADD29O,0.07874X0.03937*%
%ADD30C,0.03937*%
%ADD31C,0.03000*%
%ADD32C,0.06500*%
%ADD33C,0.15000*%
%ADD34C,0.05500*%
%ADD35C,0.05906*%
%ADD36R,0.05906X0.05906*%
%ADD37R,0.05906X0.05906*%
%ADD38C,0.06654*%
%ADD39R,0.06654X0.06654*%
%ADD40C,0.18740*%
%ADD41C,0.00787*%
%ADD42C,0.00984*%
%ADD43C,0.00500*%
%ADD44C,0.00600*%
%ADD45C,0.01200*%
%ADD46C,0.00591*%
%ADD47R,0.04520X0.01680*%
%ADD48R,0.01680X0.04520*%
%ADD49R,0.01784X0.10642*%
%ADD50R,0.10642X0.01784*%
%ADD51R,0.06115X0.05918*%
%ADD52R,0.05918X0.06115*%
%ADD53R,0.20800X0.02800*%
%ADD54O,0.20800X0.02800*%
%ADD55R,0.14579X0.09265*%
%ADD56R,0.05131X0.09265*%
%ADD57R,0.05131X0.09265*%
%ADD58C,0.12611*%
%ADD59C,0.06706*%
%ADD60R,0.06706X0.06706*%
%ADD61C,0.07000*%
%ADD62C,0.08800*%
%ADD63O,0.08674X0.04737*%
%ADD64O,0.08674X0.04737*%
%ADD65C,0.04737*%
%ADD66C,0.03800*%
%ADD67C,0.07300*%
%ADD68C,0.15800*%
%ADD69C,0.06300*%
%ADD70C,0.06706*%
%ADD71R,0.06706X0.06706*%
%ADD72R,0.06706X0.06706*%
%ADD73C,0.07453*%
%ADD74R,0.07453X0.07453*%
%ADD75C,0.19540*%
D14*
X312657Y266657D02*
D03*
X310689D02*
D03*
X308720D02*
D03*
X306752D02*
D03*
X304784D02*
D03*
X302815D02*
D03*
X300847D02*
D03*
X298878D02*
D03*
X296909D02*
D03*
X294941D02*
D03*
X292972D02*
D03*
X291004D02*
D03*
X289036D02*
D03*
X287067D02*
D03*
X285099D02*
D03*
X283130D02*
D03*
Y315870D02*
D03*
X285099D02*
D03*
X287067D02*
D03*
X289036D02*
D03*
X291004D02*
D03*
X292972D02*
D03*
X294941D02*
D03*
X296909D02*
D03*
X298878D02*
D03*
X300847D02*
D03*
X302815D02*
D03*
X304784D02*
D03*
X306752D02*
D03*
X308720D02*
D03*
X310689D02*
D03*
X312657D02*
D03*
D15*
X273288Y276500D02*
D03*
Y278468D02*
D03*
Y280437D02*
D03*
Y282405D02*
D03*
Y284374D02*
D03*
Y286343D02*
D03*
Y288311D02*
D03*
Y290280D02*
D03*
Y292248D02*
D03*
Y294216D02*
D03*
Y296185D02*
D03*
Y298153D02*
D03*
Y300122D02*
D03*
Y302091D02*
D03*
Y304059D02*
D03*
Y306028D02*
D03*
X322500D02*
D03*
Y304059D02*
D03*
Y302091D02*
D03*
Y300122D02*
D03*
Y298153D02*
D03*
Y296185D02*
D03*
Y294216D02*
D03*
Y292248D02*
D03*
Y290280D02*
D03*
Y288311D02*
D03*
Y286343D02*
D03*
Y284374D02*
D03*
Y282405D02*
D03*
Y280437D02*
D03*
Y278468D02*
D03*
Y276500D02*
D03*
D16*
X407839Y208000D02*
D03*
X400161D02*
D03*
X357161Y169000D02*
D03*
X364839D02*
D03*
X337161D02*
D03*
X344839D02*
D03*
X383839Y334000D02*
D03*
X376161D02*
D03*
D17*
X409000Y189161D02*
D03*
Y196839D02*
D03*
Y169161D02*
D03*
Y176839D02*
D03*
X358000Y316161D02*
D03*
Y323839D02*
D03*
X340000D02*
D03*
Y316161D02*
D03*
D18*
X379000Y179000D02*
D03*
D19*
Y184000D02*
D03*
Y189000D02*
D03*
Y194000D02*
D03*
Y199000D02*
D03*
Y204000D02*
D03*
Y209000D02*
D03*
Y214000D02*
D03*
X348000Y179000D02*
D03*
Y184000D02*
D03*
Y189000D02*
D03*
Y194000D02*
D03*
Y199000D02*
D03*
Y204000D02*
D03*
Y209000D02*
D03*
Y214000D02*
D03*
D20*
X385000Y280295D02*
D03*
D21*
X375945Y304705D02*
D03*
X394055D02*
D03*
D22*
X385000D02*
D03*
D23*
X228500Y375000D02*
D03*
X463000Y374500D02*
D03*
X183000Y169500D02*
D03*
D24*
X349500Y262500D02*
D03*
Y252500D02*
D03*
Y242500D02*
D03*
Y232500D02*
D03*
X379500Y262500D02*
D03*
Y252500D02*
D03*
Y242500D02*
D03*
D25*
Y232500D02*
D03*
D26*
X417000Y347500D02*
D03*
Y337500D02*
D03*
X463000D02*
D03*
Y347500D02*
D03*
X195500Y369000D02*
D03*
X185500D02*
D03*
X195500Y347000D02*
D03*
X185500D02*
D03*
X195500Y325000D02*
D03*
X185500D02*
D03*
X195500Y303000D02*
D03*
X185500D02*
D03*
X195500Y281000D02*
D03*
X185500D02*
D03*
X195500Y259000D02*
D03*
X185500D02*
D03*
X195500Y237000D02*
D03*
X185500D02*
D03*
X195500Y215000D02*
D03*
X185500D02*
D03*
D27*
X465600Y296000D02*
D03*
Y313700D02*
D03*
X440000D02*
D03*
Y296000D02*
D03*
X224000Y164000D02*
D03*
X206300D02*
D03*
Y189600D02*
D03*
X224000D02*
D03*
X252000Y164000D02*
D03*
X234300D02*
D03*
Y189600D02*
D03*
X252000D02*
D03*
X280000Y164000D02*
D03*
X262300D02*
D03*
Y189600D02*
D03*
X280000D02*
D03*
X310000Y164000D02*
D03*
X292300D02*
D03*
Y189600D02*
D03*
X310000D02*
D03*
D28*
X350000Y337000D02*
D03*
Y347000D02*
D03*
D29*
Y342000D02*
D03*
D30*
X298500Y244500D02*
D03*
X318500D02*
D03*
D31*
X314000Y330000D02*
D03*
X310000Y336000D02*
D03*
D32*
X295500Y363000D02*
D03*
X323060D02*
D03*
X313200D02*
D03*
X305350D02*
D03*
D33*
X283400Y373700D02*
D03*
X335200D02*
D03*
D34*
X246000Y290000D02*
D03*
D35*
X236000D02*
D03*
X246000Y300000D02*
D03*
X236000D02*
D03*
X246000Y310000D02*
D03*
X236000D02*
D03*
X246000Y320000D02*
D03*
X236000D02*
D03*
X246000Y330000D02*
D03*
X236000D02*
D03*
X246000Y340000D02*
D03*
X236000D02*
D03*
X246000Y350000D02*
D03*
X236000D02*
D03*
X246000Y360000D02*
D03*
X292000Y214000D02*
D03*
Y204000D02*
D03*
X282000Y214000D02*
D03*
Y204000D02*
D03*
X272000Y214000D02*
D03*
Y204000D02*
D03*
X262000Y214000D02*
D03*
Y204000D02*
D03*
X252000Y214000D02*
D03*
Y204000D02*
D03*
X242000Y214000D02*
D03*
Y204000D02*
D03*
X232000Y214000D02*
D03*
Y204000D02*
D03*
X222000Y214000D02*
D03*
D36*
X236000Y360000D02*
D03*
D37*
X222000Y204000D02*
D03*
D38*
X431008Y196189D02*
D03*
X442189Y201642D02*
D03*
X431008Y207095D02*
D03*
X442189Y212547D02*
D03*
X431008Y218000D02*
D03*
X442189Y223453D02*
D03*
X431008Y228906D02*
D03*
X442189Y234358D02*
D03*
D39*
X431008Y239811D02*
D03*
D40*
X436598Y267193D02*
D03*
Y168807D02*
D03*
M02*
