%FSLAX25Y25*%
%MOIN*%
G70*
G01*
G75*
%ADD10C,0.01000*%
%ADD11C,0.03000*%
%ADD12C,0.02000*%
%ADD13C,0.00800*%
%ADD14R,0.00984X0.09843*%
%ADD15R,0.09843X0.00984*%
%ADD16R,0.05315X0.05118*%
%ADD17R,0.05118X0.05315*%
%ADD18R,0.20000X0.02000*%
%ADD19O,0.20000X0.02000*%
%ADD20R,0.13780X0.08465*%
%ADD21R,0.04331X0.08465*%
%ADD22R,0.04331X0.08465*%
%ADD23C,0.11811*%
%ADD24C,0.05906*%
%ADD25R,0.05906X0.05906*%
%ADD26C,0.06200*%
%ADD27C,0.08000*%
%ADD28O,0.07874X0.03937*%
%ADD29O,0.07874X0.03937*%
%ADD30C,0.03937*%
%ADD31C,0.03000*%
%ADD32C,0.06500*%
%ADD33C,0.15000*%
%ADD34C,0.05500*%
%ADD35C,0.05906*%
%ADD36R,0.05906X0.05906*%
%ADD37R,0.05906X0.05906*%
%ADD38C,0.06654*%
%ADD39R,0.06654X0.06654*%
%ADD40C,0.18740*%
%ADD41C,0.00787*%
%ADD42C,0.00984*%
%ADD43C,0.00500*%
%ADD44C,0.00600*%
%ADD45C,0.01200*%
%ADD46C,0.00591*%
%ADD47R,0.04520X0.01680*%
%ADD48R,0.01680X0.04520*%
%ADD49R,0.01784X0.10642*%
%ADD50R,0.10642X0.01784*%
%ADD51R,0.06115X0.05918*%
%ADD52R,0.05918X0.06115*%
%ADD53R,0.20800X0.02800*%
%ADD54O,0.20800X0.02800*%
%ADD55R,0.14579X0.09265*%
%ADD56R,0.05131X0.09265*%
%ADD57R,0.05131X0.09265*%
%ADD58C,0.12611*%
%ADD59C,0.06706*%
%ADD60R,0.06706X0.06706*%
%ADD61C,0.07000*%
%ADD62C,0.08800*%
%ADD63O,0.08674X0.04737*%
%ADD64O,0.08674X0.04737*%
%ADD65C,0.04737*%
%ADD66C,0.03800*%
%ADD67C,0.07300*%
%ADD68C,0.15800*%
%ADD69C,0.06300*%
%ADD70C,0.06706*%
%ADD71R,0.06706X0.06706*%
%ADD72R,0.06706X0.06706*%
%ADD73C,0.07453*%
%ADD74R,0.07453X0.07453*%
%ADD75C,0.19540*%
%ADD76C,0.00667*%
%ADD77C,0.00400*%
D77*
X222594Y375000D02*
X234405D01*
X228500Y369094D02*
Y380906D01*
X457094Y374500D02*
X468905D01*
X463000Y368595D02*
Y380405D01*
X177094Y169500D02*
X188906D01*
X183000Y163594D02*
Y175406D01*
X347728Y262500D02*
X351272D01*
X349500Y260728D02*
Y264272D01*
X347728Y252500D02*
X351272D01*
X349500Y250728D02*
Y254272D01*
X347728Y242500D02*
X351272D01*
X349500Y240728D02*
Y244272D01*
X347728Y232500D02*
X351272D01*
X349500Y230728D02*
Y234272D01*
X377728Y262500D02*
X381272D01*
X379500Y260728D02*
Y264272D01*
X377728Y252500D02*
X381272D01*
X379500Y250728D02*
Y254272D01*
X377728Y242500D02*
X381272D01*
X379500Y240728D02*
Y244272D01*
X377728Y232500D02*
X381272D01*
X379500Y230728D02*
Y234272D01*
X415600Y347500D02*
X418400D01*
X417000Y346100D02*
Y348900D01*
X415600Y337500D02*
X418400D01*
X417000Y336100D02*
Y338900D01*
X463600Y296000D02*
X467600D01*
X465600Y294000D02*
Y298000D01*
X463600Y313700D02*
X467600D01*
X465600Y311700D02*
Y315700D01*
X438000Y313700D02*
X442000D01*
X440000Y311700D02*
Y315700D01*
X438000Y296000D02*
X442000D01*
X440000Y294000D02*
Y298000D01*
X348228Y337000D02*
X351772D01*
X350000Y335228D02*
Y338772D01*
X348228Y342000D02*
X351772D01*
X350000Y340228D02*
Y343772D01*
X348228Y347000D02*
X351772D01*
X350000Y345228D02*
Y348772D01*
X297319Y244500D02*
X299681D01*
X298500Y243319D02*
Y245681D01*
X317319Y244500D02*
X319681D01*
X318500Y243319D02*
Y245681D01*
X313000Y330000D02*
X315000D01*
X314000Y329000D02*
Y331000D01*
X309000Y336000D02*
X311000D01*
X310000Y335000D02*
Y337000D01*
X293650Y363000D02*
X297350D01*
X295500Y361150D02*
Y364850D01*
X278750Y373700D02*
X288050D01*
X283400Y369050D02*
Y378350D01*
X330550Y373700D02*
X339850D01*
X335200Y369050D02*
Y378350D01*
X321210Y363000D02*
X324910D01*
X323060Y361150D02*
Y364850D01*
X311350Y363000D02*
X315050D01*
X313200Y361150D02*
Y364850D01*
X303500Y363000D02*
X307200D01*
X305350Y361150D02*
Y364850D01*
X461600Y337500D02*
X464400D01*
X463000Y336100D02*
Y338900D01*
X461600Y347500D02*
X464400D01*
X463000Y346100D02*
Y348900D01*
X244228Y290000D02*
X247772D01*
X246000Y288228D02*
Y291772D01*
X234228Y290000D02*
X237772D01*
X236000Y288228D02*
Y291772D01*
X244228Y300000D02*
X247772D01*
X246000Y298228D02*
Y301772D01*
X234228Y300000D02*
X237772D01*
X236000Y298228D02*
Y301772D01*
X244228Y310000D02*
X247772D01*
X246000Y308228D02*
Y311772D01*
X234228Y310000D02*
X237772D01*
X236000Y308228D02*
Y311772D01*
X244228Y320000D02*
X247772D01*
X246000Y318228D02*
Y321772D01*
X234228Y320000D02*
X237772D01*
X236000Y318228D02*
Y321772D01*
X244228Y330000D02*
X247772D01*
X246000Y328228D02*
Y331772D01*
X234228Y330000D02*
X237772D01*
X236000Y328228D02*
Y331772D01*
X244228Y340000D02*
X247772D01*
X246000Y338228D02*
Y341772D01*
X234228Y340000D02*
X237772D01*
X236000Y338228D02*
Y341772D01*
X244228Y350000D02*
X247772D01*
X246000Y348228D02*
Y351772D01*
X234228Y350000D02*
X237772D01*
X236000Y348228D02*
Y351772D01*
X244228Y360000D02*
X247772D01*
X246000Y358228D02*
Y361772D01*
X234228Y360000D02*
X237772D01*
X236000Y358228D02*
Y361772D01*
X290228Y214000D02*
X293772D01*
X292000Y212228D02*
Y215772D01*
X290228Y204000D02*
X293772D01*
X292000Y202228D02*
Y205772D01*
X280228Y214000D02*
X283772D01*
X282000Y212228D02*
Y215772D01*
X280228Y204000D02*
X283772D01*
X282000Y202228D02*
Y205772D01*
X270228Y214000D02*
X273772D01*
X272000Y212228D02*
Y215772D01*
X270228Y204000D02*
X273772D01*
X272000Y202228D02*
Y205772D01*
X260228Y214000D02*
X263772D01*
X262000Y212228D02*
Y215772D01*
X260228Y204000D02*
X263772D01*
X262000Y202228D02*
Y205772D01*
X250228Y214000D02*
X253772D01*
X252000Y212228D02*
Y215772D01*
X250228Y204000D02*
X253772D01*
X252000Y202228D02*
Y205772D01*
X240228Y214000D02*
X243772D01*
X242000Y212228D02*
Y215772D01*
X240228Y204000D02*
X243772D01*
X242000Y202228D02*
Y205772D01*
X230228Y214000D02*
X233772D01*
X232000Y212228D02*
Y215772D01*
X230228Y204000D02*
X233772D01*
X232000Y202228D02*
Y205772D01*
X220228Y214000D02*
X223772D01*
X222000Y212228D02*
Y215772D01*
X220228Y204000D02*
X223772D01*
X222000Y202228D02*
Y205772D01*
X428862Y196189D02*
X433153D01*
X431008Y194043D02*
Y198335D01*
X440043Y201642D02*
X444335D01*
X442189Y199496D02*
Y203787D01*
X428862Y207095D02*
X433153D01*
X431008Y204949D02*
Y209240D01*
X440043Y212547D02*
X444335D01*
X442189Y210402D02*
Y214693D01*
X428862Y218000D02*
X433153D01*
X431008Y215854D02*
Y220146D01*
X440043Y223453D02*
X444335D01*
X442189Y221307D02*
Y225598D01*
X428862Y228906D02*
X433153D01*
X431008Y226760D02*
Y231051D01*
X440043Y234358D02*
X444335D01*
X442189Y232213D02*
Y236504D01*
X428862Y239811D02*
X433153D01*
X431008Y237665D02*
Y241957D01*
X430181Y267193D02*
X443016D01*
X436598Y260776D02*
Y273610D01*
X430181Y168807D02*
X443016D01*
X436598Y162390D02*
Y175224D01*
X222000Y164000D02*
X226000D01*
X224000Y162000D02*
Y166000D01*
X204300Y164000D02*
X208300D01*
X206300Y162000D02*
Y166000D01*
X204300Y189600D02*
X208300D01*
X206300Y187600D02*
Y191600D01*
X222000Y189600D02*
X226000D01*
X224000Y187600D02*
Y191600D01*
X250000Y164000D02*
X254000D01*
X252000Y162000D02*
Y166000D01*
X232300Y164000D02*
X236300D01*
X234300Y162000D02*
Y166000D01*
X232300Y189600D02*
X236300D01*
X234300Y187600D02*
Y191600D01*
X250000Y189600D02*
X254000D01*
X252000Y187600D02*
Y191600D01*
X278000Y164000D02*
X282000D01*
X280000Y162000D02*
Y166000D01*
X260300Y164000D02*
X264300D01*
X262300Y162000D02*
Y166000D01*
X260300Y189600D02*
X264300D01*
X262300Y187600D02*
Y191600D01*
X278000Y189600D02*
X282000D01*
X280000Y187600D02*
Y191600D01*
X194100Y369000D02*
X196900D01*
X195500Y367600D02*
Y370400D01*
X184100Y369000D02*
X186900D01*
X185500Y367600D02*
Y370400D01*
X194100Y347000D02*
X196900D01*
X195500Y345600D02*
Y348400D01*
X184100Y347000D02*
X186900D01*
X185500Y345600D02*
Y348400D01*
X194100Y325000D02*
X196900D01*
X195500Y323600D02*
Y326400D01*
X184100Y325000D02*
X186900D01*
X185500Y323600D02*
Y326400D01*
X194100Y303000D02*
X196900D01*
X195500Y301600D02*
Y304400D01*
X184100Y303000D02*
X186900D01*
X185500Y301600D02*
Y304400D01*
X194100Y281000D02*
X196900D01*
X195500Y279600D02*
Y282400D01*
X184100Y281000D02*
X186900D01*
X185500Y279600D02*
Y282400D01*
X194100Y259000D02*
X196900D01*
X195500Y257600D02*
Y260400D01*
X184100Y259000D02*
X186900D01*
X185500Y257600D02*
Y260400D01*
X194100Y237000D02*
X196900D01*
X195500Y235600D02*
Y238400D01*
X184100Y237000D02*
X186900D01*
X185500Y235600D02*
Y238400D01*
X194100Y215000D02*
X196900D01*
X195500Y213600D02*
Y216400D01*
X184100Y215000D02*
X186900D01*
X185500Y213600D02*
Y216400D01*
X308000Y164000D02*
X312000D01*
X310000Y162000D02*
Y166000D01*
X290300Y164000D02*
X294300D01*
X292300Y162000D02*
Y166000D01*
X290300Y189600D02*
X294300D01*
X292300Y187600D02*
Y191600D01*
X308000Y189600D02*
X312000D01*
X310000Y187600D02*
Y191600D01*
X331600Y298500D02*
X333400D01*
X332500Y297600D02*
Y299400D01*
X331100Y180500D02*
X332900D01*
X332000Y179600D02*
Y181400D01*
X384100Y294500D02*
X385900D01*
X385000Y293600D02*
Y295400D01*
X344100Y169000D02*
X345900D01*
X345000Y168100D02*
Y169900D01*
X249600Y280000D02*
X251400D01*
X250500Y279100D02*
Y280900D01*
X249100Y275500D02*
X250900D01*
X250000Y274600D02*
Y276400D01*
X248600Y271000D02*
X250400D01*
X249500Y270100D02*
Y271900D01*
X248100Y266500D02*
X249900D01*
X249000Y265600D02*
Y267400D01*
X248100Y262000D02*
X249900D01*
X249000Y261100D02*
Y262900D01*
X254100Y258000D02*
X255900D01*
X255000Y257100D02*
Y258900D01*
X251100Y235500D02*
X252900D01*
X252000Y234600D02*
Y236400D01*
X344600Y283500D02*
X346400D01*
X345500Y282600D02*
Y284400D01*
X345100Y296000D02*
X346900D01*
X346000Y295100D02*
Y296900D01*
X251478Y286500D02*
X253278D01*
X252378Y285600D02*
Y287400D01*
X264600Y296500D02*
X266400D01*
X265500Y295600D02*
Y297400D01*
X337600Y295000D02*
X339400D01*
X338500Y294100D02*
Y295900D01*
X291100Y289000D02*
X292900D01*
X292000Y288100D02*
Y289900D01*
X300600Y305500D02*
X302400D01*
X301500Y304600D02*
Y306400D01*
X313100Y284500D02*
X314900D01*
X314000Y283600D02*
Y285400D01*
X356600Y309000D02*
X358400D01*
X357500Y308100D02*
Y309900D01*
X433100Y332000D02*
X434900D01*
X434000Y331100D02*
Y332900D01*
X391600Y294500D02*
X393400D01*
X392500Y293600D02*
Y295400D01*
X368600Y281000D02*
X370400D01*
X369500Y280100D02*
Y281900D01*
X282600Y293500D02*
X284400D01*
X283500Y292600D02*
Y294400D01*
M02*
