%FSLAX25Y25*%
%MOIN*%
G70*
G01*
G75*
G04 Layer_Physical_Order=2*
G04 Layer_Color=16711680*
%ADD10C,0.01000*%
%ADD11C,0.03000*%
%ADD12C,0.02000*%
%ADD13C,0.00800*%
%ADD14R,0.00984X0.09843*%
%ADD15R,0.09843X0.00984*%
%ADD16R,0.05315X0.05118*%
%ADD17R,0.05118X0.05315*%
%ADD18R,0.20000X0.02000*%
%ADD19O,0.20000X0.02000*%
%ADD20R,0.13780X0.08465*%
%ADD21R,0.04331X0.08465*%
%ADD22R,0.04331X0.08465*%
%ADD23C,0.11811*%
%ADD24C,0.05906*%
%ADD25R,0.05906X0.05906*%
%ADD26C,0.06200*%
%ADD27C,0.08000*%
%ADD28O,0.07874X0.03937*%
%ADD29O,0.07874X0.03937*%
%ADD30C,0.03937*%
%ADD31C,0.03000*%
%ADD32C,0.06500*%
%ADD33C,0.15000*%
%ADD34C,0.05500*%
%ADD35C,0.05906*%
%ADD36R,0.05906X0.05906*%
%ADD37R,0.05906X0.05906*%
%ADD38C,0.06654*%
%ADD39R,0.06654X0.06654*%
%ADD40C,0.18740*%
D10*
X251293Y234793D02*
G03*
X249586Y235500I-1707J-1707D01*
G01*
D02*
G03*
X251293Y236207I0J2414D01*
G01*
X254293Y257293D02*
G03*
X252586Y258000I-1707J-1707D01*
G01*
D02*
G03*
X254293Y258707I0J2414D01*
G01*
X248293Y261293D02*
G03*
X246586Y262000I-1707J-1707D01*
G01*
D02*
G03*
X248293Y262707I0J2414D01*
G01*
Y265793D02*
G03*
X246586Y266500I-1707J-1707D01*
G01*
D02*
G03*
X248293Y267207I0J2414D01*
G01*
X248793Y270293D02*
G03*
X245879Y271500I-2914J-2914D01*
G01*
X249293Y274793D02*
G03*
X247586Y275500I-1707J-1707D01*
G01*
D02*
G03*
X249293Y276207I0J2414D01*
G01*
X249793Y279293D02*
G03*
X248086Y280000I-1707J-1707D01*
G01*
D02*
G03*
X249793Y280707I0J2414D01*
G01*
X307500Y189600D02*
G03*
X305732Y193868I-6036J0D01*
G01*
X306500Y189600D02*
G03*
X304025Y195575I-8450J0D01*
G01*
X305732Y193868D02*
G03*
X310000Y192100I4268J4268D01*
G01*
X304025Y195575D02*
G03*
X310000Y193100I5975J5975D01*
G01*
X252000Y192100D02*
G03*
X256268Y193868I0J6036D01*
G01*
X252000Y193100D02*
G03*
X257975Y195575I0J8450D01*
G01*
X256268Y193868D02*
G03*
X254500Y189600I4268J-4268D01*
G01*
X257975Y195575D02*
G03*
X255500Y189600I5975J-5975D01*
G01*
X252000Y212547D02*
G03*
X249520Y211520I0J-3507D01*
G01*
X252000Y211547D02*
G03*
X247813Y209813I0J-5922D01*
G01*
X249520Y211520D02*
G03*
X250547Y214000I-2480J2480D01*
G01*
X247813Y209813D02*
G03*
X249547Y214000I-4187J4187D01*
G01*
X272000Y212547D02*
G03*
X269520Y211520I0J-3507D01*
G01*
X272000Y211547D02*
G03*
X267813Y209813I0J-5922D01*
G01*
X269520Y211520D02*
G03*
X270547Y214000I-2480J2480D01*
G01*
X267813Y209813D02*
G03*
X269547Y214000I-4187J4187D01*
G01*
X283453D02*
G03*
X284480Y211520I3507J0D01*
G01*
X284453Y214000D02*
G03*
X286187Y209813I5922J0D01*
G01*
X284480Y211520D02*
G03*
X282000Y212547I-2480J-2480D01*
G01*
X286187Y209813D02*
G03*
X282000Y211547I-4187J-4187D01*
G01*
X212996Y370000D02*
G03*
X213815Y368024I2795J0D01*
G01*
X213996Y370000D02*
G03*
X215522Y366317I5209J0D01*
G01*
X215284Y366555D02*
G03*
X211937Y367941I-3347J-3347D01*
G01*
X212996Y348000D02*
G03*
X213815Y346024I2795J0D01*
G01*
X213996Y348000D02*
G03*
X215522Y344317I5209J0D01*
G01*
X215284Y344555D02*
G03*
X211937Y345941I-3347J-3347D01*
G01*
X212996Y324000D02*
G03*
X213815Y322024I2795J0D01*
G01*
X213996Y324000D02*
G03*
X215522Y320317I5209J0D01*
G01*
X215284Y320555D02*
G03*
X211937Y321941I-3347J-3347D01*
G01*
X212996Y304000D02*
G03*
X213815Y302024I2795J0D01*
G01*
X213996Y304000D02*
G03*
X215522Y300317I5209J0D01*
G01*
X215284Y300555D02*
G03*
X211937Y301941I-3347J-3347D01*
G01*
X212996Y280000D02*
G03*
X213815Y278024I2795J0D01*
G01*
X213996Y280000D02*
G03*
X215522Y276317I5209J0D01*
G01*
X215284Y276555D02*
G03*
X211937Y277941I-3347J-3347D01*
G01*
X213393Y259456D02*
G03*
X216908Y258000I3515J3515D01*
G01*
D02*
G03*
X213393Y256544I0J-4971D01*
G01*
X212686Y236749D02*
G03*
X215701Y235500I3015J3015D01*
G01*
X213393Y237456D02*
G03*
X218115Y235500I4722J4722D01*
G01*
X215701D02*
G03*
X213393Y234544I0J-3264D01*
G01*
X212996Y214000D02*
G03*
X213815Y212024I2795J0D01*
G01*
X213996Y214000D02*
G03*
X215522Y210317I5209J0D01*
G01*
X215284Y210555D02*
G03*
X211937Y211941I-3347J-3347D01*
G01*
X307500Y189600D02*
G03*
X305732Y193868I-6036J0D01*
G01*
X306500Y189600D02*
G03*
X304025Y195575I-8450J0D01*
G01*
X305732Y193868D02*
G03*
X310000Y192100I4268J4268D01*
G01*
X304025Y195575D02*
G03*
X310000Y193100I5975J5975D01*
G01*
X252000Y192100D02*
G03*
X256268Y193868I0J6036D01*
G01*
X252000Y193100D02*
G03*
X257975Y195575I0J8450D01*
G01*
X256268Y193868D02*
G03*
X254500Y189600I4268J-4268D01*
G01*
X257975Y195575D02*
G03*
X255500Y189600I5975J-5975D01*
G01*
X272000Y212547D02*
G03*
X269520Y211520I0J-3507D01*
G01*
X272000Y211547D02*
G03*
X267813Y209813I0J-5922D01*
G01*
X269520Y211520D02*
G03*
X270547Y214000I-2480J2480D01*
G01*
X267813Y209813D02*
G03*
X269547Y214000I-4187J4187D01*
G01*
X283453D02*
G03*
X284480Y211520I3507J0D01*
G01*
X284453Y214000D02*
G03*
X286187Y209813I5922J0D01*
G01*
X284480Y211520D02*
G03*
X282000Y212547I-2480J-2480D01*
G01*
X286187Y209813D02*
G03*
X282000Y211547I-4187J-4187D01*
G01*
X215284Y366555D02*
G03*
X211937Y367941I-3347J-3347D01*
G01*
X213996Y370000D02*
G03*
X215522Y366317I5209J0D01*
G01*
X212996Y370000D02*
G03*
X213815Y368024I2795J0D01*
G01*
X215284Y344555D02*
G03*
X211937Y345941I-3347J-3347D01*
G01*
X213996Y348000D02*
G03*
X215522Y344317I5209J0D01*
G01*
X212996Y348000D02*
G03*
X213815Y346024I2795J0D01*
G01*
X215284Y320555D02*
G03*
X211937Y321941I-3347J-3347D01*
G01*
X213996Y324000D02*
G03*
X215522Y320317I5209J0D01*
G01*
X212996Y324000D02*
G03*
X213815Y322024I2795J0D01*
G01*
X215284Y300555D02*
G03*
X211937Y301941I-3347J-3347D01*
G01*
X213996Y304000D02*
G03*
X215522Y300317I5209J0D01*
G01*
X212996Y304000D02*
G03*
X213815Y302024I2795J0D01*
G01*
X215284Y276555D02*
G03*
X211937Y277941I-3347J-3347D01*
G01*
X213996Y280000D02*
G03*
X215522Y276317I5209J0D01*
G01*
X212996Y280000D02*
G03*
X213815Y278024I2795J0D01*
G01*
X216908Y258000D02*
G03*
X213393Y256544I0J-4971D01*
G01*
Y259456D02*
G03*
X216908Y258000I3515J3515D01*
G01*
X215701Y235500D02*
G03*
X213393Y234544I0J-3264D01*
G01*
Y237456D02*
G03*
X218115Y235500I4722J4722D01*
G01*
X212686Y236749D02*
G03*
X215701Y235500I3015J3015D01*
G01*
X215284Y210555D02*
G03*
X211937Y211941I-3347J-3347D01*
G01*
X213996Y214000D02*
G03*
X215522Y210317I5209J0D01*
G01*
X212996Y214000D02*
G03*
X213815Y212024I2795J0D01*
G01*
X452000Y297092D02*
G03*
X450544Y300607I-4971J0D01*
G01*
X453456D02*
G03*
X452000Y297092I3515J-3515D01*
G01*
X304025Y195575D02*
G03*
X310000Y193100I5975J5975D01*
G01*
X305732Y193868D02*
G03*
X310000Y192100I4268J4268D01*
G01*
X306500Y189600D02*
G03*
X304025Y195575I-8450J0D01*
G01*
X307500Y189600D02*
G03*
X305732Y193868I-6036J0D01*
G01*
X257975Y195575D02*
G03*
X255500Y189600I5975J-5975D01*
G01*
X256268Y193868D02*
G03*
X254500Y189600I4268J-4268D01*
G01*
X252000Y193100D02*
G03*
X257975Y195575I0J8450D01*
G01*
X252000Y192100D02*
G03*
X256268Y193868I0J6036D01*
G01*
X247813Y209813D02*
G03*
X249547Y214000I-4187J4187D01*
G01*
X249520Y211520D02*
G03*
X250547Y214000I-2480J2480D01*
G01*
X252000Y211547D02*
G03*
X247813Y209813I0J-5922D01*
G01*
X252000Y212547D02*
G03*
X249520Y211520I0J-3507D01*
G01*
X267813Y209813D02*
G03*
X269547Y214000I-4187J4187D01*
G01*
X269520Y211520D02*
G03*
X270547Y214000I-2480J2480D01*
G01*
X272000Y211547D02*
G03*
X267813Y209813I0J-5922D01*
G01*
X272000Y212547D02*
G03*
X269520Y211520I0J-3507D01*
G01*
X286187Y209813D02*
G03*
X282000Y211547I-4187J-4187D01*
G01*
X284480Y211520D02*
G03*
X282000Y212547I-2480J-2480D01*
G01*
X284453Y214000D02*
G03*
X286187Y209813I5922J0D01*
G01*
X283453Y214000D02*
G03*
X284480Y211520I3507J0D01*
G01*
X413000Y333500D02*
G03*
X414408Y337302I-3432J3432D01*
G01*
X414539Y335039D02*
G03*
X415405Y337378I-2112J2112D01*
G01*
X416802Y334908D02*
G03*
X413000Y333500I-370J-4839D01*
G01*
X416878Y335905D02*
G03*
X414539Y335039I-228J-2978D01*
G01*
X345313Y256687D02*
G03*
X349500Y254953I4187J4187D01*
G01*
X347020Y254980D02*
G03*
X349500Y253953I2480J2480D01*
G01*
X347047Y252500D02*
G03*
X345313Y256687I-5922J0D01*
G01*
X348047Y252500D02*
G03*
X347020Y254980I-3507J0D01*
G01*
X345313Y266687D02*
G03*
X349500Y264953I4187J4187D01*
G01*
X347020Y264980D02*
G03*
X349500Y263953I2480J2480D01*
G01*
X347047Y262500D02*
G03*
X345313Y266687I-5922J0D01*
G01*
X348047Y262500D02*
G03*
X347020Y264980I-3507J0D01*
G01*
X371914Y281000D02*
G03*
X370207Y280293I0J-2414D01*
G01*
Y281707D02*
G03*
X371914Y281000I1707J1707D01*
G01*
X359207Y310707D02*
G03*
X358500Y309000I1707J-1707D01*
G01*
X357500Y310000D02*
G03*
X359207Y310707I0J2414D01*
G01*
X338500Y292586D02*
G03*
X337793Y294293I-2414J0D01*
G01*
X339207D02*
G03*
X338500Y292586I1707J-1707D01*
G01*
X249586Y235500D02*
G03*
X251293Y236207I0J2414D01*
G01*
Y234793D02*
G03*
X249586Y235500I-1707J-1707D01*
G01*
X252586Y258000D02*
G03*
X254293Y258707I0J2414D01*
G01*
Y257293D02*
G03*
X252586Y258000I-1707J-1707D01*
G01*
X246586Y262000D02*
G03*
X248293Y262707I0J2414D01*
G01*
Y261293D02*
G03*
X246586Y262000I-1707J-1707D01*
G01*
Y266500D02*
G03*
X248293Y267207I0J2414D01*
G01*
Y265793D02*
G03*
X246586Y266500I-1707J-1707D01*
G01*
X248793Y270293D02*
G03*
X245879Y271500I-2914J-2914D01*
G01*
X247586Y275500D02*
G03*
X249293Y276207I0J2414D01*
G01*
Y274793D02*
G03*
X247586Y275500I-1707J-1707D01*
G01*
X248086Y280000D02*
G03*
X249793Y280707I0J2414D01*
G01*
Y279293D02*
G03*
X248086Y280000I-1707J-1707D01*
G01*
X332500Y296086D02*
G03*
X331793Y297793I-2414J0D01*
G01*
X333207D02*
G03*
X332500Y296086I1707J-1707D01*
G01*
X236000Y280000D02*
X250500D01*
X230500Y275500D02*
X250000D01*
X224500Y281500D02*
X230500Y275500D01*
X249000Y271500D02*
X249500Y271000D01*
X229000Y271500D02*
X249000D01*
X222000Y278500D02*
X229000Y271500D01*
Y266500D02*
X249000D01*
X220000Y275500D02*
X229000Y266500D01*
X229839Y262000D02*
X249000D01*
X211839Y280000D02*
X229839Y262000D01*
X211839Y258000D02*
X255000D01*
X212339Y235500D02*
X252000D01*
X211839Y236000D02*
X212339Y235500D01*
X247000Y209000D02*
X252000Y214000D01*
X216839Y209000D02*
X247000D01*
X211839Y214000D02*
X216839Y209000D01*
X302100Y197500D02*
X310000Y189600D01*
X288000Y197500D02*
X302100D01*
X286500Y199000D02*
X288000Y197500D01*
X286500Y199000D02*
Y209500D01*
X282000Y214000D02*
X286500Y209500D01*
X211839Y370000D02*
X227500Y354339D01*
Y288500D02*
Y354339D01*
Y288500D02*
X236000Y280000D01*
X211839Y348000D02*
X224500Y335339D01*
X211839Y324000D02*
X222000Y313839D01*
X211839Y304000D02*
X220000Y295839D01*
X224500Y281500D02*
Y335339D01*
X222000Y278500D02*
Y313839D01*
X220000Y275500D02*
Y295839D01*
X338500Y273500D02*
X349500Y262500D01*
X338500Y273500D02*
Y295000D01*
X332500Y269500D02*
X349500Y252500D01*
X332500Y269500D02*
Y298500D01*
X357500Y309000D02*
X382000Y333500D01*
X413000D01*
X417000Y337500D01*
X369500Y281000D02*
X439000D01*
X452000Y294000D01*
Y302161D01*
X252000Y189600D02*
X259400Y197000D01*
X263500D01*
X267000Y200500D01*
Y209000D01*
X272000Y214000D01*
D11*
X292300Y166500D02*
G03*
X296568Y168268I0J6036D01*
G01*
X296568Y168268D02*
G03*
X294800Y164000I4268J-4268D01*
G01*
X196631Y216131D02*
G03*
X199363Y215000I2731J2731D01*
G01*
D02*
G03*
X196631Y213869I0J-3863D01*
G01*
Y238131D02*
G03*
X199363Y237000I2731J2731D01*
G01*
D02*
G03*
X196631Y235869I0J-3863D01*
G01*
Y260131D02*
G03*
X199363Y259000I2731J2731D01*
G01*
D02*
G03*
X196631Y257869I0J-3863D01*
G01*
Y282131D02*
G03*
X199363Y281000I2731J2731D01*
G01*
D02*
G03*
X196631Y279869I0J-3863D01*
G01*
Y304131D02*
G03*
X199363Y303000I2731J2731D01*
G01*
D02*
G03*
X196631Y301869I0J-3863D01*
G01*
Y326131D02*
G03*
X199363Y325000I2731J2731D01*
G01*
D02*
G03*
X196631Y323869I0J-3863D01*
G01*
Y348131D02*
G03*
X199363Y347000I2731J2731D01*
G01*
D02*
G03*
X196631Y345869I0J-3863D01*
G01*
Y370131D02*
G03*
X199363Y369000I2731J2731D01*
G01*
D02*
G03*
X196631Y367869I0J-3863D01*
G01*
X306587Y361763D02*
G03*
X305350Y358775I2987J-2987D01*
G01*
D02*
G03*
X304113Y361763I-4225J0D01*
G01*
X314437D02*
G03*
X313200Y358775I2987J-2987D01*
G01*
D02*
G03*
X311963Y361763I-4225J0D01*
G01*
X323060Y364750D02*
G03*
X326047Y365987I0J4225D01*
G01*
X326047Y365987D02*
G03*
X324810Y363000I2987J-2987D01*
G01*
X335200Y370700D02*
G03*
X327620Y367560I0J-10720D01*
G01*
X335200Y367700D02*
G03*
X322499Y362439I0J-17962D01*
G01*
X325976Y365916D02*
G03*
X329200Y373700I-7784J7784D01*
G01*
X330957Y369457D02*
G03*
X320715Y373700I-10243J-10243D01*
G01*
D02*
G03*
X330957Y377943I0J14485D01*
G01*
X287643D02*
G03*
X297885Y373700I10243J10243D01*
G01*
D02*
G03*
X287643Y369457I0J-14485D01*
G01*
X295500Y361250D02*
G03*
X292513Y360013I0J-4225D01*
G01*
X292513Y360013D02*
G03*
X293750Y363000I-2987J2987D01*
G01*
X298831Y244169D02*
G03*
X296661Y238930I5239J-5239D01*
G01*
X305202Y251202D02*
G03*
X306501Y254611I-3154J3154D01*
G01*
X300469Y246469D02*
G03*
X303506Y254439I-7373J7373D01*
G01*
X313186Y253751D02*
G03*
X312339Y251706I2046J-2046D01*
G01*
X310499Y254611D02*
G03*
X311798Y251202I4453J-256D01*
G01*
X313494Y254439D02*
G03*
X316531Y246469I10409J-598D01*
G01*
X307761Y338239D02*
G03*
X303500Y340004I-4261J-4261D01*
G01*
X199092Y369000D02*
G03*
X203314Y370749I0J5971D01*
G01*
X199092Y347000D02*
G03*
X203314Y348749I0J5971D01*
G01*
Y323251D02*
G03*
X199092Y325000I-4222J-4222D01*
G01*
Y303000D02*
G03*
X203314Y304749I0J5971D01*
G01*
Y279251D02*
G03*
X199092Y281000I-4222J-4222D01*
G01*
X203314Y257251D02*
G03*
X199092Y259000I-4222J-4222D01*
G01*
X203314Y235251D02*
G03*
X199092Y237000I-4222J-4222D01*
G01*
X203314Y213251D02*
G03*
X199092Y215000I-4222J-4222D01*
G01*
X306587Y361763D02*
G03*
X305350Y358775I2987J-2987D01*
G01*
D02*
G03*
X304113Y361763I-4225J0D01*
G01*
X314437D02*
G03*
X313200Y358775I2987J-2987D01*
G01*
D02*
G03*
X311963Y361763I-4225J0D01*
G01*
X323060Y364750D02*
G03*
X326047Y365987I0J4225D01*
G01*
X326047Y365987D02*
G03*
X324810Y363000I2987J-2987D01*
G01*
X335200Y370700D02*
G03*
X327620Y367560I0J-10720D01*
G01*
X335200Y367700D02*
G03*
X322499Y362439I0J-17962D01*
G01*
X325976Y365916D02*
G03*
X329200Y373700I-7784J7784D01*
G01*
X330957Y369457D02*
G03*
X320715Y373700I-10243J-10243D01*
G01*
D02*
G03*
X330957Y377943I0J14485D01*
G01*
X287643D02*
G03*
X297885Y373700I10243J10243D01*
G01*
D02*
G03*
X287643Y369457I0J-14485D01*
G01*
X295500Y361250D02*
G03*
X292513Y360013I0J-4225D01*
G01*
X292513Y360013D02*
G03*
X293750Y363000I-2987J2987D01*
G01*
X298831Y244169D02*
G03*
X296661Y238930I5239J-5239D01*
G01*
X305202Y251202D02*
G03*
X306501Y254611I-3154J3154D01*
G01*
X300469Y246469D02*
G03*
X303506Y254439I-7373J7373D01*
G01*
X313186Y253751D02*
G03*
X312339Y251706I2046J-2046D01*
G01*
X310499Y254611D02*
G03*
X311798Y251202I4453J-256D01*
G01*
X313494Y254439D02*
G03*
X316531Y246469I10409J-598D01*
G01*
X307761Y338239D02*
G03*
X303500Y340004I-4261J-4261D01*
G01*
X300469Y246469D02*
G03*
X303506Y254439I-7373J7373D01*
G01*
X305202Y251202D02*
G03*
X306501Y254611I-3154J3154D01*
G01*
X313494Y254439D02*
G03*
X316531Y246469I10409J-598D01*
G01*
X310499Y254611D02*
G03*
X311798Y251202I4453J-256D01*
G01*
X313186Y253751D02*
G03*
X312339Y251706I2046J-2046D01*
G01*
X307761Y338239D02*
G03*
X303500Y340004I-4261J-4261D01*
G01*
X434251Y344688D02*
G03*
X427463Y347500I-6788J-6788D01*
G01*
X435749Y336814D02*
G03*
X434000Y332592I4222J-4222D01*
G01*
X354996Y284000D02*
G03*
X355815Y282024I2795J0D01*
G01*
X291500Y295681D02*
G03*
X288896Y294603I0J-3682D01*
G01*
X361314Y249251D02*
G03*
X353471Y252500I-7843J-7843D01*
G01*
X363435Y251373D02*
G03*
X360713Y252500I-2722J-2722D01*
G01*
X361314Y261251D02*
G03*
X358299Y262500I-3015J-3015D01*
G01*
X268000Y368996D02*
G03*
X269976Y369815I0J2795D01*
G01*
Y358185D02*
G03*
X268000Y359004I-1976J-1976D01*
G01*
X392500Y297637D02*
G03*
X393489Y295249I3377J0D01*
G01*
X384661Y298026D02*
G03*
X385812Y295249I3928J0D01*
G01*
X386128Y293893D02*
G03*
X386451Y290211I2357J-1649D01*
G01*
X386009Y293751D02*
G03*
X385161Y291705I2046J-2046D01*
G01*
X392500Y310791D02*
G03*
X391688Y312751I-2772J0D01*
G01*
X401847Y316339D02*
G03*
X393186Y312751I0J-12248D01*
G01*
X394604Y316339D02*
G03*
X391065Y314873I0J-5006D01*
G01*
X199092Y369000D02*
G03*
X203314Y370749I0J5971D01*
G01*
X199092Y347000D02*
G03*
X203314Y348749I0J5971D01*
G01*
Y323251D02*
G03*
X199092Y325000I-4222J-4222D01*
G01*
Y303000D02*
G03*
X203314Y304749I0J5971D01*
G01*
Y279251D02*
G03*
X199092Y281000I-4222J-4222D01*
G01*
X203314Y257251D02*
G03*
X199092Y259000I-4222J-4222D01*
G01*
X203314Y235251D02*
G03*
X199092Y237000I-4222J-4222D01*
G01*
X203314Y213251D02*
G03*
X199092Y215000I-4222J-4222D01*
G01*
X450024Y311815D02*
G03*
X452000Y310996I1976J1976D01*
G01*
X451251Y301511D02*
G03*
X447656Y303000I-3595J-3595D01*
G01*
X428500Y317496D02*
G03*
X430476Y318315I0J2795D01*
G01*
X454537Y347500D02*
G03*
X447749Y344688I0J-9600D01*
G01*
X296568Y168268D02*
G03*
X294800Y164000I4268J-4268D01*
G01*
X292300Y166500D02*
G03*
X296568Y168268I0J6036D01*
G01*
X199363Y215000D02*
G03*
X196631Y213869I0J-3863D01*
G01*
Y216131D02*
G03*
X199363Y215000I2731J2731D01*
G01*
Y237000D02*
G03*
X196631Y235869I0J-3863D01*
G01*
Y238131D02*
G03*
X199363Y237000I2731J2731D01*
G01*
Y259000D02*
G03*
X196631Y257869I0J-3863D01*
G01*
Y260131D02*
G03*
X199363Y259000I2731J2731D01*
G01*
Y281000D02*
G03*
X196631Y279869I0J-3863D01*
G01*
Y282131D02*
G03*
X199363Y281000I2731J2731D01*
G01*
Y303000D02*
G03*
X196631Y301869I0J-3863D01*
G01*
Y304131D02*
G03*
X199363Y303000I2731J2731D01*
G01*
Y325000D02*
G03*
X196631Y323869I0J-3863D01*
G01*
Y326131D02*
G03*
X199363Y325000I2731J2731D01*
G01*
Y347000D02*
G03*
X196631Y345869I0J-3863D01*
G01*
Y348131D02*
G03*
X199363Y347000I2731J2731D01*
G01*
Y369000D02*
G03*
X196631Y367869I0J-3863D01*
G01*
Y370131D02*
G03*
X199363Y369000I2731J2731D01*
G01*
X459137Y347500D02*
G03*
X461869Y348631I0J3863D01*
G01*
Y346369D02*
G03*
X459137Y347500I-2731J-2731D01*
G01*
X460269Y334769D02*
G03*
X461400Y337500I-2731J2731D01*
G01*
X463000Y335900D02*
G03*
X460269Y334769I0J-3863D01*
G01*
X305350Y358775D02*
G03*
X304113Y361763I-4225J0D01*
G01*
X306587D02*
G03*
X305350Y358775I2987J-2987D01*
G01*
X313200D02*
G03*
X311963Y361763I-4225J0D01*
G01*
X314437D02*
G03*
X313200Y358775I2987J-2987D01*
G01*
X326047Y365987D02*
G03*
X324810Y363000I2987J-2987D01*
G01*
X323060Y364750D02*
G03*
X326047Y365987I0J4225D01*
G01*
X320715Y373700D02*
G03*
X330957Y377943I0J14485D01*
G01*
Y369457D02*
G03*
X320715Y373700I-10243J-10243D01*
G01*
X325976Y365916D02*
G03*
X329200Y373700I-7784J7784D01*
G01*
X335200Y367700D02*
G03*
X322499Y362439I0J-17962D01*
G01*
X335200Y370700D02*
G03*
X327620Y367560I0J-10720D01*
G01*
X273862Y373700D02*
G03*
X277992Y376298I0J4581D01*
G01*
Y371102D02*
G03*
X273862Y373700I-4130J-1984D01*
G01*
X297885D02*
G03*
X287643Y369457I0J-14485D01*
G01*
Y377943D02*
G03*
X297885Y373700I10243J10243D01*
G01*
X292513Y360013D02*
G03*
X293750Y363000I-2987J2987D01*
G01*
X295500Y361250D02*
G03*
X292513Y360013I0J-4225D01*
G01*
X298831Y244169D02*
G03*
X296661Y238930I5239J-5239D01*
G01*
X446035Y313700D02*
G03*
X441768Y311932I0J-6036D01*
G01*
Y315468D02*
G03*
X446035Y313700I4268J4268D01*
G01*
X461332Y300268D02*
G03*
X465600Y298500I4268J4268D01*
G01*
X463100Y296000D02*
G03*
X461332Y300268I-6036J0D01*
G01*
X420863Y347500D02*
G03*
X418131Y346369I0J-3863D01*
G01*
Y348631D02*
G03*
X420863Y347500I2731J2731D01*
G01*
X379500Y236007D02*
G03*
X380527Y233527I3507J0D01*
G01*
X378473D02*
G03*
X379500Y236007I-2480J2480D01*
G01*
Y228993D02*
G03*
X378473Y231473I-3507J0D01*
G01*
X380527D02*
G03*
X379500Y228993I2480J-2480D01*
G01*
Y246007D02*
G03*
X380527Y243527I3507J0D01*
G01*
X378473D02*
G03*
X379500Y246007I-2480J2480D01*
G01*
Y238993D02*
G03*
X378473Y241473I-3507J0D01*
G01*
X380527D02*
G03*
X379500Y238993I2480J-2480D01*
G01*
Y248993D02*
G03*
X378473Y251473I-3507J0D01*
G01*
X380527D02*
G03*
X379500Y248993I2480J-2480D01*
G01*
Y256007D02*
G03*
X380527Y253527I3507J0D01*
G01*
X378473D02*
G03*
X379500Y256007I-2480J2480D01*
G01*
Y258993D02*
G03*
X378473Y261473I-3507J0D01*
G01*
X380527D02*
G03*
X379500Y258993I2480J-2480D01*
G01*
X347020Y230020D02*
G03*
X348047Y232500I-2480J2480D01*
G01*
X349500Y231047D02*
G03*
X347020Y230020I0J-3507D01*
G01*
X353397Y232661D02*
G03*
X350527Y231473I0J-4058D01*
G01*
Y233527D02*
G03*
X352618Y232661I2090J2090D01*
G01*
X353007Y252500D02*
G03*
X350527Y251473I0J-3507D01*
G01*
Y253527D02*
G03*
X353007Y252500I2480J2480D01*
G01*
Y262500D02*
G03*
X350527Y261473I0J-3507D01*
G01*
Y263527D02*
G03*
X353007Y262500I2480J2480D01*
G01*
X332000Y180500D02*
Y215000D01*
X349500Y232500D01*
X349661Y232661D01*
X369839D01*
Y250000D01*
X392500Y294500D02*
X392839D01*
X379500Y252500D02*
Y262500D01*
Y242500D02*
Y252500D01*
Y232500D02*
Y242500D01*
X369839Y250000D02*
Y262000D01*
X359661Y252500D02*
X362161Y250000D01*
X349500Y252500D02*
X359661D01*
X349500Y262500D02*
X361661D01*
X362161Y262000D01*
X325323Y169000D02*
X345000D01*
X316661Y177661D02*
X325323Y169000D01*
X311500Y172500D02*
X316661Y177661D01*
X292300Y164000D02*
X300800Y172500D01*
X311500D01*
X316661Y177661D02*
Y234500D01*
X203161Y215000D02*
X204161Y214000D01*
X195500Y215000D02*
X203161D01*
Y237000D02*
X204161Y236000D01*
X195500Y237000D02*
X203161D01*
Y259000D02*
X204161Y258000D01*
X195500Y259000D02*
X203161D01*
Y281000D02*
X204161Y280000D01*
X195500Y281000D02*
X203161D01*
Y303000D02*
X204161Y304000D01*
X195500Y303000D02*
X203161D01*
Y325000D02*
X204161Y324000D01*
X195500Y325000D02*
X203161D01*
X195500Y347000D02*
X203161D01*
X204161Y348000D01*
X195500Y369000D02*
X203161D01*
X204161Y370000D01*
X312339Y250661D02*
X318500Y244500D01*
X312339Y250661D02*
Y254500D01*
X298500Y244500D02*
X304661Y250661D01*
Y254500D01*
X318500Y244500D02*
X324339Y238661D01*
Y234500D02*
Y238661D01*
X296661Y242661D02*
X298500Y244500D01*
X296661Y234500D02*
Y242661D01*
X304339Y234500D02*
X316661D01*
X304839Y341161D02*
X309250Y336750D01*
X303500Y341161D02*
X304839D01*
X313200Y355800D02*
Y363000D01*
Y355800D02*
X315500Y353500D01*
Y348839D02*
Y353500D01*
X305350Y356850D02*
Y363000D01*
X303500Y348839D02*
Y355000D01*
X305350Y356850D01*
X315500Y337000D02*
Y341161D01*
X314000Y335500D02*
X315500Y337000D01*
X314000Y330000D02*
Y335500D01*
X315500Y348839D02*
X327500D01*
X333760Y373700D02*
X335200D01*
X283400D02*
X333760D01*
X323060Y363000D02*
X333760Y373700D01*
X291500Y359000D02*
X295500Y363000D01*
X291500Y348839D02*
Y359000D01*
X353839Y284000D02*
Y296000D01*
Y284000D02*
X369839Y268000D01*
Y262000D02*
Y268000D01*
X265500Y289161D02*
X291500D01*
X252378Y286500D02*
X255039Y289161D01*
X265500D01*
X448139Y313700D02*
X452000Y309839D01*
X440000Y313700D02*
X448139D01*
X451161Y303000D02*
X452000Y302161D01*
X429000Y303000D02*
X451161D01*
X428500Y296339D02*
Y302500D01*
Y308661D01*
Y302500D02*
X429000Y303000D01*
X388000Y288661D02*
X428500D01*
X385161Y291500D02*
X388000Y288661D01*
X395177Y316339D02*
X428500D01*
X392339Y313500D02*
X395177Y316339D01*
X435000Y337661D02*
X447000D01*
X432839Y347500D02*
X435000Y345339D01*
X417000Y347500D02*
X432839D01*
X353839Y296000D02*
X367000D01*
X368500Y294500D01*
X385000D01*
X385161D01*
X384661Y295000D02*
Y313500D01*
X385161Y291500D02*
Y294500D01*
X384661Y295000D02*
X385161Y294500D01*
X392339Y313500D02*
X392500Y313339D01*
Y294839D02*
Y313339D01*
Y294839D02*
X392839Y294500D01*
X291500Y289161D02*
X298161D01*
X301500Y292500D01*
Y305500D01*
X298161Y289161D02*
X300839D01*
X305500Y284500D01*
X314000D01*
X379500Y173000D02*
Y232500D01*
X375500Y169000D02*
X379500Y173000D01*
X345000Y169000D02*
X375500D01*
X434000Y332000D02*
Y336661D01*
X435000Y337661D01*
X268000Y367839D02*
X273861Y373700D01*
X283400D01*
X268000Y360161D02*
X279323Y348839D01*
X291500D01*
X291132Y296839D02*
X291500D01*
X287794Y293500D02*
X291132Y296839D01*
X283500Y293500D02*
X287794D01*
X428500Y316339D02*
X436661Y324500D01*
X450000D01*
X463000Y337500D01*
X447000Y345339D02*
X449161Y347500D01*
X463000D01*
X458000Y303600D02*
X465600Y296000D01*
X458000Y303600D02*
Y316500D01*
X450000Y324500D02*
X458000Y316500D01*
D12*
X331161Y341161D02*
G03*
X328624Y340081I0J-3520D01*
G01*
Y342242D02*
G03*
X331161Y341161I2537J2439D01*
G01*
X294330Y338332D02*
G03*
X291500Y339504I-2829J-2829D01*
G01*
X293059Y341063D02*
G03*
X294092Y338569I3526J0D01*
G01*
X345693Y347000D02*
G03*
X347347Y347685I0J2338D01*
G01*
Y346315D02*
G03*
X345693Y347000I-1653J-1653D01*
G01*
X345693Y342000D02*
G03*
X347347Y342685I0J2338D01*
G01*
Y341315D02*
G03*
X345693Y342000I-1653J-1653D01*
G01*
X342500D02*
X350000D01*
X326500Y326000D02*
X342500Y342000D01*
X306661Y326000D02*
X326500D01*
X291500Y341161D02*
X306661Y326000D01*
X337000Y347000D02*
X350000D01*
X331161Y341161D02*
X337000Y347000D01*
X327500Y341161D02*
X331161D01*
D13*
X211700Y189600D02*
G03*
X211700Y189600I-5400J0D01*
G01*
X199266Y212095D02*
G03*
X198685Y211821I97J-958D01*
G01*
X199266Y212095D02*
G03*
X198685Y211821I97J-958D01*
G01*
X200104Y211929D02*
G03*
X199266Y212095I-1012J-2899D01*
G01*
X200104Y211929D02*
G03*
X199266Y212095I-1012J-2899D01*
G01*
X190000Y215000D02*
G03*
X190000Y215000I-4500J0D01*
G01*
X198685Y218179D02*
G03*
X198685Y211821I-3185J-3179D01*
G01*
Y218179D02*
G03*
X199363Y217900I678J684D01*
G01*
X198685Y218179D02*
G03*
X199363Y217900I678J684D01*
G01*
X215492Y207659D02*
G03*
X216839Y207100I1346J1341D01*
G01*
X215495Y207657D02*
G03*
X216839Y207100I1343J1343D01*
G01*
X213941Y209211D02*
G03*
X211937Y210041I-2004J-2004D01*
G01*
X213941Y209211D02*
G03*
X211937Y210041I-2004J-2004D01*
G01*
X215896Y214000D02*
G03*
X216865Y211660I3309J0D01*
G01*
X229400Y164000D02*
G03*
X229400Y164000I-5400J0D01*
G01*
X229150Y187976D02*
G03*
X239700Y189600I5150J1624D01*
G01*
X229150Y191224D02*
G03*
X229150Y187976I-5150J-1624D01*
G01*
X239700Y189600D02*
G03*
X229150Y191224I-5400J0D01*
G01*
X226353Y214000D02*
G03*
X218944Y210900I-4353J0D01*
G01*
X215896Y214000D02*
G03*
X216865Y211660I3309J0D01*
G01*
X225056Y210900D02*
G03*
X226353Y214000I-3056J3100D01*
G01*
X228944Y207100D02*
G03*
X236353Y204000I3056J-3100D01*
G01*
D02*
G03*
X235056Y207100I-4353J0D01*
G01*
X236353Y214000D02*
G03*
X228944Y210900I-4353J0D01*
G01*
X235056D02*
G03*
X236353Y214000I-3056J3100D01*
G01*
X190000Y237000D02*
G03*
X190000Y237000I-4500J0D01*
G01*
X200104Y233928D02*
G03*
X199266Y234095I-1012J-2899D01*
G01*
X200104Y233928D02*
G03*
X199266Y234095I-1012J-2899D01*
G01*
X198685Y240179D02*
G03*
X198685Y233821I-3185J-3179D01*
G01*
X199266Y234095D02*
G03*
X198685Y233821I97J-958D01*
G01*
X199266Y234095D02*
G03*
X198685Y233821I97J-958D01*
G01*
Y240179D02*
G03*
X199363Y239900I678J684D01*
G01*
X198685Y240179D02*
G03*
X199363Y239900I678J684D01*
G01*
X190000Y259000D02*
G03*
X190000Y259000I-4500J0D01*
G01*
X199266Y256095D02*
G03*
X198685Y255821I97J-958D01*
G01*
X199266Y256095D02*
G03*
X198685Y255821I97J-958D01*
G01*
X200104Y255928D02*
G03*
X199266Y256095I-1012J-2899D01*
G01*
X200104Y255928D02*
G03*
X199266Y256095I-1012J-2899D01*
G01*
X198685Y262179D02*
G03*
X198685Y255821I-3185J-3179D01*
G01*
Y262179D02*
G03*
X199363Y261900I678J684D01*
G01*
X198685Y262179D02*
G03*
X199363Y261900I678J684D01*
G01*
X215896Y237947D02*
G03*
X218115Y237400I2219J4232D01*
G01*
X215896Y237947D02*
G03*
X218115Y237400I2219J4232D01*
G01*
X215896Y260071D02*
G03*
X216908Y259900I1012J2899D01*
G01*
Y256100D02*
G03*
X215896Y255928I0J-3071D01*
G01*
X216908Y256100D02*
G03*
X215896Y255928I0J-3071D01*
G01*
Y260071D02*
G03*
X216908Y259900I1012J2899D01*
G01*
X228495Y260656D02*
G03*
X229839Y260100I1343J1343D01*
G01*
X228492Y260659D02*
G03*
X229839Y260100I1346J1341D01*
G01*
X257400Y164000D02*
G03*
X257400Y164000I-5400J0D01*
G01*
X252000Y195000D02*
G03*
X257150Y187976I0J-5400D01*
G01*
D02*
G03*
X267700Y189600I5150J1624D01*
G01*
X246353Y204000D02*
G03*
X245056Y207100I-4353J0D01*
G01*
X238944D02*
G03*
X246353Y204000I3056J-3100D01*
G01*
X247000Y207100D02*
G03*
X248343Y207657I0J1900D01*
G01*
X247000Y207100D02*
G03*
X248346Y207659I0J1900D01*
G01*
X252000Y195000D02*
G03*
X256625Y196912I0J6550D01*
G01*
X252000Y195000D02*
G03*
X256625Y196912I0J6550D01*
G01*
X252000Y195000D02*
G03*
X256625Y196912I0J6550D01*
G01*
X259312Y194225D02*
G03*
X258961Y193844I4638J-4625D01*
G01*
X267700Y189600D02*
G03*
X258961Y193844I-5400J0D01*
G01*
X259312Y194225D02*
G03*
X258961Y193844I4638J-4625D01*
G01*
X259312Y194225D02*
G03*
X258961Y193844I4638J-4625D01*
G01*
X259400Y198900D02*
G03*
X258054Y198341I0J-1900D01*
G01*
X259400Y198900D02*
G03*
X258056Y198344I0J-1900D01*
G01*
X285400Y164000D02*
G03*
X285400Y164000I-5400J0D01*
G01*
Y189600D02*
G03*
X285400Y189600I-5400J0D01*
G01*
X297700D02*
G03*
X297700Y189600I-5400J0D01*
G01*
X263500Y195100D02*
G03*
X264844Y195657I0J1900D01*
G01*
X263500Y195100D02*
G03*
X264846Y195659I0J1900D01*
G01*
X268341Y199154D02*
G03*
X268900Y200500I-1341J1346D01*
G01*
X268343Y199156D02*
G03*
X268900Y200500I-1343J1343D01*
G01*
Y200944D02*
G03*
X276353Y204000I3100J3056D01*
G01*
D02*
G03*
X268900Y207056I-4353J0D01*
G01*
X284600Y199000D02*
G03*
X285156Y197657I1900J0D01*
G01*
X286656Y196157D02*
G03*
X288000Y195600I1343J1343D01*
G01*
X284600Y199000D02*
G03*
X285159Y197654I1900J0D01*
G01*
X286654Y196159D02*
G03*
X288000Y195600I1346J1341D01*
G01*
X246469Y211156D02*
G03*
X247647Y213994I-2844J2844D01*
G01*
X246469Y211156D02*
G03*
X247647Y213994I-2844J2844D01*
G01*
X245056Y210900D02*
G03*
X246353Y214000I-3056J3100D01*
G01*
D02*
G03*
X238944Y210900I-4353J0D01*
G01*
X249947Y233452D02*
G03*
X249586Y233600I-362J-366D01*
G01*
X249947Y233452D02*
G03*
X249586Y233600I-362J-366D01*
G01*
X251993Y209647D02*
G03*
X249156Y208469I7J-4022D01*
G01*
X256353Y204000D02*
G03*
X256353Y204000I-4353J0D01*
G01*
X251993Y209647D02*
G03*
X249156Y208469I7J-4022D01*
G01*
X251993Y209647D02*
G03*
X256353Y214000I7J4353D01*
G01*
D02*
G03*
X247647Y213994I-4353J0D01*
G01*
X249949Y233449D02*
G03*
X254900Y235500I2051J2051D01*
G01*
X249586Y237400D02*
G03*
X249947Y237548I0J514D01*
G01*
X249586Y237400D02*
G03*
X249947Y237548I0J514D01*
G01*
X246947Y259951D02*
G03*
X246586Y260100I-362J-366D01*
G01*
X246947Y259951D02*
G03*
X246586Y260100I-362J-366D01*
G01*
X251000Y259900D02*
G03*
X251900Y262000I-2000J2100D01*
G01*
D02*
G03*
X250830Y264250I-2900J0D01*
G01*
X254900Y235500D02*
G03*
X249949Y237551I-2900J0D01*
G01*
X252947Y255951D02*
G03*
X252586Y256100I-362J-366D01*
G01*
X252947Y255951D02*
G03*
X252586Y256100I-362J-366D01*
G01*
Y259900D02*
G03*
X252947Y260049I0J514D01*
G01*
X252949Y255949D02*
G03*
X257900Y258000I2051J2051D01*
G01*
X252586Y259900D02*
G03*
X252947Y260049I0J514D01*
G01*
X257900Y258000D02*
G03*
X252949Y260051I-2900J0D01*
G01*
X265100Y207056D02*
G03*
X263894Y200081I-3100J-3056D01*
G01*
X271993Y209647D02*
G03*
X269156Y208469I7J-4022D01*
G01*
X271993Y209647D02*
G03*
X269156Y208469I7J-4022D01*
G01*
X271993Y209647D02*
G03*
X269156Y208469I7J-4022D01*
G01*
X266353Y214000D02*
G03*
X266353Y214000I-4353J0D01*
G01*
X265656Y210344D02*
G03*
X265100Y209000I1343J-1343D01*
G01*
X265659Y210346D02*
G03*
X265100Y209000I1341J-1346D01*
G01*
X266469Y211156D02*
G03*
X267647Y213994I-2844J2844D01*
G01*
X284600Y207491D02*
G03*
X284600Y200509I-2600J-3491D01*
G01*
Y208694D02*
G03*
X282007Y209647I-2600J-3068D01*
G01*
X284600Y208694D02*
G03*
X282007Y209647I-2600J-3068D01*
G01*
X284600Y208694D02*
G03*
X282007Y209647I-2600J-3068D01*
G01*
X271993D02*
G03*
X276353Y214000I7J4353D01*
G01*
X286353Y213994D02*
G03*
X287531Y211156I4022J7D01*
G01*
X286353Y214000D02*
G03*
X282007Y209647I-4353J0D01*
G01*
X288400Y209500D02*
G03*
X287843Y210843I-1900J0D01*
G01*
X288400Y209500D02*
G03*
X287841Y210846I-1900J0D01*
G01*
X296353Y214000D02*
G03*
X296353Y214000I-4353J0D01*
G01*
X266469Y211156D02*
G03*
X267647Y213994I-2844J2844D01*
G01*
X266469Y211156D02*
G03*
X267647Y213994I-2844J2844D01*
G01*
X286353D02*
G03*
X287531Y211156I4022J7D01*
G01*
X286353Y213994D02*
G03*
X287531Y211156I4022J7D01*
G01*
X276353Y214000D02*
G03*
X267647Y213994I-4353J0D01*
G01*
X190000Y281000D02*
G03*
X190000Y281000I-4500J0D01*
G01*
X199266Y278095D02*
G03*
X198685Y277821I97J-958D01*
G01*
X199266Y278095D02*
G03*
X198685Y277821I97J-958D01*
G01*
Y284179D02*
G03*
X198685Y277821I-3185J-3179D01*
G01*
Y284179D02*
G03*
X199363Y283900I678J684D01*
G01*
X198685Y284179D02*
G03*
X199363Y283900I678J684D01*
G01*
X190000Y303000D02*
G03*
X190000Y303000I-4500J0D01*
G01*
X198685Y306179D02*
G03*
X198685Y299821I-3185J-3179D01*
G01*
X199363Y300100D02*
G03*
X198685Y299821I0J-963D01*
G01*
Y306179D02*
G03*
X199266Y305905I678J684D01*
G01*
X199363Y300100D02*
G03*
X198685Y299821I0J-963D01*
G01*
Y306179D02*
G03*
X199266Y305905I678J684D01*
G01*
Y322095D02*
G03*
X198685Y321821I97J-958D01*
G01*
X199266Y322095D02*
G03*
X198685Y321821I97J-958D01*
G01*
X200104Y277928D02*
G03*
X199266Y278095I-1012J-2899D01*
G01*
X200104Y277928D02*
G03*
X199266Y278095I-1012J-2899D01*
G01*
X213941Y275211D02*
G03*
X211937Y276041I-2004J-2004D01*
G01*
X213941Y275211D02*
G03*
X211937Y276041I-2004J-2004D01*
G01*
X215896Y280000D02*
G03*
X216865Y277660I3309J0D01*
G01*
X215896Y280000D02*
G03*
X216865Y277660I3309J0D01*
G01*
X213941Y299211D02*
G03*
X211937Y300041I-2004J-2004D01*
G01*
X213941Y299211D02*
G03*
X211937Y300041I-2004J-2004D01*
G01*
X199266Y305905D02*
G03*
X200104Y306071I-174J3066D01*
G01*
X199266Y305905D02*
G03*
X200104Y306071I-174J3066D01*
G01*
Y321929D02*
G03*
X199266Y322095I-1012J-2899D01*
G01*
X200104Y321929D02*
G03*
X199266Y322095I-1012J-2899D01*
G01*
X215896Y304000D02*
G03*
X216865Y301660I3309J0D01*
G01*
X215896Y304000D02*
G03*
X216865Y301660I3309J0D01*
G01*
X213941Y319211D02*
G03*
X211937Y320041I-2004J-2004D01*
G01*
X213941Y319211D02*
G03*
X211937Y320041I-2004J-2004D01*
G01*
X215896Y324000D02*
G03*
X216865Y321660I3309J0D01*
G01*
X215896Y324000D02*
G03*
X216865Y321660I3309J0D01*
G01*
X190000Y325000D02*
G03*
X190000Y325000I-4500J0D01*
G01*
Y347000D02*
G03*
X190000Y347000I-4500J0D01*
G01*
X198685Y328179D02*
G03*
X198685Y321821I-3185J-3179D01*
G01*
Y328179D02*
G03*
X199363Y327900I678J684D01*
G01*
X198685Y328179D02*
G03*
X199363Y327900I678J684D01*
G01*
X198685Y350179D02*
G03*
X198685Y343821I-3185J-3179D01*
G01*
X199363Y344100D02*
G03*
X198685Y343821I0J-963D01*
G01*
X199363Y344100D02*
G03*
X198685Y343821I0J-963D01*
G01*
Y350179D02*
G03*
X199266Y349905I678J684D01*
G01*
X198685Y350179D02*
G03*
X199266Y349905I678J684D01*
G01*
X190000Y369000D02*
G03*
X190000Y369000I-4500J0D01*
G01*
X198685Y372179D02*
G03*
X198685Y365821I-3185J-3179D01*
G01*
X199363Y366100D02*
G03*
X198685Y365821I0J-963D01*
G01*
X199363Y366100D02*
G03*
X198685Y365821I0J-963D01*
G01*
Y372179D02*
G03*
X199266Y371905I678J684D01*
G01*
X198685Y372179D02*
G03*
X199266Y371905I678J684D01*
G01*
Y349905D02*
G03*
X200104Y350072I-174J3066D01*
G01*
X199266Y349905D02*
G03*
X200104Y350072I-174J3066D01*
G01*
X213941Y343211D02*
G03*
X211937Y344041I-2004J-2004D01*
G01*
X213941Y343211D02*
G03*
X211937Y344041I-2004J-2004D01*
G01*
X215896Y348000D02*
G03*
X216865Y345660I3309J0D01*
G01*
X215896Y348000D02*
G03*
X216865Y345660I3309J0D01*
G01*
X199266Y371905D02*
G03*
X200104Y372072I-174J3066D01*
G01*
X199266Y371905D02*
G03*
X200104Y372072I-174J3066D01*
G01*
X213941Y365211D02*
G03*
X211937Y366041I-2004J-2004D01*
G01*
X213941Y365211D02*
G03*
X211937Y366041I-2004J-2004D01*
G01*
X229400Y354339D02*
G03*
X228841Y355685I-1900J0D01*
G01*
X229400Y354339D02*
G03*
X228843Y355682I-1900J0D01*
G01*
X215896Y370000D02*
G03*
X216865Y367660I3309J0D01*
G01*
X215896Y370000D02*
G03*
X216865Y367660I3309J0D01*
G01*
X250150Y290000D02*
G03*
X250150Y290000I-4150J0D01*
G01*
X240353D02*
G03*
X240353Y290000I-4353J0D01*
G01*
Y300000D02*
G03*
X240353Y300000I-4353J0D01*
G01*
X250353D02*
G03*
X250353Y300000I-4353J0D01*
G01*
X240353Y310000D02*
G03*
X240353Y310000I-4353J0D01*
G01*
X250353D02*
G03*
X250353Y310000I-4353J0D01*
G01*
X240353Y320000D02*
G03*
X240353Y320000I-4353J0D01*
G01*
X250353D02*
G03*
X250353Y320000I-4353J0D01*
G01*
X251900Y266500D02*
G03*
X251051Y268550I-2900J0D01*
G01*
X250830Y264250D02*
G03*
X251900Y266500I-1830J2250D01*
G01*
X248086Y281900D02*
G03*
X248447Y282049I0J514D01*
G01*
X251051Y268550D02*
G03*
X252400Y271000I-1551J2450D01*
G01*
D02*
G03*
X251551Y273050I-2900J0D01*
G01*
D02*
G03*
X252900Y275500I-1551J2450D01*
G01*
D02*
G03*
X252051Y277550I-2900J0D01*
G01*
D02*
G03*
X253400Y280000I-1551J2450D01*
G01*
X248086Y281900D02*
G03*
X248447Y282049I0J514D01*
G01*
X253400Y280000D02*
G03*
X248449Y282051I-2900J0D01*
G01*
X287794Y290600D02*
G03*
X289844Y291449I0J2900D01*
G01*
X287794Y290600D02*
G03*
X289844Y291449I0J2900D01*
G01*
X283500Y296400D02*
G03*
X283500Y290600I0J-2900D01*
G01*
Y296400D02*
G03*
X283500Y290600I0J-2900D01*
G01*
X240353Y330000D02*
G03*
X240353Y330000I-4353J0D01*
G01*
X250353D02*
G03*
X250353Y330000I-4353J0D01*
G01*
X240353Y340000D02*
G03*
X240353Y340000I-4353J0D01*
G01*
Y350000D02*
G03*
X240353Y350000I-4353J0D01*
G01*
X250353Y340000D02*
G03*
X250353Y340000I-4353J0D01*
G01*
Y350000D02*
G03*
X250353Y350000I-4353J0D01*
G01*
Y360000D02*
G03*
X250353Y360000I-4353J0D01*
G01*
X277272Y346788D02*
G03*
X279323Y345939I2051J2051D01*
G01*
X277272Y346788D02*
G03*
X279323Y345939I2051J2051D01*
G01*
X288400Y201553D02*
G03*
X296353Y204000I3600J2447D01*
G01*
X304600Y189600D02*
G03*
X302688Y194225I-6550J0D01*
G01*
X304600Y189600D02*
G03*
X302688Y194225I-6550J0D01*
G01*
X304600Y189600D02*
G03*
X302688Y194225I-6550J0D01*
G01*
X303446Y198841D02*
G03*
X302100Y199400I-1346J-1341D01*
G01*
X303444Y198844D02*
G03*
X302100Y199400I-1343J-1343D01*
G01*
X296353Y204000D02*
G03*
X288400Y206447I-4353J0D01*
G01*
X294611Y244712D02*
G03*
X293761Y242661I2051J-2051D01*
G01*
X294611Y244712D02*
G03*
X293761Y242661I2051J-2051D01*
G01*
X300877Y242114D02*
G03*
X299561Y238930I3192J-3184D01*
G01*
X300877Y242114D02*
G03*
X299561Y238930I3192J-3184D01*
G01*
X300877Y242114D02*
G03*
X299561Y238930I3192J-3184D01*
G01*
X300882Y242118D02*
G03*
X301762Y243661I-2382J2382D01*
G01*
X315400Y164000D02*
G03*
X315400Y164000I-5400J0D01*
G01*
X304600Y189600D02*
G03*
X315400Y189600I5400J0D01*
G01*
X329100Y180500D02*
G03*
X334900Y180500I2900J0D01*
G01*
X329100D02*
G03*
X334900Y180500I2900J0D01*
G01*
X305375Y196912D02*
G03*
X310000Y195000I4625J4638D01*
G01*
X305375Y196912D02*
G03*
X310000Y195000I4625J4638D01*
G01*
X305375Y196912D02*
G03*
X310000Y195000I4625J4638D01*
G01*
X315400Y189600D02*
G03*
X310000Y195000I-5400J0D01*
G01*
X315238Y243661D02*
G03*
X317661Y241238I3262J839D01*
G01*
X327239Y238661D02*
G03*
X326389Y240712I-2900J0D01*
G01*
X327239Y238661D02*
G03*
X326389Y240712I-2900J0D01*
G01*
X329949Y217051D02*
G03*
X329100Y215000I2051J-2051D01*
G01*
X329949Y217051D02*
G03*
X329100Y215000I2051J-2051D01*
G01*
X349500Y228147D02*
G03*
X349073Y227972I0J-607D01*
G01*
X344972Y232073D02*
G03*
X345147Y232500I-432J427D01*
G01*
X349500Y228147D02*
G03*
X352578Y229422I0J4353D01*
G01*
X353397Y229761D02*
G03*
X352581Y229425I0J-1158D01*
G01*
X352578Y235578D02*
G03*
X345147Y232500I-3078J-3078D01*
G01*
X297661Y247762D02*
G03*
X295238Y245339I839J-3262D01*
G01*
X306712Y248611D02*
G03*
X306964Y248899I-2051J2051D01*
G01*
X306712Y248611D02*
G03*
X306964Y248899I-2051J2051D01*
G01*
D02*
G03*
X307252Y249151I-1763J2303D01*
G01*
X309748D02*
G03*
X310036Y248899I2051J2051D01*
G01*
X309748Y249151D02*
G03*
X310036Y248899I2051J2051D01*
G01*
X298418Y248519D02*
G03*
X300604Y253309I-5322J5322D01*
G01*
X298418Y248519D02*
G03*
X300604Y253309I-5322J5322D01*
G01*
X298418Y248519D02*
G03*
X300604Y253309I-5322J5322D01*
G01*
X306964Y248899D02*
G03*
X307252Y249151I-1763J2303D01*
G01*
X306964Y248899D02*
G03*
X307252Y249151I-1763J2303D01*
G01*
X309748D02*
G03*
X310036Y248899I2051J2051D01*
G01*
D02*
G03*
X310288Y248611I2303J1763D01*
G01*
X310036Y248899D02*
G03*
X310288Y248611I2303J1763D01*
G01*
X316396Y253309D02*
G03*
X318582Y248519I7508J533D01*
G01*
X321762Y245339D02*
G03*
X319339Y247762I-3262J-839D01*
G01*
X316396Y253309D02*
G03*
X318582Y248519I7508J533D01*
G01*
X316396Y253309D02*
G03*
X318582Y248519I7508J533D01*
G01*
X307252Y249151D02*
G03*
X308342Y250541I-5205J5205D01*
G01*
X307252Y249151D02*
G03*
X308342Y250541I-5205J5205D01*
G01*
X307252Y249151D02*
G03*
X308342Y250541I-5205J5205D01*
G01*
X308500Y250814D02*
G03*
X308658Y250541I6452J3542D01*
G01*
X308500Y250814D02*
G03*
X308658Y250541I6452J3542D01*
G01*
X308342D02*
G03*
X308500Y250814I-6295J3815D01*
G01*
X308342Y250541D02*
G03*
X308500Y250814I-6295J3815D01*
G01*
X308342Y250541D02*
G03*
X308500Y250814I-6295J3815D01*
G01*
D02*
G03*
X308658Y250541I6452J3542D01*
G01*
D02*
G03*
X309748Y249151I6295J3815D01*
G01*
X308658Y250541D02*
G03*
X309748Y249151I6295J3815D01*
G01*
X308658Y250541D02*
G03*
X309748Y249151I6295J3815D01*
G01*
X330600Y269500D02*
G03*
X331159Y268154I1900J0D01*
G01*
X330600Y269500D02*
G03*
X331156Y268157I1900J0D01*
G01*
X345147Y252500D02*
G03*
X343969Y255344I-4022J0D01*
G01*
X346656Y258031D02*
G03*
X349500Y256853I2844J2844D01*
G01*
X345147Y262500D02*
G03*
X343969Y265344I-4022J0D01*
G01*
X353853Y242500D02*
G03*
X353853Y242500I-4353J0D01*
G01*
X345147Y252500D02*
G03*
X352578Y249422I4353J0D01*
G01*
X353007Y249600D02*
G03*
X352578Y249422I0J-607D01*
G01*
X358104Y248164D02*
G03*
X353471Y249600I-4633J-6756D01*
G01*
X352578Y255578D02*
G03*
X349500Y256853I-3078J-3078D01*
G01*
X352578Y255578D02*
G03*
X353007Y255400I429J429D01*
G01*
X345147Y262500D02*
G03*
X352578Y259422I4353J0D01*
G01*
X353007Y259600D02*
G03*
X352578Y259422I0J-607D01*
G01*
X336600Y273500D02*
G03*
X337157Y272157I1900J0D01*
G01*
X336600Y273500D02*
G03*
X337159Y272154I1900J0D01*
G01*
X346656Y268031D02*
G03*
X349500Y266853I2844J2844D01*
G01*
X352578Y265578D02*
G03*
X349500Y266853I-3078J-3078D01*
G01*
X352578Y265578D02*
G03*
X353007Y265400I429J429D01*
G01*
X435735Y207095D02*
G03*
X435735Y207095I-4727J0D01*
G01*
Y218000D02*
G03*
X435735Y218000I-4727J0D01*
G01*
Y228906D02*
G03*
X435735Y228906I-4727J0D01*
G01*
X369839Y229761D02*
G03*
X372739Y232661I0J2900D01*
G01*
X369839Y229761D02*
G03*
X372739Y232661I0J2900D01*
G01*
X446916Y201642D02*
G03*
X446916Y201642I-4727J0D01*
G01*
Y212547D02*
G03*
X446916Y212547I-4727J0D01*
G01*
Y223453D02*
G03*
X446916Y223453I-4727J0D01*
G01*
Y234358D02*
G03*
X446916Y234358I-4727J0D01*
G01*
X360187Y255352D02*
G03*
X359661Y255400I-526J-2852D01*
G01*
X360187Y255352D02*
G03*
X359661Y255400I-526J-2852D01*
G01*
X364882Y253959D02*
G03*
X360713Y255400I-4168J-5309D01*
G01*
D02*
G03*
X360187Y255352I0J-2900D01*
G01*
X372739Y268000D02*
G03*
X371889Y270051I-2900J0D01*
G01*
X372739Y268000D02*
G03*
X371889Y270051I-2900J0D01*
G01*
X371551Y283051D02*
G03*
X371551Y278949I-2051J-2051D01*
G01*
X371914Y279100D02*
G03*
X371553Y278952I0J-514D01*
G01*
X439000Y279100D02*
G03*
X440344Y279657I0J1900D01*
G01*
X439000Y279100D02*
G03*
X440346Y279659I0J1900D01*
G01*
X291500Y292781D02*
G03*
X290948Y292553I0J-782D01*
G01*
X330600Y296086D02*
G03*
X330451Y296447I-514J0D01*
G01*
X335400Y298500D02*
G03*
X330449Y296449I-2900J0D01*
G01*
X336600Y292586D02*
G03*
X336452Y292947I-514J0D01*
G01*
X340548D02*
G03*
X340400Y292586I366J-362D01*
G01*
X334548Y296447D02*
G03*
X334400Y296086I366J-362D01*
G01*
X340551Y292949D02*
G03*
X341400Y295000I-2051J2051D01*
G01*
D02*
G03*
X336449Y292949I-2900J0D01*
G01*
X304964Y324303D02*
G03*
X306661Y323600I1697J1697D01*
G01*
X304964Y324303D02*
G03*
X306661Y323600I1697J1697D01*
G01*
X326500D02*
G03*
X328197Y324303I0J2400D01*
G01*
X326500Y323600D02*
G03*
X328197Y324303I0J2400D01*
G01*
X307199Y334699D02*
G03*
X307609Y334359I2051J2051D01*
G01*
D02*
G03*
X311100Y333317I2391J1641D01*
G01*
Y330000D02*
G03*
X311581Y328400I2900J0D01*
G01*
X311100Y330000D02*
G03*
X311581Y328400I2900J0D01*
G01*
X334551Y296449D02*
G03*
X335400Y298500I-2051J2051D01*
G01*
X371553Y283049D02*
G03*
X371914Y282900I362J366D01*
G01*
X366449Y292449D02*
G03*
X368500Y291600I2051J2051D01*
G01*
X366449Y292449D02*
G03*
X368500Y291600I2051J2051D01*
G01*
X385949Y286611D02*
G03*
X388000Y285761I2051J2051D01*
G01*
X385949Y286611D02*
G03*
X388000Y285761I2051J2051D01*
G01*
X382425Y290541D02*
G03*
X383111Y289449I2737J959D01*
G01*
X382425Y290541D02*
G03*
X383111Y289449I2737J959D01*
G01*
X369051Y298051D02*
G03*
X367000Y298900I-2051J-2051D01*
G01*
X369051Y298051D02*
G03*
X367000Y298900I-2051J-2051D01*
G01*
X360551Y309364D02*
G03*
X360400Y309000I364J-364D01*
G01*
X357500Y311900D02*
G03*
X357864Y312051I0J514D01*
G01*
X357500Y311900D02*
G03*
X360400Y309000I0J-2900D01*
G01*
X382000Y335400D02*
G03*
X380657Y334843I0J-1900D01*
G01*
X382000Y335400D02*
G03*
X380654Y334841I0J-1900D01*
G01*
X292630Y336638D02*
G03*
X291500Y337104I-1130J-1135D01*
G01*
X295459Y341063D02*
G03*
X295786Y340269I1126J0D01*
G01*
X305709Y336190D02*
G03*
X303500Y337104I-2209J-2212D01*
G01*
X305709Y336190D02*
G03*
X303500Y337104I-2209J-2212D01*
G01*
X305709Y336190D02*
G03*
X303500Y337104I-2209J-2212D01*
G01*
X289449Y361051D02*
G03*
X288600Y359000I2051J-2051D01*
G01*
X289449Y361051D02*
G03*
X288600Y359000I2051J-2051D01*
G01*
X290462Y362063D02*
G03*
X290850Y363000I-937J937D01*
G01*
X295500Y358350D02*
G03*
X294563Y357962I0J-1325D01*
G01*
X295500Y358350D02*
G03*
X294563Y357962I0J-1325D01*
G01*
X295500Y358350D02*
G03*
X294563Y357962I0J-1325D01*
G01*
X290462Y362063D02*
G03*
X290850Y363000I-937J937D01*
G01*
X290462Y362063D02*
G03*
X290850Y363000I-937J937D01*
G01*
X300150D02*
G03*
X290850Y363000I-4650J0D01*
G01*
X295500Y358350D02*
G03*
X300150Y363000I0J4650D01*
G01*
X301449Y357051D02*
G03*
X300600Y355000I2051J-2051D01*
G01*
X301449Y357051D02*
G03*
X300600Y355000I2051J-2051D01*
G01*
X302450Y358775D02*
G03*
X302065Y359709I-1325J0D01*
G01*
X302450Y358775D02*
G03*
X302065Y359709I-1325J0D01*
G01*
X302450Y358775D02*
G03*
X302065Y359709I-1325J0D01*
G01*
X309275Y365493D02*
G03*
X302062Y359712I-3925J-2493D01*
G01*
X317850Y363000D02*
G03*
X309275Y365493I-4650J0D01*
G01*
X345774Y339500D02*
G03*
X348031Y333631I2258J-2500D01*
G01*
X354226Y339500D02*
G03*
X355337Y342000I-2258J2500D01*
G01*
D02*
G03*
X354226Y344500I-3368J0D01*
G01*
X355337Y347000D02*
G03*
X351969Y350368I-3368J0D01*
G01*
X337000Y349400D02*
G03*
X335303Y348697I0J-2400D01*
G01*
X337000Y349400D02*
G03*
X335303Y348697I0J-2400D01*
G01*
X354226Y344500D02*
G03*
X355337Y347000I-2258J2500D01*
G01*
X351969Y333631D02*
G03*
X355337Y337000I0J3368D01*
G01*
D02*
G03*
X354226Y339500I-3368J0D01*
G01*
X318400Y353500D02*
G03*
X317551Y355551I-2900J0D01*
G01*
X318400Y353500D02*
G03*
X317551Y355551I-2900J0D01*
G01*
X316485Y359709D02*
G03*
X316100Y358775I940J-934D01*
G01*
X316485Y359709D02*
G03*
X316100Y358775I940J-934D01*
G01*
X316485Y359709D02*
G03*
X316100Y358775I940J-934D01*
G01*
X316488Y359712D02*
G03*
X317850Y363000I-3288J3288D01*
G01*
X348031Y350368D02*
G03*
X345668Y349400I0J-3368D01*
G01*
X436486Y300100D02*
G03*
X445400Y296000I3514J-4100D01*
G01*
X443818Y317518D02*
G03*
X443818Y309882I-3818J-3818D01*
G01*
X431100Y332000D02*
G03*
X436900Y332000I2900J0D01*
G01*
X431100D02*
G03*
X436900Y332000I2900J0D01*
G01*
X445400Y296000D02*
G03*
X443514Y300100I-5400J0D01*
G01*
X448041Y300066D02*
G03*
X447656Y300100I-385J-2150D01*
G01*
X453341Y292654D02*
G03*
X453900Y294000I-1341J1346D01*
G01*
X453343Y292656D02*
G03*
X453900Y294000I-1343J1343D01*
G01*
X450100Y297092D02*
G03*
X449929Y298104I-3071J0D01*
G01*
X454072D02*
G03*
X453900Y297092I2899J-1012D01*
G01*
X446035Y310800D02*
G03*
X443823Y309886I0J-3136D01*
G01*
Y317514D02*
G03*
X446035Y316600I2213J2222D01*
G01*
X450189Y315751D02*
G03*
X448139Y316600I-2051J-2051D01*
G01*
X450189Y315751D02*
G03*
X448139Y316600I-2051J-2051D01*
G01*
X471000Y313700D02*
G03*
X471000Y313700I-5400J0D01*
G01*
X413000Y331600D02*
G03*
X414344Y332156I0J1900D01*
G01*
X412093Y335400D02*
G03*
X412522Y336932I-2525J1532D01*
G01*
X413000Y331600D02*
G03*
X414346Y332159I0J1900D01*
G01*
X416651Y333014D02*
G03*
X414344Y332157I-219J-2945D01*
G01*
X416657Y333013D02*
G03*
X421500Y337500I343J4487D01*
G01*
D02*
G03*
X412513Y337157I-4500J0D01*
G01*
X420863Y344600D02*
G03*
X420185Y344321I0J-963D01*
G01*
Y350679D02*
G03*
X420185Y344321I-3185J-3179D01*
G01*
Y350679D02*
G03*
X420863Y350400I678J684D01*
G01*
X431041Y343565D02*
G03*
X427463Y344600I-3578J-5665D01*
G01*
X434889Y349551D02*
G03*
X432839Y350400I-2051J-2051D01*
G01*
X434889Y349551D02*
G03*
X432839Y350400I-2051J-2051D01*
G01*
X437072Y333604D02*
G03*
X436900Y332592I2899J-1012D01*
G01*
X449161Y350400D02*
G03*
X447111Y349551I0J-2900D01*
G01*
X449161Y350400D02*
G03*
X447111Y349551I0J-2900D01*
G01*
X454537Y344600D02*
G03*
X450959Y343565I0J-6700D01*
G01*
X459815Y344321D02*
G03*
X459137Y344600I-678J-684D01*
G01*
X459815Y344321D02*
G03*
X467500Y347500I3185J3179D01*
G01*
X459137Y350400D02*
G03*
X459815Y350679I0J963D01*
G01*
X467500Y347500D02*
G03*
X459815Y350679I-4500J0D01*
G01*
X170500Y188000D02*
X201143D01*
X170500Y186000D02*
X202275D01*
X170500Y190000D02*
X200915D01*
X170500Y192000D02*
X201463D01*
X202000Y157500D02*
Y186334D01*
X204000Y157500D02*
Y184714D01*
X202000Y192867D02*
Y210041D01*
X170500Y194000D02*
X203169D01*
X204000Y194486D02*
Y210041D01*
X188000Y157500D02*
Y211258D01*
X190000Y157500D02*
Y215000D01*
X182000Y157500D02*
Y212172D01*
X186000Y157500D02*
Y210528D01*
X184000Y157500D02*
Y210757D01*
X198000Y157500D02*
Y211258D01*
X200000Y157500D02*
Y211963D01*
X192000Y157500D02*
Y212172D01*
X196000Y157500D02*
Y210528D01*
X194000Y157500D02*
Y210757D01*
X170500Y162000D02*
X218984D01*
X170500Y160000D02*
X220372D01*
X170500Y164000D02*
X218600D01*
X170500Y166000D02*
X218984D01*
X170500Y168000D02*
X220372D01*
X206000Y157500D02*
Y184208D01*
X208000Y157500D02*
Y184475D01*
X210000Y157500D02*
Y185667D01*
X210325Y186000D02*
X219975D01*
X211457Y188000D02*
X218843D01*
X208000Y194725D02*
Y210041D01*
X206000Y194992D02*
Y210041D01*
X170500Y200000D02*
X217647D01*
X170500Y202000D02*
X217647D01*
X212000Y157500D02*
Y210040D01*
X211685Y190000D02*
X218615D01*
X210000Y193533D02*
Y210041D01*
X211137Y192000D02*
X219163D01*
X209431Y194000D02*
X220869D01*
X170500Y212000D02*
X182146D01*
X170500Y214000D02*
X181113D01*
X188854Y212000D02*
X192146D01*
X189887Y214000D02*
X191112D01*
X200104Y210041D02*
Y211929D01*
X198935Y212000D02*
X199869D01*
X170500Y216000D02*
X181113D01*
X170500Y218000D02*
X182146D01*
X189887Y216000D02*
X191112D01*
X188854Y218000D02*
X192146D01*
X199363Y217900D02*
X200104D01*
X202000Y217959D02*
Y232041D01*
X170500Y206000D02*
X217647D01*
X170500Y204000D02*
X217647D01*
X200104Y210041D02*
X207781D01*
X170500Y208000D02*
X215152D01*
X170500Y210000D02*
X212417D01*
X207781Y210041D02*
X208219D01*
X214183Y208969D02*
X215492Y207659D01*
X208219Y210041D02*
X211937D01*
X200104Y217959D02*
X207781D01*
Y210041D02*
X208219D01*
X207781Y217959D02*
X208219D01*
X207781D02*
X208219D01*
X198935Y218000D02*
X220284D01*
X208219Y217959D02*
X215896D01*
Y214000D02*
X217647D01*
X220000Y157500D02*
Y160372D01*
X222000Y157500D02*
Y158984D01*
X220000Y167628D02*
Y185972D01*
X222000Y169016D02*
Y184584D01*
X224000Y157500D02*
Y158600D01*
X226000Y157500D02*
Y158984D01*
X224000Y169400D02*
Y184200D01*
X228000Y157500D02*
Y160372D01*
X226000Y169016D02*
Y184584D01*
X216000Y157500D02*
Y207295D01*
X218000Y157500D02*
Y199647D01*
X217647D02*
Y207100D01*
Y199647D02*
X226353D01*
X220000Y193228D02*
Y199647D01*
X222000Y194616D02*
Y199647D01*
X228000Y193228D02*
Y202284D01*
X224000Y195000D02*
Y199647D01*
X226000Y194616D02*
Y199647D01*
X226353D02*
Y207100D01*
X228000Y167628D02*
Y185972D01*
X228837Y192000D02*
X229463D01*
X228025Y186000D02*
X230275D01*
X236000Y157500D02*
Y184475D01*
X238000Y157500D02*
Y185667D01*
X230000Y157500D02*
Y186334D01*
X234000Y157500D02*
Y184208D01*
X232000Y157500D02*
Y184714D01*
X230000Y192867D02*
Y200134D01*
X227131Y194000D02*
X231170D01*
X232000Y194486D02*
Y199647D01*
X240000Y157500D02*
Y200134D01*
X242000Y157500D02*
Y199647D01*
X234000Y194992D02*
Y200134D01*
X238000Y193533D02*
Y202284D01*
X236000Y194725D02*
Y202284D01*
X216839Y207100D02*
X217647D01*
X217626Y210900D02*
X218944D01*
X216569Y212000D02*
X218134D01*
X225056Y210900D02*
X228944D01*
X225866Y212000D02*
X228134D01*
X226353Y204000D02*
X227647D01*
X226353Y202000D02*
X228134D01*
X228000Y205716D02*
Y207100D01*
X226353Y206000D02*
X228134D01*
X226353Y207100D02*
X228944D01*
X218000Y210900D02*
Y212283D01*
X215896Y214000D02*
Y217959D01*
Y216000D02*
X218134D01*
X226000Y210900D02*
Y212283D01*
X226353Y214000D02*
X227647D01*
X228000Y210900D02*
Y212283D01*
X225866Y216000D02*
X228134D01*
X226353Y200000D02*
X230283D01*
X233717D02*
X240283D01*
X235056Y207100D02*
X238944D01*
X236353Y204000D02*
X237647D01*
X235866Y202000D02*
X238134D01*
X236000Y205716D02*
Y207100D01*
X235866Y206000D02*
X238134D01*
X238000Y205716D02*
Y207100D01*
X235056Y210900D02*
X238944D01*
X223716Y218000D02*
X230283D01*
X233717D02*
X240283D01*
X236000Y210900D02*
Y212283D01*
X238000Y210900D02*
Y212283D01*
X236353Y214000D02*
X237647D01*
X235866Y212000D02*
X238134D01*
X235866Y216000D02*
X238134D01*
X182000Y217828D02*
Y234172D01*
X170500Y234000D02*
X182146D01*
X170500Y238000D02*
X181113D01*
X170500Y236000D02*
X181113D01*
X188000Y218742D02*
Y233258D01*
X190000Y215000D02*
Y237000D01*
X184000Y219243D02*
Y232757D01*
X186000Y219472D02*
Y232528D01*
X189887Y236000D02*
X191112D01*
X176000Y157500D02*
Y384000D01*
X178000Y157500D02*
Y384000D01*
X170500Y157500D02*
Y384000D01*
X174000Y157500D02*
Y384000D01*
X172000Y157500D02*
Y384000D01*
X180000Y157500D02*
Y384000D01*
X182000Y239828D02*
Y256172D01*
X189887Y238000D02*
X191112D01*
X190000Y237000D02*
Y259000D01*
X194000Y219243D02*
Y232757D01*
X198000Y218742D02*
Y233258D01*
X188854Y234000D02*
X192146D01*
X196000Y219472D02*
Y232528D01*
X198935Y234000D02*
X199869D01*
X200000Y217900D02*
Y233963D01*
X200104Y232041D02*
Y233928D01*
Y232041D02*
X207781D01*
X192000Y217828D02*
Y234172D01*
Y239828D02*
Y256172D01*
X200000Y239900D02*
Y255963D01*
X199363Y239900D02*
X200104D01*
Y239959D02*
X207781D01*
X170500Y240000D02*
X182146D01*
X184000Y241243D02*
Y254757D01*
X170500Y258000D02*
X181113D01*
X186000Y241472D02*
Y254528D01*
X170500Y256000D02*
X182146D01*
X188000Y240742D02*
Y255258D01*
X188854Y240000D02*
X192146D01*
X189887Y258000D02*
X191112D01*
X194000Y241243D02*
Y254757D01*
X188854Y256000D02*
X192146D01*
X170500Y260000D02*
X181113D01*
X182000Y261828D02*
Y278172D01*
X170500Y262000D02*
X182146D01*
X184000Y263243D02*
Y276757D01*
X190000Y259000D02*
Y281000D01*
X189887Y260000D02*
X191112D01*
X188000Y262742D02*
Y277258D01*
X188854Y262000D02*
X192146D01*
X192000Y261828D02*
Y278172D01*
X196000Y241472D02*
Y254528D01*
X198000Y240742D02*
Y255258D01*
X198935Y256000D02*
X199869D01*
X200104Y254041D02*
Y255928D01*
X202000Y239959D02*
Y254041D01*
X200104D02*
X207781D01*
X198000Y262742D02*
Y277258D01*
X198935Y262000D02*
X227152D01*
X200000Y261900D02*
Y277963D01*
X199363Y261900D02*
X200104D01*
X202000Y261959D02*
Y276041D01*
X200104Y261959D02*
X207781D01*
X204000D02*
Y276041D01*
Y217959D02*
Y232041D01*
X206000Y217959D02*
Y232041D01*
X207781D02*
X208219D01*
X207781D02*
X208219D01*
X208000Y217959D02*
Y232041D01*
X210000Y217959D02*
Y232041D01*
X212000Y217959D02*
Y232041D01*
X208219D02*
X215896D01*
X214000Y217959D02*
Y232041D01*
X215896D02*
Y233600D01*
X216000Y213177D02*
Y233600D01*
X215896D02*
X218115D01*
X218000Y215717D02*
Y233600D01*
X220000Y217866D02*
Y233600D01*
Y237400D02*
Y256100D01*
X224000Y217866D02*
Y233600D01*
X222000Y218353D02*
Y233600D01*
X226000Y215717D02*
Y233600D01*
X228000Y215717D02*
Y233600D01*
X230000Y217866D02*
Y233600D01*
X234000Y217866D02*
Y233600D01*
X232000Y218353D02*
Y233600D01*
X236000Y215717D02*
Y233600D01*
X238000Y215717D02*
Y233600D01*
X240000Y217866D02*
Y233600D01*
X244000Y217866D02*
Y233600D01*
X242000Y218353D02*
Y233600D01*
X232000Y237400D02*
Y256100D01*
X234000Y237400D02*
Y256100D01*
X226000Y237400D02*
Y256100D01*
X230000Y237400D02*
Y256100D01*
X228000Y237400D02*
Y256100D01*
X242000Y237400D02*
Y256100D01*
X244000Y237400D02*
Y256100D01*
X236000Y237400D02*
Y256100D01*
X240000Y237400D02*
Y256100D01*
X238000Y237400D02*
Y256100D01*
X204000Y239959D02*
Y254041D01*
X206000Y239959D02*
Y254041D01*
X207781D02*
X208219D01*
X207781Y239959D02*
X208219D01*
X207781D02*
X208219D01*
X208000D02*
Y254041D01*
X210000Y239959D02*
Y254041D01*
X207781D02*
X208219D01*
X215896D01*
X212000Y239959D02*
Y254041D01*
X208000Y261959D02*
Y276041D01*
X208219Y261959D02*
X215896D01*
X206000D02*
Y276041D01*
X207781Y261959D02*
X208219D01*
X207781D02*
X208219D01*
X214000Y239959D02*
Y254041D01*
X215896D02*
Y255928D01*
X210000Y261959D02*
Y276041D01*
X215896Y260071D02*
Y261959D01*
X212000D02*
Y276040D01*
X208219Y239959D02*
X215896D01*
Y237947D02*
Y239959D01*
X222000Y237400D02*
Y256100D01*
X224000Y237400D02*
Y256100D01*
X216000Y237894D02*
Y255963D01*
X218000Y237401D02*
Y256100D01*
X220000Y259900D02*
Y269152D01*
X222000Y259900D02*
Y267152D01*
X216000Y260037D02*
Y273152D01*
X218000Y259900D02*
Y271152D01*
X214183Y274969D02*
X228492Y260659D01*
X224000Y259900D02*
Y265152D01*
X226000Y259900D02*
Y263152D01*
X228000Y259900D02*
Y261152D01*
X229016Y162000D02*
X246984D01*
X227628Y160000D02*
X248372D01*
X229400Y164000D02*
X246600D01*
X229016Y166000D02*
X246984D01*
X254000Y157500D02*
Y158984D01*
X256000Y157500D02*
Y160372D01*
X248000Y157500D02*
Y160372D01*
X252000Y157500D02*
Y158600D01*
X250000Y157500D02*
Y158984D01*
X244000Y157500D02*
Y200134D01*
X246000Y157500D02*
Y202284D01*
X239458Y188000D02*
X246843D01*
X227628Y168000D02*
X248372D01*
X238325Y186000D02*
X247975D01*
X248000Y167628D02*
Y185972D01*
X256000Y167628D02*
Y185972D01*
X250000Y169016D02*
Y184584D01*
X252000Y169400D02*
Y184200D01*
X254000Y169016D02*
Y184584D01*
X170500Y158000D02*
X474000D01*
X170500Y157500D02*
X474000D01*
X170500Y170000D02*
X474000D01*
X170500Y172000D02*
X474000D01*
X257016Y162000D02*
X274984D01*
X255628Y160000D02*
X276372D01*
X257400Y164000D02*
X274600D01*
X257016Y166000D02*
X274984D01*
X255628Y168000D02*
X276372D01*
X170500Y176000D02*
X474000D01*
X170500Y174000D02*
X474000D01*
X170500Y182000D02*
X329100D01*
X170500Y178000D02*
X330530D01*
X170500Y180000D02*
X329143D01*
X258000Y157500D02*
Y186334D01*
X170500Y184000D02*
X329100D01*
X256025Y186000D02*
X258275D01*
X239685Y190000D02*
X246615D01*
X239137Y192000D02*
X247163D01*
X237431Y194000D02*
X248869D01*
X170500Y196000D02*
X255478D01*
X243717Y200000D02*
X250284D01*
X248000Y193228D02*
Y202284D01*
X250000Y194616D02*
Y200134D01*
X245866Y202000D02*
X248134D01*
X252000Y195000D02*
Y199647D01*
X254000Y195313D02*
Y200134D01*
X246000Y205716D02*
Y207100D01*
X245866Y206000D02*
X248134D01*
X245056Y207100D02*
X247000D01*
X246353Y204000D02*
X247647D01*
X248000Y205716D02*
Y207384D01*
X248687Y208000D02*
X250284D01*
X170500Y198000D02*
X257713D01*
X256636Y196923D02*
X258054Y198341D01*
X259323Y194236D02*
X260187Y195100D01*
X256000Y196363D02*
Y202284D01*
X253716Y200000D02*
X260283D01*
X255866Y202000D02*
X258134D01*
X255866Y206000D02*
X258134D01*
X253716Y208000D02*
X260283D01*
X258000Y198287D02*
Y202284D01*
X256353Y204000D02*
X257647D01*
X259400Y198900D02*
X262713D01*
X264000Y157500D02*
Y184475D01*
X266000Y157500D02*
Y185667D01*
X260000Y157500D02*
Y184714D01*
X262000Y157500D02*
Y184208D01*
X278000Y157500D02*
Y158984D01*
X280000Y157500D02*
Y158600D01*
X276000Y157500D02*
Y160372D01*
X280000Y169400D02*
Y184200D01*
X278000Y169016D02*
Y184584D01*
X268000Y157500D02*
Y198813D01*
X266325Y186000D02*
X275975D01*
X267685Y190000D02*
X274615D01*
X267458Y188000D02*
X274843D01*
X267137Y192000D02*
X275163D01*
X270000Y157500D02*
Y200134D01*
X272000Y157500D02*
Y199647D01*
X274000Y157500D02*
Y200134D01*
X276000Y167628D02*
Y185972D01*
Y193228D02*
Y202284D01*
X282000Y157500D02*
Y158984D01*
Y169016D02*
Y184584D01*
X283628Y160000D02*
X306372D01*
X283628Y168000D02*
X306372D01*
X284000Y157500D02*
Y160372D01*
X285016Y162000D02*
X304984D01*
X284000Y167628D02*
Y185972D01*
X285400Y164000D02*
X304600D01*
X285016Y166000D02*
X304984D01*
X284025Y186000D02*
X288275D01*
X284000Y193228D02*
Y200134D01*
X285157Y188000D02*
X287142D01*
X284837Y192000D02*
X287463D01*
X286000Y157500D02*
Y196813D01*
X288000Y157500D02*
Y186334D01*
X285385Y190000D02*
X286915D01*
X288000Y192867D02*
Y195600D01*
X260000Y194486D02*
Y194913D01*
X260187Y195100D02*
X263500D01*
X262000Y198900D02*
Y199647D01*
X266000Y193533D02*
Y196813D01*
X265430Y194000D02*
X276870D01*
X264000Y194725D02*
Y195167D01*
X264846Y195659D02*
X268341Y199154D01*
X268833Y200000D02*
X270284D01*
X260000Y198900D02*
Y200134D01*
X262713Y198900D02*
X263894Y200081D01*
X263717Y208000D02*
X265100D01*
X268900Y200500D02*
Y200944D01*
Y207056D02*
Y208213D01*
Y208000D02*
X270284D01*
X282000Y194616D02*
Y199647D01*
X283131Y194000D02*
X289170D01*
X267187Y198000D02*
X284885D01*
X265187Y196000D02*
X286834D01*
X288000Y195600D02*
X301313D01*
X285159Y197654D02*
X286654Y196159D01*
X275866Y202000D02*
X278134D01*
X273716Y200000D02*
X280283D01*
X276353Y204000D02*
X277647D01*
X275866Y206000D02*
X278134D01*
X273716Y208000D02*
X280283D01*
X278000Y194616D02*
Y202284D01*
X280000Y195000D02*
Y200134D01*
X283717Y208000D02*
X284600D01*
X283717Y200000D02*
X284600D01*
Y199000D02*
Y200509D01*
X246000Y210900D02*
Y212283D01*
X245056Y210900D02*
X246213D01*
X246465Y211152D01*
X245866Y212000D02*
X247115D01*
X248346Y207659D02*
X249152Y208465D01*
X250000Y207866D02*
Y209115D01*
X246353Y214000D02*
X247647D01*
X245866Y216000D02*
X248134D01*
X243717Y218000D02*
X250284D01*
X218115Y233600D02*
X249586D01*
X246000Y215717D02*
Y233600D01*
X248000Y215717D02*
Y233600D01*
X250000Y217866D02*
Y233400D01*
X252000Y208353D02*
Y209647D01*
X254000Y207866D02*
Y210134D01*
X255866Y212000D02*
X258134D01*
X253716Y210000D02*
X260283D01*
X253716Y218000D02*
X260283D01*
X170500Y220000D02*
X332899D01*
X170500Y222000D02*
X334899D01*
X170500Y224000D02*
X336899D01*
X170500Y226000D02*
X338899D01*
X170500Y228000D02*
X340899D01*
X252000Y218353D02*
Y232600D01*
X254000Y217866D02*
Y233400D01*
X170500Y230000D02*
X342899D01*
X170500Y232000D02*
X292604D01*
X246000Y237400D02*
Y256100D01*
X218115Y237400D02*
X249586D01*
X215896Y238000D02*
X250530D01*
X216131Y256000D02*
X252890D01*
X216908Y256100D02*
X252586D01*
X248000Y237400D02*
Y256100D01*
X252000Y238400D02*
Y256100D01*
X250000Y237600D02*
Y256100D01*
X216908Y259900D02*
X247000D01*
X229839Y260100D02*
X246586D01*
X216131Y260000D02*
X246890D01*
X251000Y259900D02*
X252586D01*
X251100Y260000D02*
X252890D01*
X252000Y259900D02*
Y269530D01*
X170500Y242000D02*
X293761D01*
X170500Y244000D02*
X294089D01*
X170500Y246000D02*
X295484D01*
X170500Y250000D02*
X299569D01*
X170500Y252000D02*
X300394D01*
X254482Y234000D02*
X292604D01*
X254857Y236000D02*
X292604D01*
X253470Y238000D02*
X292604D01*
X198935Y240000D02*
X293761D01*
X170500Y254000D02*
X300604D01*
X251900Y262000D02*
X337313D01*
X254000Y237600D02*
Y255278D01*
Y260722D02*
Y384000D01*
X265100Y207056D02*
Y209000D01*
X262000Y208353D02*
Y209647D01*
X268900Y208213D02*
X269152Y208465D01*
X263717Y210000D02*
X265385D01*
X270000Y207866D02*
Y209115D01*
X272000Y208353D02*
Y209647D01*
X256000Y205716D02*
Y212283D01*
X258000Y205716D02*
Y212283D01*
X260000Y207866D02*
Y210134D01*
X264000Y207866D02*
Y210134D01*
X266000Y210687D02*
Y212283D01*
X265659Y210346D02*
X266465Y211152D01*
X274000Y207866D02*
Y210134D01*
X280000Y207866D02*
Y210134D01*
X282000Y208353D02*
Y209647D01*
X273716Y210000D02*
X280283D01*
X284000Y207866D02*
Y209115D01*
X284600Y207491D02*
Y208694D01*
X276000Y205716D02*
Y212283D01*
X278000Y205716D02*
Y212283D01*
X287535Y211152D02*
X287841Y210846D01*
X288000Y210666D02*
Y212283D01*
X256000Y215717D02*
Y255278D01*
X256353Y214000D02*
X257647D01*
X255866Y216000D02*
X258134D01*
X263717Y218000D02*
X270284D01*
X264000Y217866D02*
Y292781D01*
X265866Y212000D02*
X267115D01*
X266353Y214000D02*
X267647D01*
X265866Y216000D02*
X268134D01*
X258000Y215717D02*
Y384000D01*
X266000Y215717D02*
Y292781D01*
X256000Y260722D02*
Y384000D01*
X262000Y218353D02*
Y292781D01*
X260000Y217866D02*
Y384000D01*
X268000Y215717D02*
Y292781D01*
X276000Y215717D02*
Y348060D01*
X270000Y217866D02*
Y354060D01*
X274000Y217866D02*
Y350060D01*
X272000Y218353D02*
Y352060D01*
X276353Y214000D02*
X277647D01*
X275866Y212000D02*
X278134D01*
X275866Y216000D02*
X278134D01*
X283717Y218000D02*
X290283D01*
X273716D02*
X280283D01*
X286353Y214000D02*
X287647D01*
X286885Y212000D02*
X288134D01*
X285866Y216000D02*
X288134D01*
X278000Y215717D02*
Y346258D01*
X257100Y256000D02*
X300604D01*
X257900Y258000D02*
X300604D01*
X257100Y260000D02*
X339313D01*
X286000Y215717D02*
Y290600D01*
X288000Y215717D02*
Y290607D01*
X280000Y217866D02*
Y345939D01*
X284000Y217866D02*
Y290600D01*
X282000Y218353D02*
Y291018D01*
X170500Y278000D02*
X182146D01*
X186000Y263472D02*
Y276528D01*
X170500Y282000D02*
X181113D01*
X170500Y280000D02*
X181113D01*
X194000Y263243D02*
Y276757D01*
X196000Y263472D02*
Y276528D01*
X189887Y282000D02*
X191112D01*
X188854Y278000D02*
X192146D01*
X189887Y280000D02*
X191112D01*
X182000Y283828D02*
Y300172D01*
X170500Y284000D02*
X182146D01*
X186000Y285472D02*
Y298528D01*
X184000Y285243D02*
Y298757D01*
X190000Y281000D02*
Y303000D01*
X192000Y283828D02*
Y300172D01*
X188000Y284742D02*
Y299258D01*
X188854Y284000D02*
X192146D01*
X194000Y285243D02*
Y298757D01*
X170500Y266000D02*
X223152D01*
X170500Y264000D02*
X225152D01*
X170500Y272000D02*
X217152D01*
X170500Y268000D02*
X221152D01*
X170500Y270000D02*
X219152D01*
X170500Y276000D02*
X212417D01*
X170500Y274000D02*
X215152D01*
X198935Y278000D02*
X199869D01*
X170500Y288000D02*
X218100D01*
X170500Y286000D02*
X218100D01*
X170500Y294000D02*
X218100D01*
X170500Y290000D02*
X218100D01*
X170500Y292000D02*
X218100D01*
X196000Y285472D02*
Y298528D01*
X198000Y284742D02*
Y299258D01*
X170500Y300000D02*
X182146D01*
X170500Y302000D02*
X181113D01*
X170500Y304000D02*
X181113D01*
X170500Y306000D02*
X182146D01*
X189887Y304000D02*
X191112D01*
X189887Y302000D02*
X191112D01*
X184000Y307243D02*
Y320757D01*
X188854Y306000D02*
X192146D01*
X186000Y307472D02*
Y320528D01*
X182000Y305828D02*
Y322172D01*
X188000Y306742D02*
Y321258D01*
X170500Y326000D02*
X181113D01*
X170500Y322000D02*
X182146D01*
X170500Y324000D02*
X181113D01*
X190000Y303000D02*
Y325000D01*
X192000Y305828D02*
Y322172D01*
X189887Y326000D02*
X191112D01*
X188854Y322000D02*
X192146D01*
X189887Y324000D02*
X191112D01*
X170500Y298000D02*
X215152D01*
X170500Y296000D02*
X217152D01*
X188854Y300000D02*
X192146D01*
X170500Y308000D02*
X220100D01*
X170500Y310000D02*
X220100D01*
X170500Y314000D02*
X219152D01*
X170500Y312000D02*
X220100D01*
X170500Y320000D02*
X212417D01*
X170500Y316000D02*
X217152D01*
X170500Y318000D02*
X215152D01*
X194000Y307243D02*
Y320757D01*
X198000Y306742D02*
Y321258D01*
X196000Y307472D02*
Y320528D01*
X200104Y276041D02*
Y277928D01*
X199363Y283900D02*
X200104D01*
Y276041D02*
X207781D01*
X208219D01*
X200104Y283959D02*
X207781D01*
Y276041D02*
X208219D01*
X207781Y283959D02*
X208219D01*
X200000Y283900D02*
Y300100D01*
X202000Y283959D02*
Y300041D01*
X204000Y283959D02*
Y300041D01*
X200104D02*
X207781D01*
X206000Y283959D02*
Y300041D01*
X208000Y283959D02*
Y300041D01*
X207781Y283959D02*
X208219D01*
X207781Y300041D02*
X208219D01*
X210000Y283959D02*
Y300041D01*
X207781D02*
X208219D01*
Y276041D02*
X211937D01*
X208219Y283959D02*
X215896D01*
X216569Y278000D02*
X218100D01*
X215896Y280000D02*
Y283959D01*
Y280000D02*
X218100D01*
X215896Y282000D02*
X218100D01*
X198935Y284000D02*
X218100D01*
X208219Y300041D02*
X211937D01*
X198935Y300000D02*
X212417D01*
X216000Y279177D02*
Y297152D01*
X218100Y276426D02*
Y295052D01*
X212000Y283959D02*
Y300040D01*
X214183Y298969D02*
X218100Y295052D01*
X220100Y298426D02*
Y313052D01*
X199363Y300100D02*
X200104D01*
X198935Y306000D02*
X199869D01*
X200104Y307959D02*
X207781D01*
X200104Y306071D02*
Y307959D01*
X202000D02*
Y320041D01*
X207781D02*
X208219D01*
X207781Y307959D02*
X208219D01*
X207781D02*
X208219D01*
X200000Y306037D02*
Y321963D01*
X200104Y320041D02*
X207781D01*
X198935Y322000D02*
X199869D01*
X204000Y307959D02*
Y320041D01*
X206000Y307959D02*
Y320041D01*
X200104D02*
Y321929D01*
X207781Y320041D02*
X208219D01*
X208000Y307959D02*
Y320041D01*
X208219Y307959D02*
X215896D01*
Y304000D02*
X220100D01*
X214183Y318969D02*
X220100Y313052D01*
X216000Y303177D02*
Y317152D01*
X216569Y302000D02*
X220100D01*
X215896Y304000D02*
Y307959D01*
Y306000D02*
X220100D01*
X229400Y310000D02*
X231647D01*
X210000Y307959D02*
Y320041D01*
X212000Y307959D02*
Y320040D01*
X208219Y320041D02*
X211937D01*
X215896Y326000D02*
X222600D01*
X216569Y322000D02*
X222600D01*
X215896Y324000D02*
X222600D01*
X170500Y328000D02*
X182146D01*
X170500Y344000D02*
X182146D01*
X184000Y329243D02*
Y342757D01*
X192000Y327828D02*
Y344172D01*
X188854Y328000D02*
X192146D01*
X186000Y329472D02*
Y342528D01*
X188000Y328742D02*
Y343258D01*
X188854Y344000D02*
X192146D01*
X182000Y327828D02*
Y344172D01*
X170500Y346000D02*
X181113D01*
X170500Y348000D02*
X181113D01*
X182000Y349828D02*
Y366172D01*
X190000Y325000D02*
Y347000D01*
X189887Y346000D02*
X191112D01*
X190000Y347000D02*
Y369000D01*
X189887Y348000D02*
X191112D01*
X192000Y349828D02*
Y366172D01*
X170500Y334000D02*
X222600D01*
X170500Y332000D02*
X222600D01*
X170500Y340000D02*
X217152D01*
X170500Y336000D02*
X221152D01*
X170500Y338000D02*
X219152D01*
X198935Y328000D02*
X222600D01*
X170500Y330000D02*
X222600D01*
X194000Y329243D02*
Y342757D01*
X198000Y328742D02*
Y343258D01*
X196000Y329472D02*
Y342528D01*
X170500Y342000D02*
X215152D01*
X198935Y344000D02*
X212417D01*
X170500Y350000D02*
X182146D01*
X184000Y351243D02*
Y364757D01*
X170500Y368000D02*
X181113D01*
X186000Y351472D02*
Y364528D01*
X170500Y366000D02*
X182146D01*
X188000Y350742D02*
Y365258D01*
X188854Y350000D02*
X192146D01*
X189887Y370000D02*
X191112D01*
X188854Y366000D02*
X192146D01*
X189887Y368000D02*
X191112D01*
X170500Y370000D02*
X181113D01*
X182000Y371828D02*
Y384000D01*
X170500Y372000D02*
X182146D01*
X184000Y373243D02*
Y384000D01*
X190000Y369000D02*
Y384000D01*
X192000Y371828D02*
Y384000D01*
X186000Y373472D02*
Y384000D01*
X188854Y372000D02*
X192146D01*
X188000Y372742D02*
Y384000D01*
X170500Y354000D02*
X225152D01*
X170500Y352000D02*
X225600D01*
X170500Y360000D02*
X219152D01*
X170500Y356000D02*
X223152D01*
X170500Y358000D02*
X221152D01*
X194000Y351243D02*
Y364757D01*
X198935Y350000D02*
X199869D01*
X196000Y351472D02*
Y364528D01*
X170500Y362000D02*
X217152D01*
X170500Y364000D02*
X215152D01*
X198000Y350742D02*
Y365258D01*
X194000Y373243D02*
Y384000D01*
X198000Y372742D02*
Y384000D01*
X196000Y373472D02*
Y384000D01*
X198935Y372000D02*
X199869D01*
X199363Y327900D02*
X200104D01*
Y327959D02*
X207781D01*
X202000D02*
Y344041D01*
X200104D02*
X207781D01*
X204000Y327959D02*
Y344041D01*
X206000Y327959D02*
Y344041D01*
X207781Y327959D02*
X208219D01*
X207781D02*
X208219D01*
Y344041D02*
X211937D01*
X210000Y327959D02*
Y344041D01*
X200000Y327900D02*
Y344100D01*
X199363D02*
X200104D01*
X200000Y350037D02*
Y366100D01*
X208000Y327959D02*
Y344041D01*
X207781D02*
X208219D01*
X200104Y350072D02*
Y351959D01*
X207781Y344041D02*
X208219D01*
X202000Y351959D02*
Y366041D01*
X212000Y327959D02*
Y344040D01*
X208219Y327959D02*
X215896D01*
X214183Y342969D02*
X222600Y334552D01*
X216000Y323177D02*
Y341152D01*
X222600Y315926D02*
Y334552D01*
X215896Y324000D02*
Y327959D01*
X229400Y330000D02*
X231647D01*
X229400Y340000D02*
X231647D01*
X215896Y348000D02*
Y351959D01*
Y348000D02*
X225600D01*
X215896Y350000D02*
X225600D01*
X229400Y289287D02*
Y354339D01*
X230000Y288687D02*
Y384000D01*
X216000Y347177D02*
Y363152D01*
X216569Y346000D02*
X225600D01*
Y336926D02*
Y353552D01*
X204000Y351959D02*
Y366041D01*
X206000Y351959D02*
Y366041D01*
X199363Y366100D02*
X200104D01*
Y351959D02*
X207781D01*
X200104Y366041D02*
X207781D01*
Y351959D02*
X208219D01*
X207781D02*
X208219D01*
X208000D02*
Y366041D01*
X207781D02*
X208219D01*
X207781D02*
X208219D01*
X200000Y372037D02*
Y384000D01*
X200104Y373959D02*
X207781D01*
X200104Y372072D02*
Y373959D01*
X208000D02*
Y384000D01*
X207781Y373959D02*
X208219D01*
X202000D02*
Y384000D01*
X206000Y373959D02*
Y384000D01*
X204000Y373959D02*
Y384000D01*
X208219Y351959D02*
X215896D01*
X208219Y366041D02*
X211937D01*
X198935Y366000D02*
X212417D01*
X212000Y351959D02*
Y366040D01*
X214183Y364969D02*
X225600Y353552D01*
X231647Y355647D02*
Y364353D01*
X210000Y351959D02*
Y366041D01*
X208219Y373959D02*
X215896D01*
X207781D02*
X208219D01*
X212000D02*
Y384000D01*
X210000Y373959D02*
Y384000D01*
X214000Y373959D02*
Y384000D01*
X215896Y370000D02*
Y373959D01*
X216000Y369177D02*
Y384000D01*
X232000Y286687D02*
Y288283D01*
X229400Y289287D02*
X236787Y281900D01*
X229400Y290000D02*
X231647D01*
X230687Y288000D02*
X232134D01*
X238000Y281900D02*
Y286134D01*
X240000Y281900D02*
Y288283D01*
X234000Y284687D02*
Y286134D01*
X236000Y282687D02*
Y285647D01*
X232687Y286000D02*
X234283D01*
X229400Y292000D02*
X232134D01*
X229400Y294000D02*
X234283D01*
X229400Y300000D02*
X231647D01*
X229400Y296000D02*
X234283D01*
X229400Y298000D02*
X232134D01*
X232000Y291717D02*
Y298284D01*
X234000Y293866D02*
Y296134D01*
X232000Y301716D02*
Y308283D01*
X236000Y294353D02*
Y295647D01*
X238000Y293866D02*
Y296134D01*
X236787Y281900D02*
X248086D01*
X236687Y282000D02*
X248391D01*
X237717Y294000D02*
X244894D01*
X234687Y284000D02*
X330600D01*
X237717Y286000D02*
X244894D01*
X242000Y281900D02*
Y288894D01*
X240353Y290000D02*
X241850D01*
X239866Y288000D02*
X242364D01*
X239866Y292000D02*
X242364D01*
X240000Y291717D02*
Y298284D01*
X237717Y296000D02*
X244284D01*
X239866Y298000D02*
X242134D01*
X242000Y291106D02*
Y298284D01*
X240000Y301716D02*
Y308283D01*
X240353Y300000D02*
X241647D01*
X242000Y301716D02*
Y308283D01*
X229400Y302000D02*
X232134D01*
X229400Y304000D02*
X234283D01*
X229400Y308000D02*
X232134D01*
X229400Y306000D02*
X234283D01*
X229400Y314000D02*
X234283D01*
X234000Y303866D02*
Y306134D01*
X238000Y303866D02*
Y306134D01*
X229400Y312000D02*
X232134D01*
X236000Y304353D02*
Y305647D01*
Y314353D02*
Y315647D01*
X229400Y318000D02*
X232134D01*
X229400Y316000D02*
X234283D01*
X229400Y320000D02*
X231647D01*
X229400Y322000D02*
X232134D01*
X229400Y326000D02*
X234283D01*
X232000Y311717D02*
Y318284D01*
X234000Y313866D02*
Y316134D01*
Y323866D02*
Y326134D01*
X229400Y324000D02*
X234283D01*
X236000Y324353D02*
Y325647D01*
X237717Y304000D02*
X244284D01*
X237717Y316000D02*
X244284D01*
X237717Y306000D02*
X244284D01*
X237717Y314000D02*
X244284D01*
X239866Y302000D02*
X242134D01*
X240353Y310000D02*
X241647D01*
X239866Y308000D02*
X242134D01*
X239866Y312000D02*
X242134D01*
X238000Y313866D02*
Y316134D01*
X239866Y318000D02*
X242134D01*
X237717Y324000D02*
X244284D01*
X237717Y326000D02*
X244284D01*
X240000Y311717D02*
Y318284D01*
X242000Y311717D02*
Y318284D01*
X240353Y320000D02*
X241647D01*
X239866Y322000D02*
X242134D01*
X252000Y272470D02*
Y273400D01*
X248000Y281900D02*
Y286364D01*
X244000Y293636D02*
Y296134D01*
X246000Y281900D02*
Y285850D01*
X244000Y281900D02*
Y286364D01*
X250000Y282857D02*
Y288894D01*
Y291106D02*
Y298284D01*
X261541Y292781D02*
X269459D01*
X261541D02*
Y300896D01*
X251857Y266000D02*
X333313D01*
X251100Y264000D02*
X335313D01*
X252222Y272000D02*
X330600D01*
X251482Y268000D02*
X331313D01*
X252222Y270000D02*
X330600D01*
X252857Y276000D02*
X330600D01*
X252482Y274000D02*
X330600D01*
X252600Y282000D02*
X330600D01*
X252600Y278000D02*
X330600D01*
X253400Y280000D02*
X330600D01*
X249636Y288000D02*
X330600D01*
X247106Y286000D02*
X330600D01*
X269459Y292781D02*
Y300896D01*
X250150Y290000D02*
X330600D01*
X249636Y292000D02*
X281018D01*
X283500Y290600D02*
X287794D01*
X248000Y293636D02*
Y296134D01*
X247106Y294000D02*
X261541D01*
X246000Y294150D02*
Y295647D01*
X247716Y296000D02*
X261541D01*
X246000Y304353D02*
Y305647D01*
X269459Y294000D02*
X280643D01*
X269459Y296000D02*
X282030D01*
X249866Y298000D02*
X261541D01*
X250353Y300000D02*
X261541D01*
Y300896D02*
X269459D01*
X244000Y313866D02*
Y316134D01*
Y303866D02*
Y306134D01*
Y323866D02*
Y326134D01*
X246000Y314353D02*
Y315647D01*
Y324353D02*
Y325647D01*
X248000Y303866D02*
Y306134D01*
X250000Y301716D02*
Y308283D01*
X248000Y323866D02*
Y326134D01*
Y313866D02*
Y316134D01*
X250000Y311717D02*
Y318284D01*
X269459Y300000D02*
X287541D01*
X269459Y298000D02*
X287541D01*
X247716Y306000D02*
X381761D01*
X249866Y302000D02*
X381761D01*
X247716Y304000D02*
X381761D01*
X283500Y296400D02*
X286592D01*
X286847Y296655D01*
X287541Y297348D01*
Y300896D02*
X295459D01*
X287541Y297348D02*
Y300896D01*
X249866Y308000D02*
X354778D01*
X247716Y314000D02*
X359813D01*
X247716Y326000D02*
X303267D01*
X247716Y316000D02*
X361813D01*
X247716Y324000D02*
X305335D01*
X250353Y310000D02*
X354778D01*
X249866Y312000D02*
X357805D01*
X249866Y318000D02*
X363813D01*
X250353Y320000D02*
X365813D01*
X249866Y322000D02*
X367813D01*
X229400Y332000D02*
X232134D01*
X229400Y328000D02*
X232134D01*
X229400Y336000D02*
X234283D01*
X229400Y334000D02*
X234283D01*
X232000Y321716D02*
Y328284D01*
X240000Y321716D02*
Y328284D01*
X234000Y333866D02*
Y336134D01*
X238000Y323866D02*
Y326134D01*
X236000Y334353D02*
Y335647D01*
X232000Y331716D02*
Y338283D01*
X229400Y338000D02*
X232134D01*
X232000Y341717D02*
Y348284D01*
X229400Y342000D02*
X232134D01*
X229400Y344000D02*
X234283D01*
X238000Y333866D02*
Y336134D01*
X240000Y341717D02*
Y348284D01*
X234000Y343866D02*
Y346134D01*
X236000Y344353D02*
Y345647D01*
X238000Y343866D02*
Y346134D01*
X239866Y328000D02*
X242134D01*
X239866Y332000D02*
X242134D01*
X237717Y334000D02*
X244284D01*
X237717Y336000D02*
X244284D01*
X242000Y321716D02*
Y328284D01*
X240000Y331716D02*
Y338283D01*
X240353Y330000D02*
X241647D01*
X239866Y338000D02*
X242134D01*
X240353Y340000D02*
X241647D01*
X239866Y342000D02*
X242134D01*
X237717Y344000D02*
X244284D01*
X242000Y331716D02*
Y338283D01*
Y341717D02*
Y348284D01*
X244000Y343866D02*
Y346134D01*
X229400Y348000D02*
X232134D01*
X229400Y346000D02*
X234283D01*
X229400Y350000D02*
X231647D01*
X229400Y352000D02*
X232134D01*
X229400Y354000D02*
X234283D01*
X232000Y351716D02*
Y355647D01*
X240353Y350000D02*
X241647D01*
X234000Y353866D02*
Y355647D01*
X240000Y351716D02*
Y355647D01*
X236000Y354353D02*
Y355647D01*
X231647Y364353D02*
X240353D01*
X231647Y355647D02*
X240353D01*
X232000Y364353D02*
Y384000D01*
X236000Y364353D02*
Y384000D01*
X234000Y364353D02*
Y384000D01*
X238000Y353866D02*
Y355647D01*
X240353D02*
Y364353D01*
X238000D02*
Y384000D01*
X240353Y360000D02*
X241647D01*
X240000Y364353D02*
Y384000D01*
X239866Y348000D02*
X242134D01*
X237717Y346000D02*
X244284D01*
X239866Y352000D02*
X242134D01*
X237717Y354000D02*
X244284D01*
X240353Y356000D02*
X244284D01*
X242000Y351716D02*
Y358283D01*
X240353Y358000D02*
X242134D01*
X240353Y362000D02*
X242134D01*
X240353Y364000D02*
X244284D01*
X170500Y376000D02*
X474000D01*
X170500Y374000D02*
X474000D01*
X170500Y384000D02*
X474000D01*
X170500Y378000D02*
X474000D01*
X170500Y380000D02*
X474000D01*
X242000Y361717D02*
Y384000D01*
X216569Y368000D02*
X474000D01*
X170500Y382000D02*
X474000D01*
X215896Y370000D02*
X474000D01*
X215896Y372000D02*
X474000D01*
X244000Y333866D02*
Y336134D01*
X248000Y333866D02*
Y336134D01*
X246000Y334353D02*
Y335647D01*
Y344353D02*
Y345647D01*
X247716Y346000D02*
X278729D01*
X250000Y331716D02*
Y338283D01*
Y321716D02*
Y328284D01*
X248000Y343866D02*
Y346134D01*
X250000Y341717D02*
Y348284D01*
X252000Y282482D02*
Y384000D01*
X250000Y351716D02*
Y358283D01*
X249866Y348000D02*
X276060D01*
X250353Y350000D02*
X274060D01*
X262000Y300896D02*
Y384000D01*
X264000Y300896D02*
Y384000D01*
X266000Y300896D02*
Y356104D01*
X268000Y300896D02*
Y356060D01*
X267956Y356104D02*
X277272Y346788D01*
X249866Y332000D02*
X297267D01*
X249866Y328000D02*
X301267D01*
X249866Y342000D02*
X287541D01*
X247716Y334000D02*
X295267D01*
X247716Y336000D02*
X293267D01*
X288000Y300896D02*
Y337104D01*
X250353Y330000D02*
X299267D01*
X250353Y340000D02*
X287541D01*
Y337104D02*
X291500D01*
X249866Y338000D02*
X287541D01*
X282000Y295982D02*
Y345939D01*
X286000Y296400D02*
Y345939D01*
X284000Y296400D02*
Y345939D01*
X247716Y344000D02*
X287541D01*
X279323Y345939D02*
X287541D01*
Y344781D02*
Y345219D01*
Y337104D02*
Y344781D01*
Y351739D02*
Y352896D01*
Y344781D02*
Y345219D01*
Y345939D01*
X244000Y353866D02*
Y356134D01*
X247716Y354000D02*
X270060D01*
X246000Y354353D02*
Y355647D01*
X247716Y356000D02*
X268060D01*
X247716Y364000D02*
X264041D01*
X248000Y353866D02*
Y356134D01*
X264041Y356104D02*
X267956D01*
X249866Y362000D02*
X264041D01*
X249866Y358000D02*
X264041D01*
X250353Y360000D02*
X264041D01*
X250000Y361717D02*
Y384000D01*
X264041Y356104D02*
Y364219D01*
X244000Y363866D02*
Y384000D01*
X248000Y363866D02*
Y384000D01*
X246000Y364353D02*
Y384000D01*
X270000Y364219D02*
Y384000D01*
X271959Y360304D02*
Y364219D01*
X266000D02*
Y384000D01*
X264041Y364219D02*
X271959D01*
X268000D02*
Y384000D01*
X249866Y352000D02*
X272060D01*
X271959Y360304D02*
X280524Y351739D01*
X274263Y358000D02*
X288600D01*
X272263Y360000D02*
X288778D01*
X271959Y362000D02*
X290399D01*
X280263Y352000D02*
X287541D01*
X280524Y351739D02*
X287541D01*
X276263Y356000D02*
X288600D01*
X287541Y352896D02*
X288600D01*
X278263Y354000D02*
X288600D01*
X276000Y356263D02*
Y384000D01*
X278000Y354263D02*
Y384000D01*
X272000Y360263D02*
Y384000D01*
X271959Y364000D02*
X290959D01*
X274000Y358263D02*
Y384000D01*
X282000Y351739D02*
Y384000D01*
X284000Y351739D02*
Y384000D01*
X280000Y352263D02*
Y384000D01*
X288000Y352896D02*
Y384000D01*
X286000Y351739D02*
Y384000D01*
X290000Y157500D02*
Y184714D01*
X292000Y157500D02*
Y184208D01*
X290000Y194486D02*
Y195600D01*
X292000Y194992D02*
Y195600D01*
X294000Y157500D02*
Y184475D01*
X296000Y157500D02*
Y185667D01*
X294000Y194725D02*
Y195600D01*
X300000Y157500D02*
Y195600D01*
X298000Y157500D02*
Y195600D01*
X288400Y199787D02*
X288787Y199400D01*
X290000D02*
Y200134D01*
X288400Y199787D02*
Y201553D01*
Y200000D02*
X290283D01*
X294000Y199400D02*
Y200134D01*
X296000Y193533D02*
Y195600D01*
Y199400D02*
Y202284D01*
X300000Y199400D02*
Y230541D01*
X298000Y199400D02*
Y230541D01*
X297458Y188000D02*
X304842D01*
X296325Y186000D02*
X305975D01*
X295430Y194000D02*
X302902D01*
X297685Y190000D02*
X304588D01*
X297137Y192000D02*
X304145D01*
X302000Y157500D02*
Y194913D01*
X304000Y157500D02*
Y192339D01*
X288787Y199400D02*
X302100D01*
X301313Y195600D02*
X302677Y194236D01*
X296353Y204000D02*
X329100D01*
X293717Y200000D02*
X329100D01*
X295866Y202000D02*
X329100D01*
X304000Y198287D02*
Y245899D01*
X303446Y198841D02*
X305364Y196923D01*
X302000Y199400D02*
Y243899D01*
X288400Y206447D02*
Y209500D01*
X290000Y207866D02*
Y210134D01*
X288400Y208000D02*
X290283D01*
X288333Y210000D02*
X290283D01*
X294000Y207866D02*
Y210134D01*
X296000Y205716D02*
Y212283D01*
X292000Y208353D02*
Y209647D01*
X296000Y215717D02*
Y230541D01*
X294000Y217866D02*
Y230541D01*
X292604D02*
Y238459D01*
Y230541D02*
X300719D01*
X292604Y238459D02*
X293761D01*
Y238930D01*
X299561Y238459D02*
Y238930D01*
X300000Y238459D02*
Y240870D01*
X293761Y238930D02*
Y242661D01*
X294611Y244712D02*
X295238Y245339D01*
X293717Y208000D02*
X329100D01*
X295866Y206000D02*
X329100D01*
X293717Y210000D02*
X329100D01*
X295866Y212000D02*
X329100D01*
X293717Y218000D02*
X330899D01*
X296353Y214000D02*
X329100D01*
X295866Y216000D02*
X329278D01*
X300719Y236000D02*
X320281D01*
X300719Y232000D02*
X320281D01*
X300719Y234000D02*
X320281D01*
X299561Y238459D02*
X300719D01*
X299690Y240000D02*
X318899D01*
X300719Y230541D02*
Y238459D01*
Y238000D02*
X320281D01*
X300768Y242000D02*
X316242D01*
X302101Y244000D02*
X314899D01*
X306000Y157500D02*
Y160372D01*
X308000Y157500D02*
Y158984D01*
Y169016D02*
Y184584D01*
X310000Y157500D02*
Y158600D01*
X312000Y157500D02*
Y158984D01*
X310000Y169400D02*
Y184200D01*
X314000Y157500D02*
Y160372D01*
X312000Y169016D02*
Y184584D01*
X316000Y157500D02*
Y242242D01*
X318000Y157500D02*
Y240899D01*
X306000Y167628D02*
Y185972D01*
X314000Y167628D02*
Y185972D01*
X326000Y157500D02*
Y230541D01*
X328000Y157500D02*
Y230541D01*
X320000Y157500D02*
Y238899D01*
X324000Y157500D02*
Y230541D01*
X322000Y157500D02*
Y230541D01*
X330000Y157500D02*
Y178400D01*
X314025Y186000D02*
X329100D01*
Y180500D02*
Y215000D01*
X332000Y157500D02*
Y177600D01*
X334000Y157500D02*
Y178400D01*
X334900Y180500D02*
Y213799D01*
X336000Y157500D02*
Y214899D01*
X338000Y157500D02*
Y216899D01*
X346000Y157500D02*
Y224899D01*
X348000Y157500D02*
Y226899D01*
X340000Y157500D02*
Y218899D01*
X342000Y157500D02*
Y220899D01*
X344000Y157500D02*
Y222899D01*
X356000Y157500D02*
Y229761D01*
X358000Y157500D02*
Y229761D01*
X350000Y157500D02*
Y228176D01*
X352000Y157500D02*
Y228937D01*
X354000Y157500D02*
Y229761D01*
X306522Y196000D02*
X329100D01*
X304287Y198000D02*
X329100D01*
X315158Y188000D02*
X329100D01*
X313130Y194000D02*
X329100D01*
X315385Y190000D02*
X329100D01*
X314837Y192000D02*
X329100D01*
X314000Y193228D02*
Y244899D01*
X320281Y230541D02*
Y238459D01*
Y230541D02*
X328396D01*
X317661Y241238D02*
X320440Y238459D01*
X327239D02*
X328396D01*
Y230541D02*
Y238459D01*
X321762Y245339D02*
X326389Y240712D01*
X328396Y232000D02*
X344899D01*
X329949Y217051D02*
X344970Y232071D01*
X328396Y234000D02*
X345414D01*
X334900Y213799D02*
X349071Y227970D01*
X328396Y236000D02*
X346912D01*
X325101Y242000D02*
X345176D01*
X326911Y240000D02*
X345937D01*
X323101Y244000D02*
X345414D01*
X346000Y235088D02*
Y239912D01*
X352618Y235561D02*
X353397D01*
X348000Y236586D02*
Y238414D01*
X350000Y236824D02*
Y238176D01*
X352000Y236063D02*
Y238937D01*
X306000Y196363D02*
Y247899D01*
X301762Y243661D02*
X306712Y248611D01*
X310000Y195000D02*
Y248927D01*
X290000Y217866D02*
Y291605D01*
X292000Y218353D02*
Y292781D01*
X294000Y243813D02*
Y292781D01*
X296000Y246758D02*
Y333267D01*
X308000Y195313D02*
Y250026D01*
X306101Y248000D02*
X310899D01*
X304101Y246000D02*
X312899D01*
X312000Y194616D02*
Y246899D01*
X310288Y248611D02*
X315238Y243661D01*
X321516Y246000D02*
X346912D01*
X322000Y245101D02*
Y323600D01*
X324000Y243101D02*
Y323600D01*
X320000Y247516D02*
Y323600D01*
X330000Y217101D02*
Y297030D01*
X332000Y219101D02*
Y267313D01*
X326000Y241101D02*
Y323600D01*
X334000Y221101D02*
Y265313D01*
X328000Y238459D02*
Y324127D01*
X308342Y250541D02*
X308658D01*
X308342D02*
X308658D01*
X300000Y250844D02*
Y329267D01*
X300604Y253309D02*
Y258459D01*
X302000D02*
Y327267D01*
X300604Y258459D02*
X308281D01*
X304000D02*
Y325267D01*
X308281Y258459D02*
X308719D01*
X306000D02*
Y323693D01*
X308281Y258459D02*
X308719D01*
X308000D02*
Y323600D01*
X307981Y250000D02*
X309019D01*
X308719Y258459D02*
X316396D01*
X316606Y252000D02*
X345176D01*
X317431Y250000D02*
X345937D01*
X316396Y258000D02*
X341313D01*
X316396Y254000D02*
X344857D01*
X316396Y256000D02*
X343313D01*
X316000Y258459D02*
Y323600D01*
X316396Y253309D02*
Y258459D01*
X310000D02*
Y323600D01*
X314000Y258459D02*
Y323600D01*
X312000Y258459D02*
Y323600D01*
X318000Y249173D02*
Y323600D01*
X331159Y268154D02*
X343965Y255348D01*
X330600Y269500D02*
Y296086D01*
X340000Y227101D02*
Y259313D01*
X342000Y229101D02*
Y257313D01*
X344000Y231101D02*
Y255313D01*
X346000Y245088D02*
Y249912D01*
X348000Y246586D02*
Y248414D01*
X350000Y246824D02*
Y248176D01*
X346000Y258687D02*
Y259912D01*
X348000Y257143D02*
Y258414D01*
X336000Y223101D02*
Y263313D01*
X338000Y225101D02*
Y261313D01*
X340000Y264687D02*
Y269313D01*
X340687Y264000D02*
X344857D01*
X334400Y270287D02*
X346652Y258035D01*
X344000Y260687D02*
Y265313D01*
X344687Y260000D02*
X345937D01*
X342000Y262687D02*
Y267313D01*
X342687Y262000D02*
X345176D01*
X352000Y246063D02*
Y248937D01*
X353007Y255400D02*
X353471D01*
X356000Y235561D02*
Y249200D01*
X358000Y235561D02*
Y248234D01*
X353007Y249600D02*
X353471D01*
X354000Y235561D02*
Y249583D01*
X350000Y256824D02*
Y258176D01*
X352000Y256063D02*
Y258937D01*
X354000Y255400D02*
Y259600D01*
X356000Y255400D02*
Y259600D01*
X353007D02*
X358104D01*
X358000Y255400D02*
Y259600D01*
X334400Y272000D02*
X337313D01*
X334687Y270000D02*
X339313D01*
X334400Y276000D02*
X336600D01*
X334400Y274000D02*
X336600D01*
X338687Y266000D02*
X343313D01*
X337159Y272154D02*
X343965Y265348D01*
X336687Y268000D02*
X341313D01*
X338000Y266687D02*
Y271313D01*
X334400Y270287D02*
Y296086D01*
X336000Y268687D02*
Y293530D01*
X334400Y282000D02*
X336600D01*
X334400Y278000D02*
X336600D01*
X334400Y280000D02*
X336600D01*
Y273500D02*
Y292586D01*
X342000Y272687D02*
Y338106D01*
X340400Y274287D02*
Y292586D01*
Y282000D02*
X342104D01*
Y280041D02*
Y287959D01*
X340400Y274287D02*
X346652Y268035D01*
X340400Y276000D02*
X357737D01*
X340400Y278000D02*
X355737D01*
X358000Y265400D02*
Y275737D01*
X358104Y265400D02*
Y265959D01*
X356000Y265400D02*
Y277737D01*
X354000Y265400D02*
Y279737D01*
X346000Y268687D02*
Y280041D01*
X348000Y267143D02*
Y280041D01*
X344000Y270687D02*
Y280041D01*
X340400Y280000D02*
X353737D01*
X342104Y280041D02*
X349781D01*
X350000Y266824D02*
Y280041D01*
X352000Y266063D02*
Y280041D01*
X349781D02*
X350219D01*
X353696D01*
X349781D02*
X350219D01*
X334900Y206000D02*
X426410D01*
X334900Y204000D02*
X427435D01*
X334900Y208000D02*
X426369D01*
X334900Y210000D02*
X427280D01*
X335101Y214000D02*
X428489D01*
X339101Y218000D02*
X426281D01*
X337101Y216000D02*
X426725D01*
X341101Y220000D02*
X426725D01*
X364000Y157500D02*
Y229761D01*
X366000Y157500D02*
Y229761D01*
X360000Y157500D02*
Y229761D01*
X343101Y222000D02*
X428489D01*
X362000Y157500D02*
Y229761D01*
X368000Y157500D02*
Y229761D01*
X370000Y157500D02*
Y229766D01*
X372000Y157500D02*
Y230728D01*
X315016Y162000D02*
X474000D01*
X313628Y160000D02*
X474000D01*
X313628Y168000D02*
X474000D01*
X315400Y164000D02*
X474000D01*
X315016Y166000D02*
X474000D01*
X334857Y180000D02*
X474000D01*
X333470Y178000D02*
X474000D01*
X334900Y186000D02*
X474000D01*
X334900Y182000D02*
X474000D01*
X334900Y184000D02*
X474000D01*
X334900Y190000D02*
X474000D01*
X334900Y188000D02*
X474000D01*
X334900Y196000D02*
X474000D01*
X334900Y192000D02*
X474000D01*
X334900Y194000D02*
X474000D01*
X334900Y200000D02*
X437756D01*
X334900Y198000D02*
X439176D01*
X334900Y202000D02*
X437476D01*
X334900Y212000D02*
X437494D01*
X345101Y224000D02*
X437494D01*
X352088Y236000D02*
X366939D01*
X353397Y229761D02*
X369839D01*
X352088Y246000D02*
X366939D01*
X328396Y238000D02*
X366939D01*
X353063Y240000D02*
X366939D01*
X366000Y235561D02*
Y246041D01*
X353397Y235561D02*
X366939D01*
X358104Y246041D02*
X365781D01*
X353824Y242000D02*
X366939D01*
X353586Y244000D02*
X366939D01*
X360000Y235561D02*
Y246041D01*
X362000Y235561D02*
Y246041D01*
X358104D02*
Y248164D01*
X365781Y246041D02*
X366219D01*
X364000Y235561D02*
Y246041D01*
X366939Y235561D02*
Y246041D01*
X372739Y232661D02*
Y246041D01*
X365781Y253959D02*
X366219D01*
Y246041D02*
X366939D01*
X365781D02*
X366219D01*
X349104Y228000D02*
X426369D01*
X347101Y226000D02*
X427280D01*
X370990Y230000D02*
X426410D01*
X372662Y232000D02*
X427435D01*
X372739Y234000D02*
X437476D01*
X372739Y238000D02*
X426281D01*
Y235084D02*
X435735D01*
X372739Y236000D02*
X426281D01*
X372739Y242000D02*
X426281D01*
X372739Y240000D02*
X426281D01*
X372739Y246041D02*
X373896D01*
X372739Y244000D02*
X426281D01*
X372739Y246000D02*
X474000D01*
X426281Y235084D02*
Y244538D01*
X435735D01*
X373896Y252000D02*
X474000D01*
X373896Y248000D02*
X474000D01*
X373896Y250000D02*
X474000D01*
X432000Y157500D02*
Y202473D01*
X434000Y157500D02*
Y203435D01*
X428000Y157500D02*
Y203448D01*
X430000Y157500D02*
Y202476D01*
X438000Y157500D02*
Y199452D01*
X440000Y157500D02*
Y197452D01*
X434581Y204000D02*
X438093D01*
X435606Y206000D02*
X440359D01*
X440000Y205831D02*
Y208358D01*
X428000Y210741D02*
Y214354D01*
X434000Y210754D02*
Y214341D01*
X430000Y211713D02*
Y213382D01*
X432000Y211716D02*
Y213379D01*
X433526Y214000D02*
X437691D01*
X438000Y203831D02*
Y210357D01*
X434736Y210000D02*
X438207D01*
X438000Y214737D02*
Y221263D01*
X435291Y216000D02*
X438961D01*
X440000Y216737D02*
Y219263D01*
X442000Y157500D02*
Y196919D01*
X444000Y157500D02*
Y197276D01*
X442000Y206365D02*
Y207824D01*
X444019Y206000D02*
X474000D01*
X446000Y157500D02*
Y198846D01*
X445202Y198000D02*
X474000D01*
X446285Y204000D02*
X474000D01*
X446622Y200000D02*
X474000D01*
X446902Y202000D02*
X474000D01*
X444000Y206008D02*
Y208181D01*
X435647Y208000D02*
X440899D01*
X443479D02*
X474000D01*
X445417Y216000D02*
X474000D01*
X446000Y204438D02*
Y209751D01*
X446171Y210000D02*
X474000D01*
X446000Y215343D02*
Y220657D01*
X446884Y212000D02*
X474000D01*
X446687Y214000D02*
X474000D01*
X428000Y221646D02*
Y225259D01*
X434000Y221659D02*
Y225246D01*
X430000Y222618D02*
Y224287D01*
X433526Y222000D02*
X437691D01*
X432000Y222621D02*
Y224284D01*
X435291Y220000D02*
X438961D01*
X442000Y217270D02*
Y218730D01*
X434736Y226000D02*
X438207D01*
X435647Y228000D02*
X440899D01*
X435606Y230000D02*
X440359D01*
X428000Y232552D02*
Y235084D01*
X434581Y232000D02*
X438093D01*
X430000Y233524D02*
Y235084D01*
X434000Y232565D02*
Y235084D01*
X432000Y233527D02*
Y235084D01*
X438000Y225642D02*
Y232169D01*
X440000Y227642D02*
Y230169D01*
X435735Y235084D02*
Y244538D01*
Y236000D02*
X437756D01*
X435735Y238000D02*
X439176D01*
X444000Y216913D02*
Y219087D01*
X435735Y218000D02*
X474000D01*
X442000Y228176D02*
Y229635D01*
X443479Y228000D02*
X474000D01*
X446687Y222000D02*
X474000D01*
X445417Y220000D02*
X474000D01*
X444000Y227819D02*
Y229992D01*
X446884Y224000D02*
X474000D01*
X446171Y226000D02*
X474000D01*
X444019Y230000D02*
X474000D01*
X435735Y244000D02*
X474000D01*
X435735Y240000D02*
X474000D01*
X435735Y242000D02*
X474000D01*
X446000Y226249D02*
Y231562D01*
X446285Y232000D02*
X474000D01*
X445202Y238000D02*
X474000D01*
X446902Y234000D02*
X474000D01*
X446622Y236000D02*
X474000D01*
X353471Y255400D02*
X359661D01*
X360000Y255380D02*
Y258041D01*
X364882Y253959D02*
X365781D01*
X366219D01*
X362000Y255276D02*
Y258041D01*
X358104D02*
Y259600D01*
Y258041D02*
X365781D01*
X353007Y265400D02*
X358104D01*
Y265959D02*
X365781D01*
X362000D02*
Y271737D01*
X364000Y254546D02*
Y258041D01*
X366000Y253959D02*
Y258041D01*
X364000Y265959D02*
Y269737D01*
X365781Y258041D02*
X366219D01*
X365781D02*
X366219D01*
Y253959D02*
X366939D01*
X372739D02*
X373896D01*
X346687Y258000D02*
X366939D01*
X364829Y254000D02*
X366939D01*
X352088Y256000D02*
X366939D01*
X372739Y253959D02*
Y258041D01*
X373896Y246041D02*
Y253959D01*
X372739Y258000D02*
X474000D01*
X372739Y254000D02*
X474000D01*
X372739Y256000D02*
X474000D01*
X366219Y258041D02*
X366939D01*
Y253959D02*
Y258041D01*
X372739D02*
X373896D01*
Y260000D02*
X474000D01*
X373896Y262000D02*
X474000D01*
X374000Y157500D02*
Y279100D01*
X376000Y157500D02*
Y279100D01*
X373896Y258041D02*
Y265959D01*
Y264000D02*
X474000D01*
X378000Y157500D02*
Y279100D01*
X360000Y265959D02*
Y273737D01*
X352088Y266000D02*
X366939D01*
X342687Y272000D02*
X361737D01*
X346687Y268000D02*
X365737D01*
X344687Y270000D02*
X363737D01*
X366219Y265959D02*
X366939D01*
Y266799D01*
X366000Y265959D02*
Y267737D01*
X365781Y265959D02*
X366219D01*
X365781D02*
X366219D01*
X340687Y274000D02*
X359737D01*
X353696Y280041D02*
X366939Y266799D01*
X360000Y281940D02*
Y293100D01*
X361940Y280000D02*
X366778D01*
X359940Y282000D02*
X366778D01*
X368000Y273940D02*
Y278518D01*
X370000Y271940D02*
Y278143D01*
X362000Y279940D02*
Y293100D01*
X366000Y275940D02*
Y292899D01*
X364000Y277940D02*
Y293100D01*
X365940Y276000D02*
X474000D01*
X369940Y272000D02*
X474000D01*
X367940Y274000D02*
X474000D01*
X372739Y265959D02*
Y268000D01*
Y265959D02*
X373896D01*
X371939Y270000D02*
X474000D01*
X372739Y266000D02*
X474000D01*
X372739Y268000D02*
X474000D01*
X357896Y284044D02*
X371889Y270051D01*
X363940Y278000D02*
X474000D01*
X371914Y282900D02*
X438213D01*
X372000Y269934D02*
Y279100D01*
X371914D02*
X439000D01*
X372000Y282900D02*
Y291600D01*
X378000Y282900D02*
Y291600D01*
X376000Y282900D02*
Y291600D01*
X406000Y157500D02*
Y279100D01*
X408000Y157500D02*
Y279100D01*
X400000Y157500D02*
Y279100D01*
X404000Y157500D02*
Y279100D01*
X402000Y157500D02*
Y279100D01*
X416000Y157500D02*
Y279100D01*
X418000Y157500D02*
Y279100D01*
X410000Y157500D02*
Y279100D01*
X414000Y157500D02*
Y279100D01*
X412000Y157500D02*
Y279100D01*
X386000Y157500D02*
Y279100D01*
X388000Y157500D02*
Y279100D01*
X380000Y157500D02*
Y279100D01*
X384000Y157500D02*
Y279100D01*
X382000Y157500D02*
Y279100D01*
X396000Y157500D02*
Y279100D01*
X398000Y157500D02*
Y279100D01*
X390000Y157500D02*
Y279100D01*
X394000Y157500D02*
Y279100D01*
X392000Y157500D02*
Y279100D01*
X426000Y157500D02*
Y279100D01*
X436000Y157500D02*
Y279100D01*
X420000Y157500D02*
Y279100D01*
X424000Y157500D02*
Y279100D01*
X422000Y157500D02*
Y279100D01*
X452000Y157500D02*
Y291313D01*
X454000Y157500D02*
Y297869D01*
X438000Y236548D02*
Y279100D01*
X448000Y157500D02*
Y287313D01*
X450000Y157500D02*
Y289313D01*
X462000Y157500D02*
Y309675D01*
X464000Y157500D02*
Y308542D01*
X456000Y157500D02*
Y344600D01*
X460000Y157500D02*
Y344146D01*
X458000Y157500D02*
Y344600D01*
X472000Y157500D02*
Y384000D01*
X474000Y157500D02*
Y384000D01*
X466000Y157500D02*
Y308315D01*
X468000Y157500D02*
Y308863D01*
X470000Y157500D02*
Y310570D01*
X410000Y282900D02*
Y285761D01*
X412000Y282900D02*
Y285761D01*
X404000Y282900D02*
Y285761D01*
X408000Y282900D02*
Y285761D01*
X406000Y282900D02*
Y285761D01*
X420000Y282900D02*
Y285761D01*
X422000Y282900D02*
Y285761D01*
X414000Y282900D02*
Y285761D01*
X418000Y282900D02*
Y285761D01*
X416000Y282900D02*
Y285761D01*
X388000Y282900D02*
Y285761D01*
X392000Y282900D02*
Y285761D01*
X382000Y282900D02*
Y290541D01*
X386000Y282900D02*
Y286561D01*
X384000Y282900D02*
Y288560D01*
X400000Y282900D02*
Y285761D01*
X402000Y282900D02*
Y285761D01*
X394000Y282900D02*
Y285761D01*
X398000Y282900D02*
Y285761D01*
X396000Y282900D02*
Y285761D01*
X428000Y244538D02*
Y279100D01*
X430000Y244538D02*
Y279100D01*
X432000Y244538D02*
Y279100D01*
X434000Y244538D02*
Y279100D01*
X440000Y238548D02*
Y279384D01*
X442000Y239081D02*
Y281313D01*
X440687Y280000D02*
X474000D01*
X442687Y282000D02*
X474000D01*
X430000Y282900D02*
Y284604D01*
X432000Y282900D02*
Y284604D01*
X424000Y282900D02*
Y285761D01*
X428000Y282900D02*
Y284604D01*
X426000Y282900D02*
Y284604D01*
X444000Y238724D02*
Y283313D01*
X446000Y237154D02*
Y285313D01*
X434000Y282900D02*
Y300100D01*
X436000Y282900D02*
Y292372D01*
X440346Y279659D02*
X453341Y292654D01*
X289844Y291449D02*
X290948Y292553D01*
X290395Y292000D02*
X330600D01*
X291500Y292781D02*
X295459D01*
X334400Y286000D02*
X336600D01*
X334400Y284000D02*
X336600D01*
X334400Y292000D02*
X336600D01*
X334400Y288000D02*
X336600D01*
X334400Y290000D02*
X336600D01*
X295459Y292781D02*
Y300896D01*
Y294000D02*
X330600D01*
X295459Y296000D02*
X330600D01*
X334400Y294000D02*
X335778D01*
X334400Y296000D02*
X335778D01*
X340400Y286000D02*
X342104D01*
X340400Y284000D02*
X342104D01*
X340400Y292000D02*
X350939D01*
X340400Y288000D02*
X350939D01*
X340400Y290000D02*
X350939D01*
X349781Y287959D02*
X350219D01*
X349781D02*
X350219D01*
X344000D02*
Y292041D01*
X342104Y287959D02*
X349781D01*
X346000D02*
Y292041D01*
X342104D02*
X349781D01*
X341222Y294000D02*
X342104D01*
X341222Y296000D02*
X342104D01*
X348000Y287959D02*
Y292041D01*
X350000Y287959D02*
Y292041D01*
X342104D02*
Y299959D01*
X349781Y292041D02*
X350219D01*
X349781D02*
X350219D01*
X295459Y298000D02*
X329643D01*
X295459Y300000D02*
X330018D01*
X306055Y330000D02*
X311100D01*
X306661Y323600D02*
X326500D01*
X330000Y299970D02*
Y326106D01*
X307656Y328400D02*
X311581D01*
X294000Y300896D02*
Y335267D01*
X304056Y332000D02*
X311100D01*
X302056Y334000D02*
X307900D01*
X308000Y328400D02*
Y333900D01*
X310000Y328400D02*
Y333100D01*
X311100Y330000D02*
Y333317D01*
X332000Y301357D02*
Y328106D01*
X327827Y324000D02*
X369813D01*
X329894Y326000D02*
X371813D01*
X331894Y328000D02*
X373813D01*
X335357Y298000D02*
X342104D01*
Y299959D02*
X349781D01*
X350219D01*
X349781D02*
X350219D01*
X334982Y300000D02*
X381761D01*
X334000Y300982D02*
Y330106D01*
X336000Y296470D02*
Y332106D01*
X337894Y334000D02*
X346499D01*
X333894Y330000D02*
X375813D01*
X335894Y332000D02*
X377813D01*
X338000Y297857D02*
Y334106D01*
X346000Y299959D02*
Y334313D01*
X348000Y299959D02*
Y333632D01*
X348031Y333631D02*
X351969D01*
X350000Y299959D02*
Y333631D01*
X350219Y287959D02*
X350939D01*
X356739D02*
X357896D01*
X350219Y292041D02*
X350939D01*
X356739D02*
X357896D01*
X368000Y283482D02*
Y291643D01*
X357896Y284044D02*
Y287959D01*
X370000Y283857D02*
Y291600D01*
X356739Y292000D02*
X367030D01*
X350939Y287959D02*
Y292041D01*
X358000Y283940D02*
Y293100D01*
X356739Y287959D02*
Y292041D01*
X357896Y293100D02*
X365799D01*
X357896Y292041D02*
Y293100D01*
X365799D02*
X366449Y292449D01*
X369051Y298051D02*
X369701Y297400D01*
X370000D02*
Y318813D01*
X356739Y288000D02*
X384560D01*
X357896Y286000D02*
X386848D01*
X381104Y290541D02*
Y291600D01*
X356739Y290000D02*
X382680D01*
X381104Y290541D02*
X382425D01*
X383111Y289449D02*
X385949Y286611D01*
X374000Y282900D02*
Y291600D01*
X368500D02*
X381104D01*
X372000Y297400D02*
Y320813D01*
X369701Y297400D02*
X381104D01*
X374000D02*
Y322813D01*
X378000Y297400D02*
Y326813D01*
X380000Y282900D02*
Y291600D01*
X376000Y297400D02*
Y324813D01*
X381104Y297400D02*
Y298459D01*
X380000Y297400D02*
Y328813D01*
X358000Y298900D02*
Y306143D01*
X357896Y298900D02*
X367000D01*
X356000Y299959D02*
Y306518D01*
X350219Y299959D02*
X357896D01*
Y298900D02*
Y299959D01*
X360000Y298900D02*
Y307530D01*
X361187Y310000D02*
X380604D01*
X352000Y299959D02*
Y333632D01*
X354000Y299959D02*
Y334313D01*
X353501Y334000D02*
X379813D01*
X364000Y298900D02*
Y312813D01*
X368000Y298722D02*
Y316813D01*
X362000Y298900D02*
Y310813D01*
X365187Y314000D02*
X380604D01*
X366000Y298900D02*
Y314813D01*
X369101Y298000D02*
X381104D01*
X360222Y308000D02*
X381761D01*
X367187Y316000D02*
X380604D01*
Y309541D02*
X381761D01*
X363187Y312000D02*
X380604D01*
X381104Y298459D02*
X381761D01*
Y309541D01*
X387561Y298459D02*
Y309541D01*
X388719D01*
X388000Y298459D02*
Y309541D01*
X380604D02*
Y317459D01*
X360555Y309368D02*
X382787Y331600D01*
X357868Y312055D02*
X380654Y334841D01*
X388000Y317459D02*
Y331600D01*
X388719Y309541D02*
Y317459D01*
X382000D02*
Y330813D01*
X386000Y317459D02*
Y331600D01*
X384000Y317459D02*
Y331600D01*
X290000Y300896D02*
Y337104D01*
X292000Y300896D02*
Y337024D01*
X295459Y344781D02*
Y345219D01*
X298056Y338000D02*
X299541D01*
Y337104D02*
Y344781D01*
X295459Y341063D02*
Y344781D01*
X296056Y340000D02*
X299541D01*
X295459Y344781D02*
Y345219D01*
Y348000D02*
X299541D01*
X288600Y352896D02*
Y359000D01*
X295459Y350000D02*
X299541D01*
X294400Y352896D02*
X295459D01*
X296000Y340055D02*
Y358377D01*
X298000Y338055D02*
Y359079D01*
X295459Y345219D02*
Y352896D01*
X299541Y344781D02*
Y345219D01*
X295459Y352000D02*
X299541D01*
X302000Y334055D02*
Y337104D01*
X292630Y336638D02*
X304964Y324303D01*
X300000Y336055D02*
Y337104D01*
X300056Y336000D02*
X305899D01*
X299541Y337104D02*
X303500D01*
X304000Y332055D02*
Y337064D01*
X306000Y330055D02*
Y335899D01*
X305709Y336190D02*
X307199Y334699D01*
X295459Y342000D02*
X299541D01*
X295786Y340269D02*
X307656Y328400D01*
X295459Y346000D02*
X299541D01*
X295459Y344000D02*
X299541D01*
Y344781D02*
Y345219D01*
Y352896D01*
X300000D02*
Y361828D01*
X299541Y352896D02*
X300600D01*
Y355000D01*
X294400Y352896D02*
Y357799D01*
X289449Y361051D02*
X290458Y362059D01*
X294400Y354000D02*
X300600D01*
X294400Y356000D02*
X300778D01*
X290000Y361601D02*
Y384000D01*
X292000Y366061D02*
Y384000D01*
X300000Y364172D02*
Y384000D01*
X294000Y367401D02*
Y384000D01*
X298000Y366921D02*
Y384000D01*
X296000Y367623D02*
Y384000D01*
X299053Y360000D02*
X301797D01*
X294603Y358000D02*
X302399D01*
X301449Y357051D02*
X302450Y358051D01*
X302000Y357601D02*
Y359775D01*
X302450Y358051D02*
Y358775D01*
X300041Y362000D02*
X300809D01*
X300041Y364000D02*
X300809D01*
X299053Y366000D02*
X301797D01*
X302000Y366225D02*
Y384000D01*
X308903Y366000D02*
X309647D01*
X304000Y367450D02*
Y384000D01*
X308000Y366821D02*
Y384000D01*
X306000Y367604D02*
Y384000D01*
X340000Y297482D02*
Y336106D01*
X328197Y324303D02*
X343494Y339600D01*
X331459Y344853D02*
Y345219D01*
X339894Y336000D02*
X344815D01*
X341894Y338000D02*
X344815D01*
X344000Y299959D02*
Y339600D01*
X343494D02*
X345668D01*
X331459Y344853D02*
Y345219D01*
Y344853D02*
X335303Y348697D01*
X331459Y345219D02*
Y352896D01*
Y346000D02*
X332606D01*
X331459Y348000D02*
X334606D01*
X332000Y345394D02*
Y384000D01*
X334000Y347394D02*
Y384000D01*
X356000Y311482D02*
Y384000D01*
X358000Y312187D02*
Y384000D01*
X360000Y314187D02*
Y384000D01*
X362000Y316187D02*
Y384000D01*
X364000Y318187D02*
Y384000D01*
X368000Y322187D02*
Y384000D01*
X366000Y320187D02*
Y384000D01*
X370000Y324187D02*
Y384000D01*
X372000Y326187D02*
Y384000D01*
X374000Y328187D02*
Y384000D01*
X378000Y332187D02*
Y384000D01*
X376000Y330187D02*
Y384000D01*
X380000Y334187D02*
Y384000D01*
X382000Y335400D02*
Y384000D01*
X384000Y335400D02*
Y384000D01*
X388000Y335400D02*
Y384000D01*
X386000Y335400D02*
Y384000D01*
X316100Y357001D02*
Y358775D01*
Y357001D02*
X317551Y355551D01*
X319459Y351739D02*
X323541D01*
Y352896D01*
X318400D02*
Y353500D01*
Y352896D02*
X319459D01*
Y351739D02*
Y352896D01*
X310000Y366374D02*
Y384000D01*
X312000Y367493D02*
Y384000D01*
X316000Y366712D02*
Y384000D01*
X314000Y367581D02*
Y384000D01*
X320000Y351739D02*
Y384000D01*
X322000Y351739D02*
Y384000D01*
X318000Y354970D02*
Y384000D01*
X319459Y352000D02*
X323541D01*
X331459Y350000D02*
X346499D01*
X324000Y352896D02*
Y384000D01*
X323541Y352896D02*
X331459D01*
X326000D02*
Y384000D01*
X336000Y349182D02*
Y384000D01*
X337000Y349400D02*
X345668D01*
X338000D02*
Y384000D01*
X348031Y350368D02*
X351969D01*
X342000Y349400D02*
Y384000D01*
X344000Y349400D02*
Y384000D01*
X328000Y352896D02*
Y384000D01*
X340000Y349400D02*
Y384000D01*
X330000Y352896D02*
Y384000D01*
X346000Y349687D02*
Y384000D01*
X354000Y349687D02*
Y384000D01*
X348000Y350368D02*
Y384000D01*
X352000Y350368D02*
Y384000D01*
X350000Y350368D02*
Y384000D01*
X390000Y282900D02*
Y285761D01*
X388000D02*
X424541D01*
X389219Y291561D02*
Y298459D01*
Y291561D02*
X424541D01*
X396000D02*
Y331600D01*
X424541Y284604D02*
Y285761D01*
X394000Y291561D02*
Y331600D01*
X424541Y291561D02*
Y292281D01*
X398000Y291561D02*
Y331600D01*
X402000Y291561D02*
Y331600D01*
X404000Y291561D02*
Y331600D01*
X390000Y291561D02*
Y331600D01*
X400000Y291561D02*
Y331600D01*
X392000Y291561D02*
Y331600D01*
X412000Y291561D02*
Y331600D01*
X414000Y291561D02*
Y331885D01*
X406000Y291561D02*
Y331600D01*
X410000Y291561D02*
Y331600D01*
X408000Y291561D02*
Y331600D01*
X424541Y284604D02*
X432459D01*
X357940Y284000D02*
X439313D01*
X424541Y292281D02*
Y292719D01*
X389219Y292000D02*
X424541D01*
Y292281D02*
Y292719D01*
X432459Y284604D02*
Y292281D01*
Y286000D02*
X441313D01*
X432459Y292000D02*
X436372D01*
X432459Y288000D02*
X443313D01*
X432459Y290000D02*
X445313D01*
X389219Y294000D02*
X424541D01*
Y292719D02*
Y300396D01*
X389219Y298000D02*
X424541D01*
X432459Y294000D02*
X434984D01*
X389219Y296000D02*
X424541D01*
X432459Y292281D02*
Y292719D01*
Y292281D02*
Y292719D01*
Y296000D02*
X434600D01*
X432459Y292719D02*
Y300100D01*
X387561Y298459D02*
X389219D01*
X387561Y300000D02*
X424541D01*
X387561Y306000D02*
X424541D01*
X387561Y302000D02*
X425600D01*
X387561Y304000D02*
X425600D01*
Y300396D02*
Y302500D01*
X424541Y300396D02*
X425600D01*
X387561Y308000D02*
X424541D01*
X425600Y302500D02*
Y304604D01*
X424541D02*
X425600D01*
X388719Y312000D02*
X424541D01*
X388719Y310000D02*
X424541D01*
X380604Y317459D02*
X388719D01*
X381187Y330000D02*
X431900D01*
X382787Y331600D02*
X413000D01*
X424541Y304604D02*
Y312719D01*
X432459Y305900D02*
Y312719D01*
X414166Y332000D02*
X431100D01*
X424541Y312719D02*
X432459D01*
X432000D02*
Y329900D01*
X432459Y310000D02*
X436067D01*
X432459Y308000D02*
X448041D01*
X388719Y314000D02*
X434608D01*
X432459Y312000D02*
X434875D01*
X388719Y316000D02*
X435114D01*
X432459Y298000D02*
X434984D01*
X432459Y300000D02*
X436372D01*
X432459Y300100D02*
X436486D01*
X432459Y305900D02*
X447656D01*
X432459Y306000D02*
X448041D01*
X369187Y318000D02*
X436733D01*
X371187Y320000D02*
X474000D01*
X377187Y326000D02*
X474000D01*
X373187Y322000D02*
X474000D01*
X375187Y324000D02*
X474000D01*
X434000Y305900D02*
Y329100D01*
X379187Y328000D02*
X474000D01*
X438000Y282900D02*
Y290984D01*
X438213Y282900D02*
X450100Y294787D01*
X440000Y284687D02*
Y290600D01*
X442000Y286687D02*
Y290984D01*
X444000Y288687D02*
Y292372D01*
X443628Y292000D02*
X447313D01*
X445016Y294000D02*
X449313D01*
X450000Y294687D02*
Y297869D01*
X445016Y298000D02*
X449963D01*
X436000Y299628D02*
Y300100D01*
X444000Y299628D02*
Y300100D01*
X443628Y300000D02*
X448041D01*
X443514Y300100D02*
X447656D01*
X446000Y290687D02*
Y300100D01*
X448000Y292687D02*
Y300073D01*
X448041Y298104D02*
Y300066D01*
Y298104D02*
X449929D01*
X446687Y286000D02*
X474000D01*
X444687Y284000D02*
X474000D01*
X445400Y296000D02*
X450100D01*
X448687Y288000D02*
X474000D01*
X450687Y290000D02*
X474000D01*
X452687Y292000D02*
X474000D01*
X453900Y294000D02*
X474000D01*
X453900Y296000D02*
X474000D01*
X450100Y294787D02*
Y297092D01*
X453900Y294000D02*
Y297092D01*
X454037Y298000D02*
X474000D01*
X454072Y298104D02*
X455959D01*
Y305781D01*
Y304000D02*
X474000D01*
X455959Y300000D02*
X474000D01*
X455959Y302000D02*
X474000D01*
X438000Y305900D02*
Y308684D01*
X440000Y305900D02*
Y308300D01*
X442000Y305900D02*
Y308684D01*
X443943Y310000D02*
X447737D01*
X444000Y305900D02*
Y310050D01*
X448000Y305900D02*
Y309737D01*
X447656Y305900D02*
X448041D01*
Y306219D02*
Y309696D01*
Y305900D02*
Y306219D01*
Y305900D02*
Y306219D01*
X436000Y305900D02*
Y310072D01*
X446000Y305900D02*
Y310800D01*
X436000Y317328D02*
Y329900D01*
X446035Y310800D02*
X446937D01*
X448041Y309696D01*
X446035Y316600D02*
X448139D01*
X455959Y305781D02*
Y306219D01*
Y305781D02*
Y306219D01*
X452044Y313896D02*
X455959D01*
Y308000D02*
X474000D01*
X455959Y310000D02*
X461667D01*
X455959Y306219D02*
Y313896D01*
Y306000D02*
X474000D01*
X455959Y312000D02*
X460475D01*
X469533Y310000D02*
X474000D01*
X470725Y312000D02*
X474000D01*
X450189Y315751D02*
X452044Y313896D01*
X449905Y316000D02*
X460714D01*
X443266Y318000D02*
X462333D01*
X436100Y330000D02*
X474000D01*
X436900Y332000D02*
X474000D01*
X451940Y314000D02*
X460208D01*
X468866Y318000D02*
X474000D01*
X470992Y314000D02*
X474000D01*
X470486Y316000D02*
X474000D01*
X382000Y335400D02*
X412093D01*
X355185Y336000D02*
X412371D01*
X355185Y338000D02*
X412528D01*
X354679Y340000D02*
X413258D01*
X398000Y335400D02*
Y384000D01*
X396000Y335400D02*
Y384000D01*
X414000Y340854D02*
Y344146D01*
X400000Y335400D02*
Y384000D01*
X402000Y335400D02*
Y384000D01*
X390000Y335400D02*
Y384000D01*
X394000Y335400D02*
Y384000D01*
X392000Y335400D02*
Y384000D01*
X410000Y335400D02*
Y384000D01*
X412000Y335400D02*
Y384000D01*
X404000Y335400D02*
Y384000D01*
X408000Y335400D02*
Y384000D01*
X406000Y335400D02*
Y384000D01*
X416000Y291561D02*
Y332990D01*
X418000Y291561D02*
Y333113D01*
X420000Y291561D02*
Y334146D01*
X431100Y332000D02*
Y332592D01*
X421243Y336000D02*
X431041D01*
X431100Y332592D02*
Y333604D01*
X419828Y334000D02*
X431041D01*
X422000Y291561D02*
Y344600D01*
X420000Y340854D02*
Y344146D01*
X421472Y338000D02*
X431041D01*
X420742Y340000D02*
X431041D01*
X424000Y291561D02*
Y344600D01*
X426000Y312719D02*
Y344600D01*
X428000Y312719D02*
Y344578D01*
X431041Y333604D02*
Y341281D01*
X430000Y312719D02*
Y344101D01*
X354679Y344000D02*
X414172D01*
X355337Y342000D02*
X417000D01*
X355185Y348000D02*
X412528D01*
X355185Y346000D02*
X412757D01*
X353501Y350000D02*
X413258D01*
X416000Y341887D02*
Y343112D01*
X418000Y341887D02*
Y343112D01*
X420863Y344600D02*
X427463D01*
X420863Y350400D02*
X427463D01*
X414000Y350854D02*
Y384000D01*
X416000Y351887D02*
Y384000D01*
X331459Y352000D02*
X417000D01*
X418000Y351887D02*
Y384000D01*
X424000Y350400D02*
Y384000D01*
X426000Y350400D02*
Y384000D01*
X420000Y350854D02*
Y384000D01*
X422000Y350400D02*
Y384000D01*
X417000Y342000D02*
X431041D01*
X419828Y344000D02*
X430234D01*
X427463Y350400D02*
X432839D01*
X417000Y352000D02*
X463000D01*
X431041Y341281D02*
Y341719D01*
Y341281D02*
Y341719D01*
Y343565D01*
X316100Y358000D02*
X474000D01*
X317101Y356000D02*
X474000D01*
X316753Y366000D02*
X474000D01*
X316753Y360000D02*
X474000D01*
X317741Y362000D02*
X474000D01*
X430000Y350400D02*
Y384000D01*
X432000Y350400D02*
Y384000D01*
X428000Y350400D02*
Y384000D01*
X318357Y354000D02*
X474000D01*
X317741Y364000D02*
X474000D01*
X436900Y332000D02*
Y332592D01*
X438000Y318716D02*
Y333604D01*
X437072D02*
X438959D01*
Y334000D02*
X443041D01*
X440000Y319100D02*
Y334761D01*
X442000Y318716D02*
Y334761D01*
X438959Y333604D02*
Y334761D01*
X443041D01*
Y333604D02*
Y334761D01*
X438959Y340561D02*
Y341281D01*
Y340561D02*
X443041D01*
X438959Y341719D02*
Y349396D01*
Y341281D02*
Y341719D01*
Y341281D02*
Y341719D01*
X440000Y340561D02*
Y384000D01*
X442000Y340561D02*
Y384000D01*
X443041Y341281D02*
Y341719D01*
Y340561D02*
Y341281D01*
Y341719D01*
X448000Y316600D02*
Y333604D01*
X450000Y315924D02*
Y333604D01*
X444000Y317351D02*
Y333604D01*
X443041D02*
X450959D01*
X446000Y316600D02*
Y333604D01*
X450959D02*
Y341281D01*
Y334000D02*
X474000D01*
X450959Y340000D02*
X474000D01*
X450959Y336000D02*
X474000D01*
X450959Y338000D02*
X474000D01*
X452000Y313940D02*
Y344101D01*
X454000Y313896D02*
Y344578D01*
X450959Y341719D02*
Y343565D01*
Y341281D02*
Y341719D01*
Y341281D02*
Y341719D01*
X462000Y317725D02*
Y343112D01*
X470000Y316830D02*
Y384000D01*
X464000Y318858D02*
Y343112D01*
X466000Y319085D02*
Y344146D01*
X468000Y318537D02*
Y384000D01*
X438959Y346000D02*
X443041D01*
X438959Y342000D02*
X443041D01*
X435044Y349396D02*
X438959D01*
Y348000D02*
X443041D01*
X434308Y350000D02*
X447692D01*
X438959Y344000D02*
X443041D01*
Y341719D02*
Y349396D01*
X446956D01*
X449161Y350400D02*
X454537D01*
X444000Y349396D02*
Y384000D01*
X446000Y349396D02*
Y384000D01*
X434000Y350157D02*
Y384000D01*
X438000Y349396D02*
Y384000D01*
X436000Y349396D02*
Y384000D01*
X448000Y350157D02*
Y384000D01*
X450000Y350400D02*
Y384000D01*
X454000Y350400D02*
Y384000D01*
X452000Y350400D02*
Y384000D01*
X450959Y342000D02*
X474000D01*
X454537Y344600D02*
X459137D01*
X451766Y344000D02*
X460172D01*
X465828D02*
X474000D01*
X466742Y350000D02*
X474000D01*
X467243Y346000D02*
X474000D01*
X467472Y348000D02*
X474000D01*
X456000Y350400D02*
Y384000D01*
X454537Y350400D02*
X459137D01*
X458000D02*
Y384000D01*
X460000Y350854D02*
Y384000D01*
X466000Y350854D02*
Y384000D01*
X462000Y351887D02*
Y384000D01*
X463000Y352000D02*
X474000D01*
X464000Y351887D02*
Y384000D01*
D16*
X204161Y214000D02*
D03*
X211839D02*
D03*
X204161Y236000D02*
D03*
X211839D02*
D03*
X204161Y258000D02*
D03*
X211839D02*
D03*
X204161Y280000D02*
D03*
X211839D02*
D03*
X204161Y304000D02*
D03*
X211839D02*
D03*
X204161Y324000D02*
D03*
X211839D02*
D03*
X204161Y348000D02*
D03*
X211839D02*
D03*
X204161Y370000D02*
D03*
X211839D02*
D03*
X384661Y313500D02*
D03*
X392339D02*
D03*
X385161Y294500D02*
D03*
X392839D02*
D03*
X362161Y262000D02*
D03*
X369839D02*
D03*
X362161Y250000D02*
D03*
X369839D02*
D03*
X353839Y296000D02*
D03*
X346161D02*
D03*
X353839Y284000D02*
D03*
X346161D02*
D03*
X312339Y254500D02*
D03*
X304661D02*
D03*
X296661Y234500D02*
D03*
X304339D02*
D03*
X324339D02*
D03*
X316661D02*
D03*
D17*
X447000Y345339D02*
D03*
Y337661D02*
D03*
X428500Y316339D02*
D03*
Y308661D02*
D03*
Y288661D02*
D03*
Y296339D02*
D03*
X452000Y302161D02*
D03*
Y309839D02*
D03*
X268000Y360161D02*
D03*
Y367839D02*
D03*
X291500Y289161D02*
D03*
Y296839D02*
D03*
X435000Y337661D02*
D03*
Y345339D02*
D03*
X265500Y296839D02*
D03*
Y289161D02*
D03*
X291500Y341161D02*
D03*
Y348839D02*
D03*
X327500Y341161D02*
D03*
Y348839D02*
D03*
X315500D02*
D03*
Y341161D02*
D03*
X303500Y348839D02*
D03*
Y341161D02*
D03*
D23*
X228500Y375000D02*
D03*
X463000Y374500D02*
D03*
X183000Y169500D02*
D03*
D24*
X349500Y262500D02*
D03*
Y252500D02*
D03*
Y242500D02*
D03*
Y232500D02*
D03*
X379500Y262500D02*
D03*
Y252500D02*
D03*
Y242500D02*
D03*
D25*
Y232500D02*
D03*
D26*
X417000Y347500D02*
D03*
Y337500D02*
D03*
X463000D02*
D03*
Y347500D02*
D03*
X195500Y369000D02*
D03*
X185500D02*
D03*
X195500Y347000D02*
D03*
X185500D02*
D03*
X195500Y325000D02*
D03*
X185500D02*
D03*
X195500Y303000D02*
D03*
X185500D02*
D03*
X195500Y281000D02*
D03*
X185500D02*
D03*
X195500Y259000D02*
D03*
X185500D02*
D03*
X195500Y237000D02*
D03*
X185500D02*
D03*
X195500Y215000D02*
D03*
X185500D02*
D03*
D27*
X465600Y296000D02*
D03*
Y313700D02*
D03*
X440000D02*
D03*
Y296000D02*
D03*
X224000Y164000D02*
D03*
X206300D02*
D03*
Y189600D02*
D03*
X224000D02*
D03*
X252000Y164000D02*
D03*
X234300D02*
D03*
Y189600D02*
D03*
X252000D02*
D03*
X280000Y164000D02*
D03*
X262300D02*
D03*
Y189600D02*
D03*
X280000D02*
D03*
X310000Y164000D02*
D03*
X292300D02*
D03*
Y189600D02*
D03*
X310000D02*
D03*
D28*
X350000Y337000D02*
D03*
Y347000D02*
D03*
D29*
Y342000D02*
D03*
D30*
X298500Y244500D02*
D03*
X318500D02*
D03*
D31*
X314000Y330000D02*
D03*
X310000Y336000D02*
D03*
X332500Y298500D02*
D03*
X332000Y180500D02*
D03*
X385000Y294500D02*
D03*
X345000Y169000D02*
D03*
X250500Y280000D02*
D03*
X250000Y275500D02*
D03*
X249500Y271000D02*
D03*
X249000Y266500D02*
D03*
Y262000D02*
D03*
X255000Y258000D02*
D03*
X252000Y235500D02*
D03*
X345500Y283500D02*
D03*
X346000Y296000D02*
D03*
X252378Y286500D02*
D03*
X265500Y296500D02*
D03*
X338500Y295000D02*
D03*
X292000Y289000D02*
D03*
X301500Y305500D02*
D03*
X314000Y284500D02*
D03*
X357500Y309000D02*
D03*
X434000Y332000D02*
D03*
X392500Y294500D02*
D03*
X369500Y281000D02*
D03*
X283500Y293500D02*
D03*
D32*
X295500Y363000D02*
D03*
X323060D02*
D03*
X313200D02*
D03*
X305350D02*
D03*
D33*
X283400Y373700D02*
D03*
X335200D02*
D03*
D34*
X246000Y290000D02*
D03*
D35*
X236000D02*
D03*
X246000Y300000D02*
D03*
X236000D02*
D03*
X246000Y310000D02*
D03*
X236000D02*
D03*
X246000Y320000D02*
D03*
X236000D02*
D03*
X246000Y330000D02*
D03*
X236000D02*
D03*
X246000Y340000D02*
D03*
X236000D02*
D03*
X246000Y350000D02*
D03*
X236000D02*
D03*
X246000Y360000D02*
D03*
X292000Y214000D02*
D03*
Y204000D02*
D03*
X282000Y214000D02*
D03*
Y204000D02*
D03*
X272000Y214000D02*
D03*
Y204000D02*
D03*
X262000Y214000D02*
D03*
Y204000D02*
D03*
X252000Y214000D02*
D03*
Y204000D02*
D03*
X242000Y214000D02*
D03*
Y204000D02*
D03*
X232000Y214000D02*
D03*
Y204000D02*
D03*
X222000Y214000D02*
D03*
D36*
X236000Y360000D02*
D03*
D37*
X222000Y204000D02*
D03*
D38*
X431008Y196189D02*
D03*
X442189Y201642D02*
D03*
X431008Y207095D02*
D03*
X442189Y212547D02*
D03*
X431008Y218000D02*
D03*
X442189Y223453D02*
D03*
X431008Y228906D02*
D03*
X442189Y234358D02*
D03*
D39*
X431008Y239811D02*
D03*
D40*
X436598Y267193D02*
D03*
Y168807D02*
D03*
M02*
