%FSLAX25Y25*%
%MOIN*%
G70*
G01*
G75*
G04 Layer_Color=128*
%ADD10C,0.01000*%
%ADD11C,0.03000*%
%ADD12C,0.02000*%
%ADD13C,0.00800*%
%ADD14R,0.00984X0.09843*%
%ADD15R,0.09843X0.00984*%
%ADD16R,0.05315X0.05118*%
%ADD17R,0.05118X0.05315*%
%ADD18R,0.20000X0.02000*%
%ADD19O,0.20000X0.02000*%
%ADD20R,0.13780X0.08465*%
%ADD21R,0.04331X0.08465*%
%ADD22R,0.04331X0.08465*%
%ADD23C,0.11811*%
%ADD24C,0.05906*%
%ADD25R,0.05906X0.05906*%
%ADD26C,0.06200*%
%ADD27C,0.08000*%
%ADD28O,0.07874X0.03937*%
%ADD29O,0.07874X0.03937*%
%ADD30C,0.03937*%
%ADD31C,0.03000*%
%ADD32C,0.06500*%
%ADD33C,0.15000*%
%ADD34C,0.05500*%
%ADD35C,0.05906*%
%ADD36R,0.05906X0.05906*%
%ADD37R,0.05906X0.05906*%
%ADD38C,0.06654*%
%ADD39R,0.06654X0.06654*%
%ADD40C,0.18740*%
%ADD41C,0.00787*%
%ADD42C,0.00984*%
%ADD43C,0.00500*%
%ADD44C,0.00600*%
%ADD45C,0.01200*%
%ADD46C,0.00591*%
%ADD47R,0.04520X0.01680*%
%ADD48R,0.01680X0.04520*%
D16*
X204161Y214000D02*
D03*
X211839D02*
D03*
X204161Y236000D02*
D03*
X211839D02*
D03*
X204161Y258000D02*
D03*
X211839D02*
D03*
X204161Y280000D02*
D03*
X211839D02*
D03*
X204161Y304000D02*
D03*
X211839D02*
D03*
X204161Y324000D02*
D03*
X211839D02*
D03*
X204161Y348000D02*
D03*
X211839D02*
D03*
X204161Y370000D02*
D03*
X211839D02*
D03*
X384661Y313500D02*
D03*
X392339D02*
D03*
X385161Y294500D02*
D03*
X392839D02*
D03*
X362161Y262000D02*
D03*
X369839D02*
D03*
X362161Y250000D02*
D03*
X369839D02*
D03*
X353839Y296000D02*
D03*
X346161D02*
D03*
X353839Y284000D02*
D03*
X346161D02*
D03*
X312339Y254500D02*
D03*
X304661D02*
D03*
X296661Y234500D02*
D03*
X304339D02*
D03*
X324339D02*
D03*
X316661D02*
D03*
D17*
X447000Y345339D02*
D03*
Y337661D02*
D03*
X428500Y316339D02*
D03*
Y308661D02*
D03*
Y288661D02*
D03*
Y296339D02*
D03*
X452000Y302161D02*
D03*
Y309839D02*
D03*
X268000Y360161D02*
D03*
Y367839D02*
D03*
X291500Y289161D02*
D03*
Y296839D02*
D03*
X435000Y337661D02*
D03*
Y345339D02*
D03*
X265500Y296839D02*
D03*
Y289161D02*
D03*
X291500Y341161D02*
D03*
Y348839D02*
D03*
X327500Y341161D02*
D03*
Y348839D02*
D03*
X315500D02*
D03*
Y341161D02*
D03*
X303500Y348839D02*
D03*
Y341161D02*
D03*
M02*
