%FSLAX25Y25*%
%MOIN*%
G70*
G01*
G75*
G04 Layer_Physical_Order=1*
G04 Layer_Color=255*
%ADD10C,0.01000*%
%ADD11C,0.03000*%
%ADD12C,0.02000*%
%ADD13C,0.00800*%
%ADD14R,0.00984X0.09843*%
%ADD15R,0.09843X0.00984*%
%ADD16R,0.05315X0.05118*%
%ADD17R,0.05118X0.05315*%
%ADD18R,0.20000X0.02000*%
%ADD19O,0.20000X0.02000*%
%ADD20R,0.13780X0.08465*%
%ADD21R,0.04331X0.08465*%
%ADD22R,0.04331X0.08465*%
%ADD23C,0.11811*%
%ADD24C,0.05906*%
%ADD25R,0.05906X0.05906*%
%ADD26C,0.06200*%
%ADD27C,0.08000*%
%ADD28O,0.07874X0.03937*%
%ADD29O,0.07874X0.03937*%
%ADD30C,0.03937*%
%ADD31C,0.03000*%
%ADD32C,0.06500*%
%ADD33C,0.15000*%
%ADD34C,0.05500*%
%ADD35C,0.05906*%
%ADD36R,0.05906X0.05906*%
%ADD37R,0.05906X0.05906*%
%ADD38C,0.06654*%
%ADD39R,0.06654X0.06654*%
%ADD40C,0.18740*%
D10*
X252000Y234500D02*
G03*
X250246Y233773I0J-2481D01*
G01*
X250312Y233840D02*
G03*
X251000Y235500I-1660J1660D01*
G01*
X252000Y236500D02*
G03*
X253660Y237188I0J2348D01*
G01*
X253727Y237254D02*
G03*
X253000Y235500I1754J-1754D01*
G01*
X255000Y257000D02*
G03*
X252930Y256143I0J-2927D01*
G01*
X253443Y256656D02*
G03*
X254000Y258000I-1344J1344D01*
G01*
X255000Y259000D02*
G03*
X256344Y259557I0J1901D01*
G01*
X256857Y260070D02*
G03*
X256000Y258000I2070J-2070D01*
G01*
X249000Y261000D02*
G03*
X246439Y259939I0J-3621D01*
G01*
X247646Y261146D02*
G03*
X248000Y262000I-854J854D01*
G01*
X249000Y263000D02*
G03*
X249854Y263353I0J1207D01*
G01*
X251061Y264561D02*
G03*
X250000Y262000I2561J-2561D01*
G01*
X249000Y265500D02*
G03*
X247293Y264793I0J-2414D01*
G01*
X247293Y264793D02*
G03*
X248000Y266500I-1707J1707D01*
G01*
X249000Y267500D02*
G03*
X250707Y268207I0J2414D01*
G01*
X250707Y268207D02*
G03*
X250000Y266500I1707J-1707D01*
G01*
X249500Y270000D02*
G03*
X247793Y269293I0J-2414D01*
G01*
X247793Y269293D02*
G03*
X248500Y271000I-1707J1707D01*
G01*
X249500Y272000D02*
G03*
X251207Y272707I0J2414D01*
G01*
X251207Y272707D02*
G03*
X250500Y271000I1707J-1707D01*
G01*
X250000Y274500D02*
G03*
X248293Y273793I0J-2414D01*
G01*
X248293Y273793D02*
G03*
X249000Y275500I-1707J1707D01*
G01*
X250000Y276500D02*
G03*
X251707Y277207I0J2414D01*
G01*
X251707Y277207D02*
G03*
X251000Y275500I1707J-1707D01*
G01*
X250500Y279000D02*
G03*
X248793Y278293I0J-2414D01*
G01*
X248793Y278293D02*
G03*
X249500Y280000I-1707J1707D01*
G01*
X250500Y281000D02*
G03*
X252207Y281707I0J2414D01*
G01*
X252207Y281707D02*
G03*
X251500Y280000I1707J-1707D01*
G01*
X278651Y191705D02*
G03*
X280000Y194171I-1581J2466D01*
G01*
X278112Y192547D02*
G03*
X280000Y196000I-2213J3453D01*
G01*
Y194171D02*
G03*
X281349Y191705I2929J0D01*
G01*
X280000Y196000D02*
G03*
X281888Y192547I4101J0D01*
G01*
X224000Y192100D02*
G03*
X228268Y193868I0J6036D01*
G01*
X224000Y193100D02*
G03*
X229975Y195575I0J8450D01*
G01*
X228268Y193868D02*
G03*
X226500Y189600I4268J-4268D01*
G01*
X229975Y195575D02*
G03*
X227500Y189600I5975J-5975D01*
G01*
X220547Y204000D02*
G03*
X219520Y206480I-3507J0D01*
G01*
X219547Y204000D02*
G03*
X217813Y208187I-5922J0D01*
G01*
X219520Y206480D02*
G03*
X222000Y205453I2480J2480D01*
G01*
X217813Y208187D02*
G03*
X222000Y206453I4187J4187D01*
G01*
X220973Y215027D02*
G03*
X222000Y217507I-2480J2480D01*
G01*
X220266Y215734D02*
G03*
X222000Y219921I-4187J4187D01*
G01*
Y217507D02*
G03*
X223027Y215027I3507J0D01*
G01*
X222000Y219921D02*
G03*
X223734Y215734I5922J0D01*
G01*
X230547Y204000D02*
G03*
X229520Y206480I-3507J0D01*
G01*
X229547Y204000D02*
G03*
X227813Y208187I-5922J0D01*
G01*
X229520Y206480D02*
G03*
X232000Y205453I2480J2480D01*
G01*
X227813Y208187D02*
G03*
X232000Y206453I4187J4187D01*
G01*
X230973Y215027D02*
G03*
X232000Y217507I-2480J2480D01*
G01*
X230266Y215734D02*
G03*
X232000Y219921I-4187J4187D01*
G01*
Y217507D02*
G03*
X233027Y215027I3507J0D01*
G01*
X232000Y219921D02*
G03*
X233734Y215734I5922J0D01*
G01*
X240547Y204000D02*
G03*
X239520Y206480I-3507J0D01*
G01*
X239547Y204000D02*
G03*
X237813Y208187I-5922J0D01*
G01*
X239520Y206480D02*
G03*
X242000Y205453I2480J2480D01*
G01*
X237813Y208187D02*
G03*
X242000Y206453I4187J4187D01*
G01*
X240973Y215027D02*
G03*
X242000Y217507I-2480J2480D01*
G01*
X240266Y215734D02*
G03*
X242000Y219921I-4187J4187D01*
G01*
Y217507D02*
G03*
X243027Y215027I3507J0D01*
G01*
X242000Y219921D02*
G03*
X243734Y215734I5922J0D01*
G01*
X250547Y204000D02*
G03*
X249520Y206480I-3507J0D01*
G01*
X249547Y204000D02*
G03*
X247813Y208187I-5922J0D01*
G01*
X249520Y206480D02*
G03*
X252000Y205453I2480J2480D01*
G01*
X247813Y208187D02*
G03*
X252000Y206453I4187J4187D01*
G01*
X250973Y215027D02*
G03*
X252000Y217507I-2480J2480D01*
G01*
X250266Y215734D02*
G03*
X252000Y219921I-4187J4187D01*
G01*
Y217507D02*
G03*
X253027Y215027I3507J0D01*
G01*
X252000Y219921D02*
G03*
X253734Y215734I5922J0D01*
G01*
X260547Y204000D02*
G03*
X259520Y206480I-3507J0D01*
G01*
X259547Y204000D02*
G03*
X257813Y208187I-5922J0D01*
G01*
X259520Y206480D02*
G03*
X262000Y205453I2480J2480D01*
G01*
X257813Y208187D02*
G03*
X262000Y206453I4187J4187D01*
G01*
X260973Y215027D02*
G03*
X262000Y217507I-2480J2480D01*
G01*
X260266Y215734D02*
G03*
X262000Y219921I-4187J4187D01*
G01*
Y217507D02*
G03*
X263027Y215027I3507J0D01*
G01*
X262000Y219921D02*
G03*
X263734Y215734I5922J0D01*
G01*
X272000Y202547D02*
G03*
X269520Y201520I0J-3507D01*
G01*
X272000Y201547D02*
G03*
X267813Y199813I0J-5922D01*
G01*
X269520Y201520D02*
G03*
X270547Y204000I-2480J2480D01*
G01*
X267813Y199813D02*
G03*
X269547Y204000I-4187J4187D01*
G01*
X270547D02*
G03*
X269520Y206480I-3507J0D01*
G01*
X269547Y204000D02*
G03*
X267813Y208187I-5922J0D01*
G01*
X269520Y206480D02*
G03*
X272000Y205453I2480J2480D01*
G01*
X267813Y208187D02*
G03*
X272000Y206453I4187J4187D01*
G01*
X270973Y215027D02*
G03*
X272000Y217507I-2480J2480D01*
G01*
X270266Y215734D02*
G03*
X272000Y219921I-4187J4187D01*
G01*
Y217507D02*
G03*
X273027Y215027I3507J0D01*
G01*
X272000Y219921D02*
G03*
X273734Y215734I5922J0D01*
G01*
X280547Y204000D02*
G03*
X279520Y206480I-3507J0D01*
G01*
X279547Y204000D02*
G03*
X277813Y208187I-5922J0D01*
G01*
X279520Y206480D02*
G03*
X282000Y205453I2480J2480D01*
G01*
X277813Y208187D02*
G03*
X282000Y206453I4187J4187D01*
G01*
X283027Y202973D02*
G03*
X282000Y200493I2480J-2480D01*
G01*
X283734Y202266D02*
G03*
X282000Y198079I4187J-4187D01*
G01*
Y200493D02*
G03*
X280973Y202973I-3507J0D01*
G01*
X282000Y198079D02*
G03*
X280266Y202266I-5922J0D01*
G01*
X280973Y215027D02*
G03*
X282000Y217507I-2480J2480D01*
G01*
X280266Y215734D02*
G03*
X282000Y219921I-4187J4187D01*
G01*
Y217507D02*
G03*
X283027Y215027I3507J0D01*
G01*
X282000Y219921D02*
G03*
X283734Y215734I5922J0D01*
G01*
X290547Y204000D02*
G03*
X289520Y206480I-3507J0D01*
G01*
X289547Y204000D02*
G03*
X287813Y208187I-5922J0D01*
G01*
X289520Y206480D02*
G03*
X292000Y205453I2480J2480D01*
G01*
X287813Y208187D02*
G03*
X292000Y206453I4187J4187D01*
G01*
X291680Y214320D02*
G03*
X293000Y217507I-3187J3187D01*
G01*
X290973Y215027D02*
G03*
X293000Y219921I-4894J4894D01*
G01*
X290266Y215734D02*
G03*
X293000Y222336I-6601J6601D01*
G01*
Y217507D02*
G03*
X293734Y215734I2507J0D01*
G01*
X236000Y361453D02*
G03*
X238480Y362480I0J3507D01*
G01*
X236000Y362453D02*
G03*
X240187Y364187I0J5922D01*
G01*
X238480Y362480D02*
G03*
X237453Y360000I2480J-2480D01*
G01*
X240187Y364187D02*
G03*
X238453Y360000I4187J-4187D01*
G01*
X247027Y361027D02*
G03*
X249507Y360000I2480J2480D01*
G01*
X247734Y361734D02*
G03*
X251922Y360000I4187J4187D01*
G01*
X249507D02*
G03*
X247027Y358973I0J-3507D01*
G01*
X251922Y360000D02*
G03*
X247734Y358266I0J-5922D01*
G01*
X236000Y351453D02*
G03*
X238480Y352480I0J3507D01*
G01*
X236000Y352453D02*
G03*
X240187Y354187I0J5922D01*
G01*
X238480Y352480D02*
G03*
X237453Y350000I2480J-2480D01*
G01*
X240187Y354187D02*
G03*
X238453Y350000I4187J-4187D01*
G01*
X247027Y351027D02*
G03*
X249507Y350000I2480J2480D01*
G01*
X247734Y351734D02*
G03*
X251922Y350000I4187J4187D01*
G01*
X249507D02*
G03*
X247027Y348973I0J-3507D01*
G01*
X251922Y350000D02*
G03*
X247734Y348266I0J-5922D01*
G01*
X236000Y341453D02*
G03*
X238480Y342480I0J3507D01*
G01*
X236000Y342453D02*
G03*
X240187Y344187I0J5922D01*
G01*
X238480Y342480D02*
G03*
X237453Y340000I2480J-2480D01*
G01*
X240187Y344187D02*
G03*
X238453Y340000I4187J-4187D01*
G01*
X247027Y341027D02*
G03*
X249507Y340000I2480J2480D01*
G01*
X247734Y341734D02*
G03*
X251922Y340000I4187J4187D01*
G01*
X249507D02*
G03*
X247027Y338973I0J-3507D01*
G01*
X251922Y340000D02*
G03*
X247734Y338266I0J-5922D01*
G01*
X236000Y331453D02*
G03*
X238480Y332480I0J3507D01*
G01*
X236000Y332453D02*
G03*
X240187Y334187I0J5922D01*
G01*
X238480Y332480D02*
G03*
X237453Y330000I2480J-2480D01*
G01*
X240187Y334187D02*
G03*
X238453Y330000I4187J-4187D01*
G01*
X247027Y331027D02*
G03*
X249507Y330000I2480J2480D01*
G01*
X247734Y331734D02*
G03*
X251922Y330000I4187J4187D01*
G01*
X249507D02*
G03*
X247027Y328973I0J-3507D01*
G01*
X251922Y330000D02*
G03*
X247734Y328266I0J-5922D01*
G01*
X236000Y321453D02*
G03*
X238480Y322480I0J3507D01*
G01*
X236000Y322453D02*
G03*
X240187Y324187I0J5922D01*
G01*
X238480Y322480D02*
G03*
X237453Y320000I2480J-2480D01*
G01*
X240187Y324187D02*
G03*
X238453Y320000I4187J-4187D01*
G01*
X247027Y321027D02*
G03*
X249507Y320000I2480J2480D01*
G01*
X247734Y321734D02*
G03*
X251922Y320000I4187J4187D01*
G01*
X249507D02*
G03*
X247027Y318973I0J-3507D01*
G01*
X251922Y320000D02*
G03*
X247734Y318266I0J-5922D01*
G01*
X236000Y311453D02*
G03*
X238480Y312480I0J3507D01*
G01*
X236000Y312453D02*
G03*
X240187Y314187I0J5922D01*
G01*
X238480Y312480D02*
G03*
X237453Y310000I2480J-2480D01*
G01*
X240187Y314187D02*
G03*
X238453Y310000I4187J-4187D01*
G01*
X247027Y311027D02*
G03*
X249507Y310000I2480J2480D01*
G01*
X247734Y311734D02*
G03*
X251922Y310000I4187J4187D01*
G01*
X249507D02*
G03*
X247027Y308973I0J-3507D01*
G01*
X251922Y310000D02*
G03*
X247734Y308266I0J-5922D01*
G01*
X236000Y301453D02*
G03*
X238480Y302480I0J3507D01*
G01*
X236000Y302453D02*
G03*
X240187Y304187I0J5922D01*
G01*
X238480Y302480D02*
G03*
X237453Y300000I2480J-2480D01*
G01*
X240187Y304187D02*
G03*
X238453Y300000I4187J-4187D01*
G01*
X247027Y301027D02*
G03*
X249213Y300122I2186J2186D01*
G01*
X247734Y301734D02*
G03*
X251627Y300122I3893J3893D01*
G01*
X249802D02*
G03*
X247027Y298973I0J-3924D01*
G01*
X252216Y300122D02*
G03*
X247734Y298266I0J-6338D01*
G01*
Y291734D02*
G03*
X251247Y290280I3512J3512D01*
G01*
X250182D02*
G03*
X247027Y288973I0J-4462D01*
G01*
X252596Y290280D02*
G03*
X247734Y288266I0J-6876D01*
G01*
X310707Y335293D02*
G03*
X310000Y333586I1707J-1707D01*
G01*
D02*
G03*
X309293Y335293I-2414J0D01*
G01*
X314000Y329000D02*
G03*
X311439Y327939I0J-3621D01*
G01*
X312647Y329146D02*
G03*
X313000Y330000I-854J854D01*
G01*
X317462Y243462D02*
G03*
X314955Y244500I-2507J-2507D01*
G01*
D02*
G03*
X317462Y245538I0J3545D01*
G01*
X298500Y245969D02*
G03*
X301007Y247007I0J3545D01*
G01*
X301007Y247007D02*
G03*
X299969Y244500I2507J-2507D01*
G01*
X272866Y306028D02*
G03*
X272568Y306747I-1017J0D01*
G01*
X271866Y306028D02*
G03*
X270861Y308454I-3431J0D01*
G01*
X270866Y306028D02*
G03*
X269154Y310161I-5845J0D01*
G01*
X269866Y306028D02*
G03*
X267447Y311868I-8260J0D01*
G01*
X268866Y306028D02*
G03*
X265740Y313575I-10674J0D01*
G01*
X272568Y275781D02*
G03*
X272866Y276500I-719J719D01*
G01*
X270861Y274074D02*
G03*
X271866Y276500I-2426J2426D01*
G01*
X269154Y272367D02*
G03*
X270866Y276500I-4133J4133D01*
G01*
X267447Y270659D02*
G03*
X269866Y276500I-5840J5840D01*
G01*
X265740Y268952D02*
G03*
X268866Y276500I-7548J7548D01*
G01*
X283130Y266236D02*
G03*
X282411Y265938I0J-1017D01*
G01*
X283130Y265236D02*
G03*
X280704Y264231I0J-3431D01*
G01*
X283130Y264236D02*
G03*
X278997Y262524I0J-5845D01*
G01*
X283130Y263236D02*
G03*
X277290Y260817I0J-8260D01*
G01*
X283130Y262236D02*
G03*
X275582Y259110I0J-10674D01*
G01*
X278651Y191705D02*
G03*
X280000Y194171I-1581J2466D01*
G01*
X278112Y192547D02*
G03*
X280000Y196000I-2213J3453D01*
G01*
Y194171D02*
G03*
X281349Y191705I2929J0D01*
G01*
X280000Y196000D02*
G03*
X281888Y192547I4101J0D01*
G01*
X224000Y192100D02*
G03*
X228268Y193868I0J6036D01*
G01*
X224000Y193100D02*
G03*
X229975Y195575I0J8450D01*
G01*
X228268Y193868D02*
G03*
X226500Y189600I4268J-4268D01*
G01*
X229975Y195575D02*
G03*
X227500Y189600I5975J-5975D01*
G01*
X220547Y204000D02*
G03*
X219520Y206480I-3507J0D01*
G01*
X219547Y204000D02*
G03*
X217813Y208187I-5922J0D01*
G01*
X219520Y206480D02*
G03*
X222000Y205453I2480J2480D01*
G01*
X217813Y208187D02*
G03*
X222000Y206453I4187J4187D01*
G01*
X220973Y215027D02*
G03*
X222000Y217507I-2480J2480D01*
G01*
X220266Y215734D02*
G03*
X222000Y219921I-4187J4187D01*
G01*
Y217507D02*
G03*
X223027Y215027I3507J0D01*
G01*
X222000Y219921D02*
G03*
X223734Y215734I5922J0D01*
G01*
X230547Y204000D02*
G03*
X229520Y206480I-3507J0D01*
G01*
X229547Y204000D02*
G03*
X227813Y208187I-5922J0D01*
G01*
X229520Y206480D02*
G03*
X232000Y205453I2480J2480D01*
G01*
X227813Y208187D02*
G03*
X232000Y206453I4187J4187D01*
G01*
X230973Y215027D02*
G03*
X232000Y217507I-2480J2480D01*
G01*
X230266Y215734D02*
G03*
X232000Y219921I-4187J4187D01*
G01*
Y217507D02*
G03*
X233027Y215027I3507J0D01*
G01*
X232000Y219921D02*
G03*
X233734Y215734I5922J0D01*
G01*
X240547Y204000D02*
G03*
X239520Y206480I-3507J0D01*
G01*
X239547Y204000D02*
G03*
X237813Y208187I-5922J0D01*
G01*
X239520Y206480D02*
G03*
X242000Y205453I2480J2480D01*
G01*
X237813Y208187D02*
G03*
X242000Y206453I4187J4187D01*
G01*
X240973Y215027D02*
G03*
X242000Y217507I-2480J2480D01*
G01*
X240266Y215734D02*
G03*
X242000Y219921I-4187J4187D01*
G01*
Y217507D02*
G03*
X243027Y215027I3507J0D01*
G01*
X242000Y219921D02*
G03*
X243734Y215734I5922J0D01*
G01*
X250547Y204000D02*
G03*
X249520Y206480I-3507J0D01*
G01*
X249547Y204000D02*
G03*
X247813Y208187I-5922J0D01*
G01*
X249520Y206480D02*
G03*
X252000Y205453I2480J2480D01*
G01*
X247813Y208187D02*
G03*
X252000Y206453I4187J4187D01*
G01*
X250973Y215027D02*
G03*
X252000Y217507I-2480J2480D01*
G01*
X250266Y215734D02*
G03*
X252000Y219921I-4187J4187D01*
G01*
Y217507D02*
G03*
X253027Y215027I3507J0D01*
G01*
X252000Y219921D02*
G03*
X253734Y215734I5922J0D01*
G01*
X260547Y204000D02*
G03*
X259520Y206480I-3507J0D01*
G01*
X259547Y204000D02*
G03*
X257813Y208187I-5922J0D01*
G01*
X259520Y206480D02*
G03*
X262000Y205453I2480J2480D01*
G01*
X257813Y208187D02*
G03*
X262000Y206453I4187J4187D01*
G01*
X260973Y215027D02*
G03*
X262000Y217507I-2480J2480D01*
G01*
X260266Y215734D02*
G03*
X262000Y219921I-4187J4187D01*
G01*
Y217507D02*
G03*
X263027Y215027I3507J0D01*
G01*
X262000Y219921D02*
G03*
X263734Y215734I5922J0D01*
G01*
X272000Y202547D02*
G03*
X269520Y201520I0J-3507D01*
G01*
X272000Y201547D02*
G03*
X267813Y199813I0J-5922D01*
G01*
X269520Y201520D02*
G03*
X270547Y204000I-2480J2480D01*
G01*
X267813Y199813D02*
G03*
X269547Y204000I-4187J4187D01*
G01*
X270547D02*
G03*
X269520Y206480I-3507J0D01*
G01*
X269547Y204000D02*
G03*
X267813Y208187I-5922J0D01*
G01*
X269520Y206480D02*
G03*
X272000Y205453I2480J2480D01*
G01*
X267813Y208187D02*
G03*
X272000Y206453I4187J4187D01*
G01*
X270973Y215027D02*
G03*
X272000Y217507I-2480J2480D01*
G01*
X270266Y215734D02*
G03*
X272000Y219921I-4187J4187D01*
G01*
Y217507D02*
G03*
X273027Y215027I3507J0D01*
G01*
X272000Y219921D02*
G03*
X273734Y215734I5922J0D01*
G01*
X280547Y204000D02*
G03*
X279520Y206480I-3507J0D01*
G01*
X279547Y204000D02*
G03*
X277813Y208187I-5922J0D01*
G01*
X279520Y206480D02*
G03*
X282000Y205453I2480J2480D01*
G01*
X277813Y208187D02*
G03*
X282000Y206453I4187J4187D01*
G01*
X283027Y202973D02*
G03*
X282000Y200493I2480J-2480D01*
G01*
X283734Y202266D02*
G03*
X282000Y198079I4187J-4187D01*
G01*
Y200493D02*
G03*
X280973Y202973I-3507J0D01*
G01*
X282000Y198079D02*
G03*
X280266Y202266I-5922J0D01*
G01*
X280973Y215027D02*
G03*
X282000Y217507I-2480J2480D01*
G01*
X280266Y215734D02*
G03*
X282000Y219921I-4187J4187D01*
G01*
Y217507D02*
G03*
X283027Y215027I3507J0D01*
G01*
X282000Y219921D02*
G03*
X283734Y215734I5922J0D01*
G01*
X290547Y204000D02*
G03*
X289520Y206480I-3507J0D01*
G01*
X289547Y204000D02*
G03*
X287813Y208187I-5922J0D01*
G01*
X289520Y206480D02*
G03*
X292000Y205453I2480J2480D01*
G01*
X287813Y208187D02*
G03*
X292000Y206453I4187J4187D01*
G01*
X291680Y214320D02*
G03*
X293000Y217507I-3187J3187D01*
G01*
X290973Y215027D02*
G03*
X293000Y219921I-4894J4894D01*
G01*
X290266Y215734D02*
G03*
X293000Y222336I-6601J6601D01*
G01*
Y217507D02*
G03*
X293734Y215734I2507J0D01*
G01*
X236000Y361453D02*
G03*
X238480Y362480I0J3507D01*
G01*
X236000Y362453D02*
G03*
X240187Y364187I0J5922D01*
G01*
X238480Y362480D02*
G03*
X237453Y360000I2480J-2480D01*
G01*
X240187Y364187D02*
G03*
X238453Y360000I4187J-4187D01*
G01*
X247027Y361027D02*
G03*
X249507Y360000I2480J2480D01*
G01*
X247734Y361734D02*
G03*
X251922Y360000I4187J4187D01*
G01*
X249507D02*
G03*
X247027Y358973I0J-3507D01*
G01*
X251922Y360000D02*
G03*
X247734Y358266I0J-5922D01*
G01*
X236000Y351453D02*
G03*
X238480Y352480I0J3507D01*
G01*
X236000Y352453D02*
G03*
X240187Y354187I0J5922D01*
G01*
X238480Y352480D02*
G03*
X237453Y350000I2480J-2480D01*
G01*
X240187Y354187D02*
G03*
X238453Y350000I4187J-4187D01*
G01*
X247027Y351027D02*
G03*
X249507Y350000I2480J2480D01*
G01*
X247734Y351734D02*
G03*
X251922Y350000I4187J4187D01*
G01*
X249507D02*
G03*
X247027Y348973I0J-3507D01*
G01*
X251922Y350000D02*
G03*
X247734Y348266I0J-5922D01*
G01*
X236000Y341453D02*
G03*
X238480Y342480I0J3507D01*
G01*
X236000Y342453D02*
G03*
X240187Y344187I0J5922D01*
G01*
X238480Y342480D02*
G03*
X237453Y340000I2480J-2480D01*
G01*
X240187Y344187D02*
G03*
X238453Y340000I4187J-4187D01*
G01*
X247027Y341027D02*
G03*
X249507Y340000I2480J2480D01*
G01*
X247734Y341734D02*
G03*
X251922Y340000I4187J4187D01*
G01*
X249507D02*
G03*
X247027Y338973I0J-3507D01*
G01*
X251922Y340000D02*
G03*
X247734Y338266I0J-5922D01*
G01*
X236000Y331453D02*
G03*
X238480Y332480I0J3507D01*
G01*
X236000Y332453D02*
G03*
X240187Y334187I0J5922D01*
G01*
X238480Y332480D02*
G03*
X237453Y330000I2480J-2480D01*
G01*
X240187Y334187D02*
G03*
X238453Y330000I4187J-4187D01*
G01*
X247027Y331027D02*
G03*
X249507Y330000I2480J2480D01*
G01*
X247734Y331734D02*
G03*
X251922Y330000I4187J4187D01*
G01*
X249507D02*
G03*
X247027Y328973I0J-3507D01*
G01*
X251922Y330000D02*
G03*
X247734Y328266I0J-5922D01*
G01*
X236000Y321453D02*
G03*
X238480Y322480I0J3507D01*
G01*
X236000Y322453D02*
G03*
X240187Y324187I0J5922D01*
G01*
X238480Y322480D02*
G03*
X237453Y320000I2480J-2480D01*
G01*
X240187Y324187D02*
G03*
X238453Y320000I4187J-4187D01*
G01*
X247027Y321027D02*
G03*
X249507Y320000I2480J2480D01*
G01*
X247734Y321734D02*
G03*
X251922Y320000I4187J4187D01*
G01*
X249507D02*
G03*
X247027Y318973I0J-3507D01*
G01*
X251922Y320000D02*
G03*
X247734Y318266I0J-5922D01*
G01*
X236000Y311453D02*
G03*
X238480Y312480I0J3507D01*
G01*
X236000Y312453D02*
G03*
X240187Y314187I0J5922D01*
G01*
X238480Y312480D02*
G03*
X237453Y310000I2480J-2480D01*
G01*
X240187Y314187D02*
G03*
X238453Y310000I4187J-4187D01*
G01*
X247027Y311027D02*
G03*
X249507Y310000I2480J2480D01*
G01*
X247734Y311734D02*
G03*
X251922Y310000I4187J4187D01*
G01*
X249507D02*
G03*
X247027Y308973I0J-3507D01*
G01*
X251922Y310000D02*
G03*
X247734Y308266I0J-5922D01*
G01*
X236000Y301453D02*
G03*
X238480Y302480I0J3507D01*
G01*
X236000Y302453D02*
G03*
X240187Y304187I0J5922D01*
G01*
X238480Y302480D02*
G03*
X237453Y300000I2480J-2480D01*
G01*
X240187Y304187D02*
G03*
X238453Y300000I4187J-4187D01*
G01*
X247027Y301027D02*
G03*
X249213Y300122I2186J2186D01*
G01*
X247734Y301734D02*
G03*
X251627Y300122I3893J3893D01*
G01*
X249802D02*
G03*
X247027Y298973I0J-3924D01*
G01*
X252216Y300122D02*
G03*
X247734Y298266I0J-6338D01*
G01*
Y291734D02*
G03*
X251247Y290280I3512J3512D01*
G01*
X250182D02*
G03*
X247027Y288973I0J-4462D01*
G01*
X252596Y290280D02*
G03*
X247734Y288266I0J-6876D01*
G01*
X310707Y335293D02*
G03*
X310000Y333586I1707J-1707D01*
G01*
D02*
G03*
X309293Y335293I-2414J0D01*
G01*
X314000Y329000D02*
G03*
X311439Y327939I0J-3621D01*
G01*
X312647Y329146D02*
G03*
X313000Y330000I-854J854D01*
G01*
X317462Y243462D02*
G03*
X314955Y244500I-2507J-2507D01*
G01*
D02*
G03*
X317462Y245538I0J3545D01*
G01*
X298500Y245969D02*
G03*
X301007Y247007I0J3545D01*
G01*
X301007Y247007D02*
G03*
X299969Y244500I2507J-2507D01*
G01*
X272866Y306028D02*
G03*
X272568Y306747I-1017J0D01*
G01*
X271866Y306028D02*
G03*
X270861Y308454I-3431J0D01*
G01*
X270866Y306028D02*
G03*
X269154Y310161I-5845J0D01*
G01*
X269866Y306028D02*
G03*
X267447Y311868I-8260J0D01*
G01*
X268866Y306028D02*
G03*
X265740Y313575I-10674J0D01*
G01*
X272568Y275781D02*
G03*
X272866Y276500I-719J719D01*
G01*
X270861Y274074D02*
G03*
X271866Y276500I-2426J2426D01*
G01*
X269154Y272367D02*
G03*
X270866Y276500I-4133J4133D01*
G01*
X267447Y270659D02*
G03*
X269866Y276500I-5840J5840D01*
G01*
X265740Y268952D02*
G03*
X268866Y276500I-7548J7548D01*
G01*
X283130Y266236D02*
G03*
X282411Y265938I0J-1017D01*
G01*
X283130Y265236D02*
G03*
X280704Y264231I0J-3431D01*
G01*
X283130Y264236D02*
G03*
X278997Y262524I0J-5845D01*
G01*
X283130Y263236D02*
G03*
X277290Y260817I0J-8260D01*
G01*
X283130Y262236D02*
G03*
X275582Y259110I0J-10674D01*
G01*
X335029Y316161D02*
G03*
X338544Y317617I0J4971D01*
G01*
Y314705D02*
G03*
X335029Y316161I-3515J-3515D01*
G01*
Y323839D02*
G03*
X338544Y325295I0J4971D01*
G01*
Y322383D02*
G03*
X335029Y323839I-3515J-3515D01*
G01*
X312657Y320291D02*
G03*
X320205Y323418I0J10674D01*
G01*
X312657Y319291D02*
G03*
X318498Y321710I0J8260D01*
G01*
X312657Y318291D02*
G03*
X316791Y320003I0J5845D01*
G01*
X312657Y317291D02*
G03*
X315084Y318296I0J3431D01*
G01*
X312657Y316291D02*
G03*
X313377Y316589I0J1017D01*
G01*
X268866Y306028D02*
G03*
X265740Y313575I-10674J0D01*
G01*
X269866Y306028D02*
G03*
X267447Y311868I-8260J0D01*
G01*
X270866Y306028D02*
G03*
X269154Y310161I-5845J0D01*
G01*
X271866Y306028D02*
G03*
X270861Y308454I-3431J0D01*
G01*
X272866Y306028D02*
G03*
X272568Y306747I-1017J0D01*
G01*
X268355Y294000D02*
G03*
X268864Y294211I0J720D01*
G01*
X265740Y268952D02*
G03*
X268866Y276500I-7548J7548D01*
G01*
X267447Y270659D02*
G03*
X269866Y276500I-5840J5840D01*
G01*
X269154Y272367D02*
G03*
X270866Y276500I-4133J4133D01*
G01*
X270861Y274074D02*
G03*
X271866Y276500I-2426J2426D01*
G01*
X272568Y275781D02*
G03*
X272866Y276500I-719J719D01*
G01*
X283130Y262236D02*
G03*
X275582Y259110I0J-10674D01*
G01*
X283130Y263236D02*
G03*
X277290Y260817I0J-8260D01*
G01*
X283130Y264236D02*
G03*
X278997Y262524I0J-5845D01*
G01*
X283130Y265236D02*
G03*
X280704Y264231I0J-3431D01*
G01*
X283130Y266236D02*
G03*
X282411Y265938I0J-1017D01*
G01*
X280000Y196000D02*
G03*
X281888Y192547I4101J0D01*
G01*
X280000Y194171D02*
G03*
X281349Y191705I2929J0D01*
G01*
X278112Y192547D02*
G03*
X280000Y196000I-2213J3453D01*
G01*
X278651Y191705D02*
G03*
X280000Y194171I-1581J2466D01*
G01*
X229975Y195575D02*
G03*
X227500Y189600I5975J-5975D01*
G01*
X228268Y193868D02*
G03*
X226500Y189600I4268J-4268D01*
G01*
X224000Y193100D02*
G03*
X229975Y195575I0J8450D01*
G01*
X224000Y192100D02*
G03*
X228268Y193868I0J6036D01*
G01*
X217813Y208187D02*
G03*
X222000Y206453I4187J4187D01*
G01*
X219520Y206480D02*
G03*
X222000Y205453I2480J2480D01*
G01*
X219547Y204000D02*
G03*
X217813Y208187I-5922J0D01*
G01*
X220547Y204000D02*
G03*
X219520Y206480I-3507J0D01*
G01*
X222000Y219921D02*
G03*
X223734Y215734I5922J0D01*
G01*
X222000Y217507D02*
G03*
X223027Y215027I3507J0D01*
G01*
X220266Y215734D02*
G03*
X222000Y219921I-4187J4187D01*
G01*
X220973Y215027D02*
G03*
X222000Y217507I-2480J2480D01*
G01*
X227813Y208187D02*
G03*
X232000Y206453I4187J4187D01*
G01*
X229520Y206480D02*
G03*
X232000Y205453I2480J2480D01*
G01*
X229547Y204000D02*
G03*
X227813Y208187I-5922J0D01*
G01*
X230547Y204000D02*
G03*
X229520Y206480I-3507J0D01*
G01*
X232000Y219921D02*
G03*
X233734Y215734I5922J0D01*
G01*
X232000Y217507D02*
G03*
X233027Y215027I3507J0D01*
G01*
X230266Y215734D02*
G03*
X232000Y219921I-4187J4187D01*
G01*
X230973Y215027D02*
G03*
X232000Y217507I-2480J2480D01*
G01*
X237813Y208187D02*
G03*
X242000Y206453I4187J4187D01*
G01*
X239520Y206480D02*
G03*
X242000Y205453I2480J2480D01*
G01*
X239547Y204000D02*
G03*
X237813Y208187I-5922J0D01*
G01*
X240547Y204000D02*
G03*
X239520Y206480I-3507J0D01*
G01*
X242000Y219921D02*
G03*
X243734Y215734I5922J0D01*
G01*
X242000Y217507D02*
G03*
X243027Y215027I3507J0D01*
G01*
X240266Y215734D02*
G03*
X242000Y219921I-4187J4187D01*
G01*
X240973Y215027D02*
G03*
X242000Y217507I-2480J2480D01*
G01*
X247813Y208187D02*
G03*
X252000Y206453I4187J4187D01*
G01*
X249520Y206480D02*
G03*
X252000Y205453I2480J2480D01*
G01*
X249547Y204000D02*
G03*
X247813Y208187I-5922J0D01*
G01*
X250547Y204000D02*
G03*
X249520Y206480I-3507J0D01*
G01*
X252000Y219921D02*
G03*
X253734Y215734I5922J0D01*
G01*
X252000Y217507D02*
G03*
X253027Y215027I3507J0D01*
G01*
X250266Y215734D02*
G03*
X252000Y219921I-4187J4187D01*
G01*
X250973Y215027D02*
G03*
X252000Y217507I-2480J2480D01*
G01*
X257813Y208187D02*
G03*
X262000Y206453I4187J4187D01*
G01*
X259520Y206480D02*
G03*
X262000Y205453I2480J2480D01*
G01*
X259547Y204000D02*
G03*
X257813Y208187I-5922J0D01*
G01*
X260547Y204000D02*
G03*
X259520Y206480I-3507J0D01*
G01*
X262000Y219921D02*
G03*
X263734Y215734I5922J0D01*
G01*
X262000Y217507D02*
G03*
X263027Y215027I3507J0D01*
G01*
X260266Y215734D02*
G03*
X262000Y219921I-4187J4187D01*
G01*
X260973Y215027D02*
G03*
X262000Y217507I-2480J2480D01*
G01*
X267813Y199813D02*
G03*
X269547Y204000I-4187J4187D01*
G01*
X269520Y201520D02*
G03*
X270547Y204000I-2480J2480D01*
G01*
X272000Y201547D02*
G03*
X267813Y199813I0J-5922D01*
G01*
X272000Y202547D02*
G03*
X269520Y201520I0J-3507D01*
G01*
X267813Y208187D02*
G03*
X272000Y206453I4187J4187D01*
G01*
X269520Y206480D02*
G03*
X272000Y205453I2480J2480D01*
G01*
X269547Y204000D02*
G03*
X267813Y208187I-5922J0D01*
G01*
X270547Y204000D02*
G03*
X269520Y206480I-3507J0D01*
G01*
X272000Y219921D02*
G03*
X273734Y215734I5922J0D01*
G01*
X272000Y217507D02*
G03*
X273027Y215027I3507J0D01*
G01*
X270266Y215734D02*
G03*
X272000Y219921I-4187J4187D01*
G01*
X270973Y215027D02*
G03*
X272000Y217507I-2480J2480D01*
G01*
X282000Y198079D02*
G03*
X280266Y202266I-5922J0D01*
G01*
X282000Y200493D02*
G03*
X280973Y202973I-3507J0D01*
G01*
X283734Y202266D02*
G03*
X282000Y198079I4187J-4187D01*
G01*
X283027Y202973D02*
G03*
X282000Y200493I2480J-2480D01*
G01*
X277813Y208187D02*
G03*
X282000Y206453I4187J4187D01*
G01*
X279520Y206480D02*
G03*
X282000Y205453I2480J2480D01*
G01*
X279547Y204000D02*
G03*
X277813Y208187I-5922J0D01*
G01*
X280547Y204000D02*
G03*
X279520Y206480I-3507J0D01*
G01*
X282000Y219921D02*
G03*
X283734Y215734I5922J0D01*
G01*
X282000Y217507D02*
G03*
X283027Y215027I3507J0D01*
G01*
X280266Y215734D02*
G03*
X282000Y219921I-4187J4187D01*
G01*
X280973Y215027D02*
G03*
X282000Y217507I-2480J2480D01*
G01*
X287813Y208187D02*
G03*
X292000Y206453I4187J4187D01*
G01*
X289520Y206480D02*
G03*
X292000Y205453I2480J2480D01*
G01*
X289547Y204000D02*
G03*
X287813Y208187I-5922J0D01*
G01*
X290547Y204000D02*
G03*
X289520Y206480I-3507J0D01*
G01*
X293000Y217507D02*
G03*
X293734Y215734I2507J0D01*
G01*
X290266D02*
G03*
X293000Y222336I-6601J6601D01*
G01*
X290973Y215027D02*
G03*
X293000Y219921I-4894J4894D01*
G01*
X291680Y214320D02*
G03*
X293000Y217507I-3187J3187D01*
G01*
X240187Y364187D02*
G03*
X238453Y360000I4187J-4187D01*
G01*
X238480Y362480D02*
G03*
X237453Y360000I2480J-2480D01*
G01*
X236000Y362453D02*
G03*
X240187Y364187I0J5922D01*
G01*
X236000Y361453D02*
G03*
X238480Y362480I0J3507D01*
G01*
X251922Y360000D02*
G03*
X247734Y358266I0J-5922D01*
G01*
X249507Y360000D02*
G03*
X247027Y358973I0J-3507D01*
G01*
X247734Y361734D02*
G03*
X251922Y360000I4187J4187D01*
G01*
X247027Y361027D02*
G03*
X249507Y360000I2480J2480D01*
G01*
X240187Y354187D02*
G03*
X238453Y350000I4187J-4187D01*
G01*
X238480Y352480D02*
G03*
X237453Y350000I2480J-2480D01*
G01*
X236000Y352453D02*
G03*
X240187Y354187I0J5922D01*
G01*
X236000Y351453D02*
G03*
X238480Y352480I0J3507D01*
G01*
X251922Y350000D02*
G03*
X247734Y348266I0J-5922D01*
G01*
X249507Y350000D02*
G03*
X247027Y348973I0J-3507D01*
G01*
X247734Y351734D02*
G03*
X251922Y350000I4187J4187D01*
G01*
X247027Y351027D02*
G03*
X249507Y350000I2480J2480D01*
G01*
X240187Y344187D02*
G03*
X238453Y340000I4187J-4187D01*
G01*
X238480Y342480D02*
G03*
X237453Y340000I2480J-2480D01*
G01*
X236000Y342453D02*
G03*
X240187Y344187I0J5922D01*
G01*
X236000Y341453D02*
G03*
X238480Y342480I0J3507D01*
G01*
X251922Y340000D02*
G03*
X247734Y338266I0J-5922D01*
G01*
X249507Y340000D02*
G03*
X247027Y338973I0J-3507D01*
G01*
X247734Y341734D02*
G03*
X251922Y340000I4187J4187D01*
G01*
X247027Y341027D02*
G03*
X249507Y340000I2480J2480D01*
G01*
X240187Y334187D02*
G03*
X238453Y330000I4187J-4187D01*
G01*
X238480Y332480D02*
G03*
X237453Y330000I2480J-2480D01*
G01*
X236000Y332453D02*
G03*
X240187Y334187I0J5922D01*
G01*
X236000Y331453D02*
G03*
X238480Y332480I0J3507D01*
G01*
X251922Y330000D02*
G03*
X247734Y328266I0J-5922D01*
G01*
X249507Y330000D02*
G03*
X247027Y328973I0J-3507D01*
G01*
X247734Y331734D02*
G03*
X251922Y330000I4187J4187D01*
G01*
X247027Y331027D02*
G03*
X249507Y330000I2480J2480D01*
G01*
X240187Y324187D02*
G03*
X238453Y320000I4187J-4187D01*
G01*
X238480Y322480D02*
G03*
X237453Y320000I2480J-2480D01*
G01*
X236000Y322453D02*
G03*
X240187Y324187I0J5922D01*
G01*
X236000Y321453D02*
G03*
X238480Y322480I0J3507D01*
G01*
X251922Y320000D02*
G03*
X247734Y318266I0J-5922D01*
G01*
X249507Y320000D02*
G03*
X247027Y318973I0J-3507D01*
G01*
X247734Y321734D02*
G03*
X251922Y320000I4187J4187D01*
G01*
X247027Y321027D02*
G03*
X249507Y320000I2480J2480D01*
G01*
X240187Y314187D02*
G03*
X238453Y310000I4187J-4187D01*
G01*
X238480Y312480D02*
G03*
X237453Y310000I2480J-2480D01*
G01*
X236000Y312453D02*
G03*
X240187Y314187I0J5922D01*
G01*
X236000Y311453D02*
G03*
X238480Y312480I0J3507D01*
G01*
X251922Y310000D02*
G03*
X247734Y308266I0J-5922D01*
G01*
X249507Y310000D02*
G03*
X247027Y308973I0J-3507D01*
G01*
X247734Y311734D02*
G03*
X251922Y310000I4187J4187D01*
G01*
X247027Y311027D02*
G03*
X249507Y310000I2480J2480D01*
G01*
X240187Y304187D02*
G03*
X238453Y300000I4187J-4187D01*
G01*
X238480Y302480D02*
G03*
X237453Y300000I2480J-2480D01*
G01*
X236000Y302453D02*
G03*
X240187Y304187I0J5922D01*
G01*
X236000Y301453D02*
G03*
X238480Y302480I0J3507D01*
G01*
X252216Y300122D02*
G03*
X247734Y298266I0J-6338D01*
G01*
X249802Y300122D02*
G03*
X247027Y298973I0J-3924D01*
G01*
X247734Y301734D02*
G03*
X251627Y300122I3893J3893D01*
G01*
X247027Y301027D02*
G03*
X249213Y300122I2186J2186D01*
G01*
X240000Y294000D02*
G03*
X238451Y290081I3745J-3745D01*
G01*
X238369Y292369D02*
G03*
X237452Y290048I2218J-2218D01*
G01*
X236081Y292451D02*
G03*
X240000Y294000I174J5293D01*
G01*
X236048Y291452D02*
G03*
X238369Y292369I103J3135D01*
G01*
X252107Y290280D02*
G03*
X247591Y288409I0J-6386D01*
G01*
X249693Y290280D02*
G03*
X246884Y289116I0J-3972D01*
G01*
X247591Y291591D02*
G03*
X250757Y290280I3166J3166D01*
G01*
X310000Y333586D02*
G03*
X309293Y335293I-2414J0D01*
G01*
X310707D02*
G03*
X310000Y333586I1707J-1707D01*
G01*
X312647Y329146D02*
G03*
X313000Y330000I-854J854D01*
G01*
X314000Y329000D02*
G03*
X311439Y327939I0J-3621D01*
G01*
X314955Y244500D02*
G03*
X317462Y245538I0J3545D01*
G01*
Y243462D02*
G03*
X314955Y244500I-2507J-2507D01*
G01*
X301007Y247007D02*
G03*
X299969Y244500I2507J-2507D01*
G01*
X298500Y245969D02*
G03*
X301007Y247007I0J3545D01*
G01*
X344486Y337000D02*
G03*
X346993Y338038I0J3545D01*
G01*
Y335962D02*
G03*
X344486Y337000I-2507J-2507D01*
G01*
X287644Y294216D02*
G03*
X284207Y292793I0J-4860D01*
G01*
X285230Y294216D02*
G03*
X283500Y293500I0J-2446D01*
G01*
X282793Y292793D02*
G03*
X279356Y294216I-3437J-3437D01*
G01*
X283500Y293500D02*
G03*
X281770Y294216I-1730J-1730D01*
G01*
X367793Y282707D02*
G03*
X369500Y282000I1707J1707D01*
G01*
X368500Y281000D02*
G03*
X367793Y282707I-2414J0D01*
G01*
X355793Y307293D02*
G03*
X356500Y309000I-1707J1707D01*
G01*
X357500Y308000D02*
G03*
X355793Y307293I0J-2414D01*
G01*
X316414Y284500D02*
G03*
X314707Y283793I0J-2414D01*
G01*
Y285207D02*
G03*
X316414Y284500I1707J1707D01*
G01*
X299378Y306622D02*
G03*
X301026Y306380I986J986D01*
G01*
X304500Y306000D02*
G03*
X302300Y304900I0J-2750D01*
G01*
X293707Y287293D02*
G03*
X292000Y288000I-1707J-1707D01*
G01*
X293000Y289000D02*
G03*
X293707Y287293I2414J0D01*
G01*
X336086Y295000D02*
G03*
X337793Y295707I0J2414D01*
G01*
Y294293D02*
G03*
X336086Y295000I-1707J-1707D01*
G01*
X267154Y296185D02*
G03*
X266207Y295793I0J-1339D01*
G01*
Y297207D02*
G03*
X268675Y296185I2468J2468D01*
G01*
X344293Y294293D02*
G03*
X345000Y296000I-1707J1707D01*
G01*
X346000Y295000D02*
G03*
X344293Y294293I0J-2414D01*
G01*
X343793Y285207D02*
G03*
X345500Y284500I1707J1707D01*
G01*
X344500Y283500D02*
G03*
X343793Y285207I-2414J0D01*
G01*
X253727Y237254D02*
G03*
X253000Y235500I1754J-1754D01*
G01*
X252000Y236500D02*
G03*
X253660Y237188I0J2348D01*
G01*
X250312Y233840D02*
G03*
X251000Y235500I-1660J1660D01*
G01*
X252000Y234500D02*
G03*
X250246Y233773I0J-2481D01*
G01*
X256857Y260070D02*
G03*
X256000Y258000I2070J-2070D01*
G01*
X255000Y259000D02*
G03*
X256344Y259557I0J1901D01*
G01*
X253443Y256656D02*
G03*
X254000Y258000I-1344J1344D01*
G01*
X255000Y257000D02*
G03*
X252930Y256143I0J-2927D01*
G01*
X251061Y264561D02*
G03*
X250000Y262000I2561J-2561D01*
G01*
X249000Y263000D02*
G03*
X249854Y263353I0J1207D01*
G01*
X247646Y261146D02*
G03*
X248000Y262000I-854J854D01*
G01*
X249000Y261000D02*
G03*
X246439Y259939I0J-3621D01*
G01*
X250707Y268207D02*
G03*
X250000Y266500I1707J-1707D01*
G01*
X249000Y267500D02*
G03*
X250707Y268207I0J2414D01*
G01*
X247293Y264793D02*
G03*
X248000Y266500I-1707J1707D01*
G01*
X249000Y265500D02*
G03*
X247293Y264793I0J-2414D01*
G01*
X251207Y272707D02*
G03*
X250500Y271000I1707J-1707D01*
G01*
X249500Y272000D02*
G03*
X251207Y272707I0J2414D01*
G01*
X247793Y269293D02*
G03*
X248500Y271000I-1707J1707D01*
G01*
X249500Y270000D02*
G03*
X247793Y269293I0J-2414D01*
G01*
X251707Y277207D02*
G03*
X251000Y275500I1707J-1707D01*
G01*
X250000Y276500D02*
G03*
X251707Y277207I0J2414D01*
G01*
X248293Y273793D02*
G03*
X249000Y275500I-1707J1707D01*
G01*
X250000Y274500D02*
G03*
X248293Y273793I0J-2414D01*
G01*
X252207Y281707D02*
G03*
X251500Y280000I1707J-1707D01*
G01*
X250500Y281000D02*
G03*
X252207Y281707I0J2414D01*
G01*
X248793Y278293D02*
G03*
X249500Y280000I-1707J1707D01*
G01*
X250500Y279000D02*
G03*
X248793Y278293I0J-2414D01*
G01*
X329249Y298153D02*
G03*
X331793Y299207I0J3597D01*
G01*
Y297793D02*
G03*
X330922Y298153I-871J-871D01*
G01*
X322500D02*
X332154D01*
X332500Y298500D01*
X322500Y296185D02*
X329315D01*
X333787Y337000D02*
X350000D01*
X312657Y315870D02*
X333787Y337000D01*
X310689Y327189D02*
X314000Y330500D01*
X310689Y315870D02*
Y327189D01*
X308720Y329221D02*
X310000Y330500D01*
X308720Y315870D02*
Y329221D01*
X310000Y330500D02*
Y336000D01*
X304784Y315870D02*
Y344724D01*
X302815Y315870D02*
Y346685D01*
X300847Y315870D02*
Y343653D01*
X304784Y344724D02*
X306000Y345940D01*
X284500Y360000D02*
X300847Y343653D01*
X284500Y365000D02*
X302815Y346685D01*
X314000Y330000D02*
Y330500D01*
X253500Y279000D02*
X258874Y284374D01*
X253500Y278964D02*
Y279000D01*
X252035Y277500D02*
X253500Y278964D01*
X252000Y277500D02*
X252035D01*
X222000Y247500D02*
X252000Y277500D01*
X236000Y360000D02*
X241000Y365000D01*
X284500D01*
X280000Y189600D02*
Y196000D01*
X282000Y198000D01*
Y204000D01*
X224000Y189600D02*
X230900Y196500D01*
X264500D01*
X272000Y204000D01*
X287000Y240500D02*
X298878Y252378D01*
X300847Y251847D02*
Y266657D01*
X293000Y244000D02*
X300847Y251847D01*
X293000Y215000D02*
Y244000D01*
X292000Y214000D02*
X293000Y215000D01*
X298878Y252378D02*
Y266657D01*
X287000Y209000D02*
Y240500D01*
Y209000D02*
X292000Y204000D01*
X296909Y253410D02*
Y266657D01*
X282000Y238500D02*
X296909Y253410D01*
X282000Y214000D02*
Y238500D01*
X294941Y254441D02*
Y266657D01*
X276500Y236000D02*
X294941Y254441D01*
X276500Y209500D02*
Y236000D01*
Y209500D02*
X282000Y204000D01*
X272000Y214000D02*
Y234000D01*
X292972Y254973D01*
Y266657D01*
X267500Y208500D02*
X272000Y204000D01*
X267500Y208500D02*
Y233000D01*
X291004Y256504D01*
Y266657D01*
X262000Y214000D02*
Y230000D01*
X289036Y257035D01*
Y266657D01*
X257000Y227500D02*
X287067Y257567D01*
X257000Y209000D02*
X262000Y204000D01*
X257000Y209000D02*
Y227500D01*
X287067Y257567D02*
Y266657D01*
X252000Y214000D02*
Y227000D01*
X285099Y260099D01*
Y266657D01*
X247500Y208500D02*
X252000Y204000D01*
X247500Y208500D02*
Y231028D01*
X283130Y266657D01*
X242000Y214000D02*
Y245213D01*
X273288Y276500D01*
X237000Y209000D02*
X242000Y204000D01*
X237000Y209000D02*
Y250500D01*
X264968Y278468D01*
X273288D01*
X232000Y214000D02*
Y249500D01*
X262937Y280437D01*
X273288D01*
X227000Y209000D02*
X232000Y204000D01*
X227000Y209000D02*
Y248500D01*
X260906Y282405D01*
X273288D01*
X222000Y214000D02*
Y247500D01*
X258874Y284374D02*
X273288D01*
X256842Y286343D02*
X273288D01*
X217500Y247000D02*
X256842Y286343D01*
X217500Y208500D02*
Y247000D01*
Y208500D02*
X222000Y204000D01*
X313000Y244500D02*
X318500D01*
X306752Y250748D02*
X313000Y244500D01*
X298500D02*
X304784Y250783D01*
X246000Y360000D02*
X284500D01*
X296909Y315870D02*
Y341590D01*
X283500Y355000D02*
X296909Y341590D01*
X241000Y355000D02*
X283500D01*
X236000Y350000D02*
X241000Y355000D01*
X294941Y315870D02*
Y338059D01*
X283000Y350000D02*
X294941Y338059D01*
X246000Y350000D02*
X283000D01*
X292972Y315870D02*
Y333028D01*
X281000Y345000D02*
X292972Y333028D01*
X241000Y345000D02*
X281000D01*
X236000Y340000D02*
X241000Y345000D01*
X291004Y315870D02*
Y330996D01*
X282000Y340000D02*
X291004Y330996D01*
X246000Y340000D02*
X282000D01*
X289036Y315870D02*
Y325964D01*
X280000Y335000D02*
X289036Y325964D01*
X241000Y335000D02*
X280000D01*
X236000Y330000D02*
X241000Y335000D01*
X287067Y315870D02*
Y324433D01*
X281500Y330000D02*
X287067Y324433D01*
X246000Y330000D02*
X281500D01*
X285099Y315870D02*
Y323401D01*
X284000Y324500D02*
X285099Y323401D01*
X240500Y324500D02*
X284000D01*
X236000Y320000D02*
X240500Y324500D01*
X246000Y320000D02*
X278500D01*
X282630Y315870D01*
X283130D01*
X264815Y314500D02*
X273288Y306028D01*
X240500Y314500D02*
X264815D01*
X236000Y310000D02*
X240500Y314500D01*
X246000Y310000D02*
X259500D01*
X265441Y304059D01*
X273288D01*
X236000Y300000D02*
X241000Y305000D01*
X261000D01*
X263910Y302091D01*
X273288D01*
X246122Y300122D02*
X273288D01*
X246000Y300000D02*
X246122Y300122D01*
X254189Y288311D02*
X273288D01*
X246000Y290000D02*
X246280Y290280D01*
X273288D01*
X252378Y286500D02*
X254189Y288311D01*
X265815Y296185D02*
X273288D01*
X265500Y296500D02*
X265815Y296185D01*
X298878Y307122D02*
Y315870D01*
Y307122D02*
X300000Y306000D01*
X304784Y306283D02*
Y315870D01*
X273288Y298153D02*
X305654D01*
X273288Y296185D02*
X305806D01*
X315649Y306028D02*
X322500D01*
X305806Y296185D02*
X315649Y306028D01*
X305654Y298153D02*
X323661Y316161D01*
X340000D01*
X342248Y292248D02*
X346000Y296000D01*
X338720Y290280D02*
X345500Y283500D01*
X322500Y292248D02*
X342248D01*
X322500Y290280D02*
X338720D01*
X329315Y296185D02*
X330500Y295000D01*
X338500D01*
X302815Y266657D02*
Y278185D01*
X296500Y284500D02*
X302815Y278185D01*
X292000Y289000D02*
X296500Y284500D01*
X304784Y250783D02*
Y266657D01*
X306752Y250748D02*
Y266657D01*
X273288Y294216D02*
X308000D01*
X322500D01*
X308000D02*
X310500Y291717D01*
X308720Y266657D02*
Y272441D01*
X310279Y274000D01*
X315000D02*
X316500Y272500D01*
X328500D01*
X322374Y284500D02*
X322500Y284374D01*
X314000Y284500D02*
X322374D01*
X310500Y274000D02*
Y291717D01*
X310279Y274000D02*
X310500D01*
X315000D01*
X328339Y323839D02*
X340000D01*
X310500Y306000D02*
X328339Y323839D01*
X300000Y306000D02*
X304500D01*
X310500D01*
X304500D02*
X304784Y306283D01*
X322500Y306028D02*
X354527D01*
X357500Y309000D01*
X322500Y300122D02*
X329122D01*
X331500Y302500D01*
X348000D01*
X369500Y281000D01*
X260000Y294000D02*
X273071D01*
X273288Y294216D01*
X258500Y295500D02*
X260000Y294000D01*
X185500Y295500D02*
X258500D01*
X236000Y290000D02*
X240000Y294000D01*
X256996D01*
X258748Y292248D01*
X273288D01*
D11*
X289800Y164000D02*
G03*
X288032Y168268I-6036J0D01*
G01*
X288032Y168268D02*
G03*
X292300Y166500I4268J4268D01*
G01*
X184369Y216131D02*
G03*
X185500Y218863I-2731J2731D01*
G01*
D02*
G03*
X186631Y216131I3863J0D01*
G01*
Y235869D02*
G03*
X185500Y233137I2731J-2731D01*
G01*
D02*
G03*
X184369Y235869I-3863J0D01*
G01*
Y238131D02*
G03*
X185500Y240863I-2731J2731D01*
G01*
D02*
G03*
X186631Y238131I3863J0D01*
G01*
X184369Y260131D02*
G03*
X185500Y262863I-2731J2731D01*
G01*
D02*
G03*
X186631Y260131I3863J0D01*
G01*
Y257869D02*
G03*
X185500Y255137I2731J-2731D01*
G01*
D02*
G03*
X184369Y257869I-3863J0D01*
G01*
X186631Y279869D02*
G03*
X185500Y277137I2731J-2731D01*
G01*
D02*
G03*
X184369Y279869I-3863J0D01*
G01*
Y282131D02*
G03*
X185500Y284863I-2731J2731D01*
G01*
D02*
G03*
X186631Y282131I3863J0D01*
G01*
Y301869D02*
G03*
X185500Y299137I2731J-2731D01*
G01*
D02*
G03*
X184369Y301869I-3863J0D01*
G01*
Y304131D02*
G03*
X185500Y306863I-2731J2731D01*
G01*
D02*
G03*
X186631Y304131I3863J0D01*
G01*
Y323869D02*
G03*
X185500Y321137I2731J-2731D01*
G01*
D02*
G03*
X184369Y323869I-3863J0D01*
G01*
Y326131D02*
G03*
X185500Y328863I-2731J2731D01*
G01*
D02*
G03*
X186631Y326131I3863J0D01*
G01*
Y345869D02*
G03*
X185500Y343137I2731J-2731D01*
G01*
D02*
G03*
X184369Y345869I-3863J0D01*
G01*
Y348131D02*
G03*
X185500Y350863I-2731J2731D01*
G01*
D02*
G03*
X186631Y348131I3863J0D01*
G01*
Y367869D02*
G03*
X185500Y365137I2731J-2731D01*
G01*
D02*
G03*
X184369Y367869I-3863J0D01*
G01*
X259800Y164000D02*
G03*
X257184Y170316I-8933J0D01*
G01*
X260081Y167419D02*
G03*
X262300Y166500I2219J2219D01*
G01*
X231800Y164000D02*
G03*
X230032Y168268I-6036J0D01*
G01*
X230032Y168268D02*
G03*
X234300Y166500I4268J4268D01*
G01*
X206300D02*
G03*
X210568Y168268I0J6036D01*
G01*
X210568Y168268D02*
G03*
X208800Y164000I4268J-4268D01*
G01*
X436607Y173677D02*
G03*
X444891Y177100I21J11686D01*
G01*
X436613Y176677D02*
G03*
X449999Y182208I34J18884D01*
G01*
X444891Y177100D02*
G03*
X441468Y168816I8263J-8263D01*
G01*
X449999Y182208D02*
G03*
X444468Y168821I13353J-13353D01*
G01*
X431728Y168807D02*
G03*
X428285Y177121I-11757J0D01*
G01*
X428728Y168807D02*
G03*
X423163Y182242I-19000J0D01*
G01*
X428285Y177121D02*
G03*
X436598Y173677I8314J8314D01*
G01*
X423163Y182242D02*
G03*
X436598Y176677I13435J13435D01*
G01*
X441468Y267184D02*
G03*
X444891Y258900I11686J-21D01*
G01*
X444468Y267179D02*
G03*
X449999Y253792I18884J-34D01*
G01*
X444891Y258900D02*
G03*
X436607Y262323I-8263J-8263D01*
G01*
X449999Y253792D02*
G03*
X436613Y259323I-13353J-13353D01*
G01*
X426861Y195639D02*
G03*
X431687Y195232I2654J2654D01*
G01*
X424348Y198151D02*
G03*
X429951Y197679I3081J3081D01*
G01*
X429716Y194897D02*
G03*
X426598Y196189I-3118J-3118D01*
G01*
D02*
G03*
X429716Y197481I0J4410D01*
G01*
X323060Y361250D02*
G03*
X320072Y360013I0J-4225D01*
G01*
X320072Y360013D02*
G03*
X321310Y363000I-2987J2987D01*
G01*
X184369Y216131D02*
G03*
X185500Y218863I-2731J2731D01*
G01*
D02*
G03*
X186631Y216131I3863J0D01*
G01*
Y235869D02*
G03*
X185500Y233137I2731J-2731D01*
G01*
D02*
G03*
X184369Y235869I-3863J0D01*
G01*
Y238131D02*
G03*
X185500Y240863I-2731J2731D01*
G01*
D02*
G03*
X186631Y238131I3863J0D01*
G01*
X184369Y260131D02*
G03*
X185500Y262863I-2731J2731D01*
G01*
D02*
G03*
X186631Y260131I3863J0D01*
G01*
Y257869D02*
G03*
X185500Y255137I2731J-2731D01*
G01*
D02*
G03*
X184369Y257869I-3863J0D01*
G01*
X186631Y279869D02*
G03*
X185500Y277137I2731J-2731D01*
G01*
D02*
G03*
X184369Y279869I-3863J0D01*
G01*
Y282131D02*
G03*
X185500Y284863I-2731J2731D01*
G01*
D02*
G03*
X186631Y282131I3863J0D01*
G01*
Y301869D02*
G03*
X185500Y299137I2731J-2731D01*
G01*
D02*
G03*
X184369Y301869I-3863J0D01*
G01*
Y304131D02*
G03*
X185500Y306863I-2731J2731D01*
G01*
D02*
G03*
X186631Y304131I3863J0D01*
G01*
Y323869D02*
G03*
X185500Y321137I2731J-2731D01*
G01*
D02*
G03*
X184369Y323869I-3863J0D01*
G01*
Y326131D02*
G03*
X185500Y328863I-2731J2731D01*
G01*
D02*
G03*
X186631Y326131I3863J0D01*
G01*
Y345869D02*
G03*
X185500Y343137I2731J-2731D01*
G01*
D02*
G03*
X184369Y345869I-3863J0D01*
G01*
Y348131D02*
G03*
X185500Y350863I-2731J2731D01*
G01*
D02*
G03*
X186631Y348131I3863J0D01*
G01*
Y367869D02*
G03*
X185500Y365137I2731J-2731D01*
G01*
D02*
G03*
X184369Y367869I-3863J0D01*
G01*
X323060Y361250D02*
G03*
X320072Y360013I0J-4225D01*
G01*
X320072Y360013D02*
G03*
X321310Y363000I-2987J2987D01*
G01*
X375004Y334000D02*
G03*
X373592Y337407I-4819J0D01*
G01*
X376812Y333251D02*
G03*
X375945Y331158I2093J-2093D01*
G01*
X384996Y334000D02*
G03*
X386054Y331446I3612J0D01*
G01*
X378534Y273829D02*
G03*
X379772Y279369I-3746J3746D01*
G01*
X385000Y286892D02*
G03*
X386932Y282227I6596J0D01*
G01*
X383068D02*
G03*
X385000Y286892I-4664J4664D01*
G01*
X394254Y280295D02*
G03*
X389590Y278363I0J-6596D01*
G01*
Y282227D02*
G03*
X394254Y280295I4664J4664D01*
G01*
X288032Y168268D02*
G03*
X292300Y166500I4268J4268D01*
G01*
X289800Y164000D02*
G03*
X288032Y168268I-6036J0D01*
G01*
X185500Y218863D02*
G03*
X186631Y216131I3863J0D01*
G01*
X184369D02*
G03*
X185500Y218863I-2731J2731D01*
G01*
Y233137D02*
G03*
X184369Y235869I-3863J0D01*
G01*
X186631D02*
G03*
X185500Y233137I2731J-2731D01*
G01*
Y240863D02*
G03*
X186631Y238131I3863J0D01*
G01*
X184369D02*
G03*
X185500Y240863I-2731J2731D01*
G01*
Y255137D02*
G03*
X184369Y257869I-3863J0D01*
G01*
X186631D02*
G03*
X185500Y255137I2731J-2731D01*
G01*
Y262863D02*
G03*
X186631Y260131I3863J0D01*
G01*
X184369D02*
G03*
X185500Y262863I-2731J2731D01*
G01*
Y284863D02*
G03*
X186631Y282131I3863J0D01*
G01*
X184369D02*
G03*
X185500Y284863I-2731J2731D01*
G01*
Y277137D02*
G03*
X184369Y279869I-3863J0D01*
G01*
X186631D02*
G03*
X185500Y277137I2731J-2731D01*
G01*
Y299137D02*
G03*
X184369Y301869I-3863J0D01*
G01*
X186631D02*
G03*
X185500Y299137I2731J-2731D01*
G01*
Y306863D02*
G03*
X186631Y304131I3863J0D01*
G01*
X184369D02*
G03*
X185500Y306863I-2731J2731D01*
G01*
Y321137D02*
G03*
X184369Y323869I-3863J0D01*
G01*
X186631D02*
G03*
X185500Y321137I2731J-2731D01*
G01*
Y328863D02*
G03*
X186631Y326131I3863J0D01*
G01*
X184369D02*
G03*
X185500Y328863I-2731J2731D01*
G01*
Y343137D02*
G03*
X184369Y345869I-3863J0D01*
G01*
X186631D02*
G03*
X185500Y343137I2731J-2731D01*
G01*
Y350863D02*
G03*
X186631Y348131I3863J0D01*
G01*
X184369D02*
G03*
X185500Y350863I-2731J2731D01*
G01*
Y365137D02*
G03*
X184369Y367869I-3863J0D01*
G01*
X186631D02*
G03*
X185500Y365137I2731J-2731D01*
G01*
X260081Y167419D02*
G03*
X262300Y166500I2219J2219D01*
G01*
X259800Y164000D02*
G03*
X257184Y170316I-8933J0D01*
G01*
X230032Y168268D02*
G03*
X234300Y166500I4268J4268D01*
G01*
X231800Y164000D02*
G03*
X230032Y168268I-6036J0D01*
G01*
X210568D02*
G03*
X208800Y164000I4268J-4268D01*
G01*
X206300Y166500D02*
G03*
X210568Y168268I0J6036D01*
G01*
X449999Y182208D02*
G03*
X444468Y168821I13353J-13353D01*
G01*
X444891Y177100D02*
G03*
X441468Y168816I8263J-8263D01*
G01*
X436613Y176677D02*
G03*
X449999Y182208I34J18884D01*
G01*
X436607Y173677D02*
G03*
X444891Y177100I21J11686D01*
G01*
X423163Y182242D02*
G03*
X436598Y176677I13435J13435D01*
G01*
X428285Y177121D02*
G03*
X436598Y173677I8314J8314D01*
G01*
X428728Y168807D02*
G03*
X423163Y182242I-19000J0D01*
G01*
X431728Y168807D02*
G03*
X428285Y177121I-11757J0D01*
G01*
X449999Y253792D02*
G03*
X436613Y259323I-13353J-13353D01*
G01*
X444891Y258900D02*
G03*
X436607Y262323I-8263J-8263D01*
G01*
X444468Y267179D02*
G03*
X449999Y253792I18884J-34D01*
G01*
X441468Y267184D02*
G03*
X444891Y258900I11686J-21D01*
G01*
X417598Y267193D02*
G03*
X431033Y272758I0J19000D01*
G01*
X424841Y267193D02*
G03*
X433155Y270637I0J11757D01*
G01*
X431033Y261628D02*
G03*
X417598Y267193I-13435J-13435D01*
G01*
X433155Y263749D02*
G03*
X424841Y267193I-8314J-8314D01*
G01*
X426598Y196189D02*
G03*
X429716Y197481I0J4410D01*
G01*
Y194897D02*
G03*
X426598Y196189I-3118J-3118D01*
G01*
X424348Y198151D02*
G03*
X429951Y197679I3081J3081D01*
G01*
X426861Y195639D02*
G03*
X431687Y195232I2654J2654D01*
G01*
X320072Y360013D02*
G03*
X321310Y363000I-2987J2987D01*
G01*
X323060Y361250D02*
G03*
X320072Y360013I0J-4225D01*
G01*
X348299Y373700D02*
G03*
X339743Y369781I0J-11299D01*
G01*
Y377619D02*
G03*
X348299Y373700I8556J7380D01*
G01*
X298487Y365987D02*
G03*
X297250Y363000I2987J-2987D01*
G01*
X295500Y364750D02*
G03*
X298487Y365987I0J4225D01*
G01*
X461332Y291732D02*
G03*
X463100Y296000I-4268J4268D01*
G01*
X465600Y293500D02*
G03*
X461332Y291732I0J-6036D01*
G01*
X381980Y264980D02*
G03*
X380953Y262500I2480J-2480D01*
G01*
X379500Y263953D02*
G03*
X381980Y264980I0J3507D01*
G01*
X392500Y294500D02*
G03*
X394055Y298254I-3754J3754D01*
G01*
X332000Y180500D02*
G03*
X335621Y179000I3621J3621D01*
G01*
X333500D02*
X348000D01*
X332000Y180500D02*
X333500Y179000D01*
X385000Y280295D02*
X385000Y280295D01*
X450000Y253791D02*
Y280400D01*
Y182209D02*
Y253791D01*
X436598Y267193D02*
X450000Y253791D01*
Y280400D02*
X465600Y296000D01*
X436598Y168807D02*
X450000Y182209D01*
X422000Y200500D02*
X426311Y196189D01*
X422000Y183405D02*
Y200500D01*
Y183405D02*
X436598Y168807D01*
X414500Y208000D02*
X422000Y200500D01*
X344839Y169000D02*
X357161D01*
X426311Y196189D02*
X431008D01*
X407839Y208000D02*
X414500D01*
X281500Y172500D02*
X283800D01*
X255000D02*
X281500D01*
X225800D02*
X234300Y164000D01*
X214800Y172500D02*
X225800D01*
X255000D01*
X262300Y164000D02*
Y165200D01*
X255000Y172500D02*
X262300Y165200D01*
X283800Y172500D02*
X292300Y164000D01*
X206300D02*
X214800Y172500D01*
X306000Y345940D02*
X323060Y363000D01*
X185500Y215000D02*
Y237000D01*
Y259000D01*
Y281000D01*
Y303000D02*
Y325000D01*
Y347000D01*
Y369000D01*
X394055Y304705D02*
X394055Y304705D01*
X385000Y280295D02*
Y294500D01*
X384193Y267193D02*
X436598D01*
X379500Y262500D02*
X384193Y267193D01*
X295500Y363000D02*
X301500Y369000D01*
X324484D01*
X334484Y359000D01*
X352000D01*
X365161Y345839D01*
X375945Y304705D02*
Y335055D01*
X365161Y345839D02*
X375945Y335055D01*
X328500Y272500D02*
X377205D01*
X385000Y280295D01*
X385669Y331831D02*
X394055Y323445D01*
Y304705D02*
Y323445D01*
Y304705D02*
X394055Y304705D01*
X335200Y373700D02*
X348300D01*
X383839Y338161D01*
Y334000D02*
Y338161D01*
X385000Y280295D02*
X421795D01*
X431000Y289500D01*
Y329000D02*
X434000Y332000D01*
X431000Y289500D02*
Y329000D01*
X392500Y294500D02*
X394055Y296055D01*
Y304705D01*
X385000Y294500D02*
Y304705D01*
X365161Y323839D02*
X367000Y322000D01*
X358000Y323839D02*
X365161D01*
X369500Y294500D02*
X385000D01*
X367000Y297000D02*
X369500Y294500D01*
X367000Y297000D02*
Y322000D01*
X185500Y281000D02*
Y295500D01*
Y303000D01*
D12*
X431008Y226579D02*
G03*
X427036Y224934I0J-5617D01*
G01*
X427036Y224934D02*
G03*
X428681Y228906I-3972J3972D01*
G01*
X431008Y215673D02*
G03*
X427036Y214028I0J-5617D01*
G01*
X427036Y214028D02*
G03*
X428681Y218000I-3972J3972D01*
G01*
X293381Y205381D02*
G03*
X296714Y204000I3334J3334D01*
G01*
D02*
G03*
X293381Y202619I0J-4714D01*
G01*
Y215381D02*
G03*
X296714Y214000I3334J3334D01*
G01*
D02*
G03*
X293381Y212619I0J-4714D01*
G01*
X338662Y175662D02*
G03*
X339000Y179000I-1877J1877D01*
G01*
X370000Y184000D02*
G03*
X367164Y182825I0J-4011D01*
G01*
X370000Y184000D02*
G03*
X367508Y183169I-415J-2907D01*
G01*
X336059Y170102D02*
G03*
X337161Y172764I-2661J2661D01*
G01*
D02*
G03*
X338264Y170102I3764J0D01*
G01*
X407898Y175736D02*
G03*
X405236Y176839I-2661J-2661D01*
G01*
D02*
G03*
X407898Y177941I0J3764D01*
G01*
Y168059D02*
G03*
X405236Y169161I-2661J-2661D01*
G01*
D02*
G03*
X407898Y170264I0J3764D01*
G01*
X363736Y170102D02*
G03*
X364839Y172764I-2661J2661D01*
G01*
D02*
G03*
X365941Y170102I3764J0D01*
G01*
X357915Y171915D02*
G03*
X356820Y168967I2668J-2668D01*
G01*
X361000Y175000D02*
G03*
X358815Y169116I5325J-5325D01*
G01*
X407898Y195736D02*
G03*
X405236Y196839I-2661J-2661D01*
G01*
D02*
G03*
X407898Y197941I0J3764D01*
G01*
Y188059D02*
G03*
X405236Y189161I-2661J-2661D01*
G01*
D02*
G03*
X407898Y190264I0J3764D01*
G01*
X400063Y206441D02*
G03*
X396441Y204941I0J-5123D01*
G01*
X397799Y206299D02*
G03*
X398504Y208000I-1701J1701D01*
G01*
X343764Y316161D02*
G03*
X341102Y315059I0J-3764D01*
G01*
Y317264D02*
G03*
X343764Y316161I2661J2661D01*
G01*
X354236D02*
G03*
X356898Y317264I0J3764D01*
G01*
Y315059D02*
G03*
X354236Y316161I-2661J-2661D01*
G01*
X338662Y175662D02*
G03*
X339000Y179000I-1877J1877D01*
G01*
X370000Y184000D02*
G03*
X367508Y183169I-415J-2907D01*
G01*
X370000Y184000D02*
G03*
X367164Y182825I0J-4011D01*
G01*
X337161Y172764D02*
G03*
X338264Y170102I3764J0D01*
G01*
X336059D02*
G03*
X337161Y172764I-2661J2661D01*
G01*
X405236Y176839D02*
G03*
X407898Y177941I0J3764D01*
G01*
Y175736D02*
G03*
X405236Y176839I-2661J-2661D01*
G01*
Y169161D02*
G03*
X407898Y170264I0J3764D01*
G01*
Y168059D02*
G03*
X405236Y169161I-2661J-2661D01*
G01*
X364839Y172764D02*
G03*
X365941Y170102I3764J0D01*
G01*
X363736D02*
G03*
X364839Y172764I-2661J2661D01*
G01*
X361000Y175000D02*
G03*
X358815Y169116I5325J-5325D01*
G01*
X357915Y171915D02*
G03*
X356820Y168967I2668J-2668D01*
G01*
X405236Y196839D02*
G03*
X407898Y197941I0J3764D01*
G01*
Y195736D02*
G03*
X405236Y196839I-2661J-2661D01*
G01*
Y189161D02*
G03*
X407898Y190264I0J3764D01*
G01*
Y188059D02*
G03*
X405236Y189161I-2661J-2661D01*
G01*
X397799Y206299D02*
G03*
X398504Y208000I-1701J1701D01*
G01*
X400063Y206441D02*
G03*
X396441Y204941I0J-5123D01*
G01*
X427036Y224934D02*
G03*
X428681Y228906I-3972J3972D01*
G01*
X431008Y226579D02*
G03*
X427036Y224934I0J-5617D01*
G01*
X427036Y214028D02*
G03*
X428681Y218000I-3972J3972D01*
G01*
X431008Y215673D02*
G03*
X427036Y214028I0J-5617D01*
G01*
X296714Y204000D02*
G03*
X293381Y202619I0J-4714D01*
G01*
Y205381D02*
G03*
X296714Y204000I3334J3334D01*
G01*
Y214000D02*
G03*
X293381Y212619I0J-4714D01*
G01*
Y215381D02*
G03*
X296714Y214000I3334J3334D01*
G01*
X292000Y204000D02*
X304500D01*
X309500Y209000D01*
X348000D01*
X292000Y214000D02*
X348000D01*
X427008D02*
X431008Y218000D01*
X399500Y208000D02*
X400161D01*
X400661Y196839D02*
X409000D01*
X400339Y189161D02*
X409000D01*
X392500Y189000D02*
X404661Y176839D01*
X379000Y189000D02*
X392500D01*
X404661Y176839D02*
X409000D01*
X401839Y169161D02*
X409000D01*
X392000Y179000D02*
X401839Y169161D01*
X379000Y179000D02*
X392000D01*
X408339Y168500D02*
X409000Y169161D01*
X364839Y180500D02*
X368339Y184000D01*
X364839Y169000D02*
Y180500D01*
X368339Y184000D02*
X379000D01*
X337161Y169000D02*
Y174161D01*
X342000Y179000D01*
X348000D01*
X357500Y184000D02*
X361000Y180500D01*
X357161Y169000D02*
Y171161D01*
X361000Y175000D01*
Y180500D01*
X348000Y184000D02*
X357500D01*
X340000Y316161D02*
X358000D01*
X379000Y214000D02*
X427008D01*
X379000Y194000D02*
X395500D01*
X400339Y189161D01*
X379000Y199000D02*
X398500D01*
X400661Y196839D01*
X379000Y204000D02*
X395500D01*
X399500Y208000D01*
X366000Y209000D02*
X379000D01*
X366000D02*
Y217500D01*
X369500Y221000D01*
X423102D02*
X431008Y228906D01*
X369500Y221000D02*
X423102D01*
D13*
X211700Y189600D02*
G03*
X211700Y189600I-5400J0D01*
G01*
X229400Y164000D02*
G03*
X229400Y164000I-5400J0D01*
G01*
X224000Y195000D02*
G03*
X229150Y187976I0J-5400D01*
G01*
X217647Y204009D02*
G03*
X216469Y206844I-4022J-9D01*
G01*
X217647Y204009D02*
G03*
X216469Y206844I-4022J-9D01*
G01*
X217647Y204009D02*
G03*
X216469Y206844I-4022J-9D01*
G01*
X215600Y208500D02*
G03*
X216159Y207154I1900J0D01*
G01*
X215600Y208500D02*
G03*
X216157Y207156I1900J0D01*
G01*
X224000Y195000D02*
G03*
X228625Y196912I0J6550D01*
G01*
X224000Y195000D02*
G03*
X228625Y196912I0J6550D01*
G01*
X224000Y195000D02*
G03*
X228625Y196912I0J6550D01*
G01*
X227647Y204007D02*
G03*
X226469Y206844I-4022J-7D01*
G01*
X227647Y204007D02*
G03*
X236353Y204000I4353J-7D01*
G01*
X227647Y204007D02*
G03*
X226469Y206844I-4022J-7D01*
G01*
X227647Y204007D02*
G03*
X226469Y206844I-4022J-7D01*
G01*
X230900Y198400D02*
G03*
X229554Y197841I0J-1900D01*
G01*
X229150Y187976D02*
G03*
X239700Y189600I5150J1624D01*
G01*
D02*
G03*
X236340Y194600I-5400J0D01*
G01*
X230900Y198400D02*
G03*
X229556Y197844I0J-1900D01*
G01*
X236353Y204000D02*
G03*
X231994Y208353I-4353J0D01*
G01*
X237647Y204007D02*
G03*
X246353Y204000I4353J-7D01*
G01*
X235100Y209000D02*
G03*
X235659Y207654I1900J0D01*
G01*
X229156Y209531D02*
G03*
X231994Y208353I2844J2844D01*
G01*
X235100Y209000D02*
G03*
X235656Y207657I1900J0D01*
G01*
X237647Y204007D02*
G03*
X236469Y206844I-4022J-7D01*
G01*
X237647Y204007D02*
G03*
X236469Y206844I-4022J-7D01*
G01*
X237647Y204007D02*
G03*
X236469Y206844I-4022J-7D01*
G01*
X229156Y209531D02*
G03*
X231994Y208353I2844J2844D01*
G01*
X229156Y209531D02*
G03*
X231994Y208353I2844J2844D01*
G01*
X228900Y210944D02*
G03*
X235100Y210944I3100J3056D01*
G01*
X245600Y208500D02*
G03*
X246159Y207154I1900J0D01*
G01*
X246353Y204000D02*
G03*
X241993Y208353I-4353J0D01*
G01*
X239156Y209531D02*
G03*
X241993Y208353I2844J2844D01*
G01*
X245600Y208500D02*
G03*
X246157Y207156I1900J0D01*
G01*
X247647Y204007D02*
G03*
X246469Y206844I-4022J-7D01*
G01*
X247647Y204007D02*
G03*
X246469Y206844I-4022J-7D01*
G01*
X247647Y204007D02*
G03*
X246469Y206844I-4022J-7D01*
G01*
X239156Y209531D02*
G03*
X241993Y208353I2844J2844D01*
G01*
X239156Y209531D02*
G03*
X241993Y208353I2844J2844D01*
G01*
X238900Y210944D02*
G03*
X245600Y211553I3100J3056D01*
G01*
Y216447D02*
G03*
X245071Y217084I-3600J-2447D01*
G01*
X182321Y218185D02*
G03*
X182600Y218863I-684J678D01*
G01*
X182321Y218185D02*
G03*
X182600Y218863I-684J678D01*
G01*
X182321Y218185D02*
G03*
X182600Y218863I-684J678D01*
G01*
X182321Y240185D02*
G03*
X182321Y233815I3179J-3185D01*
G01*
X188400Y218863D02*
G03*
X188679Y218185I963J0D01*
G01*
X182321D02*
G03*
X190000Y215000I3179J-3185D01*
G01*
X188400Y218863D02*
G03*
X188679Y218185I963J0D01*
G01*
X188400Y218863D02*
G03*
X188679Y218185I963J0D01*
G01*
X182600Y233137D02*
G03*
X182321Y233815I-963J0D01*
G01*
X182600Y233137D02*
G03*
X182321Y233815I-963J0D01*
G01*
X182600Y233137D02*
G03*
X182321Y233815I-963J0D01*
G01*
X188400Y240863D02*
G03*
X188679Y240185I963J0D01*
G01*
Y233815D02*
G03*
X188400Y233137I684J-678D01*
G01*
Y240863D02*
G03*
X188679Y240185I963J0D01*
G01*
Y233815D02*
G03*
X188400Y233137I684J-678D01*
G01*
X188679Y233815D02*
G03*
X188400Y233137I684J-678D01*
G01*
X182321Y240185D02*
G03*
X182600Y240863I-684J678D01*
G01*
X182321Y240185D02*
G03*
X182600Y240863I-684J678D01*
G01*
X182321Y240185D02*
G03*
X182600Y240863I-684J678D01*
G01*
Y255137D02*
G03*
X182321Y255815I-963J0D01*
G01*
X182321Y262185D02*
G03*
X182321Y255815I3179J-3185D01*
G01*
X182600Y255137D02*
G03*
X182321Y255815I-963J0D01*
G01*
X182600Y255137D02*
G03*
X182321Y255815I-963J0D01*
G01*
X188400Y240863D02*
G03*
X188679Y240185I963J0D01*
G01*
Y255815D02*
G03*
X188400Y255137I684J-678D01*
G01*
Y262863D02*
G03*
X188679Y262185I963J0D01*
G01*
Y255815D02*
G03*
X188400Y255137I684J-678D01*
G01*
Y262863D02*
G03*
X188679Y262185I963J0D01*
G01*
X182321D02*
G03*
X182600Y262863I-684J678D01*
G01*
X182321Y262185D02*
G03*
X182600Y262863I-684J678D01*
G01*
X182321Y262185D02*
G03*
X182600Y262863I-684J678D01*
G01*
X188400D02*
G03*
X188679Y262185I963J0D01*
G01*
X190000Y215000D02*
G03*
X188679Y218185I-4500J0D01*
G01*
X200000Y215000D02*
G03*
X200000Y215000I-4500J0D01*
G01*
X188679Y233815D02*
G03*
X190000Y237000I-3179J3185D01*
G01*
X200000D02*
G03*
X200000Y237000I-4500J0D01*
G01*
X243900Y219921D02*
G03*
X245071Y217084I4022J0D01*
G01*
X243900Y219921D02*
G03*
X245071Y217084I4022J0D01*
G01*
X243900Y219921D02*
G03*
X245071Y217084I4022J0D01*
G01*
X246159Y232374D02*
G03*
X245600Y231028I1341J-1346D01*
G01*
X246157Y232371D02*
G03*
X245600Y231028I1343J-1343D01*
G01*
X248969Y235183D02*
G03*
X249100Y235500I-317J317D01*
G01*
X248969Y235183D02*
G03*
X249100Y235500I-317J317D01*
G01*
X190000Y237000D02*
G03*
X188679Y240185I-4500J0D01*
G01*
X188679Y255815D02*
G03*
X188400Y255137I684J-678D01*
G01*
X190000Y259000D02*
G03*
X188679Y262185I-4500J0D01*
G01*
Y255815D02*
G03*
X190000Y259000I-3179J3185D01*
G01*
X200000D02*
G03*
X200000Y259000I-4500J0D01*
G01*
X216159Y248346D02*
G03*
X215600Y247000I1341J-1346D01*
G01*
X216157Y248343D02*
G03*
X215600Y247000I1343J-1343D01*
G01*
X257400Y164000D02*
G03*
X257400Y164000I-5400J0D01*
G01*
X249960Y194600D02*
G03*
X257150Y187976I2040J-5000D01*
G01*
D02*
G03*
X267700Y189600I5150J1624D01*
G01*
D02*
G03*
X264340Y194600I-5400J0D01*
G01*
X285400Y164000D02*
G03*
X285400Y164000I-5400J0D01*
G01*
X277091Y194150D02*
G03*
X285400Y189600I2909J-4550D01*
G01*
X264500Y194600D02*
G03*
X265844Y195157I0J1900D01*
G01*
X264500Y194600D02*
G03*
X265846Y195159I0J1900D01*
G01*
X247647Y204007D02*
G03*
X256353Y204000I4353J-7D01*
G01*
X257647Y204007D02*
G03*
X266353Y204000I4353J-7D01*
G01*
X257647Y204007D02*
G03*
X256469Y206844I-4022J-7D01*
G01*
X257647Y204007D02*
G03*
X256469Y206844I-4022J-7D01*
G01*
X257647Y204007D02*
G03*
X256469Y206844I-4022J-7D01*
G01*
X271993Y199647D02*
G03*
X269156Y198469I7J-4022D01*
G01*
X271993Y199647D02*
G03*
X269156Y198469I7J-4022D01*
G01*
X271993Y199647D02*
G03*
X269156Y198469I7J-4022D01*
G01*
X267647Y204007D02*
G03*
X266469Y206844I-4022J-7D01*
G01*
Y201156D02*
G03*
X267647Y203994I-2844J2844D01*
G01*
X266469Y201156D02*
G03*
X267647Y203994I-2844J2844D01*
G01*
Y204007D02*
G03*
X266469Y206844I-4022J-7D01*
G01*
Y201156D02*
G03*
X267647Y203994I-2844J2844D01*
G01*
X271993Y199647D02*
G03*
X276353Y204000I7J4353D01*
G01*
X267647Y204007D02*
G03*
X266469Y206844I-4022J-7D01*
G01*
X277647Y204007D02*
G03*
X276469Y206844I-4022J-7D01*
G01*
X282008Y195320D02*
G03*
X282909Y194150I2094J679D01*
G01*
X282008Y195320D02*
G03*
X282909Y194150I2094J679D01*
G01*
X277091D02*
G03*
X278100Y196000I-1192J1850D01*
G01*
X282008Y195320D02*
G03*
X282909Y194150I2094J679D01*
G01*
X277091D02*
G03*
X278100Y196000I-1192J1850D01*
G01*
X285400Y189600D02*
G03*
X282909Y194150I-5400J0D01*
G01*
X315400Y164000D02*
G03*
X315400Y164000I-5400J0D01*
G01*
X297700Y189600D02*
G03*
X297700Y189600I-5400J0D01*
G01*
X315400D02*
G03*
X315400Y189600I-5400J0D01*
G01*
X277091Y194150D02*
G03*
X278100Y196000I-1192J1850D01*
G01*
X278657Y197343D02*
G03*
X278100Y196000I1343J-1344D01*
G01*
X278657Y197343D02*
G03*
X278100Y196000I1343J-1344D01*
G01*
X278657Y197343D02*
G03*
X278100Y196000I1343J-1344D01*
G01*
X278657Y197343D02*
G03*
X278100Y196000I1343J-1344D01*
G01*
X278657Y197343D02*
G03*
X278100Y196000I1343J-1344D01*
G01*
X278657Y197343D02*
G03*
X278100Y196000I1343J-1344D01*
G01*
X278657Y197344D02*
G03*
X278100Y196000I1343J-1343D01*
G01*
X278659Y197346D02*
G03*
X278100Y196000I1341J-1346D01*
G01*
X283344Y196657D02*
G03*
X283900Y198000I-1343J1343D01*
G01*
X280046Y198733D02*
G03*
X278929Y200916I-3968J-655D01*
G01*
X277647Y204007D02*
G03*
X276469Y206844I-4022J-7D01*
G01*
X277647Y204007D02*
G03*
X278929Y200916I4353J-7D01*
G01*
X277647Y204007D02*
G03*
X276469Y206844I-4022J-7D01*
G01*
X283341Y196654D02*
G03*
X283900Y198000I-1341J1346D01*
G01*
X285071Y200916D02*
G03*
X283900Y198079I2850J-2837D01*
G01*
X285071Y200916D02*
G03*
X283900Y198079I2850J-2837D01*
G01*
X280046Y198733D02*
G03*
X278929Y200916I-3968J-655D01*
G01*
X285071D02*
G03*
X283900Y198079I2850J-2837D01*
G01*
X280046Y198733D02*
G03*
X278929Y200916I-3968J-655D01*
G01*
X296714Y201600D02*
G03*
X295082Y200926I0J-2314D01*
G01*
X296714Y201600D02*
G03*
X295082Y200926I0J-2314D01*
G01*
X285071Y200916D02*
G03*
X286353Y204000I-3071J3084D01*
G01*
X287647Y204007D02*
G03*
X286469Y206844I-4022J-7D01*
G01*
X287647Y204007D02*
G03*
X286469Y206844I-4022J-7D01*
G01*
X287647Y204007D02*
G03*
X286469Y206844I-4022J-7D01*
G01*
X287647Y204007D02*
G03*
X295082Y200926I4353J-7D01*
G01*
X304500Y201600D02*
G03*
X306197Y202303I0J2400D01*
G01*
X304500Y201600D02*
G03*
X306197Y202303I0J2400D01*
G01*
X295082Y207074D02*
G03*
X296714Y206400I1633J1640D01*
G01*
X295082Y207074D02*
G03*
X296714Y206400I1633J1640D01*
G01*
X256353Y204000D02*
G03*
X251993Y208353I-4353J0D01*
G01*
X249400Y209306D02*
G03*
X251993Y208353I2600J3068D01*
G01*
X249400Y209306D02*
G03*
X251993Y208353I2600J3068D01*
G01*
X249400Y209306D02*
G03*
X251993Y208353I2600J3068D01*
G01*
X255100Y209000D02*
G03*
X255657Y207657I1900J0D01*
G01*
X255100Y209000D02*
G03*
X255659Y207654I1900J0D01*
G01*
X259156Y209531D02*
G03*
X261994Y208353I2844J2844D01*
G01*
X259156Y209531D02*
G03*
X261994Y208353I2844J2844D01*
G01*
X259156Y209531D02*
G03*
X261994Y208353I2844J2844D01*
G01*
X249400Y210509D02*
G03*
X255100Y210944I2600J3491D01*
G01*
X266353Y204000D02*
G03*
X261994Y208353I-4353J0D01*
G01*
X265600Y208500D02*
G03*
X266159Y207154I1900J0D01*
G01*
X265600Y208500D02*
G03*
X266157Y207156I1900J0D01*
G01*
X276353Y204000D02*
G03*
X271993Y208353I-4353J0D01*
G01*
X269400Y209306D02*
G03*
X271993Y208353I2600J3068D01*
G01*
X269400Y209306D02*
G03*
X271993Y208353I2600J3068D01*
G01*
X269400Y209306D02*
G03*
X271993Y208353I2600J3068D01*
G01*
X258900Y210944D02*
G03*
X265600Y211553I3100J3056D01*
G01*
X269400Y210509D02*
G03*
X274600Y210509I2600J3491D01*
G01*
Y209500D02*
G03*
X275159Y208154I1900J0D01*
G01*
X274600Y209500D02*
G03*
X275156Y208156I1900J0D01*
G01*
X252000Y238400D02*
G03*
X249100Y235500I0J-2900D01*
G01*
X252000Y238400D02*
G03*
X252317Y238531I0J448D01*
G01*
X252000Y238400D02*
G03*
X252317Y238531I0J448D01*
G01*
X255000Y255100D02*
G03*
X254274Y254799I0J-1027D01*
G01*
X255000Y255100D02*
G03*
X254274Y254799I0J-1027D01*
G01*
X255000Y255100D02*
G03*
X257900Y258000I0J2900D01*
G01*
X258201Y258726D02*
G03*
X257900Y258000I726J-726D01*
G01*
X258201Y258726D02*
G03*
X257900Y258000I726J-726D01*
G01*
X286353Y204000D02*
G03*
X281994Y208353I-4353J0D01*
G01*
X279156Y209531D02*
G03*
X281994Y208353I2844J2844D01*
G01*
X279156Y209531D02*
G03*
X281994Y208353I2844J2844D01*
G01*
X279156Y209531D02*
G03*
X281994Y208353I2844J2844D01*
G01*
X285100Y209000D02*
G03*
X285659Y207654I1900J0D01*
G01*
X285100Y209000D02*
G03*
X285656Y207657I1900J0D01*
G01*
X278400Y211553D02*
G03*
X285100Y210944I3600J2447D01*
G01*
X289156Y209531D02*
G03*
X291993Y208353I2844J2844D01*
G01*
X289156Y209531D02*
G03*
X291993Y208353I2844J2844D01*
G01*
X289156Y209531D02*
G03*
X291993Y208353I2844J2844D01*
G01*
X288900Y210944D02*
G03*
X295082Y210926I3100J3056D01*
G01*
Y207074D02*
G03*
X291993Y208353I-3082J-3074D01*
G01*
X296714Y211600D02*
G03*
X295082Y210926I0J-2314D01*
G01*
X296714Y211600D02*
G03*
X295082Y210926I0J-2314D01*
G01*
Y217074D02*
G03*
X296714Y216400I1633J1640D01*
G01*
X295082Y217074D02*
G03*
X296714Y216400I1633J1640D01*
G01*
X294900Y217507D02*
G03*
X295076Y217080I607J0D01*
G01*
X294900Y217507D02*
G03*
X295076Y217080I607J0D01*
G01*
X294900Y217507D02*
G03*
X295076Y217080I607J0D01*
G01*
X295261Y243574D02*
G03*
X301869Y244500I3239J926D01*
G01*
X302350Y245663D02*
G03*
X301869Y244500I1163J-1163D01*
G01*
X302350Y245663D02*
G03*
X301869Y244500I1163J-1163D01*
G01*
X302350Y245663D02*
G03*
X301869Y244500I1163J-1163D01*
G01*
X302687Y251374D02*
G03*
X302747Y251847I-1840J473D01*
G01*
X302687Y251374D02*
G03*
X302747Y251847I-1840J473D01*
G01*
X182600Y277137D02*
G03*
X182321Y277815I-963J0D01*
G01*
X182600Y277137D02*
G03*
X182321Y277815I-963J0D01*
G01*
X182600Y277137D02*
G03*
X182321Y277815I-963J0D01*
G01*
X182321Y284185D02*
G03*
X182321Y277815I3179J-3185D01*
G01*
X182321Y284185D02*
G03*
X182600Y284863I-684J678D01*
G01*
X182321Y284185D02*
G03*
X182600Y284863I-684J678D01*
G01*
X182321Y284185D02*
G03*
X182600Y284863I-684J678D01*
G01*
Y299137D02*
G03*
X182321Y299815I-963J0D01*
G01*
X182600Y299137D02*
G03*
X182321Y299815I-963J0D01*
G01*
X188679Y277815D02*
G03*
X188400Y277137I684J-678D01*
G01*
X188679Y277815D02*
G03*
X188400Y277137I684J-678D01*
G01*
X188679Y277815D02*
G03*
X188400Y277137I684J-678D01*
G01*
X188679Y277815D02*
G03*
X190000Y281000I-3179J3185D01*
G01*
D02*
G03*
X188679Y284185I-4500J0D01*
G01*
X188400Y284863D02*
G03*
X188679Y284185I963J0D01*
G01*
X188400Y284863D02*
G03*
X188679Y284185I963J0D01*
G01*
X188400Y284863D02*
G03*
X188679Y284185I963J0D01*
G01*
X182600Y299137D02*
G03*
X182321Y299815I-963J0D01*
G01*
X182321Y306185D02*
G03*
X182321Y299815I3179J-3185D01*
G01*
X182321Y306185D02*
G03*
X182600Y306863I-684J678D01*
G01*
X182321Y306185D02*
G03*
X182600Y306863I-684J678D01*
G01*
X182321Y306185D02*
G03*
X182600Y306863I-684J678D01*
G01*
Y321137D02*
G03*
X182321Y321815I-963J0D01*
G01*
X182600Y321137D02*
G03*
X182321Y321815I-963J0D01*
G01*
X182321Y328185D02*
G03*
X182321Y321815I3179J-3185D01*
G01*
X188679Y299815D02*
G03*
X188400Y299137I684J-678D01*
G01*
X188679Y299815D02*
G03*
X188400Y299137I684J-678D01*
G01*
Y306863D02*
G03*
X188679Y306185I963J0D01*
G01*
Y299815D02*
G03*
X188400Y299137I684J-678D01*
G01*
Y306863D02*
G03*
X188679Y306185I963J0D01*
G01*
X188400Y306863D02*
G03*
X188679Y306185I963J0D01*
G01*
X188679Y299815D02*
G03*
X190000Y303000I-3179J3185D01*
G01*
X182600Y321137D02*
G03*
X182321Y321815I-963J0D01*
G01*
X188679D02*
G03*
X188400Y321137I684J-678D01*
G01*
X188679Y321815D02*
G03*
X188400Y321137I684J-678D01*
G01*
X188679Y321815D02*
G03*
X188400Y321137I684J-678D01*
G01*
X188679Y321815D02*
G03*
X190000Y325000I-3179J3185D01*
G01*
D02*
G03*
X188679Y328185I-4500J0D01*
G01*
X200000Y281000D02*
G03*
X200000Y281000I-4500J0D01*
G01*
X190000Y303000D02*
G03*
X188679Y306185I-4500J0D01*
G01*
X233553Y293600D02*
G03*
X240353Y290000I2447J-3600D01*
G01*
X240894Y292100D02*
G03*
X240350Y290152I2851J-1845D01*
G01*
X236006Y304353D02*
G03*
X232509Y297400I-7J-4353D01*
G01*
X200000Y303000D02*
G03*
X200000Y303000I-4500J0D01*
G01*
X236006Y314353D02*
G03*
X240353Y310000I-7J-4353D01*
G01*
X236006Y304353D02*
G03*
X238844Y305531I-7J4022D01*
G01*
X236006Y304353D02*
G03*
X238844Y305531I-7J4022D01*
G01*
X236006Y304353D02*
G03*
X238844Y305531I-7J4022D01*
G01*
X236006Y314353D02*
G03*
X238844Y315531I-7J4022D01*
G01*
X236006Y314353D02*
G03*
X238844Y315531I-7J4022D01*
G01*
X236006Y314353D02*
G03*
X238844Y315531I-7J4022D01*
G01*
X240500Y316400D02*
G03*
X239154Y315841I0J-1900D01*
G01*
X240500Y316400D02*
G03*
X239157Y315844I0J-1900D01*
G01*
X241000Y306900D02*
G03*
X239654Y306341I0J-1900D01*
G01*
X241000Y306900D02*
G03*
X239656Y306344I0J-1900D01*
G01*
X241306Y312600D02*
G03*
X240353Y310006I3068J-2600D01*
G01*
X241306Y312600D02*
G03*
X240353Y310006I3068J-2600D01*
G01*
X241306Y312600D02*
G03*
X240353Y310006I3068J-2600D01*
G01*
X236006Y324353D02*
G03*
X238844Y325531I-7J4022D01*
G01*
X236006Y324353D02*
G03*
X240353Y320000I-7J-4353D01*
G01*
X236006Y324353D02*
G03*
X238844Y325531I-7J4022D01*
G01*
X236006Y324353D02*
G03*
X238844Y325531I-7J4022D01*
G01*
X241306Y322600D02*
G03*
X240353Y320006I3068J-2600D01*
G01*
X241306Y322600D02*
G03*
X240353Y320006I3068J-2600D01*
G01*
X240500Y326400D02*
G03*
X239157Y325844I0J-1900D01*
G01*
X241306Y322600D02*
G03*
X240353Y320006I3068J-2600D01*
G01*
X240500Y326400D02*
G03*
X239154Y325841I0J-1900D01*
G01*
X182321Y328185D02*
G03*
X182600Y328863I-684J678D01*
G01*
X188400D02*
G03*
X188679Y328185I963J0D01*
G01*
X182321D02*
G03*
X182600Y328863I-684J678D01*
G01*
X182321Y328185D02*
G03*
X182600Y328863I-684J678D01*
G01*
X182321Y350185D02*
G03*
X182321Y343815I3179J-3185D01*
G01*
X182600Y343137D02*
G03*
X182321Y343815I-963J0D01*
G01*
X182600Y343137D02*
G03*
X182321Y343815I-963J0D01*
G01*
X182600Y343137D02*
G03*
X182321Y343815I-963J0D01*
G01*
X188400Y328863D02*
G03*
X188679Y328185I963J0D01*
G01*
X188400Y328863D02*
G03*
X188679Y328185I963J0D01*
G01*
X200000Y325000D02*
G03*
X200000Y325000I-4500J0D01*
G01*
X188679Y343815D02*
G03*
X188400Y343137I684J-678D01*
G01*
X188679Y343815D02*
G03*
X188400Y343137I684J-678D01*
G01*
X188679Y343815D02*
G03*
X188400Y343137I684J-678D01*
G01*
X188679Y343815D02*
G03*
X190000Y347000I-3179J3185D01*
G01*
D02*
G03*
X188679Y350185I-4500J0D01*
G01*
X200000Y347000D02*
G03*
X200000Y347000I-4500J0D01*
G01*
X182321Y350185D02*
G03*
X182600Y350863I-684J678D01*
G01*
X182321Y350185D02*
G03*
X182600Y350863I-684J678D01*
G01*
X182321Y350185D02*
G03*
X182600Y350863I-684J678D01*
G01*
Y365137D02*
G03*
X182321Y365815I-963J0D01*
G01*
X182600Y365137D02*
G03*
X182321Y365815I-963J0D01*
G01*
X182600Y365137D02*
G03*
X182321Y365815I-963J0D01*
G01*
X188400Y350863D02*
G03*
X188679Y350185I963J0D01*
G01*
X188400Y350863D02*
G03*
X188679Y350185I963J0D01*
G01*
X188400Y350863D02*
G03*
X188679Y350185I963J0D01*
G01*
Y365815D02*
G03*
X188400Y365137I684J-678D01*
G01*
X188679Y365815D02*
G03*
X188400Y365137I684J-678D01*
G01*
X188679Y365815D02*
G03*
X188400Y365137I684J-678D01*
G01*
X188679Y365815D02*
G03*
X190000Y369000I-3179J3185D01*
G01*
D02*
G03*
X182321Y365815I-4500J0D01*
G01*
X200000Y369000D02*
G03*
X200000Y369000I-4500J0D01*
G01*
X236006Y334353D02*
G03*
X240353Y330000I-7J-4353D01*
G01*
X236006Y334353D02*
G03*
X238844Y335531I-7J4022D01*
G01*
X236006Y334353D02*
G03*
X238844Y335531I-7J4022D01*
G01*
X241531Y332844D02*
G03*
X240353Y330007I2844J-2844D01*
G01*
X241531Y332844D02*
G03*
X240353Y330007I2844J-2844D01*
G01*
X236006Y334353D02*
G03*
X238844Y335531I-7J4022D01*
G01*
X241531Y332844D02*
G03*
X240353Y330007I2844J-2844D01*
G01*
X236006Y344353D02*
G03*
X240353Y340000I-7J-4353D01*
G01*
X236006Y344353D02*
G03*
X238844Y345531I-7J4022D01*
G01*
X241000Y336900D02*
G03*
X239654Y336341I0J-1900D01*
G01*
X241000Y336900D02*
G03*
X239656Y336344I0J-1900D01*
G01*
X241531Y342844D02*
G03*
X240353Y340006I2844J-2844D01*
G01*
X241531Y342844D02*
G03*
X240353Y340006I2844J-2844D01*
G01*
X241531Y342844D02*
G03*
X240353Y340006I2844J-2844D01*
G01*
X236006Y344353D02*
G03*
X238844Y345531I-7J4022D01*
G01*
X236006Y344353D02*
G03*
X238844Y345531I-7J4022D01*
G01*
X236006Y354353D02*
G03*
X240353Y350000I-7J-4353D01*
G01*
X241000Y346900D02*
G03*
X239654Y346341I0J-1900D01*
G01*
X241000Y346900D02*
G03*
X239656Y346343I0J-1900D01*
G01*
X241531Y352844D02*
G03*
X240353Y350007I2844J-2844D01*
G01*
X241531Y352844D02*
G03*
X240353Y350007I2844J-2844D01*
G01*
X241531Y352844D02*
G03*
X240353Y350007I2844J-2844D01*
G01*
X236006Y354353D02*
G03*
X238844Y355531I-7J4022D01*
G01*
X236006Y354353D02*
G03*
X238844Y355531I-7J4022D01*
G01*
X236006Y354353D02*
G03*
X238844Y355531I-7J4022D01*
G01*
X236009Y364353D02*
G03*
X238844Y365531I-9J4022D01*
G01*
X236009Y364353D02*
G03*
X238844Y365531I-9J4022D01*
G01*
X236009Y364353D02*
G03*
X238844Y365531I-9J4022D01*
G01*
X241000Y366900D02*
G03*
X239654Y366341I0J-1900D01*
G01*
X241000Y366900D02*
G03*
X239656Y366343I0J-1900D01*
G01*
X247449Y279636D02*
G03*
X247600Y280000I-364J364D01*
G01*
X247449Y279636D02*
G03*
X247600Y280000I-364J364D01*
G01*
X250500Y282900D02*
G03*
X247600Y280000I0J-2900D01*
G01*
X250500Y282900D02*
G03*
X250864Y283051I0J514D01*
G01*
X250500Y282900D02*
G03*
X250864Y283051I0J514D01*
G01*
X242421Y292100D02*
G03*
X248051Y286392I3579J-2100D01*
G01*
D02*
G03*
X249078Y286922I-317J1873D01*
G01*
X248051Y286392D02*
G03*
X249078Y286922I-317J1873D01*
G01*
X252596Y288380D02*
G03*
X249078Y286922I0J-4976D01*
G01*
X256842Y288243D02*
G03*
X255496Y287683I0J-1900D01*
G01*
X252596Y288380D02*
G03*
X249078Y286922I0J-4976D01*
G01*
X256842Y288243D02*
G03*
X255499Y287686I0J-1900D01*
G01*
X242509Y312600D02*
G03*
X242944Y306900I3491J-2600D01*
G01*
X248447Y316400D02*
G03*
X249084Y316929I-2447J3600D01*
G01*
X266159Y315844D02*
G03*
X264815Y316400I-1343J-1343D01*
G01*
X266161Y315841D02*
G03*
X264815Y316400I-1346J-1341D01*
G01*
X281449Y291449D02*
G03*
X285551Y291449I2051J2051D01*
G01*
X281449D02*
G03*
X279609Y292306I-2093J-2093D01*
G01*
X287644Y292317D02*
G03*
X285551Y291449I0J-2960D01*
G01*
X251922Y318100D02*
G03*
X249084Y316929I0J-4022D01*
G01*
X251922Y318100D02*
G03*
X249084Y316929I0J-4022D01*
G01*
X251922Y318100D02*
G03*
X249084Y316929I0J-4022D01*
G01*
X242509Y322600D02*
G03*
X243553Y316400I3491J-2600D01*
G01*
X242944Y333100D02*
G03*
X243553Y326400I3056J-3100D01*
G01*
X242944Y353100D02*
G03*
X242944Y346900I3056J-3100D01*
G01*
Y343100D02*
G03*
X242944Y336900I3056J-3100D01*
G01*
X251922Y358100D02*
G03*
X249084Y356929I0J-4022D01*
G01*
X251922Y358100D02*
G03*
X249084Y356929I0J-4022D01*
G01*
X251922Y358100D02*
G03*
X249084Y356929I0J-4022D01*
G01*
X298810Y341590D02*
G03*
X298253Y342934I-1900J0D01*
G01*
X298810Y341590D02*
G03*
X298250Y342937I-1900J0D01*
G01*
X304715Y346685D02*
G03*
X304156Y348031I-1900J0D01*
G01*
X304715Y346685D02*
G03*
X304158Y348028I-1900J0D01*
G01*
X284843Y356344D02*
G03*
X283500Y356900I-1343J-1343D01*
G01*
X284846Y356341D02*
G03*
X283500Y356900I-1346J-1341D01*
G01*
X285846Y366341D02*
G03*
X284500Y366900I-1346J-1341D01*
G01*
X285843Y366343D02*
G03*
X284500Y366900I-1343J-1343D01*
G01*
X293264Y358923D02*
G03*
X300150Y363000I2236J4077D01*
G01*
X300879Y364278D02*
G03*
X309275Y360507I4471J-1278D01*
G01*
X300538Y363937D02*
G03*
X300150Y363000I937J-937D01*
G01*
X295500Y367650D02*
G03*
X291423Y360764I0J-4650D01*
G01*
X295500Y367650D02*
G03*
X296437Y368038I0J1325D01*
G01*
X301500Y371900D02*
G03*
X299449Y371051I0J-2900D01*
G01*
X301500Y371900D02*
G03*
X299449Y371051I0J-2900D01*
G01*
X335464Y175858D02*
G03*
X334761Y174161I1697J-1697D01*
G01*
X335464Y175858D02*
G03*
X334761Y174161I1697J-1697D01*
G01*
X331449Y176949D02*
G03*
X333500Y176100I2051J2051D01*
G01*
X334051Y182551D02*
G03*
X329949Y178449I-2051J-2051D01*
G01*
X334051Y182551D02*
G03*
X329949Y178449I-2051J-2051D01*
G01*
X334051Y182551D02*
G03*
X329949Y178449I-2051J-2051D01*
G01*
X331449Y176949D02*
G03*
X333500Y176100I2051J2051D01*
G01*
X334054Y182547D02*
G03*
X335621Y181900I1567J1574D01*
G01*
X339000Y191400D02*
G03*
X339000Y186600I0J-2400D01*
G01*
Y196400D02*
G03*
X339000Y191600I0J-2400D01*
G01*
Y201400D02*
G03*
X339000Y196600I0J-2400D01*
G01*
X348000Y176100D02*
G03*
X349628Y176600I0J2900D01*
G01*
Y181400D02*
G03*
X348000Y181900I-1628J-2400D01*
G01*
X357000Y176600D02*
G03*
X359400Y179000I0J2400D01*
G01*
X357000Y191600D02*
G03*
X359400Y194000I0J2400D01*
G01*
X357000Y196600D02*
G03*
X359400Y199000I0J2400D01*
G01*
Y179000D02*
G03*
X357000Y181400I-2400J0D01*
G01*
X363141Y182197D02*
G03*
X362439Y180500I1697J-1697D01*
G01*
X363141Y182197D02*
G03*
X362439Y180500I1697J-1697D01*
G01*
X368339Y186400D02*
G03*
X366641Y185697I0J-2400D01*
G01*
X370000Y181600D02*
G03*
X369223Y181400I0J-1611D01*
G01*
X370000Y181600D02*
G03*
X369223Y181400I0J-1611D01*
G01*
X368339Y186400D02*
G03*
X366641Y185697I0J-2400D01*
G01*
X357000Y186600D02*
G03*
X359400Y189000I0J2400D01*
G01*
D02*
G03*
X357000Y191400I-2400J0D01*
G01*
X370145Y186400D02*
G03*
X369024Y186400I-561J-5307D01*
G01*
X370145D02*
G03*
X369024Y186400I-561J-5307D01*
G01*
X370000Y191400D02*
G03*
X370000Y186600I0J-2400D01*
G01*
X359400Y194000D02*
G03*
X357000Y196400I-2400J0D01*
G01*
X359400Y199000D02*
G03*
X357000Y201400I-2400J0D01*
G01*
X370000Y196400D02*
G03*
X370000Y191600I0J-2400D01*
G01*
Y201400D02*
G03*
X370000Y196600I0J-2400D01*
G01*
X309500Y211400D02*
G03*
X307803Y210697I0J-2400D01*
G01*
X309500Y211400D02*
G03*
X307803Y210697I0J-2400D01*
G01*
X339000Y206400D02*
G03*
X339000Y201600I0J-2400D01*
G01*
X311656Y243157D02*
G03*
X313000Y242600I1343J1343D01*
G01*
X316115Y242121D02*
G03*
X314955Y242600I-1160J-1167D01*
G01*
X311654Y243159D02*
G03*
X313000Y242600I1346J1341D01*
G01*
X316115Y242121D02*
G03*
X314955Y242600I-1160J-1167D01*
G01*
X316115Y242121D02*
G03*
X314955Y242600I-1160J-1167D01*
G01*
X316118Y242118D02*
G03*
X321868Y244500I2382J2382D01*
G01*
X314955Y246400D02*
G03*
X316115Y246879I0J1645D01*
G01*
X314955Y246400D02*
G03*
X316115Y246879I0J1645D01*
G01*
X314955Y246400D02*
G03*
X316115Y246879I0J1645D01*
G01*
X321868Y244500D02*
G03*
X316118Y246882I-3368J0D01*
G01*
X353853Y232500D02*
G03*
X353853Y232500I-4353J0D01*
G01*
Y242500D02*
G03*
X353853Y242500I-4353J0D01*
G01*
Y252500D02*
G03*
X353853Y252500I-4353J0D01*
G01*
X359400Y204000D02*
G03*
X357000Y206400I-2400J0D01*
G01*
Y201600D02*
G03*
X359400Y204000I0J2400D01*
G01*
X357000Y206600D02*
G03*
X359400Y209000I0J2400D01*
G01*
X363600D02*
G03*
X366000Y206600I2400J0D01*
G01*
X363600Y209000D02*
G03*
X366000Y206600I2400J0D01*
G01*
X359400Y209000D02*
G03*
X357000Y211400I-2400J0D01*
G01*
Y211600D02*
G03*
X359400Y214000I0J2400D01*
G01*
D02*
G03*
X357000Y216400I-2400J0D01*
G01*
X370000Y206400D02*
G03*
X370000Y201600I0J-2400D01*
G01*
X368400Y212211D02*
G03*
X370000Y211600I1600J1789D01*
G01*
X364303Y219197D02*
G03*
X363600Y217500I1697J-1697D01*
G01*
X364303Y219197D02*
G03*
X363600Y217500I1697J-1697D01*
G01*
X370000Y216400D02*
G03*
X368400Y215789I0J-2400D01*
G01*
X369500Y223400D02*
G03*
X367803Y222697I0J-2400D01*
G01*
X369500Y223400D02*
G03*
X367803Y222697I0J-2400D01*
G01*
X393697Y180697D02*
G03*
X392000Y181400I-1697J-1697D01*
G01*
X388000Y181600D02*
G03*
X390400Y184000I0J2400D01*
G01*
D02*
G03*
X388000Y186400I-2400J0D01*
G01*
X393697Y180697D02*
G03*
X392000Y181400I-1697J-1697D01*
G01*
X400141Y167464D02*
G03*
X401839Y166761I1697J1697D01*
G01*
X400141Y167464D02*
G03*
X401839Y166761I1697J1697D01*
G01*
X394197Y190697D02*
G03*
X392500Y191400I-1697J-1697D01*
G01*
X394197Y190697D02*
G03*
X392500Y191400I-1697J-1697D01*
G01*
X397197Y195697D02*
G03*
X395500Y196400I-1697J-1697D01*
G01*
X397197Y195697D02*
G03*
X395500Y196400I-1697J-1697D01*
G01*
Y201600D02*
G03*
X397197Y202303I0J2400D01*
G01*
X395500Y201600D02*
G03*
X397197Y202303I0J2400D01*
G01*
X398641Y187464D02*
G03*
X400339Y186761I1697J1697D01*
G01*
X398641Y187464D02*
G03*
X400339Y186761I1697J1697D01*
G01*
X398964Y195141D02*
G03*
X400661Y194439I1697J1697D01*
G01*
X398964Y195141D02*
G03*
X400661Y194439I1697J1697D01*
G01*
X400063Y204041D02*
G03*
X398141Y203247I0J-2723D01*
G01*
X400063Y204041D02*
G03*
X398141Y203247I0J-2723D01*
G01*
X400197Y200697D02*
G03*
X398500Y201400I-1697J-1697D01*
G01*
X400197Y200697D02*
G03*
X398500Y201400I-1697J-1697D01*
G01*
X402964Y175142D02*
G03*
X404661Y174439I1697J1697D01*
G01*
X402964Y175142D02*
G03*
X404661Y174439I1697J1697D01*
G01*
X446916Y201642D02*
G03*
X446916Y201642I-4727J0D01*
G01*
X388000Y206600D02*
G03*
X390400Y209000I0J2400D01*
G01*
D02*
G03*
X388000Y211400I-2400J0D01*
G01*
X435735Y207095D02*
G03*
X435735Y207095I-4727J0D01*
G01*
X425855Y216400D02*
G03*
X426281Y218000I-2791J1600D01*
G01*
X427008Y211600D02*
G03*
X428705Y212303I0J2400D01*
G01*
X427008Y211600D02*
G03*
X428705Y212303I0J2400D01*
G01*
X425855Y216400D02*
G03*
X426281Y218000I-2791J1600D01*
G01*
X423102Y218600D02*
G03*
X424799Y219303I0J2400D01*
G01*
X423102Y218600D02*
G03*
X424799Y219303I0J2400D01*
G01*
X425344Y226635D02*
G03*
X426281Y228906I-2280J2270D01*
G01*
X435735Y218000D02*
G03*
X426281Y218000I-4727J0D01*
G01*
X425344Y226635D02*
G03*
X426281Y228906I-2280J2270D01*
G01*
X435735D02*
G03*
X426281Y228906I-4727J0D01*
G01*
X431008Y213273D02*
G03*
X428738Y212336I0J-3217D01*
G01*
X431008Y213273D02*
G03*
X428738Y212336I0J-3217D01*
G01*
X431008Y213273D02*
G03*
X435735Y218000I0J4727D01*
G01*
X446916Y212547D02*
G03*
X446916Y212547I-4727J0D01*
G01*
Y223453D02*
G03*
X446916Y223453I-4727J0D01*
G01*
X431008Y224179D02*
G03*
X428738Y223241I0J-3217D01*
G01*
X431008Y224179D02*
G03*
X428738Y223241I0J-3217D01*
G01*
X431008Y224179D02*
G03*
X435735Y228906I0J4727D01*
G01*
X446916Y234358D02*
G03*
X446916Y234358I-4727J0D01*
G01*
X307377Y273784D02*
G03*
X306898Y272979I1343J-1343D01*
G01*
X307380Y273787D02*
G03*
X306898Y272979I1341J-1346D01*
G01*
X326309Y270600D02*
G03*
X328500Y269600I2191J1900D01*
G01*
X315157Y271157D02*
G03*
X316500Y270600I1343J1343D01*
G01*
X316179Y275490D02*
G03*
X315000Y275900I-1179J-1490D01*
G01*
X315154Y271159D02*
G03*
X316500Y270600I1346J1341D01*
G01*
X316179Y275490D02*
G03*
X315000Y275900I-1179J-1490D01*
G01*
X312400Y291717D02*
G03*
X312303Y292317I-1900J0D01*
G01*
X312400Y291717D02*
G03*
X312303Y292317I-1900J0D01*
G01*
X342600Y283500D02*
G03*
X342449Y283864I-514J0D01*
G01*
X345136Y286551D02*
G03*
X345500Y286400I364J364D01*
G01*
X342248Y290348D02*
G03*
X343591Y290904I0J1900D01*
G01*
X342248Y290348D02*
G03*
X343594Y290907I0J1900D01*
G01*
X353853Y262500D02*
G03*
X353853Y262500I-4353J0D01*
G01*
X342600Y283500D02*
G03*
X348400Y283500I2900J0D01*
G01*
D02*
G03*
X345500Y286400I-2900J0D01*
G01*
X334919Y296900D02*
G03*
X335400Y298500I-2419J1600D01*
G01*
X341400Y295000D02*
G03*
X336449Y297051I-2900J0D01*
G01*
X336086Y296900D02*
G03*
X336447Y297048I0J514D01*
G01*
X346000Y293100D02*
G03*
X345636Y292949I0J-514D01*
G01*
X341272Y294148D02*
G03*
X341400Y295000I-2772J852D01*
G01*
X342949Y295636D02*
G03*
X343100Y296000I-364J364D01*
G01*
X335400Y298500D02*
G03*
X334500Y300600I-2900J0D01*
G01*
X346000Y293100D02*
G03*
X348900Y296000I0J2900D01*
G01*
D02*
G03*
X343100Y296000I-2900J0D01*
G01*
X349346Y303841D02*
G03*
X348980Y304128I-1346J-1341D01*
G01*
X349343Y303843D02*
G03*
X348980Y304128I-1343J-1343D01*
G01*
X354527D02*
G03*
X355871Y304684I0J1900D01*
G01*
X354527Y304128D02*
G03*
X355874Y304687I0J1900D01*
G01*
X354449Y308636D02*
G03*
X354600Y309000I-364J364D01*
G01*
X357500Y306100D02*
G03*
X357136Y305949I0J-514D01*
G01*
X312657Y322191D02*
G03*
X318862Y324761I0J8774D01*
G01*
X314000Y327100D02*
G03*
X312783Y326596I0J-1721D01*
G01*
X314000Y327100D02*
G03*
X312783Y326596I0J-1721D01*
G01*
X314000Y327100D02*
G03*
X312783Y326596I0J-1721D01*
G01*
X314000Y327100D02*
G03*
X316900Y330000I0J2900D01*
G01*
X323661Y318061D02*
G03*
X322315Y317502I0J-1900D01*
G01*
X323661Y318061D02*
G03*
X322318Y317505I0J-1900D01*
G01*
X307377Y330564D02*
G03*
X306821Y329221I1343J-1343D01*
G01*
X307380Y330567D02*
G03*
X306821Y329221I1341J-1346D01*
G01*
X308100Y333586D02*
G03*
X307951Y333947I-514J0D01*
G01*
X308100Y333586D02*
G03*
X307951Y333947I-514J0D01*
G01*
X308100Y333586D02*
G03*
X307951Y333947I-514J0D01*
G01*
X312049D02*
G03*
X311900Y333586I366J-362D01*
G01*
X312900Y336000D02*
G03*
X307949Y333949I-2900J0D01*
G01*
X312049Y333947D02*
G03*
X311900Y333586I366J-362D01*
G01*
X312049Y333947D02*
G03*
X311900Y333586I366J-362D01*
G01*
X312051Y333949D02*
G03*
X312900Y336000I-2051J2051D01*
G01*
X316900Y330000D02*
G03*
X311900Y332000I-2900J0D01*
G01*
X309275Y360507D02*
G03*
X317850Y363000I3925J2493D01*
G01*
D02*
G03*
X316666Y366100I-4650J0D01*
G01*
X326535Y371051D02*
G03*
X324484Y371900I-2051J-2051D01*
G01*
X326535Y371051D02*
G03*
X324484Y371900I-2051J-2051D01*
G01*
X336041Y314090D02*
G03*
X335029Y314261I-1012J-2899D01*
G01*
Y318061D02*
G03*
X336041Y318233I0J3071D01*
G01*
X345646Y334621D02*
G03*
X344486Y335100I-1160J-1167D01*
G01*
X345650Y334618D02*
G03*
X348031Y333631I2382J2382D01*
G01*
X351969D02*
G03*
X355337Y337000I0J3368D01*
G01*
X333787Y338900D02*
G03*
X332444Y338344I0J-1900D01*
G01*
X333787Y338900D02*
G03*
X332441Y338341I0J-1900D01*
G01*
X344486Y338900D02*
G03*
X345646Y339379I0J1645D01*
G01*
X345774Y344500D02*
G03*
X345774Y339500I2258J-2500D01*
G01*
X332434Y356949D02*
G03*
X334484Y356100I2051J2051D01*
G01*
X332434Y356949D02*
G03*
X334484Y356100I2051J2051D01*
G01*
X348031Y350368D02*
G03*
X345774Y344500I0J-3368D01*
G01*
X355337Y347000D02*
G03*
X351969Y350368I-3368J0D01*
G01*
X355337Y342000D02*
G03*
X354226Y344500I-3368J0D01*
G01*
X355337Y337000D02*
G03*
X354226Y339500I-3368J0D01*
G01*
D02*
G03*
X355337Y342000I-2258J2500D01*
G01*
X354226Y344500D02*
G03*
X355337Y347000I-2258J2500D01*
G01*
X354051Y361051D02*
G03*
X352000Y361900I-2051J-2051D01*
G01*
X354051Y361051D02*
G03*
X352000Y361900I-2051J-2051D01*
G01*
X366600Y281000D02*
G03*
X366449Y281364I-514J0D01*
G01*
X366600Y281000D02*
G03*
X372400Y281000I2900J0D01*
G01*
D02*
G03*
X369500Y283900I-2900J0D01*
G01*
X369136Y284051D02*
G03*
X369500Y283900I364J364D01*
G01*
X377205Y269600D02*
G03*
X379255Y270449I0J2900D01*
G01*
X377205Y269600D02*
G03*
X379255Y270449I0J2900D01*
G01*
X376483Y275880D02*
G03*
X376710Y276142I-1695J1695D01*
G01*
X367449Y292449D02*
G03*
X369500Y291600I2051J2051D01*
G01*
X367449Y292449D02*
G03*
X369500Y291600I2051J2051D01*
G01*
X364100Y297000D02*
G03*
X364949Y294949I2900J0D01*
G01*
X364100Y297000D02*
G03*
X364949Y294949I2900J0D01*
G01*
X360400Y309000D02*
G03*
X354600Y309000I-2900J0D01*
G01*
X357500Y306100D02*
G03*
X360400Y309000I0J2900D01*
G01*
X394254Y277395D02*
G03*
X393290Y277267I0J-3696D01*
G01*
X421795Y277395D02*
G03*
X423846Y278245I0J2900D01*
G01*
X421795Y277395D02*
G03*
X423846Y278245I0J2900D01*
G01*
X393290Y283323D02*
G03*
X394254Y283195I964J3568D01*
G01*
X381972Y285928D02*
G03*
X382100Y286892I-3568J964D01*
G01*
X387900Y286892D02*
G03*
X388028Y285928I3696J0D01*
G01*
X433051Y287449D02*
G03*
X433900Y289500I-2051J2051D01*
G01*
X433051Y287449D02*
G03*
X433900Y289500I-2051J2051D01*
G01*
X445400Y296000D02*
G03*
X445400Y296000I-5400J0D01*
G01*
X369900Y322000D02*
G03*
X369051Y324051I-2900J0D01*
G01*
X369900Y322000D02*
G03*
X369051Y324051I-2900J0D01*
G01*
X367212Y325889D02*
G03*
X365161Y326739I-2051J-2051D01*
G01*
X367212Y325889D02*
G03*
X365161Y326739I-2051J-2051D01*
G01*
X372104Y334000D02*
G03*
X371542Y335357I-1919J0D01*
G01*
X445400Y313700D02*
G03*
X445400Y313700I-5400J0D01*
G01*
X471000D02*
G03*
X471000Y313700I-5400J0D01*
G01*
X428949Y331051D02*
G03*
X428100Y329000I2051J-2051D01*
G01*
X428949Y331051D02*
G03*
X428100Y329000I2051J-2051D01*
G01*
X421500Y337500D02*
G03*
X421500Y337500I-4500J0D01*
G01*
X436051Y329949D02*
G03*
X436900Y332000I-2051J2051D01*
G01*
X436051Y329949D02*
G03*
X436900Y332000I-2051J2051D01*
G01*
D02*
G03*
X431949Y334051I-2900J0D01*
G01*
X436900Y332000D02*
G03*
X431949Y334051I-2900J0D01*
G01*
X421500Y347500D02*
G03*
X421500Y347500I-4500J0D01*
G01*
X467500D02*
G03*
X467500Y347500I-4500J0D01*
G01*
X170500Y186000D02*
X202275D01*
X170500Y190000D02*
X200915D01*
X170500Y188000D02*
X201143D01*
X170500Y192000D02*
X201463D01*
X208000Y157500D02*
Y184475D01*
X210000Y157500D02*
Y185667D01*
X218000Y157500D02*
Y199647D01*
X202000Y157500D02*
Y186334D01*
X206000Y157500D02*
Y184208D01*
X204000Y157500D02*
Y184714D01*
X188000Y157500D02*
Y211258D01*
X190000Y157500D02*
Y215000D01*
X182000Y157500D02*
Y212172D01*
X186000Y157500D02*
Y210528D01*
X184000Y157500D02*
Y210757D01*
X198000Y157500D02*
Y211258D01*
X216000Y157500D02*
Y207334D01*
X200000Y157500D02*
Y215000D01*
X192000Y157500D02*
Y212172D01*
X196000Y157500D02*
Y210528D01*
X194000Y157500D02*
Y210757D01*
X170500Y162000D02*
X218984D01*
X170500Y160000D02*
X220372D01*
X170500Y164000D02*
X218600D01*
X170500Y166000D02*
X218984D01*
X170500Y168000D02*
X220372D01*
X220000Y157500D02*
Y160372D01*
X224000Y157500D02*
Y158600D01*
X222000Y157500D02*
Y158984D01*
X226000Y157500D02*
Y158984D01*
X227628Y160000D02*
X248372D01*
X228000Y157500D02*
Y160372D01*
X220000Y167628D02*
Y185972D01*
X211685Y190000D02*
X218615D01*
X210325Y186000D02*
X219975D01*
X211457Y188000D02*
X218843D01*
X222000Y169016D02*
Y184584D01*
X227628Y168000D02*
X248372D01*
X228000Y167628D02*
Y185972D01*
X224000Y169400D02*
Y184200D01*
X226000Y169016D02*
Y184584D01*
X228025Y186000D02*
X230275D01*
X170500Y194000D02*
X203169D01*
X170500Y200000D02*
X217647D01*
X170500Y206000D02*
X217115D01*
X170500Y202000D02*
X217647D01*
X170500Y204000D02*
X217647D01*
Y199647D02*
Y204009D01*
X170500Y208000D02*
X215667D01*
X216159Y207154D02*
X216465Y206848D01*
X170500Y212000D02*
X182146D01*
X170500Y210000D02*
X215600D01*
X188854Y212000D02*
X192146D01*
X170500Y214000D02*
X181113D01*
X189887D02*
X191112D01*
X170500Y216000D02*
X181113D01*
X198854Y212000D02*
X215600D01*
X189887Y216000D02*
X191112D01*
X199888Y214000D02*
X215600D01*
X199888Y216000D02*
X215600D01*
X211137Y192000D02*
X219163D01*
X220000Y193228D02*
Y199647D01*
X209431Y194000D02*
X220869D01*
X170500Y196000D02*
X227478D01*
X170500Y198000D02*
X229734D01*
X222000Y194616D02*
Y199647D01*
X224000Y195000D02*
Y199647D01*
X228636Y196923D02*
X229554Y197841D01*
X226000Y195313D02*
Y199647D01*
X217647D02*
X226353D01*
Y206960D01*
Y204000D02*
X227647D01*
X226353Y200000D02*
X230283D01*
X226353Y202000D02*
X228134D01*
X228000Y196363D02*
Y202284D01*
X226353Y206000D02*
X227115D01*
X230000Y157500D02*
Y186334D01*
X232000Y157500D02*
Y184714D01*
X234000Y157500D02*
Y184208D01*
X236000Y157500D02*
Y184475D01*
X238000Y157500D02*
Y185667D01*
X242000Y157500D02*
Y194600D01*
X238000Y193533D02*
Y194600D01*
X240000Y157500D02*
Y194600D01*
X230000Y198173D02*
Y200134D01*
X232000Y198400D02*
Y199647D01*
X233717Y200000D02*
X240283D01*
X234000Y198400D02*
Y200134D01*
X238000Y198400D02*
Y202284D01*
X236000Y198400D02*
Y202284D01*
X235866Y202000D02*
X238134D01*
X242000Y198400D02*
Y199647D01*
X240000Y198400D02*
Y200134D01*
X229400Y164000D02*
X246600D01*
X229016Y162000D02*
X246984D01*
X229016Y166000D02*
X246984D01*
X238325Y186000D02*
X247975D01*
X239137Y192000D02*
X247163D01*
X248000Y167628D02*
Y185972D01*
X250000Y157500D02*
Y158984D01*
X248000Y157500D02*
Y160372D01*
X239685Y190000D02*
X246615D01*
X250000Y169016D02*
Y184584D01*
X239458Y188000D02*
X246843D01*
X244000Y157500D02*
Y194600D01*
X237431Y194000D02*
X248869D01*
X236340Y194600D02*
X249960D01*
X244000Y198400D02*
Y200134D01*
X245866Y202000D02*
X248134D01*
X246000Y157500D02*
Y194600D01*
X248000Y193228D02*
Y194600D01*
X250000Y198400D02*
Y200134D01*
X246000Y198400D02*
Y202284D01*
X248000Y198400D02*
Y202284D01*
X246353Y204000D02*
X247647D01*
X235659Y207654D02*
X236465Y206848D01*
X233717Y208000D02*
X235384D01*
X236353Y204000D02*
X237647D01*
X236000Y205716D02*
Y207313D01*
X235866Y206000D02*
X237115D01*
X228900Y209787D02*
X229152Y209535D01*
X228900Y209787D02*
Y210944D01*
Y210000D02*
X230283D01*
X230000Y208885D02*
Y210134D01*
X232000Y208353D02*
Y209647D01*
X234000Y207866D02*
Y210134D01*
X235100Y209000D02*
Y210944D01*
X233717Y210000D02*
X235100D01*
X238900Y209787D02*
Y210944D01*
X243717Y208000D02*
X245667D01*
X246000Y205716D02*
Y207334D01*
X245866Y206000D02*
X247115D01*
X246159Y207154D02*
X246465Y206848D01*
X240000Y208885D02*
Y210134D01*
X238900Y209787D02*
X239152Y209535D01*
X238900Y210000D02*
X240283D01*
X242000Y208353D02*
Y209647D01*
X244000Y207866D02*
Y210134D01*
X245600Y208500D02*
Y211553D01*
X243717Y210000D02*
X245600D01*
X249400Y209306D02*
Y210509D01*
X170500Y218000D02*
X182146D01*
X170500Y220000D02*
X182600D01*
X170500Y234000D02*
X182146D01*
X170500Y222000D02*
X182600D01*
X170500Y224000D02*
X182600D01*
X182000Y217828D02*
Y234172D01*
X170500Y226000D02*
X182600D01*
Y218863D02*
Y233137D01*
X170500Y157500D02*
Y384000D01*
X172000Y157500D02*
Y384000D01*
X170500Y236000D02*
X181113D01*
X170500Y238000D02*
X181113D01*
X170500Y240000D02*
X182146D01*
X174000Y157500D02*
Y384000D01*
X178000Y157500D02*
Y384000D01*
X176000Y157500D02*
Y384000D01*
X180000Y157500D02*
Y384000D01*
X182000Y239828D02*
Y256172D01*
X170500Y230000D02*
X182600D01*
X170500Y228000D02*
X182600D01*
X188400Y220000D02*
X215600D01*
X188400Y222000D02*
X215600D01*
X188400Y228000D02*
X215600D01*
X188400Y224000D02*
X215600D01*
X188400Y226000D02*
X215600D01*
X170500Y232000D02*
X182600D01*
X188400Y218863D02*
Y233137D01*
Y230000D02*
X215600D01*
X188400Y232000D02*
X215600D01*
X170500Y244000D02*
X182600D01*
X170500Y242000D02*
X182600D01*
X170500Y254000D02*
X182600D01*
X170500Y246000D02*
X182600D01*
X170500Y248000D02*
X182600D01*
X170500Y250000D02*
X182600D01*
X170500Y252000D02*
X182600D01*
X170500Y260000D02*
X181113D01*
X170500Y256000D02*
X182146D01*
X170500Y258000D02*
X181113D01*
X170500Y262000D02*
X182146D01*
X170500Y264000D02*
X182600D01*
X170500Y266000D02*
X182600D01*
X182000Y261828D02*
Y278172D01*
X170500Y268000D02*
X182600D01*
Y262863D02*
Y277137D01*
Y240863D02*
Y255137D01*
X188400Y244000D02*
X215600D01*
X188400Y246000D02*
X215600D01*
X188400Y248000D02*
X215884D01*
X188400Y240863D02*
Y255137D01*
Y242000D02*
X215600D01*
X188400Y250000D02*
X217813D01*
X188400Y252000D02*
X219813D01*
X188400Y254000D02*
X221813D01*
X188400Y262863D02*
Y277137D01*
Y264000D02*
X231813D01*
X188400Y266000D02*
X233813D01*
X188400Y268000D02*
X235813D01*
X188400Y270000D02*
X237813D01*
X188854Y218000D02*
X192146D01*
X188854Y234000D02*
X192146D01*
X192000Y217828D02*
Y234172D01*
X198854Y218000D02*
X215600D01*
X198000Y218742D02*
Y233258D01*
X194000Y219243D02*
Y232757D01*
X196000Y219472D02*
Y232528D01*
X198854Y234000D02*
X215600D01*
X202000Y192867D02*
Y293600D01*
X204000Y194486D02*
Y293600D01*
X190000Y215000D02*
Y237000D01*
X200000Y215000D02*
Y237000D01*
X210000Y193533D02*
Y293600D01*
X214000Y157500D02*
Y293600D01*
X212000Y157500D02*
Y293600D01*
X206000Y194992D02*
Y293600D01*
X215600Y208500D02*
Y247000D01*
X208000Y194725D02*
Y293600D01*
X243900Y220000D02*
X245600D01*
X243900Y222000D02*
X245600D01*
X243900Y224000D02*
X245600D01*
X244389Y218000D02*
X245600D01*
Y216447D02*
Y231028D01*
X243900Y230000D02*
X245600D01*
X243900Y226000D02*
X245600D01*
X243900Y228000D02*
X245600D01*
X243900Y219921D02*
Y244426D01*
X244000Y219030D02*
Y244526D01*
X243900Y232000D02*
X245868D01*
X243900Y234000D02*
X247785D01*
X243900Y236000D02*
X249143D01*
X246000Y232194D02*
Y246526D01*
X246159Y232374D02*
X248900Y235114D01*
X248000Y234214D02*
Y248526D01*
X189887Y238000D02*
X191112D01*
X188854Y240000D02*
X192146D01*
X188854Y256000D02*
X192146D01*
X189887Y236000D02*
X191112D01*
X198000Y240742D02*
Y255258D01*
X192000Y239828D02*
Y256172D01*
X189887Y258000D02*
X191112D01*
X196000Y241472D02*
Y254528D01*
X194000Y241243D02*
Y254757D01*
X190000Y237000D02*
Y259000D01*
Y281000D01*
X189887Y260000D02*
X191112D01*
X188854Y262000D02*
X192146D01*
X192000Y261828D02*
Y278172D01*
X200000Y237000D02*
Y259000D01*
Y281000D01*
X194000Y263243D02*
Y276757D01*
X196000Y263472D02*
Y276528D01*
X198000Y262742D02*
Y277258D01*
X198854Y240000D02*
X215600D01*
X199888Y238000D02*
X215600D01*
X198854Y256000D02*
X223813D01*
X198854Y262000D02*
X229813D01*
X199888Y236000D02*
X215600D01*
X250000Y237600D02*
Y250525D01*
X199888Y258000D02*
X225813D01*
X199888Y260000D02*
X227813D01*
X216000Y248166D02*
Y293600D01*
X216159Y248346D02*
X247445Y279632D01*
X218000Y250187D02*
Y293600D01*
X220000Y252187D02*
Y293600D01*
X224000Y256187D02*
Y293600D01*
X222000Y254187D02*
Y293600D01*
X226000Y258187D02*
Y293600D01*
X230000Y262187D02*
Y293600D01*
X228000Y260187D02*
Y293600D01*
X232000Y264187D02*
Y288283D01*
X236000Y268187D02*
Y285647D01*
X234000Y266187D02*
Y286134D01*
X252000Y157500D02*
Y158600D01*
X254000Y157500D02*
Y158984D01*
X252000Y169400D02*
Y184200D01*
X254000Y169016D02*
Y184584D01*
X256000Y157500D02*
Y160372D01*
X262000Y157500D02*
Y184208D01*
X260000Y157500D02*
Y184714D01*
X264000Y157500D02*
Y184475D01*
X257400Y164000D02*
X274600D01*
X266000Y157500D02*
Y185667D01*
X256000Y167628D02*
Y185972D01*
X258000Y157500D02*
Y186334D01*
X256025Y186000D02*
X258275D01*
X268000Y157500D02*
Y197313D01*
X270000Y157500D02*
Y199115D01*
X274000Y157500D02*
Y200134D01*
X266000Y193533D02*
Y195313D01*
X272000Y157500D02*
Y199647D01*
X170500Y158000D02*
X474000D01*
X170500Y157500D02*
X474000D01*
X170500Y170000D02*
X333104D01*
X170500Y172000D02*
X333104D01*
X170500Y174000D02*
X334761D01*
X276000Y157500D02*
Y160372D01*
X255628Y160000D02*
X276372D01*
X257016Y162000D02*
X274984D01*
X257016Y166000D02*
X274984D01*
X255628Y168000D02*
X276372D01*
X170500Y180000D02*
X329143D01*
X170500Y176000D02*
X335606D01*
X170500Y178000D02*
X330399D01*
X266325Y186000D02*
X275975D01*
X170500Y182000D02*
X329518D01*
X170500Y184000D02*
X364945D01*
X267458Y188000D02*
X274843D01*
X276000Y167628D02*
Y185972D01*
X267685Y190000D02*
X274615D01*
X267137Y192000D02*
X275163D01*
X276000Y193228D02*
Y202284D01*
X252000Y198400D02*
Y199647D01*
X230900Y198400D02*
X263713D01*
X243717Y200000D02*
X250284D01*
X253716D02*
X260283D01*
X254000Y198400D02*
Y200134D01*
X262000Y198400D02*
Y199647D01*
X260000Y198400D02*
Y200134D01*
X263717Y200000D02*
X265313D01*
X264000Y198687D02*
Y200134D01*
X256000Y198400D02*
Y202284D01*
X255866Y202000D02*
X258134D01*
X256000Y205716D02*
Y207313D01*
X256353Y204000D02*
X257647D01*
X255866Y206000D02*
X257115D01*
X258000Y198400D02*
Y202284D01*
X266000Y200687D02*
Y202284D01*
X265846Y195159D02*
X269152Y198465D01*
X265430Y194000D02*
X276870D01*
X263713Y198400D02*
X266465Y201152D01*
X266687Y196000D02*
X278100D01*
X265866Y202000D02*
X267115D01*
X268687Y198000D02*
X279313D01*
X273716Y200000D02*
X279611D01*
X275866Y202000D02*
X278134D01*
X266159Y207154D02*
X266465Y206848D01*
X265866Y206000D02*
X267115D01*
X276353Y204000D02*
X277647D01*
X275866Y206000D02*
X277115D01*
X278000Y157500D02*
Y158984D01*
X280000Y157500D02*
Y158600D01*
X278000Y169016D02*
Y184584D01*
X282000Y157500D02*
Y158984D01*
X280000Y169400D02*
Y184200D01*
X284000Y157500D02*
Y160372D01*
Y167628D02*
Y185972D01*
X288000Y157500D02*
Y186334D01*
X282000Y169016D02*
Y184584D01*
X284025Y186000D02*
X288275D01*
X285157Y188000D02*
X287142D01*
X285385Y190000D02*
X286915D01*
X286000Y157500D02*
Y202284D01*
X284000Y193228D02*
Y198970D01*
X284837Y192000D02*
X287463D01*
X288000Y192867D02*
Y202284D01*
X285016Y162000D02*
X304984D01*
X283628Y160000D02*
X306372D01*
X285400Y164000D02*
X304600D01*
X285016Y166000D02*
X304984D01*
X283628Y168000D02*
X306372D01*
X290000Y157500D02*
Y184714D01*
X292000Y157500D02*
Y184208D01*
X294000Y157500D02*
Y184475D01*
X296000Y157500D02*
Y185667D01*
X296325Y186000D02*
X305975D01*
X297458Y188000D02*
X304842D01*
X297137Y192000D02*
X305163D01*
X283131Y194000D02*
X289170D01*
X295430D02*
X306870D01*
X296000Y193533D02*
Y201487D01*
X298000Y157500D02*
Y201600D01*
X302000Y157500D02*
Y201600D01*
X300000Y157500D02*
Y201600D01*
X304000Y157500D02*
Y201600D01*
X297685Y190000D02*
X304615D01*
X282008Y195320D02*
X283341Y196654D01*
X278000Y195344D02*
Y202284D01*
X278659Y197346D02*
X280046Y198733D01*
X290000Y194486D02*
Y200134D01*
X292000Y194992D02*
Y199647D01*
X285866Y202000D02*
X288134D01*
X282687Y196000D02*
X337673D01*
X284389Y200000D02*
X290283D01*
X294000Y194725D02*
Y200134D01*
X293717Y200000D02*
X336818D01*
X296714Y201600D02*
X304500D01*
X305827Y202000D02*
X337673D01*
X286353Y204000D02*
X287647D01*
X285866Y206000D02*
X287115D01*
X296714Y206400D02*
X303506D01*
X253716Y208000D02*
X255384D01*
X255659Y207654D02*
X256465Y206848D01*
X250000Y208885D02*
Y210134D01*
X252000Y208353D02*
Y209647D01*
X249400Y210000D02*
X250284D01*
X253716D02*
X255100D01*
X254000Y207866D02*
Y210134D01*
X262000Y208353D02*
Y209647D01*
X260000Y208885D02*
Y210134D01*
X255100Y209000D02*
Y210944D01*
X258900Y209787D02*
X259152Y209535D01*
X258900Y209787D02*
Y210944D01*
X266000Y205716D02*
Y207334D01*
X263717Y208000D02*
X265667D01*
X273716D02*
X275313D01*
X275159Y208154D02*
X276465Y206848D01*
X264000Y207866D02*
Y210134D01*
X270000Y208885D02*
Y210134D01*
X265600Y208500D02*
Y211553D01*
X269400Y209306D02*
Y210509D01*
X274000Y207866D02*
Y210134D01*
X272000Y208353D02*
Y209647D01*
X273716Y210000D02*
X274600D01*
Y209500D02*
Y210509D01*
X243900Y238000D02*
X250530D01*
X243900Y240000D02*
X253785D01*
X243900Y242000D02*
X255785D01*
X243900Y244000D02*
X257786D01*
X245475Y246000D02*
X259786D01*
X258900Y210000D02*
X260283D01*
X247475Y248000D02*
X261786D01*
X249475Y250000D02*
X263786D01*
X252000Y238400D02*
Y252525D01*
X254000Y240214D02*
Y254525D01*
X243900Y244426D02*
X254269Y254795D01*
X256000Y242214D02*
Y255278D01*
X258000Y244215D02*
Y258442D01*
X260000Y246215D02*
Y260525D01*
X262000Y248215D02*
Y262526D01*
X251474Y252000D02*
X265786D01*
X252386Y238600D02*
X274234Y260449D01*
X253474Y254000D02*
X267786D01*
X257100Y256000D02*
X269785D01*
X257900Y258000D02*
X271785D01*
X263717Y210000D02*
X265600D01*
X269400D02*
X270284D01*
X259474Y260000D02*
X273785D01*
X261474Y262000D02*
X275785D01*
X274247Y260462D02*
X275952Y262166D01*
X277650Y263865D01*
X264000Y250215D02*
Y264526D01*
X266000Y252215D02*
Y266526D01*
X258206Y258731D02*
X267079Y267604D01*
X267092Y267617D02*
X268796Y269322D01*
X263474Y264000D02*
X277785D01*
X265475Y266000D02*
X279785D01*
X268000Y254215D02*
Y268526D01*
X270000Y256214D02*
Y270526D01*
X272000Y258214D02*
Y272526D01*
X268796Y269322D02*
X270495Y271020D01*
X267475Y268000D02*
X281238D01*
X269475Y270000D02*
X281238D01*
X276000Y205716D02*
Y207313D01*
X286000Y205716D02*
Y207313D01*
X285659Y207654D02*
X286465Y206848D01*
X282000Y208353D02*
Y209647D01*
X283717Y208000D02*
X285384D01*
X278400Y210287D02*
X279152Y209535D01*
X280000Y208885D02*
Y210134D01*
X278400Y210287D02*
Y211553D01*
X278687Y210000D02*
X280283D01*
X284000Y207866D02*
Y210134D01*
X290000Y208885D02*
Y210134D01*
X285100Y209000D02*
Y210944D01*
X283717Y210000D02*
X285100D01*
X288900Y209787D02*
X289152Y209535D01*
X288900Y209787D02*
Y210944D01*
Y210000D02*
X290283D01*
X294000Y207866D02*
Y210134D01*
X303506Y206400D02*
X307803Y210697D01*
X292000Y208353D02*
Y209647D01*
X293717Y208000D02*
X305106D01*
X293717Y210000D02*
X307106D01*
X296000Y206513D02*
Y211487D01*
X296714Y211600D02*
X339000D01*
X298000Y206400D02*
Y211600D01*
X302000Y206400D02*
Y211600D01*
X300000Y206400D02*
Y211600D01*
X302000Y216400D02*
Y245145D01*
X304000Y206894D02*
Y211600D01*
X296714Y216400D02*
X339000D01*
X294900Y219921D02*
Y222336D01*
Y217507D02*
Y219921D01*
X296000Y216513D02*
Y242242D01*
X298000Y216400D02*
Y241169D01*
X300000Y216400D02*
Y241484D01*
X294900Y222336D02*
Y243213D01*
Y242000D02*
X296242D01*
X294900Y243213D02*
X295261Y243574D01*
X276000Y262214D02*
Y274608D01*
X277659Y263874D02*
X279356Y265570D01*
X278000Y264214D02*
Y274608D01*
X280000Y266214D02*
Y292246D01*
X279366Y265580D02*
X281071Y267285D01*
X281238Y267452D02*
Y272979D01*
X302747Y251847D02*
Y266657D01*
X302739Y266830D02*
Y272979D01*
X294900Y232000D02*
X345176D01*
X294900Y230000D02*
X345937D01*
X294900Y234000D02*
X345414D01*
X294900Y236000D02*
X346912D01*
X294900Y238000D02*
X426281D01*
X294900Y218000D02*
X363653D01*
X294900Y220000D02*
X365106D01*
X294900Y222000D02*
X367106D01*
X294900Y224000D02*
X422708D01*
X294900Y226000D02*
X424708D01*
X294900Y228000D02*
X426151D01*
X301831Y244000D02*
X310813D01*
X294900Y240000D02*
X345937D01*
X300758Y242000D02*
X316242D01*
X302355Y245668D02*
X305750Y249063D01*
X304000Y216400D02*
Y247313D01*
X302687Y246000D02*
X308813D01*
X305750Y249063D02*
X311654Y243159D01*
X302884Y251571D02*
Y266657D01*
X304687Y248000D02*
X306813D01*
X302891Y266830D02*
Y272979D01*
X170500Y272000D02*
X182600D01*
X170500Y270000D02*
X182600D01*
X170500Y280000D02*
X181113D01*
X170500Y278000D02*
X182146D01*
X170500Y284000D02*
X182146D01*
X170500Y282000D02*
X181113D01*
X182000Y283828D02*
Y300172D01*
X170500Y286000D02*
X182600D01*
X170500Y298000D02*
X182600D01*
X170500Y288000D02*
X182600D01*
X170500Y296000D02*
X182600D01*
Y284863D02*
Y295500D01*
Y299137D01*
X170500Y274000D02*
X182600D01*
X188400Y272000D02*
X239813D01*
X170500Y276000D02*
X182600D01*
X170500Y290000D02*
X182600D01*
X188400Y286000D02*
X234283D01*
X188400Y288000D02*
X232134D01*
X170500Y294000D02*
X182600D01*
X188400Y290000D02*
X231647D01*
X170500Y292000D02*
X182600D01*
X188400Y284863D02*
Y293600D01*
Y292000D02*
X232134D01*
X188400Y293600D02*
X233553D01*
X188400Y297400D02*
Y299137D01*
Y297400D02*
X232509D01*
X188400Y298000D02*
X232134D01*
X170500Y304000D02*
X181113D01*
X170500Y302000D02*
X181113D01*
X170500Y306000D02*
X182146D01*
X170500Y308000D02*
X182600D01*
X170500Y310000D02*
X182600D01*
X170500Y300000D02*
X182146D01*
X170500Y320000D02*
X182600D01*
X170500Y312000D02*
X182600D01*
X170500Y314000D02*
X182600D01*
X170500Y324000D02*
X181113D01*
X170500Y322000D02*
X182146D01*
X170500Y328000D02*
X182146D01*
X182000Y305828D02*
Y322172D01*
X182600Y306863D02*
Y321137D01*
X170500Y326000D02*
X181113D01*
X188400Y308000D02*
X232134D01*
X188400Y310000D02*
X231647D01*
X188400Y312000D02*
X232134D01*
X188400Y314000D02*
X234283D01*
X170500Y316000D02*
X182600D01*
X188400D02*
X234283D01*
X170500Y318000D02*
X182600D01*
X188400D02*
X232134D01*
X188400Y320000D02*
X231647D01*
X188400Y306863D02*
Y321137D01*
X189887Y280000D02*
X191112D01*
X188854Y278000D02*
X192146D01*
X190000Y281000D02*
Y293600D01*
X189887Y282000D02*
X191112D01*
X188854Y284000D02*
X192146D01*
X192000Y283828D02*
Y293600D01*
X200000Y281000D02*
Y293600D01*
X194000Y285243D02*
Y293600D01*
X198000Y284742D02*
Y293600D01*
X196000Y285472D02*
Y293600D01*
X189887Y302000D02*
X191112D01*
X188854Y300000D02*
X192146D01*
X189887Y304000D02*
X191112D01*
X190000Y303000D02*
Y325000D01*
Y297400D02*
Y303000D01*
X194000Y297400D02*
Y298757D01*
X192000Y297400D02*
Y300172D01*
Y305828D02*
Y322172D01*
X196000Y297400D02*
Y298528D01*
X198000Y297400D02*
Y299258D01*
X200000Y297400D02*
Y303000D01*
X198854Y300000D02*
X231647D01*
X199888Y302000D02*
X232134D01*
X199888Y304000D02*
X234283D01*
X238000Y270187D02*
Y286134D01*
X240000Y272187D02*
Y288283D01*
X232000Y291717D02*
Y293600D01*
Y297400D02*
Y298284D01*
Y301716D02*
Y308283D01*
X200000Y303000D02*
Y325000D01*
X234000Y303866D02*
Y306134D01*
X236000Y304353D02*
Y305647D01*
X238000Y304885D02*
Y306134D01*
X237717Y306000D02*
X239313D01*
X238848Y305535D02*
X239654Y306341D01*
X188854Y306000D02*
X192146D01*
X198854D02*
X234283D01*
X194000Y307243D02*
Y320757D01*
X196000Y307472D02*
Y320528D01*
X198000Y306742D02*
Y321258D01*
X232000Y311717D02*
Y318284D01*
X236000Y314353D02*
Y315647D01*
X234000Y313866D02*
Y316134D01*
X238000Y314885D02*
Y316134D01*
X189887Y324000D02*
X191112D01*
X198854Y322000D02*
X232134D01*
X188854D02*
X192146D01*
X189887Y326000D02*
X191112D01*
X198854Y328000D02*
X232134D01*
X188854D02*
X192146D01*
X232000Y321716D02*
Y328284D01*
X199888Y324000D02*
X234283D01*
X234000Y323866D02*
Y326134D01*
X199888Y326000D02*
X234283D01*
X236000Y324353D02*
Y325647D01*
X238000Y324885D02*
Y326134D01*
X238848Y315535D02*
X239154Y315841D01*
X237717Y316000D02*
X239334D01*
X240000Y306615D02*
Y308283D01*
X238848Y325535D02*
X239154Y325841D01*
X237717Y326000D02*
X239334D01*
X240000Y316333D02*
Y318284D01*
X170500Y332000D02*
X182600D01*
X170500Y330000D02*
X182600D01*
X170500Y342000D02*
X182600D01*
X170500Y334000D02*
X182600D01*
X170500Y336000D02*
X182600D01*
X170500Y340000D02*
X182600D01*
X170500Y338000D02*
X182600D01*
X170500Y344000D02*
X182146D01*
X170500Y346000D02*
X181113D01*
X170500Y348000D02*
X181113D01*
X182000Y349828D02*
Y366172D01*
Y327828D02*
Y344172D01*
X188400Y328863D02*
Y343137D01*
X182600Y328863D02*
Y343137D01*
X188400Y330000D02*
X231647D01*
X188400Y332000D02*
X232134D01*
X188400Y334000D02*
X234283D01*
X188400Y336000D02*
X234283D01*
X188400Y338000D02*
X232134D01*
X188400Y340000D02*
X231647D01*
X188400Y342000D02*
X232134D01*
X188854Y344000D02*
X192146D01*
X189887Y346000D02*
X191112D01*
X190000Y325000D02*
Y347000D01*
X192000Y327828D02*
Y344172D01*
X190000Y347000D02*
Y369000D01*
X189887Y348000D02*
X191112D01*
X192000Y349828D02*
Y366172D01*
X170500Y350000D02*
X182146D01*
X170500Y352000D02*
X182600D01*
X170500Y362000D02*
X182600D01*
X170500Y354000D02*
X182600D01*
X170500Y356000D02*
X182600D01*
X170500Y364000D02*
X182600D01*
X170500Y358000D02*
X182600D01*
X170500Y360000D02*
X182600D01*
X170500Y368000D02*
X181113D01*
X170500Y366000D02*
X182146D01*
X170500Y370000D02*
X181113D01*
X170500Y372000D02*
X182146D01*
X182000Y371828D02*
Y384000D01*
X182600Y350863D02*
Y365137D01*
X184000Y373243D02*
Y384000D01*
X188000Y372742D02*
Y384000D01*
X186000Y373472D02*
Y384000D01*
X188400Y358000D02*
X231647D01*
X188400Y356000D02*
X231647D01*
X188400Y364000D02*
X231647D01*
X188400Y360000D02*
X231647D01*
X188400Y362000D02*
X231647D01*
X188854Y350000D02*
X192146D01*
X188400Y352000D02*
X232134D01*
X188400Y354000D02*
X234283D01*
X188400Y350863D02*
Y365137D01*
X189887Y368000D02*
X191112D01*
X188854Y366000D02*
X192146D01*
X190000Y369000D02*
Y384000D01*
X189887Y370000D02*
X191112D01*
X188854Y372000D02*
X192146D01*
X200000Y325000D02*
Y347000D01*
X202000Y297400D02*
Y384000D01*
X194000Y329243D02*
Y342757D01*
X196000Y329472D02*
Y342528D01*
X198000Y328742D02*
Y343258D01*
X206000Y297400D02*
Y384000D01*
X210000Y297400D02*
Y384000D01*
X208000Y297400D02*
Y384000D01*
X232000Y331716D02*
Y338283D01*
X234000Y343866D02*
Y346134D01*
X232000Y341717D02*
Y348284D01*
X216000Y297400D02*
Y384000D01*
X218000Y297400D02*
Y384000D01*
X204000Y297400D02*
Y384000D01*
X214000Y297400D02*
Y384000D01*
X212000Y297400D02*
Y384000D01*
X226000Y297400D02*
Y384000D01*
X230000Y297400D02*
Y384000D01*
X228000Y297400D02*
Y384000D01*
X220000Y297400D02*
Y384000D01*
X224000Y297400D02*
Y384000D01*
X222000Y297400D02*
Y384000D01*
X234000Y333866D02*
Y336134D01*
X236000Y334353D02*
Y335647D01*
X240000Y326333D02*
Y328284D01*
X237717Y336000D02*
X239313D01*
X238000Y334885D02*
Y336134D01*
X238848Y335535D02*
X239654Y336341D01*
X198854Y344000D02*
X234283D01*
X236000Y344353D02*
Y345647D01*
X240000Y336615D02*
Y338283D01*
X199888Y348000D02*
X232134D01*
X199888Y346000D02*
X234283D01*
X196000Y351472D02*
Y364528D01*
X198854Y350000D02*
X231647D01*
Y355647D02*
Y364353D01*
X232000Y351716D02*
Y355647D01*
X238000Y344885D02*
Y346134D01*
X234000Y353866D02*
Y355647D01*
X236000Y354353D02*
Y355647D01*
X238000Y354885D02*
Y355647D01*
X231647Y364353D02*
X236009D01*
X192000Y371828D02*
Y384000D01*
X194000Y351243D02*
Y364757D01*
X198000Y350742D02*
Y365258D01*
X194000Y373243D02*
Y384000D01*
X198000Y372742D02*
Y384000D01*
X196000Y373472D02*
Y384000D01*
X200000Y347000D02*
Y369000D01*
X234000Y364353D02*
Y384000D01*
X232000Y364353D02*
Y384000D01*
X200000Y369000D02*
Y384000D01*
X238000Y364885D02*
Y384000D01*
X236000Y364353D02*
Y384000D01*
X237717Y346000D02*
X239313D01*
X238848Y345535D02*
X239654Y346341D01*
X240000Y346616D02*
Y348284D01*
X231647Y355647D02*
X238960D01*
X198854Y366000D02*
X239313D01*
X238848Y365535D02*
X239654Y366341D01*
X240000Y366616D02*
Y384000D01*
X188400Y274000D02*
X241813D01*
X188400Y276000D02*
X243813D01*
X198854Y278000D02*
X245813D01*
X199888Y280000D02*
X247600D01*
X198854Y284000D02*
X251813D01*
X199888Y282000D02*
X248400D01*
X242000Y274187D02*
Y288894D01*
X244000Y276187D02*
Y286364D01*
X237717Y286000D02*
X244894D01*
X246000Y278187D02*
Y285850D01*
X248000Y281470D02*
Y286364D01*
X250000Y282857D02*
Y287649D01*
X250868Y283055D02*
X255496Y287683D01*
X252000Y284187D02*
Y288344D01*
X247106Y286000D02*
X253813D01*
X254000Y286187D02*
Y288380D01*
X270503Y271029D02*
X272200Y272726D01*
X271475Y272000D02*
X281238D01*
X272210Y272736D02*
X273915Y274441D01*
X273475Y274000D02*
X307593D01*
X274082Y274608D02*
X279609D01*
Y276576D01*
Y276000D02*
X308600D01*
X279609Y276576D02*
Y278392D01*
Y276576D02*
Y278392D01*
Y278000D02*
X308600D01*
X279609Y280000D02*
X308600D01*
X279609Y284450D02*
Y286266D01*
Y282482D02*
Y284298D01*
Y282482D02*
Y284298D01*
Y284450D02*
Y286266D01*
Y286000D02*
X308600D01*
X279609Y286266D02*
Y288235D01*
Y280513D02*
Y282329D01*
Y278545D02*
Y280361D01*
Y278545D02*
Y280361D01*
Y280513D02*
Y282329D01*
Y282000D02*
X308600D01*
X279609Y284000D02*
X308600D01*
X242000Y291106D02*
Y292100D01*
X239866Y288000D02*
X242364D01*
X240831Y292000D02*
X242364D01*
X250690Y288000D02*
X255914D01*
X256000Y288046D02*
Y288380D01*
X239866Y308000D02*
X242134D01*
X240894Y292100D02*
X242421D01*
X241000Y306900D02*
X242944D01*
X240885Y312000D02*
X242134D01*
X240500Y316400D02*
X243553D01*
X239866Y318000D02*
X242134D01*
X242000Y306900D02*
Y308283D01*
Y311717D02*
Y312600D01*
X241306D02*
X242509D01*
X250000Y316400D02*
Y317611D01*
X252596Y288380D02*
X273288D01*
X256842Y288243D02*
X273288D01*
X272210Y309792D02*
X273915Y308087D01*
X273460Y288387D02*
X279609D01*
X272002Y310000D02*
X281238D01*
X279609Y288387D02*
Y290356D01*
Y288000D02*
X308600D01*
X273460Y288235D02*
X279609D01*
X274082Y307920D02*
X279609D01*
Y290000D02*
X308600D01*
X279609Y292000D02*
X280688D01*
X266161Y315841D02*
X267079Y314923D01*
X248447Y316400D02*
X264815D01*
X265981Y316000D02*
X279813D01*
X251030Y318000D02*
X277813D01*
X268796Y313206D02*
X270495Y311507D01*
X270503Y311498D02*
X272200Y309802D01*
X278000Y307920D02*
Y317813D01*
X267092Y314910D02*
X268796Y313206D01*
X270002Y312000D02*
X281238D01*
X268002Y314000D02*
X281238D01*
X284000Y272979D02*
Y290643D01*
X285175Y272979D02*
X286991D01*
X281238D02*
X283206D01*
X285022D01*
X283206D02*
X285022D01*
X289112D02*
X290928D01*
X291080D02*
X292896D01*
X289112D02*
X290928D01*
X285175D02*
X286991D01*
X287143D02*
X288959D01*
X287143D02*
X288959D01*
X279609Y290356D02*
Y292172D01*
X282000Y272979D02*
Y291018D01*
X279609Y290356D02*
Y292172D01*
X286000Y272979D02*
Y291818D01*
X290000Y272979D02*
Y292317D01*
X288000Y272979D02*
Y292317D01*
X292000Y272979D02*
Y292317D01*
Y300054D02*
Y309549D01*
X295017Y272979D02*
X296833D01*
X295017D02*
X296833D01*
X291080D02*
X292896D01*
X293049D02*
X294865D01*
X293049D02*
X294865D01*
X298954D02*
X300770D01*
X304860D02*
X306676D01*
X302891D02*
X304860D01*
X296986D02*
X298802D01*
X298954D02*
X300770D01*
X296986D02*
X298802D01*
X294000D02*
Y292317D01*
X286312Y292000D02*
X307529D01*
X296000Y272979D02*
Y292317D01*
X294000Y300054D02*
Y309549D01*
X287644Y292317D02*
X307213D01*
X296000Y300054D02*
Y309549D01*
X302000Y272979D02*
Y292317D01*
X304860Y272979D02*
X306676D01*
X304000D02*
Y292317D01*
X298000Y272979D02*
Y292317D01*
X300770Y272979D02*
X302739D01*
X300000D02*
Y292317D01*
X279609Y300198D02*
Y302014D01*
Y300198D02*
Y302014D01*
Y304135D02*
Y305951D01*
Y302167D02*
Y303983D01*
Y302167D02*
Y303983D01*
Y304135D02*
Y305951D01*
X284000Y300054D02*
Y309549D01*
X282000Y300054D02*
Y309549D01*
X279609Y305951D02*
Y307920D01*
X283206Y309549D02*
X285022D01*
X281238D02*
X283206D01*
X280000Y300054D02*
Y315813D01*
X286000Y300054D02*
Y309549D01*
X281238D02*
Y314575D01*
X283206Y309549D02*
X285022D01*
X285175D02*
X286991D01*
X285175D02*
X286991D01*
X288000Y300054D02*
Y309549D01*
X290000Y300054D02*
Y309549D01*
X287143D02*
X288959D01*
X287143D02*
X288959D01*
X289112D02*
X290928D01*
X289112D02*
X290928D01*
X279609Y300054D02*
X304867D01*
X279609Y302000D02*
X306813D01*
X291080Y309549D02*
X292896D01*
X279609Y306000D02*
X310813D01*
X291080Y309549D02*
X292896D01*
X298000Y300054D02*
Y309549D01*
X300000Y300054D02*
Y309549D01*
X296833D02*
X298802D01*
X293049D02*
X294865D01*
X295017D02*
X296833D01*
X295017D02*
X296833D01*
X298954D02*
Y315697D01*
X300923Y309549D02*
X302739D01*
X300923D02*
X302739D01*
X293049D02*
X294865D01*
X298954D02*
X300923D01*
X298802D02*
Y315697D01*
X302000Y300054D02*
Y309549D01*
X304867Y300054D02*
X314362Y309549D01*
X304000Y300054D02*
Y309549D01*
X302739D02*
X304707D01*
X304860D02*
X306828D01*
X304707D02*
Y315697D01*
X240885Y322000D02*
X242134D01*
X241306Y322600D02*
X242509D01*
X239866Y338000D02*
X242134D01*
X239866Y328000D02*
X242134D01*
X240885Y332000D02*
X242134D01*
X242000Y326400D02*
Y328284D01*
Y316400D02*
Y318284D01*
Y321716D02*
Y322600D01*
X241535Y332848D02*
X241787Y333100D01*
X242944D01*
X242000Y331716D02*
Y333100D01*
X241535Y342848D02*
X241787Y343100D01*
X240885Y342000D02*
X242134D01*
X240885Y352000D02*
X242134D01*
X241000Y346900D02*
X242944D01*
X239866Y348000D02*
X242134D01*
X242000Y346900D02*
Y348284D01*
Y336900D02*
Y338283D01*
Y341717D02*
Y343100D01*
X241535Y352848D02*
X241787Y353100D01*
X242944D01*
X242000Y351716D02*
Y353100D01*
X252000Y316400D02*
Y318100D01*
X251922D02*
X277713D01*
X260000Y316400D02*
Y318100D01*
X272000Y310002D02*
Y318100D01*
X270000Y312002D02*
Y318100D01*
X254000Y316400D02*
Y318100D01*
X258000Y316400D02*
Y318100D01*
X256000Y316400D02*
Y318100D01*
X240500Y326400D02*
X243553D01*
X241000Y336900D02*
X242944D01*
X262000Y316400D02*
Y318100D01*
X268000Y314002D02*
Y318100D01*
X266000Y315985D02*
Y318100D01*
X241787Y343100D02*
X242944D01*
X264000Y316400D02*
Y318100D01*
X249056Y356900D02*
X283500D01*
X250000D02*
Y357611D01*
X252000Y356900D02*
Y358100D01*
X260000Y356900D02*
Y358100D01*
X264000Y356900D02*
Y358100D01*
X262000Y356900D02*
Y358100D01*
X254000Y356900D02*
Y358100D01*
X258000Y356900D02*
Y358100D01*
X256000Y356900D02*
Y358100D01*
X248000Y366900D02*
Y384000D01*
X252000Y366900D02*
Y384000D01*
X250000Y366900D02*
Y384000D01*
X242000Y366900D02*
Y384000D01*
X246000Y366900D02*
Y384000D01*
X244000Y366900D02*
Y384000D01*
X260000Y366900D02*
Y384000D01*
X264000Y366900D02*
Y384000D01*
X262000Y366900D02*
Y384000D01*
X254000Y366900D02*
Y384000D01*
X258000Y366900D02*
Y384000D01*
X256000Y366900D02*
Y384000D01*
X251030Y358000D02*
X283813D01*
X241000Y366900D02*
X284500D01*
X199888Y368000D02*
X296397D01*
X199888Y370000D02*
X298399D01*
X198854Y372000D02*
X474000D01*
X270000Y356900D02*
Y358100D01*
X274000Y356900D02*
Y358100D01*
X272000Y356900D02*
Y358100D01*
X266000Y356900D02*
Y358100D01*
X251922D02*
X283713D01*
X268000Y356900D02*
Y358100D01*
X170500Y378000D02*
X474000D01*
X170500Y374000D02*
X474000D01*
X170500Y376000D02*
X474000D01*
X170500Y384000D02*
X474000D01*
X170500Y380000D02*
X474000D01*
X170500Y382000D02*
X474000D01*
X272000Y366900D02*
Y384000D01*
X276000Y366900D02*
Y384000D01*
X274000Y366900D02*
Y384000D01*
X266000Y366900D02*
Y384000D01*
X270000Y366900D02*
Y384000D01*
X268000Y366900D02*
Y384000D01*
X276000Y307920D02*
Y318100D01*
X277713D02*
X281238Y314575D01*
X294000Y347187D02*
Y347813D01*
X296000Y345187D02*
Y345813D01*
X295187Y346000D02*
X295813D01*
X298810Y315870D02*
Y341590D01*
X298946Y315870D02*
Y342866D01*
X297187Y344000D02*
X297813D01*
X298000Y343187D02*
Y343813D01*
X284846Y356341D02*
X298250Y342937D01*
X283713Y358100D02*
X298946Y342866D01*
X287187Y354000D02*
X287813D01*
X289187Y352000D02*
X289813D01*
X288000Y353187D02*
Y353813D01*
X291187Y350000D02*
X291813D01*
X293187Y348000D02*
X293813D01*
X292000Y349187D02*
Y349813D01*
X290000Y351187D02*
Y351813D01*
X302000Y350187D02*
Y359775D01*
X300000Y352187D02*
Y361828D01*
X304715Y334000D02*
X307900D01*
X304715Y332000D02*
X308100D01*
X304715Y336000D02*
X307100D01*
X304715Y338000D02*
X307900D01*
X304715Y340000D02*
X345321D01*
X304860Y309549D02*
Y322191D01*
X306821D01*
X304715Y324000D02*
X306821D01*
X304715Y326000D02*
X306821D01*
X304715Y328000D02*
X306821D01*
X304715Y330000D02*
X306988D01*
X304000Y348187D02*
Y358550D01*
X293264Y358923D02*
X304156Y348031D01*
X302187Y350000D02*
X346499D01*
X300187Y352000D02*
X354899D01*
X298187Y354000D02*
X352899D01*
X304715Y315870D02*
Y346685D01*
Y342000D02*
X344663D01*
X304715Y344000D02*
X345321D01*
X304715Y346000D02*
X344815D01*
X304186Y348000D02*
X344815D01*
X282000Y356900D02*
Y358100D01*
X276000Y356900D02*
Y358100D01*
X280000Y356900D02*
Y358100D01*
X278000Y356900D02*
Y358100D01*
X286000Y355187D02*
Y355813D01*
X285187Y356000D02*
X285813D01*
X284000Y356833D02*
Y357813D01*
X290187Y362000D02*
X290959D01*
X288187Y364000D02*
X290959D01*
X284000Y366900D02*
Y384000D01*
X278000Y366900D02*
Y384000D01*
X282000Y366900D02*
Y384000D01*
X280000Y366900D02*
Y384000D01*
X288000Y364187D02*
Y384000D01*
X285846Y366341D02*
X291423Y360764D01*
X290000Y362187D02*
Y384000D01*
X286000Y366187D02*
Y384000D01*
X286187Y366000D02*
X291947D01*
X292000Y366061D02*
Y384000D01*
X296000Y356187D02*
Y358377D01*
X296187Y356000D02*
X350899D01*
X294000Y358187D02*
Y358599D01*
X294187Y358000D02*
X331383D01*
X298000Y354187D02*
Y359079D01*
X299053Y360000D02*
X301797D01*
X300041Y362000D02*
X300809D01*
X300542Y363941D02*
X300879Y364278D01*
X294000Y367401D02*
Y384000D01*
X296000Y367748D02*
Y384000D01*
X296441Y368042D02*
X299449Y371051D01*
X298000Y369601D02*
Y384000D01*
X300000Y371482D02*
Y384000D01*
X302000Y371900D02*
Y384000D01*
X301500Y371900D02*
X324484D01*
X304000D02*
Y384000D01*
X306000Y157500D02*
Y160372D01*
X308000Y157500D02*
Y158984D01*
X310000Y157500D02*
Y158600D01*
X312000Y157500D02*
Y158984D01*
X313628Y168000D02*
X333104D01*
X314000Y157500D02*
Y160372D01*
X334000Y157500D02*
Y165041D01*
X333104D02*
Y172959D01*
X315016Y166000D02*
X333104D01*
Y172959D02*
X334761D01*
Y174161D01*
X306000Y167628D02*
Y185972D01*
X314000Y167628D02*
Y185972D01*
X308000Y169016D02*
Y184584D01*
X310000Y169400D02*
Y184200D01*
X312000Y169016D02*
Y184584D01*
X330000Y157500D02*
Y178399D01*
X334000Y172959D02*
Y176100D01*
X332000Y157500D02*
Y176518D01*
X335464Y175858D02*
X335706Y176100D01*
X336000Y157500D02*
Y165041D01*
X338000Y157500D02*
Y165041D01*
X340000Y157500D02*
Y165041D01*
X333104D02*
X341219D01*
X339561Y172959D02*
X341219D01*
Y165041D02*
Y172959D01*
Y166000D02*
X360781D01*
X341219Y168000D02*
X360781D01*
X340000Y172959D02*
Y173606D01*
X341219Y170000D02*
X360781D01*
X341219Y172000D02*
X360781D01*
X339561Y173167D02*
X340356Y173962D01*
X342000Y157500D02*
Y175606D01*
X344000Y157500D02*
Y176100D01*
X340356Y173962D02*
X342494Y176100D01*
X340394Y174000D02*
X362439D01*
X342394Y176000D02*
X362439D01*
X352000Y157500D02*
Y176600D01*
X356000Y157500D02*
Y176600D01*
X354000Y157500D02*
Y176600D01*
X346000Y157500D02*
Y176100D01*
X348000Y157500D02*
Y176100D01*
X350000Y157500D02*
Y176600D01*
X329949Y178449D02*
X331449Y176949D01*
X333500Y176100D02*
X335621D01*
X340000Y181900D02*
Y186600D01*
X344000Y181900D02*
Y186600D01*
X342000Y181900D02*
Y186600D01*
X315385Y190000D02*
X336818D01*
X315158Y188000D02*
X336818D01*
X313130Y194000D02*
X336600D01*
X314837Y192000D02*
X337673D01*
X338000Y181900D02*
Y186818D01*
X346000Y181900D02*
Y186600D01*
X338000Y191182D02*
Y191818D01*
Y196182D02*
Y196818D01*
Y201182D02*
Y201818D01*
X342494Y176100D02*
X348000D01*
X335621Y181900D02*
X348000D01*
X334962Y182000D02*
X362965D01*
X314025Y186000D02*
X367012D01*
X349628Y176600D02*
X357000D01*
X352000Y181400D02*
Y186600D01*
X349628Y181400D02*
X357000D01*
X356000D02*
Y186600D01*
X339000Y191600D02*
X357000D01*
X339000Y186600D02*
X357000D01*
X339000Y191400D02*
X357000D01*
X339000Y201600D02*
X357000D01*
X339000Y196400D02*
X357000D01*
X339000Y201400D02*
X357000D01*
X348000Y181900D02*
Y186600D01*
X354000Y181400D02*
Y186600D01*
X350000Y181400D02*
Y186600D01*
X339000Y196600D02*
X357000D01*
X358000Y157500D02*
Y176818D01*
X362000Y157500D02*
Y165041D01*
X360781D02*
Y172959D01*
X362439D01*
X359182Y178000D02*
X362439D01*
X364000Y157500D02*
Y165041D01*
X368000Y157500D02*
Y165041D01*
X366000Y157500D02*
Y165041D01*
X367239Y172959D02*
Y179506D01*
X368000Y172959D02*
Y176600D01*
X367239Y178000D02*
X367600D01*
X362439Y172959D02*
Y180500D01*
X358000Y181182D02*
Y186818D01*
X359182Y180000D02*
X362439D01*
X367600Y176600D02*
Y179867D01*
X367239Y179506D02*
X367600Y179867D01*
X363141Y182197D02*
X366641Y185697D01*
X368000Y186376D02*
Y187673D01*
X360781Y165041D02*
X368896D01*
X370000Y157500D02*
Y176600D01*
X368896Y165041D02*
Y172959D01*
X367239D02*
X368896D01*
X367600Y176600D02*
X379000D01*
X378000Y157500D02*
Y176600D01*
X388000Y157500D02*
Y176600D01*
X386000Y157500D02*
Y176600D01*
X372000Y157500D02*
Y176600D01*
X376000Y157500D02*
Y176600D01*
X374000Y157500D02*
Y176600D01*
X369223Y181400D02*
X379000D01*
X370000Y181600D02*
X379000D01*
X370000D02*
X379000D01*
X380000Y157500D02*
Y176600D01*
X384000Y157500D02*
Y176600D01*
X382000Y157500D02*
Y176600D01*
X379000Y181600D02*
X388000D01*
X390000Y157500D02*
Y176600D01*
Y181400D02*
Y182673D01*
X359182Y188000D02*
X367818D01*
X358000Y191182D02*
Y191818D01*
X358327Y192000D02*
X368673D01*
X370145Y186400D02*
X379000D01*
X359182Y190000D02*
X367818D01*
X368339Y186400D02*
X369024D01*
X358000Y196182D02*
Y196818D01*
X358327Y196000D02*
X368673D01*
X358000Y201182D02*
Y201818D01*
X359182Y200000D02*
X367818D01*
X359400Y194000D02*
X367600D01*
X368000Y190327D02*
Y192673D01*
X359182Y198000D02*
X367818D01*
X368000Y195327D02*
Y197673D01*
X370145Y186400D02*
X379000D01*
X388000D01*
X370000Y191600D02*
X379000D01*
X370000Y186600D02*
X379000D01*
X370000Y191400D02*
X379000D01*
X388000D01*
X379000Y186600D02*
X388000D01*
X379000D02*
X388000D01*
X379000Y191600D02*
X388000D01*
X379000Y191400D02*
X388000D01*
X379000Y191600D02*
X388000D01*
X370000Y196400D02*
X379000D01*
X388000D01*
X370000Y196600D02*
X379000D01*
X370000Y201600D02*
X379000D01*
Y196600D02*
X388000D01*
X370000Y201400D02*
X379000D01*
X388000D01*
X379000Y196400D02*
X388000D01*
X379000Y196600D02*
X388000D01*
X379000Y201600D02*
X388000D01*
X379000Y201400D02*
X388000D01*
X379000Y201600D02*
X388000D01*
X306000Y193228D02*
Y202127D01*
X308000Y194616D02*
Y204106D01*
X310000Y195000D02*
Y206106D01*
X306197Y202303D02*
X310494Y206600D01*
X318000Y157500D02*
Y206600D01*
X322000Y157500D02*
Y206600D01*
X320000Y157500D02*
Y206600D01*
X312000Y194616D02*
Y206600D01*
X316000Y157500D02*
Y206600D01*
X314000Y193228D02*
Y206600D01*
X306000Y208894D02*
Y211600D01*
Y216400D02*
Y248813D01*
X308000Y210874D02*
Y211600D01*
Y216400D02*
Y246813D01*
X316000Y216400D02*
Y242225D01*
X318000Y216400D02*
Y241169D01*
X320000Y216400D02*
Y241484D01*
X310000Y216400D02*
Y244813D01*
X314000Y216400D02*
Y242600D01*
X312000Y216400D02*
Y242884D01*
X324000Y157500D02*
Y206600D01*
X326000Y157500D02*
Y206600D01*
X307894Y204000D02*
X336600D01*
X309894Y206000D02*
X337673D01*
X310494Y206600D02*
X339000D01*
X332000Y183400D02*
Y206600D01*
X336000Y181900D02*
Y206600D01*
X334000Y182600D02*
Y206600D01*
X338000Y206182D02*
Y206600D01*
X339000Y206400D02*
X357000D01*
X328000Y157500D02*
Y206600D01*
X339000D02*
X348000D01*
X330000Y182600D02*
Y206600D01*
X309500Y211400D02*
X339000D01*
Y206600D02*
X348000D01*
X339000Y211400D02*
X348000D01*
X339000Y211600D02*
X348000D01*
Y206600D02*
X357000D01*
X339000Y211400D02*
X348000D01*
X342000Y216400D02*
Y269600D01*
X348000Y211600D02*
X357000D01*
X339000D02*
X348000D01*
X313000Y242600D02*
X314955D01*
X313787Y246400D02*
X314955D01*
X308652Y251535D02*
X313787Y246400D01*
X314000D02*
Y260336D01*
X316000Y246775D02*
Y270667D01*
X308652Y251535D02*
Y260336D01*
X312000Y248187D02*
Y260336D01*
X310000Y250187D02*
Y260336D01*
X322000Y216400D02*
Y270600D01*
X326000Y216400D02*
Y270600D01*
X324000Y216400D02*
Y270600D01*
X318000Y247831D02*
Y270600D01*
X320000Y247516D02*
Y270600D01*
X339000Y216400D02*
X348000D01*
X339000D02*
X348000D01*
X320758Y242000D02*
X345176D01*
X321831Y244000D02*
X345414D01*
X321516Y246000D02*
X346912D01*
X346000Y216400D02*
Y229912D01*
X348000Y216400D02*
X357000D01*
X346000Y235088D02*
Y239912D01*
X348000Y236586D02*
Y238414D01*
X332000Y216400D02*
Y269600D01*
X336000Y216400D02*
Y269600D01*
X334000Y216400D02*
Y269600D01*
X328000Y216400D02*
Y269643D01*
X310187Y250000D02*
X345937D01*
X330000Y216400D02*
Y269600D01*
X338000Y216400D02*
Y269600D01*
X344000Y216400D02*
Y269600D01*
X340000Y216400D02*
Y269600D01*
X346000Y245088D02*
Y249912D01*
X348000Y246586D02*
Y248414D01*
X358000Y206182D02*
Y206818D01*
X359182Y208000D02*
X363818D01*
X364000Y183055D02*
Y207673D01*
X368000Y200327D02*
Y202673D01*
X366000Y185055D02*
Y206600D01*
X359400Y204000D02*
X367600D01*
X358000Y211182D02*
Y211818D01*
X348000Y211400D02*
X357000D01*
X360000Y157500D02*
Y269600D01*
X363600Y209000D02*
Y217500D01*
X362000Y172959D02*
Y269600D01*
X359400Y214000D02*
X363600D01*
X359182Y210000D02*
X363600D01*
X358327Y212000D02*
X363600D01*
X358327Y202000D02*
X368673D01*
X368000Y205327D02*
Y206600D01*
X358327Y206000D02*
X368673D01*
X366000Y206600D02*
X370000D01*
Y206400D02*
X379000D01*
X388000D01*
X379000D02*
X388000D01*
X370000Y206600D02*
X379000D01*
X388000D01*
X370000D02*
X379000D01*
X368400Y211400D02*
Y212211D01*
X370000Y211400D02*
X379000D01*
X368400D02*
X370000D01*
X368400Y215789D02*
Y216506D01*
X370000Y211400D02*
X379000D01*
X388000D01*
X390000Y206400D02*
Y207673D01*
Y210327D02*
Y211600D01*
X370000D02*
X379000D01*
X388000D01*
X379000D02*
X388000D01*
X350000Y216400D02*
Y228176D01*
X358327Y216000D02*
X363600D01*
X348000Y216400D02*
Y228414D01*
X370000Y216400D02*
Y218106D01*
X368400Y216506D02*
X370494Y218600D01*
X364303Y219197D02*
X367803Y222697D01*
X352000Y216400D02*
Y228937D01*
Y236063D02*
Y238937D01*
X354000Y216400D02*
Y269600D01*
X350000Y236824D02*
Y238176D01*
Y246824D02*
Y248176D01*
X352000Y246063D02*
Y248937D01*
X356000Y216400D02*
Y269600D01*
X364000Y218827D02*
Y269600D01*
X358000Y216182D02*
Y269600D01*
X366000Y220894D02*
Y269600D01*
X370000Y223400D02*
Y269600D01*
X368000Y222873D02*
Y269600D01*
X376000Y216400D02*
Y218600D01*
X378000Y216400D02*
Y218600D01*
X372000Y216400D02*
Y218600D01*
X370000Y216400D02*
X379000D01*
X374000D02*
Y218600D01*
X382000Y216400D02*
Y218600D01*
X386000Y216400D02*
Y218600D01*
X384000Y216400D02*
Y218600D01*
X380000Y216400D02*
Y218600D01*
X379000Y216400D02*
X388000D01*
X379000D02*
X388000D01*
X378000Y223400D02*
Y269711D01*
X380000Y223400D02*
Y271194D01*
X382000Y223400D02*
Y273194D01*
X372000Y223400D02*
Y269600D01*
X376000Y223400D02*
Y269600D01*
X374000Y223400D02*
Y269600D01*
X384000Y223400D02*
Y274663D01*
X390000Y216400D02*
Y218600D01*
X388000Y216400D02*
Y218600D01*
X386000Y223400D02*
Y274663D01*
X390000Y223400D02*
Y274663D01*
X388000Y223400D02*
Y274663D01*
X367239Y174000D02*
X393606D01*
X368896Y172000D02*
X395606D01*
X379000Y181400D02*
X390400D01*
X367239Y176000D02*
X391606D01*
X379000Y176600D02*
X390400D01*
X392000Y157500D02*
Y175606D01*
X396000Y157500D02*
Y171606D01*
X394000Y157500D02*
Y173606D01*
X379000Y176600D02*
X390400D01*
X391006D01*
X379000Y181400D02*
X390400D01*
X390000Y185327D02*
Y186600D01*
X389327Y186000D02*
X392106D01*
X396000Y178394D02*
Y182106D01*
X394000Y180394D02*
Y184106D01*
X390400Y181400D02*
X392000D01*
X390400Y184000D02*
X394106D01*
X392000Y181400D02*
Y186106D01*
X315016Y162000D02*
X474000D01*
X313628Y160000D02*
X474000D01*
X368896Y170000D02*
X397606D01*
X315400Y164000D02*
X474000D01*
X368896Y166000D02*
X405041D01*
X398000Y157500D02*
Y169606D01*
X400000Y157500D02*
Y167606D01*
X368896Y168000D02*
X399606D01*
X400394Y174000D02*
X405041D01*
X391006Y176600D02*
X400141Y167464D01*
X393697Y180697D02*
X402833Y171561D01*
X391506Y186600D02*
X402964Y175142D01*
X389327Y182000D02*
X396106D01*
X394394Y180000D02*
X398106D01*
X394197Y190697D02*
X405041Y179853D01*
X398000Y176394D02*
Y180106D01*
X398394Y176000D02*
X402106D01*
X400000Y174394D02*
Y178106D01*
Y184894D02*
Y186785D01*
X396394Y178000D02*
X400106D01*
X398894Y186000D02*
X405041D01*
X388000Y186600D02*
X391506D01*
X388000Y191400D02*
X392500D01*
X388000Y191600D02*
X394506D01*
X396000Y188894D02*
Y190106D01*
X396894Y188000D02*
X398106D01*
X398000Y186894D02*
Y188106D01*
X394000Y190874D02*
Y191600D01*
X394894Y190000D02*
X396106D01*
X396827Y196000D02*
X398106D01*
X388000Y196400D02*
X395500D01*
X388000Y196600D02*
X397506D01*
X388000Y201600D02*
X395500D01*
X388000Y206400D02*
X394506D01*
X396103Y207997D01*
X390182Y208000D02*
X396104D01*
X398000Y194894D02*
Y196106D01*
Y201400D02*
Y203106D01*
X394506Y191600D02*
X398641Y187464D01*
X398894Y194000D02*
X405041D01*
X397197Y195697D02*
X401333Y191561D01*
X400000Y192894D02*
Y194532D01*
X400339Y186761D02*
X405041D01*
X400894Y192000D02*
X405041D01*
X400661Y194439D02*
X405041D01*
X388000Y201400D02*
X398500D01*
X397506Y196600D02*
X398964Y195141D01*
X396827Y202000D02*
X437476D01*
X397197Y202303D02*
X398141Y203247D01*
X400197Y200697D02*
X401655Y199239D01*
X400000Y200873D02*
Y204040D01*
X399592Y204000D02*
X427435D01*
X400063Y204041D02*
X404219D01*
X402000Y157500D02*
Y166761D01*
X404000Y157500D02*
Y166761D01*
X402394Y172000D02*
X405041D01*
X401839Y166761D02*
X405041D01*
X402833Y171561D02*
X405041D01*
X406000Y157500D02*
Y165104D01*
X410000Y157500D02*
Y165104D01*
X408000Y157500D02*
Y165104D01*
X405041Y172781D02*
Y173219D01*
Y165104D02*
Y166761D01*
Y171561D02*
Y172781D01*
X402000Y172394D02*
Y176106D01*
X404000Y171561D02*
Y174531D01*
Y180894D02*
Y186761D01*
X404661Y174439D02*
X405041D01*
Y172781D02*
Y173219D01*
Y174439D01*
Y179853D02*
Y180896D01*
X410000D02*
Y185104D01*
X408000Y180896D02*
Y185104D01*
X412000Y157500D02*
Y165104D01*
X405041D02*
X412959D01*
Y170000D02*
X474000D01*
X412959Y166000D02*
X474000D01*
X412959Y168000D02*
X474000D01*
X412959Y165104D02*
Y172781D01*
Y172000D02*
X474000D01*
X412959Y172781D02*
Y173219D01*
Y172781D02*
Y173219D01*
Y174000D02*
X474000D01*
X412959Y176000D02*
X474000D01*
X428000Y157500D02*
Y203448D01*
X432000Y157500D02*
Y202473D01*
X430000Y157500D02*
Y202476D01*
X412959Y173219D02*
Y180896D01*
Y178000D02*
X474000D01*
X412959Y180000D02*
X474000D01*
X442000Y157500D02*
Y196919D01*
X444000Y157500D02*
Y197276D01*
X446000Y157500D02*
Y198846D01*
X434000Y157500D02*
Y203435D01*
X440000Y157500D02*
Y197452D01*
X438000Y157500D02*
Y199452D01*
X402000Y182894D02*
Y186761D01*
X405041Y180896D02*
X412959D01*
X401333Y191561D02*
X405041D01*
Y185104D02*
X412959D01*
X405041D02*
Y186761D01*
X406000Y180896D02*
Y185104D01*
X412000Y180896D02*
Y185104D01*
X412959D02*
Y192781D01*
X405041D02*
Y193219D01*
Y191561D02*
Y192781D01*
Y193219D01*
X402000Y191561D02*
Y194439D01*
X404000Y191561D02*
Y194439D01*
X401655Y199239D02*
X405041D01*
X402000D02*
Y204041D01*
X400894Y200000D02*
X405041D01*
X404000Y199239D02*
Y204041D01*
X405041Y193219D02*
Y194439D01*
X412959Y192781D02*
Y193219D01*
Y192781D02*
Y193219D01*
X405041Y199239D02*
Y200896D01*
X412959D01*
Y193219D02*
Y200896D01*
X400894Y184000D02*
X474000D01*
X402894Y182000D02*
X474000D01*
X412959Y190000D02*
X474000D01*
X412959Y186000D02*
X474000D01*
X412959Y188000D02*
X474000D01*
X412959Y196000D02*
X474000D01*
X412959Y192000D02*
X474000D01*
X412959Y194000D02*
X474000D01*
X412959Y198000D02*
X439176D01*
X445202D02*
X474000D01*
X446622Y200000D02*
X474000D01*
X404219Y206000D02*
X426410D01*
X412959Y200000D02*
X437756D01*
X434581Y204000D02*
X438093D01*
X404219Y208000D02*
X426369D01*
X435606Y206000D02*
X440359D01*
X435647Y208000D02*
X440899D01*
X446902Y202000D02*
X474000D01*
X446285Y204000D02*
X474000D01*
X442000Y206365D02*
Y207824D01*
X444019Y206000D02*
X474000D01*
X443479Y208000D02*
X474000D01*
X392000Y206400D02*
Y211600D01*
X390182Y210000D02*
X396104D01*
X388000Y211600D02*
X396104D01*
X406000Y200896D02*
Y211600D01*
X410000Y200896D02*
Y211600D01*
X408000Y200896D02*
Y211600D01*
X394000Y206400D02*
Y211600D01*
X396104Y208000D02*
Y211600D01*
X396000Y207894D02*
Y211600D01*
X398000Y216400D02*
Y218600D01*
X400000Y216400D02*
Y218600D01*
X392000Y216400D02*
Y218600D01*
X396000Y216400D02*
Y218600D01*
X394000Y216400D02*
Y218600D01*
X402000Y216400D02*
Y218600D01*
X404219Y204041D02*
Y211600D01*
X404000Y216400D02*
Y218600D01*
X406000Y216400D02*
Y218600D01*
X410000Y216400D02*
Y218600D01*
X408000Y216400D02*
Y218600D01*
X414000Y157500D02*
Y211600D01*
X416000Y157500D02*
Y211600D01*
X412000Y200896D02*
Y211600D01*
X404219Y210000D02*
X427280D01*
X404219Y211600D02*
X427008D01*
X418000Y157500D02*
Y211600D01*
X422000Y157500D02*
Y211600D01*
X420000Y157500D02*
Y211600D01*
X424000Y157500D02*
Y211600D01*
X426000Y157500D02*
Y211600D01*
X416000Y216400D02*
Y218600D01*
X420000Y216400D02*
Y218600D01*
X418000Y216400D02*
Y218600D01*
X412000Y216400D02*
Y218600D01*
X388000Y216400D02*
X425855D01*
X414000D02*
Y218600D01*
X422000Y216400D02*
Y218600D01*
X424000Y216400D02*
Y218774D01*
X369500Y223400D02*
X422108D01*
X370494Y218600D02*
X423102D01*
X392000Y223400D02*
Y274663D01*
X394000Y223400D02*
Y277386D01*
X402000Y223400D02*
Y277395D01*
X422108Y223400D02*
X425337Y226628D01*
X404000Y223400D02*
Y277395D01*
X408000Y223400D02*
Y277395D01*
X406000Y223400D02*
Y277395D01*
X410000Y223400D02*
Y277395D01*
X414000Y223400D02*
Y277395D01*
X412000Y223400D02*
Y277395D01*
X396000Y223400D02*
Y277395D01*
X400000Y223400D02*
Y277395D01*
X398000Y223400D02*
Y277395D01*
X416000Y223400D02*
Y277395D01*
X420000Y223400D02*
Y277395D01*
X418000Y223400D02*
Y277395D01*
X422000Y223400D02*
Y277402D01*
X424000Y225292D02*
Y278399D01*
X426000Y227590D02*
Y280399D01*
X369894Y218000D02*
X426281D01*
X424799Y219303D02*
X428731Y223234D01*
X353063Y230000D02*
X426410D01*
X353824Y232000D02*
X427435D01*
X426000Y216685D02*
Y220503D01*
X425496Y220000D02*
X426725D01*
X427496Y222000D02*
X428489D01*
X353586Y244000D02*
X426281D01*
X352088Y236000D02*
X426281D01*
X353063Y240000D02*
X426281D01*
X353063Y250000D02*
X474000D01*
X352088Y246000D02*
X474000D01*
X312187Y248000D02*
X474000D01*
X426281Y235084D02*
Y244538D01*
X353586Y234000D02*
X437476D01*
X426281Y235084D02*
X435735D01*
X353824Y242000D02*
X426281D01*
Y244538D02*
X435735D01*
X353824Y252000D02*
X474000D01*
X428000Y210741D02*
Y211815D01*
X430000Y211713D02*
Y213111D01*
X428335Y212000D02*
X437494D01*
X438000Y203831D02*
Y210357D01*
X440000Y205831D02*
Y208358D01*
X446000Y204438D02*
Y209751D01*
X432000Y211716D02*
Y213379D01*
X444000Y206008D02*
Y208181D01*
X434736Y210000D02*
X438207D01*
X434000Y210754D02*
Y214341D01*
X428000Y221646D02*
Y222503D01*
X433526Y214000D02*
X437691D01*
X435291Y216000D02*
X438961D01*
X436000Y157500D02*
Y292372D01*
X440000Y216737D02*
Y219263D01*
X438000Y214737D02*
Y221263D01*
X435291Y220000D02*
X438961D01*
X442000Y217270D02*
Y218730D01*
X444000Y216913D02*
Y219087D01*
X445417Y216000D02*
X474000D01*
X435735Y218000D02*
X474000D01*
X445417Y220000D02*
X474000D01*
X464000Y157500D02*
Y308542D01*
X446171Y210000D02*
X474000D01*
X466000Y157500D02*
Y308315D01*
X446000Y215343D02*
Y220657D01*
X446884Y212000D02*
X474000D01*
X446687Y214000D02*
X474000D01*
X454000Y157500D02*
Y384000D01*
X458000Y157500D02*
Y384000D01*
X456000Y157500D02*
Y384000D01*
X448000Y157500D02*
Y384000D01*
X452000Y157500D02*
Y384000D01*
X450000Y157500D02*
Y384000D01*
X470000Y157500D02*
Y310570D01*
X474000Y157500D02*
Y384000D01*
X472000Y157500D02*
Y384000D01*
X460000Y157500D02*
Y344146D01*
X468000Y157500D02*
Y308863D01*
X462000Y157500D02*
Y309675D01*
X430000Y222618D02*
Y224017D01*
X429950Y224000D02*
X437494D01*
X432000Y222621D02*
Y224284D01*
X433526Y222000D02*
X437691D01*
X434000Y221659D02*
Y225246D01*
X438000Y225642D02*
Y232169D01*
X434736Y226000D02*
X438207D01*
X434581Y232000D02*
X438093D01*
X428000Y232552D02*
Y235084D01*
X432000Y233527D02*
Y235084D01*
X430000Y233524D02*
Y235084D01*
X428000Y244538D02*
Y282399D01*
X430000Y244538D02*
Y284399D01*
X432000Y244538D02*
Y286399D01*
X434000Y232565D02*
Y235084D01*
X435735Y236000D02*
X437756D01*
X435735Y235084D02*
Y244538D01*
X434000D02*
Y327899D01*
X435735Y238000D02*
X439176D01*
X438000Y236548D02*
Y290984D01*
X440000Y227642D02*
Y230169D01*
X435647Y228000D02*
X440899D01*
X435606Y230000D02*
X440359D01*
X443479Y228000D02*
X474000D01*
X442000Y228176D02*
Y229635D01*
X446171Y226000D02*
X474000D01*
X446687Y222000D02*
X474000D01*
X446884Y224000D02*
X474000D01*
X444000Y227819D02*
Y229992D01*
X444019Y230000D02*
X474000D01*
X446000Y226249D02*
Y231562D01*
X440000Y238548D02*
Y290600D01*
X442000Y239081D02*
Y290984D01*
X435735Y244000D02*
X474000D01*
X435735Y240000D02*
X474000D01*
X435735Y242000D02*
X474000D01*
X446622Y236000D02*
X474000D01*
X446285Y232000D02*
X474000D01*
X446902Y234000D02*
X474000D01*
X444000Y238724D02*
Y292372D01*
X445202Y238000D02*
X474000D01*
X446000Y237154D02*
Y384000D01*
X308797Y260336D02*
X310613D01*
X308797D02*
X310613D01*
X307380Y273787D02*
X308600Y275008D01*
X310765Y260336D02*
X312581D01*
X314550D01*
X310765D02*
X312581D01*
X314550D02*
Y271763D01*
X315154Y271159D01*
X312400Y275900D02*
X315000D01*
X306000Y272979D02*
Y292317D01*
X308000Y274408D02*
Y291529D01*
X308600Y275008D02*
Y290930D01*
X312400Y280000D02*
X316179D01*
X312400Y282000D02*
X316179D01*
X312400Y275900D02*
Y291717D01*
X316000Y275616D02*
Y292317D01*
X314000Y275900D02*
Y292317D01*
X316179Y280513D02*
Y282329D01*
Y278545D02*
Y280361D01*
Y280513D02*
Y282329D01*
X308652Y252000D02*
X345176D01*
X308652Y254000D02*
X345414D01*
X314550Y262000D02*
X345176D01*
X308652Y256000D02*
X346912D01*
X308652Y260000D02*
X345937D01*
X314550Y264000D02*
X345414D01*
X314550Y266000D02*
X346912D01*
X314550Y270000D02*
X327030D01*
X316500Y270600D02*
X326309D01*
X312400Y278000D02*
X316179D01*
X312400Y276000D02*
X316179D01*
Y275490D02*
Y276576D01*
Y278392D01*
X328821Y275400D02*
Y276576D01*
X316179D02*
Y278392D01*
Y278545D02*
Y280361D01*
X328821Y276576D02*
Y278392D01*
Y278545D02*
Y280361D01*
X312400Y288000D02*
X316179D01*
X312400Y286000D02*
X316179D01*
X307213Y292317D02*
X308600Y290930D01*
X316179Y286419D02*
Y288235D01*
Y284450D02*
Y286419D01*
Y288235D01*
X312400Y290000D02*
X316179D01*
Y288387D02*
Y290203D01*
Y288387D02*
Y290203D01*
X306000Y301187D02*
Y309549D01*
X306828D02*
X308644D01*
X308000Y303187D02*
Y309549D01*
X306828D02*
X308644D01*
X308797D02*
X310613D01*
X308797D02*
X310613D01*
X310000Y305187D02*
Y309549D01*
X314000Y309187D02*
Y309549D01*
X312000Y307187D02*
Y309549D01*
X310765D02*
X312581D01*
X314362D01*
X310765D02*
X312581D01*
X316179Y282329D02*
Y284298D01*
X328821Y282329D02*
Y284298D01*
X312400Y284000D02*
X316179D01*
Y284298D02*
X328821D01*
X316179Y284450D02*
X328821D01*
Y286419D01*
Y284000D02*
X342313D01*
X328821Y286000D02*
X340313D01*
X328821Y286419D02*
Y288235D01*
Y288000D02*
X338313D01*
X328821Y286419D02*
Y288235D01*
X312379Y292000D02*
X316179D01*
Y290356D02*
Y292172D01*
Y290356D02*
Y292172D01*
X312303Y292317D02*
X316179D01*
X318114Y307927D02*
X322500D01*
X314550Y312000D02*
X316813D01*
X320000Y307927D02*
Y309813D01*
X328821Y288380D02*
X337933D01*
X322000Y307927D02*
Y311813D01*
X322500Y307927D02*
X353741D01*
X318187Y308000D02*
X353813D01*
X320187Y310000D02*
X354778D01*
X328821Y278545D02*
Y280361D01*
Y276576D02*
Y278392D01*
Y280513D02*
Y282329D01*
Y282000D02*
X343018D01*
X328821Y280513D02*
Y282329D01*
X338000Y275400D02*
Y288313D01*
X342000Y275400D02*
Y284313D01*
X340000Y275400D02*
Y286313D01*
X344000Y275400D02*
Y281018D01*
X330000Y275400D02*
Y288380D01*
X332000Y275400D02*
Y288380D01*
X334000Y275400D02*
Y288380D01*
X337933D02*
X342445Y283868D01*
X336000Y275400D02*
Y288380D01*
X342000Y289687D02*
Y290348D01*
X341339D02*
X345132Y286555D01*
X344000Y287687D02*
Y291313D01*
X341339Y290348D02*
X342248D01*
X346000Y255088D02*
Y259912D01*
Y265088D02*
Y269600D01*
Y275400D02*
Y280643D01*
X348000Y275400D02*
Y282030D01*
Y256586D02*
Y258414D01*
X350000Y256824D02*
Y258176D01*
X352000Y256063D02*
Y258937D01*
X348000Y266586D02*
Y269600D01*
X352000Y266063D02*
Y269600D01*
X350000Y266824D02*
Y269600D01*
X348000Y284970D02*
Y293900D01*
X346000Y286357D02*
Y293100D01*
X343687Y288000D02*
X359813D01*
X341687Y290000D02*
X357813D01*
X356000Y275400D02*
Y291813D01*
X360000Y275400D02*
Y287813D01*
X358000Y275400D02*
Y289813D01*
X350000Y275400D02*
Y297813D01*
X354000Y275400D02*
Y293813D01*
X352000Y275400D02*
Y295813D01*
X334919Y296900D02*
X336086D01*
X335357Y298000D02*
X343900D01*
X341461Y294148D02*
X342945Y295632D01*
X343594Y290907D02*
X345632Y292945D01*
X341222Y296000D02*
X343100D01*
X338000Y297857D02*
Y300600D01*
X336000Y296900D02*
Y300600D01*
X336041Y312104D02*
X343959D01*
X334982Y300000D02*
X347813D01*
X334500Y300600D02*
X347213D01*
X340000Y297482D02*
Y300600D01*
X344000Y298100D02*
Y300600D01*
X342000Y294687D02*
Y300600D01*
X338000Y307927D02*
Y312104D01*
X346000Y298900D02*
Y300600D01*
X342000Y307927D02*
Y312104D01*
X344687Y292000D02*
X355813D01*
X348000Y298100D02*
Y299813D01*
X348100Y298000D02*
X349813D01*
X348900Y296000D02*
X351813D01*
X348100Y294000D02*
X353813D01*
X354000Y299187D02*
Y304128D01*
X352000Y301187D02*
Y304128D01*
X350000Y303187D02*
Y304128D01*
X348980D02*
X354527D01*
X353741Y307927D02*
X354445Y308632D01*
X356000Y297187D02*
Y304813D01*
X355874Y304687D02*
X357132Y305945D01*
X358000Y295187D02*
Y306143D01*
X356000Y311482D02*
Y312104D01*
X360000Y310470D02*
Y312104D01*
X314550Y309737D02*
Y315075D01*
Y314000D02*
X318813D01*
X314717Y315242D02*
X316422Y316947D01*
X315475Y316000D02*
X320813D01*
X312589Y324000D02*
X317993D01*
X316000Y311187D02*
Y316526D01*
X318000Y313187D02*
Y318526D01*
X320000Y315187D02*
Y320526D01*
X316432Y316957D02*
X318128Y318654D01*
X318137Y318663D02*
X319836Y320361D01*
X321540Y322066D01*
X306000Y322191D02*
Y358396D01*
X306821Y322191D02*
Y329221D01*
X312589Y322191D02*
Y326402D01*
X314000Y322295D02*
Y327100D01*
X316000Y322853D02*
Y327900D01*
X318000Y324005D02*
Y366100D01*
X314550Y309737D02*
X322315Y317502D01*
X318114Y307927D02*
X324448Y314261D01*
X317475Y318000D02*
X323182D01*
X324000Y307927D02*
Y313813D01*
X330000Y307927D02*
Y314261D01*
X326000Y307927D02*
Y314261D01*
X328000Y307927D02*
Y314261D01*
X324187Y314000D02*
X336041D01*
X324448Y314261D02*
X335029D01*
X322000Y317187D02*
Y322526D01*
X323661Y318061D02*
X335029D01*
X319475Y320000D02*
X336041D01*
X321553Y322079D02*
X334575Y335100D01*
X321475Y322000D02*
X354041D01*
X323475Y324000D02*
X354041D01*
X324000Y318061D02*
Y324525D01*
X326000Y318061D02*
Y326525D01*
X328000Y318061D02*
Y328525D01*
X330000Y318061D02*
Y330525D01*
X325475Y326000D02*
X354041D01*
X332000Y318061D02*
Y332525D01*
X307380Y330567D02*
X308100Y331287D01*
X308000Y331187D02*
Y333891D01*
X311900Y332000D02*
Y333586D01*
X308100Y331287D02*
Y333586D01*
X312000Y332100D02*
Y333891D01*
X308000Y338100D02*
Y359179D01*
X310000Y338900D02*
Y359626D01*
X306000Y371900D02*
Y384000D01*
X308903Y360000D02*
X309647D01*
X308000Y371900D02*
Y384000D01*
X310000Y371900D02*
Y384000D01*
X312000Y338100D02*
Y358507D01*
Y371900D02*
Y384000D01*
X316000Y332100D02*
Y359288D01*
X314000Y332900D02*
Y358419D01*
X317741Y362000D02*
X327383D01*
X316753Y360000D02*
X329383D01*
X323283Y366100D02*
X332434Y356949D01*
X316666Y366100D02*
X323283D01*
X317741Y364000D02*
X325383D01*
X316753Y366000D02*
X323383D01*
X320000Y371900D02*
Y384000D01*
X324000Y371900D02*
Y384000D01*
X322000Y371900D02*
Y384000D01*
X314000Y371900D02*
Y384000D01*
X318000Y371900D02*
Y384000D01*
X316000Y371900D02*
Y384000D01*
X328000Y369586D02*
Y384000D01*
X326535Y371051D02*
X335686Y361900D01*
X330000Y367586D02*
Y384000D01*
X326000Y371472D02*
Y384000D01*
X332000Y307927D02*
Y314261D01*
X334000Y307927D02*
Y314261D01*
X336000Y307927D02*
Y314104D01*
X340000Y307927D02*
Y312104D01*
X346000Y307927D02*
Y313761D01*
X344000Y307927D02*
Y313761D01*
X336041Y312104D02*
Y314090D01*
X343959Y312104D02*
Y313761D01*
X336041Y318233D02*
Y320219D01*
X334000Y318061D02*
Y334525D01*
X336000Y318219D02*
Y335100D01*
X338000Y320219D02*
Y335100D01*
X336041Y320219D02*
X343959D01*
X334575Y335100D02*
X344486D01*
X343959Y318561D02*
Y320219D01*
X346000Y318561D02*
Y334313D01*
X344000Y318561D02*
Y335100D01*
X340000Y320219D02*
Y335100D01*
X342000Y320219D02*
Y335100D01*
X348000Y307927D02*
Y313761D01*
X350000Y307927D02*
Y313761D01*
X343959Y320000D02*
X354041D01*
X343959Y313761D02*
X354041D01*
X343959Y318561D02*
X354041D01*
X352000Y307927D02*
Y313761D01*
X354041Y312104D02*
Y313761D01*
X354000Y308187D02*
Y313761D01*
X354041Y319781D02*
Y320219D01*
Y318561D02*
Y319781D01*
Y320219D01*
X348000Y318561D02*
Y333632D01*
X350000Y318561D02*
Y333631D01*
X333474Y334000D02*
X346499D01*
X348031Y333631D02*
X351969D01*
X352000Y318561D02*
Y333632D01*
X354041Y320219D02*
Y327896D01*
X354000Y318561D02*
Y334313D01*
X356000Y327896D02*
Y350899D01*
X360000Y327896D02*
Y346899D01*
X358000Y327896D02*
Y348899D01*
X336000Y338900D02*
Y356100D01*
X333787Y338900D02*
X344486D01*
X338000D02*
Y356100D01*
X340000Y338900D02*
Y356100D01*
X344000Y338900D02*
Y356100D01*
X342000Y338900D02*
Y356100D01*
X346000Y349687D02*
Y356100D01*
X334000Y338900D02*
Y356141D01*
X332000Y365586D02*
Y384000D01*
X336000Y361900D02*
Y384000D01*
X334000Y363586D02*
Y384000D01*
X344000Y361900D02*
Y384000D01*
X348000Y350368D02*
Y356100D01*
X346000Y361900D02*
Y384000D01*
X338000Y361900D02*
Y384000D01*
X342000Y361900D02*
Y384000D01*
X340000Y361900D02*
Y384000D01*
X348031Y350368D02*
X351969D01*
X353501Y350000D02*
X356899D01*
X352000Y350368D02*
Y354899D01*
X354000Y349687D02*
Y352899D01*
X355185Y348000D02*
X358899D01*
X350000Y350368D02*
Y356100D01*
X334484D02*
X350799D01*
X348000Y361900D02*
Y384000D01*
X335686Y361900D02*
X352000D01*
X350000D02*
Y384000D01*
X356000Y359101D02*
Y384000D01*
X360000Y355101D02*
Y384000D01*
X358000Y357101D02*
Y384000D01*
X352000Y361900D02*
Y384000D01*
X354000Y361100D02*
Y384000D01*
X364000Y275400D02*
Y283813D01*
X366000Y275400D02*
Y281813D01*
X348357Y284000D02*
X363813D01*
X328821Y280000D02*
X366778D01*
X347982Y282000D02*
X365813D01*
X368000Y275400D02*
Y278518D01*
X370000Y275400D02*
Y278143D01*
X372000Y275400D02*
Y279530D01*
X362000Y275400D02*
Y285813D01*
X347213Y300600D02*
X366445Y281368D01*
X346970Y286000D02*
X361813D01*
X366000Y287187D02*
Y293899D01*
X349346Y303841D02*
X369132Y284055D01*
X372000Y282470D02*
Y291600D01*
X376000Y275400D02*
Y291600D01*
X374000Y275400D02*
Y291600D01*
X368000Y285187D02*
Y292018D01*
X370000Y283857D02*
Y291600D01*
X308652Y258000D02*
X474000D01*
X352088Y256000D02*
X474000D01*
X328500Y269600D02*
X377205D01*
X352088Y266000D02*
X474000D01*
X314550Y268000D02*
X474000D01*
X353824Y262000D02*
X474000D01*
X353586Y254000D02*
X474000D01*
X353063Y260000D02*
X474000D01*
X353586Y264000D02*
X474000D01*
X378674Y270000D02*
X474000D01*
X328821Y275400D02*
X376004D01*
X328821Y276000D02*
X376595D01*
X328821Y278000D02*
X376710D01*
X372222Y280000D02*
X376710D01*
X369195Y284000D02*
X376710D01*
X367187Y286000D02*
X381991D01*
X376710Y276142D02*
Y285928D01*
X372222Y282000D02*
X376710D01*
Y285928D02*
X381972D01*
X378000D02*
Y291600D01*
X359187Y294000D02*
X365899D01*
X361187Y292000D02*
X368030D01*
X353187Y300000D02*
X364100D01*
X357187Y296000D02*
X364278D01*
X355187Y298000D02*
X364100D01*
X364949Y294949D02*
X367449Y292449D01*
X369900Y298201D02*
X370701Y297400D01*
X357195Y306000D02*
X364100D01*
X351187Y302000D02*
X364100D01*
X349166Y304000D02*
X364100D01*
X322187Y312000D02*
X364100D01*
X354041Y312104D02*
X361959D01*
X360000Y293187D02*
Y307530D01*
X360222Y308000D02*
X364100D01*
X361959Y316000D02*
X364100D01*
X360222Y310000D02*
X364100D01*
X361959Y314000D02*
X364100D01*
X363187Y290000D02*
X382100D01*
X365187Y288000D02*
X382100D01*
X369900Y302000D02*
X372379D01*
X369500Y291600D02*
X382100D01*
X369900Y300000D02*
X372379D01*
X374000Y297400D02*
Y299072D01*
X370701Y297400D02*
X382100D01*
X378000D02*
Y299072D01*
X376000Y297400D02*
Y299072D01*
X370101Y298000D02*
X382100D01*
X372379Y299072D02*
X379510D01*
X369900Y310000D02*
X372379D01*
X369900Y306000D02*
X372379D01*
X369900Y308000D02*
X372379D01*
X369900Y316000D02*
X373045D01*
X369900Y312000D02*
X373045D01*
X369900Y314000D02*
X373045D01*
X372379Y299072D02*
Y310337D01*
X369900Y304000D02*
X372379D01*
X378845Y310337D02*
X379510D01*
X372379D02*
X373045D01*
X378845Y312000D02*
X428100D01*
X378845Y314000D02*
X428100D01*
X379255Y270449D02*
X383469Y274663D01*
X393290D01*
Y277267D01*
X388028Y285928D02*
X393290D01*
X394254Y277395D02*
X421795D01*
X394254Y283195D02*
X420594D01*
X393290Y284000D02*
X421399D01*
X380000Y285928D02*
Y291600D01*
X382000Y286038D02*
Y291600D01*
X382100Y286892D02*
Y291600D01*
X387900Y294500D02*
Y299072D01*
X393290Y283323D02*
Y285928D01*
X388009Y286000D02*
X423399D01*
X387900Y286892D02*
Y294500D01*
Y288000D02*
X425399D01*
X388000Y286038D02*
Y299072D01*
X382806Y274000D02*
X474000D01*
X380806Y272000D02*
X474000D01*
X423846Y278245D02*
X433051Y287449D01*
X393290Y276000D02*
X474000D01*
X423568Y278000D02*
X474000D01*
X429601Y284000D02*
X474000D01*
X425601Y280000D02*
X474000D01*
X427601Y282000D02*
X474000D01*
X431601Y286000D02*
X474000D01*
X433482Y288000D02*
X474000D01*
X387900Y290000D02*
X427399D01*
X420594Y283195D02*
X428100Y290701D01*
X387900Y296000D02*
X428100D01*
X387900Y292000D02*
X428100D01*
X387900Y294000D02*
X428100D01*
X433900Y292000D02*
X436372D01*
X433900Y290000D02*
X474000D01*
X433900Y294000D02*
X434984D01*
X443628Y292000D02*
X474000D01*
X445016Y294000D02*
X474000D01*
X382000Y297400D02*
Y299072D01*
X381435D02*
X382100D01*
X379510Y304000D02*
X381435D01*
X379510Y300000D02*
X381435D01*
X379510Y302000D02*
X381435D01*
X382100Y297400D02*
Y299072D01*
X433900Y296000D02*
X434600D01*
X387900Y298000D02*
X428100D01*
X387900Y299072D02*
X388565D01*
Y300000D02*
X428100D01*
X388565Y302000D02*
X428100D01*
X379510Y299072D02*
Y310337D01*
Y306000D02*
X381435D01*
Y299072D02*
Y310337D01*
X379510Y308000D02*
X381435D01*
X379510Y310000D02*
X381435D01*
Y310337D02*
X388565D01*
Y299072D02*
Y310337D01*
Y304000D02*
X428100D01*
X388565Y306000D02*
X428100D01*
X388565Y308000D02*
X428100D01*
X388565Y310000D02*
X428100D01*
X433900Y314000D02*
X434608D01*
X433900Y298000D02*
X434984D01*
X433900Y300000D02*
X436372D01*
X433900Y308000D02*
X474000D01*
X433900Y302000D02*
X474000D01*
X433900Y304000D02*
X474000D01*
X443628Y300000D02*
X474000D01*
X445400Y296000D02*
X474000D01*
X445016Y298000D02*
X474000D01*
X438000Y301016D02*
Y308684D01*
X433900Y306000D02*
X474000D01*
X440000Y301400D02*
Y308300D01*
X436000Y299628D02*
Y310072D01*
X442000Y301016D02*
Y308684D01*
X444000Y299628D02*
Y310072D01*
X433900Y312000D02*
X434875D01*
X443933Y310000D02*
X461667D01*
X433900D02*
X436067D01*
X445125Y312000D02*
X460475D01*
X469533Y310000D02*
X474000D01*
X470725Y312000D02*
X474000D01*
X445392Y314000D02*
X460208D01*
X470992D02*
X474000D01*
X444886Y316000D02*
X460714D01*
X361959Y319781D02*
Y320219D01*
Y312104D02*
Y319781D01*
Y320219D01*
Y320000D02*
X364100D01*
X361959Y320939D02*
X363960D01*
X362000Y291187D02*
Y320939D01*
X364100Y297000D02*
Y320799D01*
X369900Y298201D02*
Y322000D01*
X361959Y320219D02*
Y320939D01*
Y318000D02*
X364100D01*
X362000Y326739D02*
Y344899D01*
X364000Y326739D02*
Y342899D01*
X354041Y327896D02*
X361959D01*
Y326739D02*
X365161D01*
X361959D02*
Y327896D01*
X368000Y325101D02*
Y338899D01*
X367212Y325889D02*
X369051Y324051D01*
X366000Y326615D02*
Y340899D01*
X369900Y320000D02*
X373045D01*
X369900Y318000D02*
X373045D01*
X367095Y326000D02*
X373045D01*
X369900Y322000D02*
X373045D01*
X369100Y324000D02*
X373045D01*
X378845Y320000D02*
X428100D01*
X378845Y316000D02*
X428100D01*
X378845Y318000D02*
X428100D01*
X378845Y326000D02*
X428100D01*
X378845Y322000D02*
X428100D01*
X378845Y324000D02*
X428100D01*
X370000Y298101D02*
Y336899D01*
X373045Y310337D02*
Y330041D01*
X372000Y297400D02*
Y334623D01*
X372104Y330041D02*
X373045D01*
X327474Y328000D02*
X373045D01*
X329474Y330000D02*
X373045D01*
X378845Y310337D02*
Y330041D01*
X380000Y297400D02*
Y330041D01*
X382000Y310337D02*
Y384000D01*
X380219Y330041D02*
Y337959D01*
X378845Y328000D02*
X428100D01*
X378845Y330000D02*
X428278D01*
X353501Y334000D02*
X372104D01*
X331474Y332000D02*
X372104D01*
X354679Y344000D02*
X362899D01*
X355185Y336000D02*
X370899D01*
X354679Y340000D02*
X366899D01*
X363111Y343788D02*
X371537Y335361D01*
X372104Y330041D02*
Y334000D01*
X355185Y346000D02*
X360899D01*
X355185Y338000D02*
X368899D01*
X355337Y342000D02*
X364899D01*
X350799Y356100D02*
X363111Y343788D01*
X367212Y347889D02*
X377142Y337959D01*
X354051Y361051D02*
X367212Y347889D01*
X362000Y353101D02*
Y384000D01*
X366000Y349101D02*
Y384000D01*
X364000Y351101D02*
Y384000D01*
X374000Y341101D02*
Y384000D01*
X378000Y337959D02*
Y384000D01*
X376000Y339101D02*
Y384000D01*
X368000Y347101D02*
Y384000D01*
X372000Y343101D02*
Y384000D01*
X370000Y345101D02*
Y384000D01*
X375101Y340000D02*
X413258D01*
X373101Y342000D02*
X417000D01*
X367101Y348000D02*
X412528D01*
X371101Y344000D02*
X414172D01*
X369101Y346000D02*
X412757D01*
X378845Y330041D02*
X380219D01*
Y332000D02*
X429899D01*
X380219Y334000D02*
X414172D01*
X377142Y337959D02*
X380219D01*
Y336000D02*
X412757D01*
X377101Y338000D02*
X412528D01*
X333586Y364000D02*
X474000D01*
X355101Y360000D02*
X474000D01*
X335586Y362000D02*
X474000D01*
X327586Y370000D02*
X474000D01*
X331586Y366000D02*
X474000D01*
X329586Y368000D02*
X474000D01*
X380000Y337959D02*
Y384000D01*
X365101Y350000D02*
X413258D01*
X363101Y352000D02*
X417000D01*
X357101Y358000D02*
X474000D01*
X361101Y354000D02*
X474000D01*
X359101Y356000D02*
X474000D01*
X394000Y283204D02*
Y384000D01*
X396000Y283195D02*
Y384000D01*
X386000Y310337D02*
Y384000D01*
X392000Y285928D02*
Y384000D01*
X390000Y285928D02*
Y384000D01*
X416000Y283195D02*
Y333113D01*
X418000Y283195D02*
Y333113D01*
X420000Y283195D02*
Y334146D01*
X398000Y283195D02*
Y384000D01*
X414000Y283195D02*
Y334146D01*
X400000Y283195D02*
Y384000D01*
X404000Y283195D02*
Y384000D01*
X408000Y283195D02*
Y384000D01*
X406000Y283195D02*
Y384000D01*
X384000Y310337D02*
Y384000D01*
X402000Y283195D02*
Y384000D01*
X388000Y310337D02*
Y384000D01*
X410000Y283195D02*
Y384000D01*
X422000Y284601D02*
Y384000D01*
X412000Y283195D02*
Y384000D01*
X424000Y286601D02*
Y384000D01*
X428000Y290601D02*
Y384000D01*
X426000Y288601D02*
Y384000D01*
X433900Y316000D02*
X435114D01*
X433900Y318000D02*
X436733D01*
X433900Y326000D02*
X474000D01*
X433900Y320000D02*
X474000D01*
X433900Y324000D02*
X474000D01*
X470486Y316000D02*
X474000D01*
X443266Y318000D02*
X462333D01*
X468866D02*
X474000D01*
X433900Y322000D02*
X474000D01*
X428100Y290701D02*
Y329000D01*
X433900Y289500D02*
Y327799D01*
X436000Y317328D02*
Y329899D01*
X438000Y318716D02*
Y384000D01*
X442000Y318716D02*
Y384000D01*
X440000Y319100D02*
Y384000D01*
X444000Y317328D02*
Y384000D01*
X462000Y317725D02*
Y343112D01*
X470000Y316830D02*
Y384000D01*
X464000Y318858D02*
Y343112D01*
X466000Y319085D02*
Y344146D01*
X468000Y318537D02*
Y384000D01*
X418000Y341887D02*
Y343112D01*
X419828Y334000D02*
X431899D01*
X433900Y327799D02*
X436051Y329949D01*
X428949Y331051D02*
X431949Y334051D01*
X414000Y340854D02*
Y344146D01*
X416000Y341887D02*
Y343112D01*
X414000Y350854D02*
Y384000D01*
X418000Y351887D02*
Y384000D01*
X416000Y351887D02*
Y384000D01*
X430000Y332101D02*
Y384000D01*
X436000Y334100D02*
Y384000D01*
X432000Y334100D02*
Y384000D01*
X420000Y350854D02*
Y384000D01*
Y340854D02*
Y344146D01*
X434000Y334900D02*
Y384000D01*
X421472Y338000D02*
X474000D01*
X421243Y336000D02*
X474000D01*
X419828Y344000D02*
X460172D01*
X420742Y340000D02*
X474000D01*
X417000Y342000D02*
X474000D01*
X436900Y332000D02*
X474000D01*
X434101Y328000D02*
X474000D01*
X436100Y330000D02*
X474000D01*
X467243Y346000D02*
X474000D01*
X436100Y334000D02*
X474000D01*
X465828Y344000D02*
X474000D01*
X421472Y348000D02*
X458528D01*
X421243Y346000D02*
X458757D01*
X420742Y350000D02*
X459258D01*
X417000Y352000D02*
X463000D01*
X460000Y350854D02*
Y384000D01*
X466000Y350854D02*
Y384000D01*
X467472Y348000D02*
X474000D01*
X466742Y350000D02*
X474000D01*
X462000Y351887D02*
Y384000D01*
X463000Y352000D02*
X474000D01*
X464000Y351887D02*
Y384000D01*
D14*
X312657Y266657D02*
D03*
X310689D02*
D03*
X308720D02*
D03*
X306752D02*
D03*
X304784D02*
D03*
X302815D02*
D03*
X300847D02*
D03*
X298878D02*
D03*
X296909D02*
D03*
X294941D02*
D03*
X292972D02*
D03*
X291004D02*
D03*
X289036D02*
D03*
X287067D02*
D03*
X285099D02*
D03*
X283130D02*
D03*
Y315870D02*
D03*
X285099D02*
D03*
X287067D02*
D03*
X289036D02*
D03*
X291004D02*
D03*
X292972D02*
D03*
X294941D02*
D03*
X296909D02*
D03*
X298878D02*
D03*
X300847D02*
D03*
X302815D02*
D03*
X304784D02*
D03*
X306752D02*
D03*
X308720D02*
D03*
X310689D02*
D03*
X312657D02*
D03*
D15*
X273288Y276500D02*
D03*
Y278468D02*
D03*
Y280437D02*
D03*
Y282405D02*
D03*
Y284374D02*
D03*
Y286343D02*
D03*
Y288311D02*
D03*
Y290280D02*
D03*
Y292248D02*
D03*
Y294216D02*
D03*
Y296185D02*
D03*
Y298153D02*
D03*
Y300122D02*
D03*
Y302091D02*
D03*
Y304059D02*
D03*
Y306028D02*
D03*
X322500D02*
D03*
Y304059D02*
D03*
Y302091D02*
D03*
Y300122D02*
D03*
Y298153D02*
D03*
Y296185D02*
D03*
Y294216D02*
D03*
Y292248D02*
D03*
Y290280D02*
D03*
Y288311D02*
D03*
Y286343D02*
D03*
Y284374D02*
D03*
Y282405D02*
D03*
Y280437D02*
D03*
Y278468D02*
D03*
Y276500D02*
D03*
D16*
X407839Y208000D02*
D03*
X400161D02*
D03*
X357161Y169000D02*
D03*
X364839D02*
D03*
X337161D02*
D03*
X344839D02*
D03*
X383839Y334000D02*
D03*
X376161D02*
D03*
D17*
X409000Y189161D02*
D03*
Y196839D02*
D03*
Y169161D02*
D03*
Y176839D02*
D03*
X358000Y316161D02*
D03*
Y323839D02*
D03*
X340000D02*
D03*
Y316161D02*
D03*
D18*
X379000Y179000D02*
D03*
D19*
Y184000D02*
D03*
Y189000D02*
D03*
Y194000D02*
D03*
Y199000D02*
D03*
Y204000D02*
D03*
Y209000D02*
D03*
Y214000D02*
D03*
X348000Y179000D02*
D03*
Y184000D02*
D03*
Y189000D02*
D03*
Y194000D02*
D03*
Y199000D02*
D03*
Y204000D02*
D03*
Y209000D02*
D03*
Y214000D02*
D03*
D20*
X385000Y280295D02*
D03*
D21*
X375945Y304705D02*
D03*
X394055D02*
D03*
D22*
X385000D02*
D03*
D23*
X228500Y375000D02*
D03*
X463000Y374500D02*
D03*
X183000Y169500D02*
D03*
D24*
X349500Y262500D02*
D03*
Y252500D02*
D03*
Y242500D02*
D03*
Y232500D02*
D03*
X379500Y262500D02*
D03*
Y252500D02*
D03*
Y242500D02*
D03*
D25*
Y232500D02*
D03*
D26*
X417000Y347500D02*
D03*
Y337500D02*
D03*
X463000D02*
D03*
Y347500D02*
D03*
X195500Y369000D02*
D03*
X185500D02*
D03*
X195500Y347000D02*
D03*
X185500D02*
D03*
X195500Y325000D02*
D03*
X185500D02*
D03*
X195500Y303000D02*
D03*
X185500D02*
D03*
X195500Y281000D02*
D03*
X185500D02*
D03*
X195500Y259000D02*
D03*
X185500D02*
D03*
X195500Y237000D02*
D03*
X185500D02*
D03*
X195500Y215000D02*
D03*
X185500D02*
D03*
D27*
X465600Y296000D02*
D03*
Y313700D02*
D03*
X440000D02*
D03*
Y296000D02*
D03*
X224000Y164000D02*
D03*
X206300D02*
D03*
Y189600D02*
D03*
X224000D02*
D03*
X252000Y164000D02*
D03*
X234300D02*
D03*
Y189600D02*
D03*
X252000D02*
D03*
X280000Y164000D02*
D03*
X262300D02*
D03*
Y189600D02*
D03*
X280000D02*
D03*
X310000Y164000D02*
D03*
X292300D02*
D03*
Y189600D02*
D03*
X310000D02*
D03*
D28*
X350000Y337000D02*
D03*
Y347000D02*
D03*
D29*
Y342000D02*
D03*
D30*
X298500Y244500D02*
D03*
X318500D02*
D03*
D31*
X314000Y330000D02*
D03*
X310000Y336000D02*
D03*
X332500Y298500D02*
D03*
X332000Y180500D02*
D03*
X385000Y294500D02*
D03*
X345000Y169000D02*
D03*
X250500Y280000D02*
D03*
X250000Y275500D02*
D03*
X249500Y271000D02*
D03*
X249000Y266500D02*
D03*
Y262000D02*
D03*
X255000Y258000D02*
D03*
X252000Y235500D02*
D03*
X345500Y283500D02*
D03*
X346000Y296000D02*
D03*
X252378Y286500D02*
D03*
X265500Y296500D02*
D03*
X338500Y295000D02*
D03*
X292000Y289000D02*
D03*
X301500Y305500D02*
D03*
X314000Y284500D02*
D03*
X357500Y309000D02*
D03*
X434000Y332000D02*
D03*
X392500Y294500D02*
D03*
X369500Y281000D02*
D03*
X283500Y293500D02*
D03*
D32*
X295500Y363000D02*
D03*
X323060D02*
D03*
X313200D02*
D03*
X305350D02*
D03*
D33*
X283400Y373700D02*
D03*
X335200D02*
D03*
D34*
X246000Y290000D02*
D03*
D35*
X236000D02*
D03*
X246000Y300000D02*
D03*
X236000D02*
D03*
X246000Y310000D02*
D03*
X236000D02*
D03*
X246000Y320000D02*
D03*
X236000D02*
D03*
X246000Y330000D02*
D03*
X236000D02*
D03*
X246000Y340000D02*
D03*
X236000D02*
D03*
X246000Y350000D02*
D03*
X236000D02*
D03*
X246000Y360000D02*
D03*
X292000Y214000D02*
D03*
Y204000D02*
D03*
X282000Y214000D02*
D03*
Y204000D02*
D03*
X272000Y214000D02*
D03*
Y204000D02*
D03*
X262000Y214000D02*
D03*
Y204000D02*
D03*
X252000Y214000D02*
D03*
Y204000D02*
D03*
X242000Y214000D02*
D03*
Y204000D02*
D03*
X232000Y214000D02*
D03*
Y204000D02*
D03*
X222000Y214000D02*
D03*
D36*
X236000Y360000D02*
D03*
D37*
X222000Y204000D02*
D03*
D38*
X431008Y196189D02*
D03*
X442189Y201642D02*
D03*
X431008Y207095D02*
D03*
X442189Y212547D02*
D03*
X431008Y218000D02*
D03*
X442189Y223453D02*
D03*
X431008Y228906D02*
D03*
X442189Y234358D02*
D03*
D39*
X431008Y239811D02*
D03*
D40*
X436598Y267193D02*
D03*
Y168807D02*
D03*
M02*
