%FSLAX25Y25*%
%MOIN*%
G70*
G01*
G75*
G04 Layer_Color=8421504*
%ADD10C,0.01000*%
%ADD11C,0.03000*%
%ADD12C,0.02000*%
%ADD13C,0.00800*%
%ADD14R,0.00984X0.09843*%
%ADD15R,0.09843X0.00984*%
%ADD16R,0.05315X0.05118*%
%ADD17R,0.05118X0.05315*%
%ADD18R,0.20000X0.02000*%
%ADD19O,0.20000X0.02000*%
%ADD20R,0.13780X0.08465*%
%ADD21R,0.04331X0.08465*%
%ADD22R,0.04331X0.08465*%
%ADD23C,0.11811*%
%ADD24C,0.05906*%
%ADD25R,0.05906X0.05906*%
%ADD26C,0.06200*%
%ADD27C,0.08000*%
%ADD28O,0.07874X0.03937*%
%ADD29O,0.07874X0.03937*%
%ADD30C,0.03937*%
%ADD31C,0.03000*%
%ADD32C,0.06500*%
%ADD33C,0.15000*%
%ADD34C,0.05500*%
%ADD35C,0.05906*%
%ADD36R,0.05906X0.05906*%
%ADD37R,0.05906X0.05906*%
%ADD38C,0.06654*%
%ADD39R,0.06654X0.06654*%
%ADD40C,0.18740*%
%ADD41C,0.00787*%
%ADD42C,0.00984*%
%ADD43C,0.00500*%
%ADD44C,0.00600*%
%ADD45C,0.01200*%
%ADD46C,0.00591*%
%ADD47R,0.04520X0.01680*%
%ADD48R,0.01680X0.04520*%
D14*
X312657Y266657D02*
D03*
X310689D02*
D03*
X308720D02*
D03*
X306752D02*
D03*
X304784D02*
D03*
X302815D02*
D03*
X300847D02*
D03*
X298878D02*
D03*
X296909D02*
D03*
X294941D02*
D03*
X292972D02*
D03*
X291004D02*
D03*
X289036D02*
D03*
X287067D02*
D03*
X285099D02*
D03*
X283130D02*
D03*
Y315870D02*
D03*
X285099D02*
D03*
X287067D02*
D03*
X289036D02*
D03*
X291004D02*
D03*
X292972D02*
D03*
X294941D02*
D03*
X296909D02*
D03*
X298878D02*
D03*
X300847D02*
D03*
X302815D02*
D03*
X304784D02*
D03*
X306752D02*
D03*
X308720D02*
D03*
X310689D02*
D03*
X312657D02*
D03*
D15*
X273288Y276500D02*
D03*
Y278468D02*
D03*
Y280437D02*
D03*
Y282405D02*
D03*
Y284374D02*
D03*
Y286343D02*
D03*
Y288311D02*
D03*
Y290280D02*
D03*
Y292248D02*
D03*
Y294216D02*
D03*
Y296185D02*
D03*
Y298153D02*
D03*
Y300122D02*
D03*
Y302091D02*
D03*
Y304059D02*
D03*
Y306028D02*
D03*
X322500D02*
D03*
Y304059D02*
D03*
Y302091D02*
D03*
Y300122D02*
D03*
Y298153D02*
D03*
Y296185D02*
D03*
Y294216D02*
D03*
Y292248D02*
D03*
Y290280D02*
D03*
Y288311D02*
D03*
Y286343D02*
D03*
Y284374D02*
D03*
Y282405D02*
D03*
Y280437D02*
D03*
Y278468D02*
D03*
Y276500D02*
D03*
D16*
X407839Y208000D02*
D03*
X400161D02*
D03*
X357161Y169000D02*
D03*
X364839D02*
D03*
X337161D02*
D03*
X344839D02*
D03*
X383839Y334000D02*
D03*
X376161D02*
D03*
D17*
X409000Y189161D02*
D03*
Y196839D02*
D03*
Y169161D02*
D03*
Y176839D02*
D03*
X358000Y316161D02*
D03*
Y323839D02*
D03*
X340000D02*
D03*
Y316161D02*
D03*
D18*
X379000Y179000D02*
D03*
D19*
Y184000D02*
D03*
Y189000D02*
D03*
Y194000D02*
D03*
Y199000D02*
D03*
Y204000D02*
D03*
Y209000D02*
D03*
Y214000D02*
D03*
X348000Y179000D02*
D03*
Y184000D02*
D03*
Y189000D02*
D03*
Y194000D02*
D03*
Y199000D02*
D03*
Y204000D02*
D03*
Y209000D02*
D03*
Y214000D02*
D03*
D20*
X385000Y280295D02*
D03*
D21*
X375945Y304705D02*
D03*
X394055D02*
D03*
D22*
X385000D02*
D03*
M02*
