%FSLAX25Y25*%
%MOIN*%
G70*
G01*
G75*
G04 Layer_Color=65535*
%ADD10C,0.01000*%
%ADD11C,0.03000*%
%ADD12C,0.02000*%
%ADD13C,0.00800*%
%ADD14R,0.00984X0.09843*%
%ADD15R,0.09843X0.00984*%
%ADD16R,0.05315X0.05118*%
%ADD17R,0.05118X0.05315*%
%ADD18R,0.20000X0.02000*%
%ADD19O,0.20000X0.02000*%
%ADD20R,0.13780X0.08465*%
%ADD21R,0.04331X0.08465*%
%ADD22R,0.04331X0.08465*%
%ADD23C,0.11811*%
%ADD24C,0.05906*%
%ADD25R,0.05906X0.05906*%
%ADD26C,0.06200*%
%ADD27C,0.08000*%
%ADD28O,0.07874X0.03937*%
%ADD29O,0.07874X0.03937*%
%ADD30C,0.03937*%
%ADD31C,0.03000*%
%ADD32C,0.06500*%
%ADD33C,0.15000*%
%ADD34C,0.05500*%
%ADD35C,0.05906*%
%ADD36R,0.05906X0.05906*%
%ADD37R,0.05906X0.05906*%
%ADD38C,0.06654*%
%ADD39R,0.06654X0.06654*%
%ADD40C,0.18740*%
%ADD41C,0.00787*%
%ADD42C,0.00984*%
%ADD43C,0.00500*%
%ADD44C,0.00600*%
%ADD45C,0.01200*%
%ADD46C,0.00591*%
%ADD47R,0.04520X0.01680*%
%ADD48R,0.01680X0.04520*%
D10*
X427000Y342500D02*
G03*
X427000Y342500I-10000J0D01*
G01*
X460900Y304567D02*
G03*
X460900Y304567I-7027J0D01*
G01*
X320925Y234500D02*
G03*
X320925Y254500I0J10000D01*
G01*
X297878D02*
G03*
X297878Y234500I0J-10000D01*
G01*
X473000Y342500D02*
G03*
X473000Y342500I-10000J0D01*
G01*
X365500Y176500D02*
G03*
X363500Y176500I-1000J0D01*
G01*
X222460Y177874D02*
G03*
X222460Y177874I-7027J0D01*
G01*
X250460D02*
G03*
X250460Y177874I-7027J0D01*
G01*
X278460D02*
G03*
X278460Y177874I-7027J0D01*
G01*
X200500Y369000D02*
G03*
X200500Y369000I-10000J0D01*
G01*
Y347000D02*
G03*
X200500Y347000I-10000J0D01*
G01*
Y325000D02*
G03*
X200500Y325000I-10000J0D01*
G01*
Y303000D02*
G03*
X200500Y303000I-10000J0D01*
G01*
Y281000D02*
G03*
X200500Y281000I-10000J0D01*
G01*
Y259000D02*
G03*
X200500Y259000I-10000J0D01*
G01*
Y237000D02*
G03*
X200500Y237000I-10000J0D01*
G01*
Y215000D02*
G03*
X200500Y215000I-10000J0D01*
G01*
X308459Y177874D02*
G03*
X308459Y177874I-7027J0D01*
G01*
X335200Y355300D02*
Y373700D01*
X283400Y355700D02*
X284100Y355000D01*
X283400Y355700D02*
Y373700D01*
X335200Y410700D02*
Y412700D01*
X335500Y413000D01*
X283500D02*
X335500D01*
X335200Y373700D02*
Y410700D01*
X283400Y412900D02*
X283500Y413000D01*
X283400Y373700D02*
Y412900D01*
X291500Y373000D02*
X327500D01*
X284100Y355000D02*
X335500D01*
X395732Y203472D02*
Y212528D01*
X412268Y203472D02*
Y212528D01*
X395732Y203472D02*
X402055D01*
X395732Y212528D02*
X402055D01*
X406058D02*
X412268D01*
X406058Y203472D02*
X412268D01*
X404472Y201268D02*
X413528D01*
X404472Y184732D02*
X413528D01*
X404472Y194945D02*
Y201268D01*
X413528Y194945D02*
Y201268D01*
Y184732D02*
Y190942D01*
X404472Y184732D02*
Y190942D01*
X369268Y164472D02*
Y173528D01*
X352732Y164472D02*
Y173528D01*
X362945D02*
X369268D01*
X362945Y164472D02*
X369268D01*
X352732D02*
X358942D01*
X352732Y173528D02*
X358942D01*
X404472Y181268D02*
X413528D01*
X404472Y164732D02*
X413528D01*
X404472Y174945D02*
Y181268D01*
X413528Y174945D02*
Y181268D01*
Y164732D02*
Y170942D01*
X404472Y164732D02*
Y170942D01*
X349268Y164472D02*
Y173528D01*
X332732Y164472D02*
Y173528D01*
X342945D02*
X349268D01*
X342945Y164472D02*
X349268D01*
X332732D02*
X338942D01*
X332732Y173528D02*
X338942D01*
X360500Y176500D02*
X365750D01*
X363250D02*
X365500D01*
Y216500D01*
X360500D02*
X365500D01*
X360500Y176500D02*
Y216500D01*
X371732Y329472D02*
Y338528D01*
X388268Y329472D02*
Y338528D01*
X371732Y329472D02*
X378055D01*
X371732Y338528D02*
X378055D01*
X382058D02*
X388268D01*
X382058Y329472D02*
X388268D01*
X353472Y328268D02*
X362528D01*
X353472Y311732D02*
X362528D01*
X353472Y321945D02*
Y328268D01*
X362528Y321945D02*
Y328268D01*
Y311732D02*
Y317942D01*
X353472Y311732D02*
Y317942D01*
X335472Y311732D02*
X344528D01*
X335472Y328268D02*
X344528D01*
Y311732D02*
Y318055D01*
X335472Y311732D02*
Y318055D01*
Y322058D02*
Y328268D01*
X344528Y322058D02*
Y328268D01*
X343000Y224500D02*
X339001D01*
X337002Y226499D01*
X339001Y228499D01*
X343000D01*
X340001D01*
Y224500D01*
X337002Y230498D02*
Y234497D01*
Y232497D01*
X343000D01*
Y240495D02*
Y236496D01*
X339001Y240495D01*
X338002D01*
X337002Y239495D01*
Y237496D01*
X338002Y236496D01*
X343000Y245493D02*
X337002D01*
X340001Y242494D01*
Y246493D01*
X338002Y252491D02*
X337002Y251491D01*
Y249492D01*
X338002Y248492D01*
X342000D01*
X343000Y249492D01*
Y251491D01*
X342000Y252491D01*
X337002Y254490D02*
X343000Y258489D01*
X337002D02*
X343000Y254490D01*
X337002Y260488D02*
X343000Y264487D01*
X337002D02*
X343000Y260488D01*
X413499Y327998D02*
X412499Y328998D01*
X410500D01*
X409500Y327998D01*
Y326999D01*
X410500Y325999D01*
X412499D01*
X413499Y324999D01*
Y324000D01*
X412499Y323000D01*
X410500D01*
X409500Y324000D01*
X415498Y328998D02*
Y324000D01*
X416498Y323000D01*
X418497D01*
X419497Y324000D01*
Y328998D01*
X425495Y327998D02*
X424495Y328998D01*
X422496D01*
X421496Y327998D01*
Y326999D01*
X422496Y325999D01*
X424495D01*
X425495Y324999D01*
Y324000D01*
X424495Y323000D01*
X422496D01*
X421496Y324000D01*
X427494Y323000D02*
Y328998D01*
X430493D01*
X431493Y327998D01*
Y325999D01*
X430493Y324999D01*
X427494D01*
X421999Y304498D02*
X420999Y305498D01*
X419000D01*
X418000Y304498D01*
Y303499D01*
X419000Y302499D01*
X420999D01*
X421999Y301499D01*
Y300500D01*
X420999Y299500D01*
X419000D01*
X418000Y300500D01*
X423998Y305498D02*
Y299500D01*
X425997Y301499D01*
X427997Y299500D01*
Y305498D01*
X429996Y299500D02*
X431995D01*
X430996D01*
Y305498D01*
X429996Y304498D01*
X366999Y342500D02*
Y346498D01*
X365999Y347498D01*
X364000D01*
X363000Y346498D01*
Y342500D01*
X364000Y341500D01*
X365999D01*
X364999Y343499D02*
X366999Y341500D01*
X365999D02*
X366999Y342500D01*
X368998Y341500D02*
X370997D01*
X369998D01*
Y347498D01*
X368998Y346498D01*
X278352Y234950D02*
X279352D01*
X281351Y236949D01*
X279352Y238949D01*
X278352D01*
X281351Y236949D02*
X284350D01*
Y240948D02*
Y242947D01*
Y241948D01*
X278352D01*
X279352Y240948D01*
X317500Y330498D02*
X321499D01*
X319499D01*
Y324500D01*
X323498D02*
Y330498D01*
X326497D01*
X327497Y329498D01*
Y327499D01*
X326497Y326499D01*
X323498D01*
X333495Y324500D02*
X329496D01*
X333495Y328499D01*
Y329498D01*
X332495Y330498D01*
X330496D01*
X329496Y329498D01*
X292500Y335498D02*
X296499D01*
X294499D01*
Y329500D01*
X298498D02*
Y335498D01*
X301497D01*
X302497Y334498D01*
Y332499D01*
X301497Y331499D01*
X298498D01*
X304496Y329500D02*
X306495D01*
X305496D01*
Y335498D01*
X304496Y334498D01*
X343999Y364998D02*
X341999D01*
X342999D01*
Y360000D01*
X341999Y359000D01*
X341000D01*
X340000Y360000D01*
X345998Y359000D02*
X347997D01*
X346998D01*
Y364998D01*
X345998Y363998D01*
X317500Y273998D02*
X321499D01*
X319499D01*
Y268000D01*
X323498Y273998D02*
Y269000D01*
X324498Y268000D01*
X326497D01*
X327497Y269000D01*
Y273998D01*
X333495Y272998D02*
X332495Y273998D01*
X330496D01*
X329496Y272998D01*
Y271999D01*
X330496Y270999D01*
X332495D01*
X333495Y269999D01*
Y269000D01*
X332495Y268000D01*
X330496D01*
X329496Y269000D01*
X335494Y273998D02*
Y268000D01*
X338493D01*
X339493Y269000D01*
Y269999D01*
X338493Y270999D01*
X335494D01*
X338493D01*
X339493Y271999D01*
Y272998D01*
X338493Y273998D01*
X335494D01*
X341492Y272998D02*
X342492Y273998D01*
X344491D01*
X345491Y272998D01*
Y271999D01*
X344491Y270999D01*
X343492D01*
X344491D01*
X345491Y269999D01*
Y269000D01*
X344491Y268000D01*
X342492D01*
X341492Y269000D01*
X351489Y268000D02*
X347490D01*
X351489Y271999D01*
Y272998D01*
X350489Y273998D01*
X348490D01*
X347490Y272998D01*
X353488Y268000D02*
X355488D01*
X354488D01*
Y273998D01*
X353488Y272998D01*
X358487D02*
X359486Y273998D01*
X361486D01*
X362485Y272998D01*
Y269000D01*
X361486Y268000D01*
X359486D01*
X358487Y269000D01*
Y272998D01*
X454500Y323500D02*
Y329498D01*
X457499D01*
X458499Y328498D01*
Y326499D01*
X457499Y325499D01*
X454500D01*
X463497Y329498D02*
X461498D01*
X460498Y328498D01*
Y324500D01*
X461498Y323500D01*
X463497D01*
X464497Y324500D01*
Y328498D01*
X463497Y329498D01*
X466496D02*
Y323500D01*
X468496Y325499D01*
X470495Y323500D01*
Y329498D01*
X218000Y222000D02*
Y227998D01*
X220999D01*
X221999Y226998D01*
Y224999D01*
X220999Y223999D01*
X218000D01*
X223998Y226998D02*
X224998Y227998D01*
X226997D01*
X227997Y226998D01*
Y223000D01*
X226997Y222000D01*
X224998D01*
X223998Y223000D01*
Y226998D01*
X229996Y222000D02*
Y223000D01*
X230996D01*
Y222000D01*
X229996D01*
X234995Y226998D02*
X235994Y227998D01*
X237994D01*
X238993Y226998D01*
Y223000D01*
X237994Y222000D01*
X235994D01*
X234995Y223000D01*
Y226998D01*
X240993Y224999D02*
X244991D01*
X246991D02*
X250989D01*
X252989D02*
X256987D01*
X258987D02*
X262985D01*
X264985Y222000D02*
X267984Y224999D01*
X264985Y227998D01*
X269983Y222000D02*
Y227998D01*
X272982D01*
X273982Y226998D01*
Y224999D01*
X272982Y223999D01*
X269983D01*
X275981Y226998D02*
X276981Y227998D01*
X278980D01*
X279980Y226998D01*
Y225999D01*
X278980Y224999D01*
X277981D01*
X278980D01*
X279980Y223999D01*
Y223000D01*
X278980Y222000D01*
X276981D01*
X275981Y223000D01*
X281979Y222000D02*
Y223000D01*
X282979D01*
Y222000D01*
X281979D01*
X286978Y226998D02*
X287977Y227998D01*
X289977D01*
X290976Y226998D01*
Y223000D01*
X289977Y222000D01*
X287977D01*
X286978Y223000D01*
Y226998D01*
X255000Y359500D02*
X260998D01*
Y356501D01*
X259998Y355501D01*
X257999D01*
X256999Y356501D01*
Y359500D01*
X255000Y349503D02*
Y353502D01*
X258999Y349503D01*
X259998D01*
X260998Y350503D01*
Y352502D01*
X259998Y353502D01*
X255000Y347504D02*
X256000D01*
Y346504D01*
X255000D01*
Y347504D01*
X259998Y342506D02*
X260998Y341506D01*
Y339507D01*
X259998Y338507D01*
X256000D01*
X255000Y339507D01*
Y341506D01*
X256000Y342506D01*
X259998D01*
X257999Y336507D02*
Y332509D01*
Y330509D02*
Y326511D01*
Y324511D02*
Y320513D01*
X255000Y318513D02*
X257999Y315514D01*
X260998Y318513D01*
X255000Y313515D02*
X260998D01*
Y310516D01*
X259998Y309516D01*
X257999D01*
X256999Y310516D01*
Y313515D01*
X255000Y307517D02*
Y305518D01*
Y306517D01*
X260998D01*
X259998Y307517D01*
X255000Y302518D02*
X256000D01*
Y301519D01*
X255000D01*
Y302518D01*
X260998Y297520D02*
Y293521D01*
X259998D01*
X256000Y297520D01*
X255000D01*
X395952Y169249D02*
X394952Y168249D01*
Y166250D01*
X395952Y165250D01*
X399950D01*
X400950Y166250D01*
Y168249D01*
X399950Y169249D01*
X395952Y171248D02*
X394952Y172248D01*
Y174247D01*
X395952Y175247D01*
X396951D01*
X397951Y174247D01*
Y173247D01*
Y174247D01*
X398951Y175247D01*
X399950D01*
X400950Y174247D01*
Y172248D01*
X399950Y171248D01*
X394952Y181245D02*
Y177246D01*
X397951D01*
X396951Y179245D01*
Y180245D01*
X397951Y181245D01*
X399950D01*
X400950Y180245D01*
Y178246D01*
X399950Y177246D01*
X317999Y171498D02*
X316999Y172498D01*
X315000D01*
X314000Y171498D01*
Y167500D01*
X315000Y166500D01*
X316999D01*
X317999Y167500D01*
X319998Y171498D02*
X320998Y172498D01*
X322997D01*
X323997Y171498D01*
Y170499D01*
X322997Y169499D01*
X321997D01*
X322997D01*
X323997Y168499D01*
Y167500D01*
X322997Y166500D01*
X320998D01*
X319998Y167500D01*
X329995Y172498D02*
X327995Y171498D01*
X325996Y169499D01*
Y167500D01*
X326996Y166500D01*
X328995D01*
X329995Y167500D01*
Y168499D01*
X328995Y169499D01*
X325996D01*
X375999Y170998D02*
X374999Y171998D01*
X373000D01*
X372000Y170998D01*
Y167000D01*
X373000Y166000D01*
X374999D01*
X375999Y167000D01*
X377998Y170998D02*
X378998Y171998D01*
X380997D01*
X381997Y170998D01*
Y169999D01*
X380997Y168999D01*
X379997D01*
X380997D01*
X381997Y167999D01*
Y167000D01*
X380997Y166000D01*
X378998D01*
X377998Y167000D01*
X383996Y171998D02*
X387995D01*
Y170998D01*
X383996Y167000D01*
Y166000D01*
X395952Y189249D02*
X394952Y188249D01*
Y186250D01*
X395952Y185250D01*
X399950D01*
X400950Y186250D01*
Y188249D01*
X399950Y189249D01*
X395952Y191248D02*
X394952Y192248D01*
Y194247D01*
X395952Y195247D01*
X396951D01*
X397951Y194247D01*
Y193247D01*
Y194247D01*
X398951Y195247D01*
X399950D01*
X400950Y194247D01*
Y192248D01*
X399950Y191248D01*
X395952Y197246D02*
X394952Y198246D01*
Y200245D01*
X395952Y201245D01*
X396951D01*
X397951Y200245D01*
X398951Y201245D01*
X399950D01*
X400950Y200245D01*
Y198246D01*
X399950Y197246D01*
X398951D01*
X397951Y198246D01*
X396951Y197246D01*
X395952D01*
X397951Y198246D02*
Y200245D01*
X417002Y207999D02*
X416002Y206999D01*
Y205000D01*
X417002Y204000D01*
X421000D01*
X422000Y205000D01*
Y206999D01*
X421000Y207999D01*
X417002Y209998D02*
X416002Y210998D01*
Y212997D01*
X417002Y213997D01*
X418001D01*
X419001Y212997D01*
Y211997D01*
Y212997D01*
X420001Y213997D01*
X421000D01*
X422000Y212997D01*
Y210998D01*
X421000Y209998D01*
Y215996D02*
X422000Y216996D01*
Y218995D01*
X421000Y219995D01*
X417002D01*
X416002Y218995D01*
Y216996D01*
X417002Y215996D01*
X418001D01*
X419001Y216996D01*
Y219995D01*
X440499Y288498D02*
X438499D01*
X439499D01*
Y283500D01*
X438499Y282500D01*
X437500D01*
X436500Y283500D01*
X442498Y282500D02*
Y288498D01*
X445497D01*
X446497Y287498D01*
Y285499D01*
X445497Y284499D01*
X442498D01*
X448496Y281500D02*
X452495D01*
X458493Y287498D02*
X457493Y288498D01*
X455494D01*
X454494Y287498D01*
Y283500D01*
X455494Y282500D01*
X457493D01*
X458493Y283500D01*
X463491Y288498D02*
X461492D01*
X460492Y287498D01*
Y283500D01*
X461492Y282500D01*
X463491D01*
X464491Y283500D01*
Y287498D01*
X463491Y288498D01*
X466490Y282500D02*
Y288498D01*
X468490Y286499D01*
X470489Y288498D01*
Y282500D01*
X472488D02*
X474488D01*
X473488D01*
Y288498D01*
X472488Y287498D01*
X329000Y177500D02*
X323002D01*
X325001Y179499D01*
X323002Y181499D01*
X329000D01*
Y183498D02*
X325001D01*
X323002Y185497D01*
X325001Y187497D01*
X329000D01*
X326001D01*
Y183498D01*
X323002Y189496D02*
X329000Y193495D01*
X323002D02*
X329000Y189496D01*
X324002Y195494D02*
X323002Y196494D01*
Y198493D01*
X324002Y199493D01*
X325001D01*
X326001Y198493D01*
Y197494D01*
Y198493D01*
X327001Y199493D01*
X328000D01*
X329000Y198493D01*
Y196494D01*
X328000Y195494D01*
X329000Y205491D02*
Y201492D01*
X325001Y205491D01*
X324002D01*
X323002Y204491D01*
Y202492D01*
X324002Y201492D01*
Y207490D02*
X323002Y208490D01*
Y210489D01*
X324002Y211489D01*
X325001D01*
X326001Y210489D01*
Y209490D01*
Y210489D01*
X327001Y211489D01*
X328000D01*
X329000Y210489D01*
Y208490D01*
X328000Y207490D01*
X329000Y217487D02*
Y213488D01*
X325001Y217487D01*
X324002D01*
X323002Y216487D01*
Y214488D01*
X324002Y213488D01*
X172000Y382498D02*
Y376500D01*
X174999D01*
X175999Y377500D01*
Y381498D01*
X174999Y382498D01*
X172000D01*
X177998Y381498D02*
X178998Y382498D01*
X180997D01*
X181997Y381498D01*
Y377500D01*
X180997Y376500D01*
X178998D01*
X177998Y377500D01*
Y381498D01*
X172500Y359998D02*
Y354000D01*
X175499D01*
X176499Y355000D01*
Y358998D01*
X175499Y359998D01*
X172500D01*
X178498Y354000D02*
X180497D01*
X179498D01*
Y359998D01*
X178498Y358998D01*
X171500Y338498D02*
Y332500D01*
X174499D01*
X175499Y333500D01*
Y337498D01*
X174499Y338498D01*
X171500D01*
X181497Y332500D02*
X177498D01*
X181497Y336499D01*
Y337498D01*
X180497Y338498D01*
X178498D01*
X177498Y337498D01*
X171500Y316498D02*
Y310500D01*
X174499D01*
X175499Y311500D01*
Y315498D01*
X174499Y316498D01*
X171500D01*
X177498Y315498D02*
X178498Y316498D01*
X180497D01*
X181497Y315498D01*
Y314499D01*
X180497Y313499D01*
X179497D01*
X180497D01*
X181497Y312499D01*
Y311500D01*
X180497Y310500D01*
X178498D01*
X177498Y311500D01*
X171500Y294498D02*
Y288500D01*
X174499D01*
X175499Y289500D01*
Y293498D01*
X174499Y294498D01*
X171500D01*
X180497Y288500D02*
Y294498D01*
X177498Y291499D01*
X181497D01*
X171500Y272498D02*
Y266500D01*
X174499D01*
X175499Y267500D01*
Y271498D01*
X174499Y272498D01*
X171500D01*
X181497D02*
X177498D01*
Y269499D01*
X179497Y270499D01*
X180497D01*
X181497Y269499D01*
Y267500D01*
X180497Y266500D01*
X178498D01*
X177498Y267500D01*
X171500Y250498D02*
Y244500D01*
X174499D01*
X175499Y245500D01*
Y249498D01*
X174499Y250498D01*
X171500D01*
X181497D02*
X179497Y249498D01*
X177498Y247499D01*
Y245500D01*
X178498Y244500D01*
X180497D01*
X181497Y245500D01*
Y246499D01*
X180497Y247499D01*
X177498D01*
X172000Y225998D02*
Y220000D01*
X174999D01*
X175999Y221000D01*
Y224998D01*
X174999Y225998D01*
X172000D01*
X177998D02*
X181997D01*
Y224998D01*
X177998Y221000D01*
Y220000D01*
X296500Y164998D02*
Y159000D01*
Y160999D01*
X300499Y164998D01*
X297500Y161999D01*
X300499Y159000D01*
X305497D02*
Y164998D01*
X302498Y161999D01*
X306497D01*
X266500Y164498D02*
Y158500D01*
Y160499D01*
X270499Y164498D01*
X267500Y161499D01*
X270499Y158500D01*
X272498Y163498D02*
X273498Y164498D01*
X275497D01*
X276497Y163498D01*
Y162499D01*
X275497Y161499D01*
X274497D01*
X275497D01*
X276497Y160499D01*
Y159500D01*
X275497Y158500D01*
X273498D01*
X272498Y159500D01*
X238500Y164498D02*
Y158500D01*
Y160499D01*
X242499Y164498D01*
X239500Y161499D01*
X242499Y158500D01*
X248497D02*
X244498D01*
X248497Y162499D01*
Y163498D01*
X247497Y164498D01*
X245498D01*
X244498Y163498D01*
X212000Y164498D02*
Y158500D01*
Y160499D01*
X215999Y164498D01*
X213000Y161499D01*
X215999Y158500D01*
X217998D02*
X219997D01*
X218998D01*
Y164498D01*
X217998Y163498D01*
X370500Y313500D02*
Y317499D01*
X372499Y319498D01*
X374499Y317499D01*
Y313500D01*
Y316499D01*
X370500D01*
X380497Y318498D02*
X379497Y319498D01*
X377498D01*
X376498Y318498D01*
Y317499D01*
X377498Y316499D01*
X379497D01*
X380497Y315499D01*
Y314500D01*
X379497Y313500D01*
X377498D01*
X376498Y314500D01*
X382496Y313500D02*
X384495D01*
X383496D01*
Y319498D01*
X382496Y318498D01*
X387494Y313500D02*
X389494D01*
X388494D01*
Y319498D01*
X387494Y318498D01*
X392493Y313500D02*
X394492D01*
X393493D01*
Y319498D01*
X392493Y318498D01*
X397491Y319498D02*
X401490D01*
Y318498D01*
X397491Y314500D01*
Y313500D01*
X403489Y316499D02*
X407488D01*
X409487Y318498D02*
X410487Y319498D01*
X412486D01*
X413486Y318498D01*
Y317499D01*
X412486Y316499D01*
X411487D01*
X412486D01*
X413486Y315499D01*
Y314500D01*
X412486Y313500D01*
X410487D01*
X409487Y314500D01*
X415485Y313500D02*
Y314500D01*
X416485D01*
Y313500D01*
X415485D01*
X420484Y318498D02*
X421484Y319498D01*
X423483D01*
X424482Y318498D01*
Y317499D01*
X423483Y316499D01*
X422483D01*
X423483D01*
X424482Y315499D01*
Y314500D01*
X423483Y313500D01*
X421484D01*
X420484Y314500D01*
X394499Y335998D02*
X393499Y336998D01*
X391500D01*
X390500Y335998D01*
Y332000D01*
X391500Y331000D01*
X393499D01*
X394499Y332000D01*
X396498Y331000D02*
X398497D01*
X397498D01*
Y336998D01*
X396498Y335998D01*
X351500Y303500D02*
Y309498D01*
X354499D01*
X355499Y308498D01*
Y306499D01*
X354499Y305499D01*
X351500D01*
X353499D02*
X355499Y303500D01*
X361497D02*
X357498D01*
X361497Y307499D01*
Y308498D01*
X360497Y309498D01*
X358498D01*
X357498Y308498D01*
X363496D02*
X364496Y309498D01*
X366495D01*
X367495Y308498D01*
Y307499D01*
X366495Y306499D01*
X365495D01*
X366495D01*
X367495Y305499D01*
Y304500D01*
X366495Y303500D01*
X364496D01*
X363496Y304500D01*
X332000Y303500D02*
Y309498D01*
X334999D01*
X335999Y308498D01*
Y306499D01*
X334999Y305499D01*
X332000D01*
X333999D02*
X335999Y303500D01*
X341997D02*
X337998D01*
X341997Y307499D01*
Y308498D01*
X340997Y309498D01*
X338998D01*
X337998Y308498D01*
X346995Y303500D02*
Y309498D01*
X343996Y306499D01*
X347995D01*
X214502Y236000D02*
X221500D01*
X218001D01*
X216835Y237166D01*
Y239499D01*
X218001Y240665D01*
X221500D01*
X215669Y244164D02*
X216835D01*
Y242998D01*
Y245330D01*
Y244164D01*
X220334D01*
X221500Y245330D01*
X215669Y249995D02*
X216835D01*
Y248829D01*
Y251162D01*
Y249995D01*
X220334D01*
X221500Y251162D01*
X223833Y254661D02*
X216835D01*
Y258159D01*
X218001Y259326D01*
X220334D01*
X221500Y258159D01*
Y254661D01*
X216835Y261658D02*
Y262825D01*
X218001D01*
Y261658D01*
X216835D01*
X220334D02*
Y262825D01*
X221500D01*
Y261658D01*
X220334D01*
X221500Y267490D02*
X216835Y272155D01*
X221500Y274488D02*
X216835Y279153D01*
X214502Y281485D02*
X221500D01*
Y284984D01*
X220334Y286151D01*
X219167D01*
X218001D01*
X216835Y284984D01*
Y281485D01*
X214502Y288483D02*
X221500D01*
Y291982D01*
X220334Y293148D01*
X219167D01*
X218001D01*
X216835Y291982D01*
Y288483D01*
X221500Y295481D02*
Y298980D01*
X220334Y300146D01*
X219167Y298980D01*
Y296647D01*
X218001Y295481D01*
X216835Y296647D01*
Y300146D01*
X221500Y302479D02*
X220334D01*
Y303645D01*
X221500D01*
Y302479D01*
X214502Y312975D02*
X221500D01*
Y309476D01*
X220334Y308310D01*
X218001D01*
X216835Y309476D01*
Y312975D01*
X221500Y315308D02*
Y318807D01*
X220334Y319973D01*
X219167Y318807D01*
Y316474D01*
X218001Y315308D01*
X216835Y316474D01*
Y319973D01*
X223833Y322305D02*
X216835D01*
Y325804D01*
X218001Y326971D01*
X220334D01*
X221500Y325804D01*
Y322305D01*
Y330469D02*
Y332802D01*
X220334Y333968D01*
X218001D01*
X216835Y332802D01*
Y330469D01*
X218001Y329303D01*
X220334D01*
X221500Y330469D01*
X216835Y336301D02*
Y340966D01*
X221500Y336301D01*
Y340966D01*
Y343299D02*
X220334D01*
Y344465D01*
X221500D01*
Y343299D01*
X216835Y353795D02*
Y350296D01*
X218001Y349130D01*
X220334D01*
X221500Y350296D01*
Y353795D01*
Y357294D02*
Y359627D01*
X220334Y360793D01*
X218001D01*
X216835Y359627D01*
Y357294D01*
X218001Y356128D01*
X220334D01*
X221500Y357294D01*
Y363126D02*
X216835D01*
Y364292D01*
X218001Y365458D01*
X221500D01*
X218001D01*
X216835Y366624D01*
X218001Y367791D01*
X221500D01*
Y370123D02*
X216835Y374788D01*
X399500Y367498D02*
Y366498D01*
X401499Y364499D01*
X403499Y366498D01*
Y367498D01*
X401499Y364499D02*
Y361500D01*
X409497Y366498D02*
X408497Y367498D01*
X406498D01*
X405498Y366498D01*
Y365499D01*
X406498Y364499D01*
X408497D01*
X409497Y363499D01*
Y362500D01*
X408497Y361500D01*
X406498D01*
X405498Y362500D01*
X411496Y367498D02*
Y362500D01*
X412496Y361500D01*
X414495D01*
X415495Y362500D01*
Y367498D01*
X417494D02*
Y361500D01*
X419493Y363499D01*
X421493Y361500D01*
Y367498D01*
X423492D02*
Y362500D01*
X424492Y361500D01*
X426491D01*
X427491Y362500D01*
Y367498D01*
X429490D02*
X433489Y361500D01*
Y367498D02*
X429490Y361500D01*
X435488Y367498D02*
X437488D01*
X436488D01*
Y361500D01*
X435488D01*
X437488D01*
X444486Y367498D02*
X440487D01*
Y361500D01*
X444486D01*
X440487Y364499D02*
X442486D01*
X384500Y271498D02*
Y265500D01*
X387499D01*
X388499Y266500D01*
Y270498D01*
X387499Y271498D01*
X384500D01*
X393497Y265500D02*
X391498D01*
X390498Y266500D01*
Y268499D01*
X391498Y269499D01*
X393497D01*
X394497Y268499D01*
Y267499D01*
X390498D01*
X396496Y265500D02*
X399495D01*
X400495Y266500D01*
X399495Y267499D01*
X397496D01*
X396496Y268499D01*
X397496Y269499D01*
X400495D01*
X402494Y265500D02*
X404494D01*
X403494D01*
Y269499D01*
X402494D01*
X409492Y263501D02*
X410492D01*
X411491Y264500D01*
Y269499D01*
X408492D01*
X407493Y268499D01*
Y266500D01*
X408492Y265500D01*
X411491D01*
X413491D02*
Y269499D01*
X416490D01*
X417489Y268499D01*
Y265500D01*
X385000Y257998D02*
Y252000D01*
X387999D01*
X388999Y253000D01*
Y253999D01*
X387999Y254999D01*
X385000D01*
X387999D01*
X388999Y255999D01*
Y256998D01*
X387999Y257998D01*
X385000D01*
X390998Y255999D02*
Y253000D01*
X391998Y252000D01*
X394997D01*
Y251000D01*
X393997Y250001D01*
X392997D01*
X394997Y252000D02*
Y255999D01*
X402994Y257998D02*
Y252000D01*
Y253999D01*
X406993Y257998D01*
X403994Y254999D01*
X406993Y252000D01*
X408992Y257998D02*
Y252000D01*
Y253999D01*
X412991Y257998D01*
X409992Y254999D01*
X412991Y252000D01*
X414990Y257998D02*
Y252000D01*
Y253999D01*
X418989Y257998D01*
X415990Y254999D01*
X418989Y252000D01*
X387832Y242000D02*
X384500D01*
X387832Y245332D01*
Y246165D01*
X386999Y246998D01*
X385333D01*
X384500Y246165D01*
X389498D02*
X390331Y246998D01*
X391998D01*
X392831Y246165D01*
Y242833D01*
X391998Y242000D01*
X390331D01*
X389498Y242833D01*
Y246165D01*
X394497Y242000D02*
X396163D01*
X395330D01*
Y246998D01*
X394497Y246165D01*
X398662D02*
X399495Y246998D01*
X401161D01*
X401994Y246165D01*
Y242833D01*
X401161Y242000D01*
X399495D01*
X398662Y242833D01*
Y246165D01*
X403660D02*
X404494Y246998D01*
X406160D01*
X406993Y246165D01*
Y242833D01*
X406160Y242000D01*
X404494D01*
X403660Y242833D01*
Y246165D01*
X411158Y242000D02*
Y246998D01*
X408659Y244499D01*
X411991D01*
X413657Y242000D02*
X415323D01*
X414490D01*
Y246998D01*
X413657Y246165D01*
X417823Y246998D02*
X421155D01*
Y246165D01*
X417823Y242833D01*
Y242000D01*
D11*
X377543Y380769D02*
G03*
X395500Y362500I11936J-6227D01*
G01*
X372250Y363750D02*
X375250Y366750D01*
X372250Y363750D02*
X379000Y357000D01*
X382000Y360000D01*
X375250Y366750D02*
X382000Y360000D01*
X378000Y381000D02*
X396000Y363000D01*
X383500Y378000D02*
X392000D01*
X393500Y368500D02*
Y377000D01*
X389000Y373000D02*
X395000Y379000D01*
D13*
X244000Y284000D02*
Y282334D01*
Y283167D01*
X248998D01*
X248165Y284000D01*
X248998Y276502D02*
X248165Y278169D01*
X246499Y279835D01*
X244833D01*
X244000Y279002D01*
Y277336D01*
X244833Y276502D01*
X245666D01*
X246499Y277336D01*
Y279835D01*
X234000Y284000D02*
Y282334D01*
Y283167D01*
X238998D01*
X238165Y284000D01*
X238998Y276502D02*
Y279835D01*
X236499D01*
X237332Y278169D01*
Y277336D01*
X236499Y276502D01*
X234833D01*
X234000Y277336D01*
Y279002D01*
X234833Y279835D01*
X234000Y370000D02*
Y368334D01*
Y369167D01*
X238998D01*
X238165Y370000D01*
X244000Y366668D02*
Y370000D01*
X247332Y366668D01*
X248165D01*
X248998Y367501D01*
Y369167D01*
X248165Y370000D01*
X298000Y212000D02*
X299666D01*
X298833D01*
Y216998D01*
X298000Y216165D01*
X305498Y216998D02*
X303831Y216165D01*
X302165Y214499D01*
Y212833D01*
X302998Y212000D01*
X304664D01*
X305498Y212833D01*
Y213666D01*
X304664Y214499D01*
X302165D01*
X298000Y202000D02*
X299666D01*
X298833D01*
Y206998D01*
X298000Y206165D01*
X305498Y206998D02*
X302165D01*
Y204499D01*
X303831Y205332D01*
X304664D01*
X305498Y204499D01*
Y202833D01*
X304664Y202000D01*
X302998D01*
X302165Y202833D01*
X212000Y202000D02*
X213666D01*
X212833D01*
Y206998D01*
X212000Y206165D01*
X215332Y212000D02*
X212000D01*
X215332Y215332D01*
Y216165D01*
X214499Y216998D01*
X212833D01*
X212000Y216165D01*
D41*
X367000Y227224D02*
G03*
X362000Y227224I-2500J0D01*
G01*
X344094Y334205D02*
G03*
X344094Y349795I5906J7795D01*
G01*
X474020Y255638D02*
G03*
X476756Y252902I2736J0D01*
G01*
X497622Y250146D02*
G03*
X494886Y252882I-2736J0D01*
G01*
X476756Y183098D02*
G03*
X474020Y180362I0J-2736D01*
G01*
X494886Y183118D02*
G03*
X497622Y185854I0J2736D01*
G01*
X354067Y227224D02*
Y267776D01*
X374933Y227224D02*
Y267776D01*
X354067D02*
X374933D01*
X354067Y227224D02*
X362000D01*
X367000D02*
X374933D01*
X344094Y334205D02*
Y349795D01*
X308445Y273685D02*
X315472Y280713D01*
X280315Y273685D02*
X308445D01*
X280315D02*
Y308842D01*
X315472D01*
Y280713D02*
Y308842D01*
X251000Y285000D02*
Y365000D01*
X231000Y285000D02*
Y365000D01*
X251000D01*
X231000Y285000D02*
X251000D01*
X217000Y219000D02*
X297000D01*
X217000Y199000D02*
X297000D01*
X217000D02*
Y219000D01*
X297000Y199000D02*
Y219000D01*
X462189Y157370D02*
Y278630D01*
X425181Y157370D02*
X474000D01*
X425181Y278630D02*
X474000D01*
X497622Y185854D02*
Y250146D01*
X425181Y157370D02*
Y278630D01*
X425181Y190441D02*
X462189D01*
X474000Y157370D02*
Y278630D01*
X425181Y245559D02*
X462189D01*
X476756Y252902D02*
X494866D01*
X476756Y183098D02*
X494866D01*
X371811Y286102D02*
Y298898D01*
X398189Y286102D02*
Y298898D01*
X371811D02*
X398189D01*
X371811Y286102D02*
X398189D01*
D42*
X394547Y311102D02*
G03*
X394547Y311102I-492J0D01*
G01*
D43*
X422206Y342300D02*
X422354Y342151D01*
X422206Y341600D02*
Y342300D01*
Y341600D02*
X422606Y342000D01*
X421989D02*
X422606D01*
X421300D02*
X421989D01*
X421300D02*
X421894Y342594D01*
X422583D01*
X423177Y342000D01*
X421300D02*
X423177D01*
X419348Y343952D02*
X421300Y342000D01*
X419348Y343952D02*
X424800D01*
X424224Y343376D02*
X424800Y343952D01*
X424224Y343376D02*
X424824D01*
X424080Y344120D02*
X424824Y343376D01*
X424080Y344120D02*
X424980D01*
X424800Y344300D02*
X424980Y344120D01*
X419000Y344300D02*
X424800D01*
X419000D02*
X421900Y341400D01*
X422577D01*
X423177Y342000D01*
X420500D02*
X423177D01*
X419906Y342594D02*
X420500Y342000D01*
X419906Y342594D02*
X424094D01*
X465906D02*
X470094D01*
X465906D02*
X466500Y342000D01*
X469177D01*
X468577Y341400D02*
X469177Y342000D01*
X467900Y341400D02*
X468577D01*
X465000Y344300D02*
X467900Y341400D01*
X465000Y344300D02*
X470800D01*
X470980Y344120D01*
X470080D02*
X470980D01*
X470080D02*
X470824Y343376D01*
X470224D02*
X470824D01*
X470224D02*
X470800Y343952D01*
X465348D02*
X470800D01*
X465348D02*
X467300Y342000D01*
X469177D01*
X468583Y342594D02*
X469177Y342000D01*
X467894Y342594D02*
X468583D01*
X467300Y342000D02*
X467894Y342594D01*
X467300Y342000D02*
X467989D01*
X468606D01*
X468206Y341600D02*
X468606Y342000D01*
X468206Y341600D02*
Y342300D01*
X468354Y342151D01*
X190406Y371906D02*
Y376094D01*
Y371906D02*
X191000Y372500D01*
Y375177D01*
X191600Y374577D01*
Y373900D02*
Y374577D01*
X188700Y371000D02*
X191600Y373900D01*
X188700Y371000D02*
Y376800D01*
X188880Y376980D01*
Y376080D02*
Y376980D01*
Y376080D02*
X189624Y376824D01*
Y376224D02*
Y376824D01*
X189048Y376800D02*
X189624Y376224D01*
X189048Y371348D02*
Y376800D01*
Y371348D02*
X191000Y373300D01*
Y375177D01*
X190406Y374583D02*
X191000Y375177D01*
X190406Y373894D02*
Y374583D01*
Y373894D02*
X191000Y373300D01*
Y373989D01*
Y374606D01*
X191400Y374206D01*
X190700D02*
X191400D01*
X190700D02*
X190849Y374354D01*
X190406Y349906D02*
Y354094D01*
Y349906D02*
X191000Y350500D01*
Y353177D01*
X191600Y352577D01*
Y351900D02*
Y352577D01*
X188700Y349000D02*
X191600Y351900D01*
X188700Y349000D02*
Y354800D01*
X188880Y354980D01*
Y354080D02*
Y354980D01*
Y354080D02*
X189624Y354824D01*
Y354224D02*
Y354824D01*
X189048Y354800D02*
X189624Y354224D01*
X189048Y349348D02*
Y354800D01*
Y349348D02*
X191000Y351300D01*
Y353177D01*
X190406Y352583D02*
X191000Y353177D01*
X190406Y351894D02*
Y352583D01*
Y351894D02*
X191000Y351300D01*
Y351989D01*
Y352606D01*
X191400Y352206D01*
X190700D02*
X191400D01*
X190700D02*
X190849Y352354D01*
X190406Y327906D02*
Y332094D01*
Y327906D02*
X191000Y328500D01*
Y331177D01*
X191600Y330577D01*
Y329900D02*
Y330577D01*
X188700Y327000D02*
X191600Y329900D01*
X188700Y327000D02*
Y332800D01*
X188880Y332980D01*
Y332080D02*
Y332980D01*
Y332080D02*
X189624Y332824D01*
Y332224D02*
Y332824D01*
X189048Y332800D02*
X189624Y332224D01*
X189048Y327348D02*
Y332800D01*
Y327348D02*
X191000Y329300D01*
Y331177D01*
X190406Y330583D02*
X191000Y331177D01*
X190406Y329894D02*
Y330583D01*
Y329894D02*
X191000Y329300D01*
Y329989D01*
Y330606D01*
X191400Y330206D01*
X190700D02*
X191400D01*
X190700D02*
X190849Y330354D01*
X190406Y305906D02*
Y310094D01*
Y305906D02*
X191000Y306500D01*
Y309177D01*
X191600Y308577D01*
Y307900D02*
Y308577D01*
X188700Y305000D02*
X191600Y307900D01*
X188700Y305000D02*
Y310800D01*
X188880Y310980D01*
Y310080D02*
Y310980D01*
Y310080D02*
X189624Y310824D01*
Y310224D02*
Y310824D01*
X189048Y310800D02*
X189624Y310224D01*
X189048Y305348D02*
Y310800D01*
Y305348D02*
X191000Y307300D01*
Y309177D01*
X190406Y308583D02*
X191000Y309177D01*
X190406Y307894D02*
Y308583D01*
Y307894D02*
X191000Y307300D01*
Y307989D01*
Y308606D01*
X191400Y308206D01*
X190700D02*
X191400D01*
X190700D02*
X190849Y308354D01*
X190406Y283906D02*
Y288094D01*
Y283906D02*
X191000Y284500D01*
Y287177D01*
X191600Y286577D01*
Y285900D02*
Y286577D01*
X188700Y283000D02*
X191600Y285900D01*
X188700Y283000D02*
Y288800D01*
X188880Y288980D01*
Y288080D02*
Y288980D01*
Y288080D02*
X189624Y288824D01*
Y288224D02*
Y288824D01*
X189048Y288800D02*
X189624Y288224D01*
X189048Y283348D02*
Y288800D01*
Y283348D02*
X191000Y285300D01*
Y287177D01*
X190406Y286583D02*
X191000Y287177D01*
X190406Y285894D02*
Y286583D01*
Y285894D02*
X191000Y285300D01*
Y285989D01*
Y286606D01*
X191400Y286206D01*
X190700D02*
X191400D01*
X190700D02*
X190849Y286354D01*
X190406Y261906D02*
Y266094D01*
Y261906D02*
X191000Y262500D01*
Y265177D01*
X191600Y264577D01*
Y263900D02*
Y264577D01*
X188700Y261000D02*
X191600Y263900D01*
X188700Y261000D02*
Y266800D01*
X188880Y266980D01*
Y266080D02*
Y266980D01*
Y266080D02*
X189624Y266824D01*
Y266224D02*
Y266824D01*
X189048Y266800D02*
X189624Y266224D01*
X189048Y261348D02*
Y266800D01*
Y261348D02*
X191000Y263300D01*
Y265177D01*
X190406Y264583D02*
X191000Y265177D01*
X190406Y263894D02*
Y264583D01*
Y263894D02*
X191000Y263300D01*
Y263989D01*
Y264606D01*
X191400Y264206D01*
X190700D02*
X191400D01*
X190700D02*
X190849Y264354D01*
X190406Y239906D02*
Y244094D01*
Y239906D02*
X191000Y240500D01*
Y243177D01*
X191600Y242577D01*
Y241900D02*
Y242577D01*
X188700Y239000D02*
X191600Y241900D01*
X188700Y239000D02*
Y244800D01*
X188880Y244980D01*
Y244080D02*
Y244980D01*
Y244080D02*
X189624Y244824D01*
Y244224D02*
Y244824D01*
X189048Y244800D02*
X189624Y244224D01*
X189048Y239348D02*
Y244800D01*
Y239348D02*
X191000Y241300D01*
Y243177D01*
X190406Y242583D02*
X191000Y243177D01*
X190406Y241894D02*
Y242583D01*
Y241894D02*
X191000Y241300D01*
Y241989D01*
Y242606D01*
X191400Y242206D01*
X190700D02*
X191400D01*
X190700D02*
X190849Y242354D01*
X190406Y217906D02*
Y222094D01*
Y217906D02*
X191000Y218500D01*
Y221177D01*
X191600Y220577D01*
Y219900D02*
Y220577D01*
X188700Y217000D02*
X191600Y219900D01*
X188700Y217000D02*
Y222800D01*
X188880Y222980D01*
Y222080D02*
Y222980D01*
Y222080D02*
X189624Y222824D01*
Y222224D02*
Y222824D01*
X189048Y222800D02*
X189624Y222224D01*
X189048Y217348D02*
Y222800D01*
Y217348D02*
X191000Y219300D01*
Y221177D01*
X190406Y220583D02*
X191000Y221177D01*
X190406Y219894D02*
Y220583D01*
Y219894D02*
X191000Y219300D01*
Y219989D01*
Y220606D01*
X191400Y220206D01*
X190700D02*
X191400D01*
X190700D02*
X190849Y220354D01*
D44*
X418000Y340500D02*
X426000D01*
X422000D02*
X426000Y344500D01*
X420000D02*
X420307D01*
X418000D02*
X426000D01*
X418000D02*
X422000Y340500D01*
Y337500D02*
Y348500D01*
X413000Y340500D02*
X415000Y342500D01*
X412000Y341500D02*
X413000Y340500D01*
X410000Y339500D02*
X412000Y341500D01*
X413000Y343500D02*
X414000Y344500D01*
X412000D02*
X413000Y343500D01*
X410000Y342500D02*
X412000Y344500D01*
X410000Y339500D02*
X411000D01*
X410000D02*
Y340500D01*
Y342500D02*
X411000D01*
X410000D02*
Y343500D01*
X449055Y304661D02*
X451417D01*
X453386Y294425D02*
Y302299D01*
X451417Y301118D02*
Y308205D01*
X453386Y307417D02*
Y315291D01*
X440000Y292000D02*
Y317500D01*
X465600D01*
X440000Y292000D02*
X465600D01*
Y317500D01*
X456000Y342500D02*
Y343500D01*
Y342500D02*
X457000D01*
X456000Y339500D02*
Y340500D01*
Y339500D02*
X457000D01*
X456000Y342500D02*
X458000Y344500D01*
X459000Y343500D01*
X460000Y344500D01*
X456000Y339500D02*
X458000Y341500D01*
X459000Y340500D01*
X461000Y342500D01*
X468000Y337500D02*
Y348500D01*
X464000Y344500D02*
X468000Y340500D01*
X464000Y344500D02*
X472000D01*
X466000D02*
X466307D01*
X468000Y340500D02*
X472000Y344500D01*
X464000Y340500D02*
X472000D01*
X202500Y189600D02*
X228000D01*
Y164000D02*
Y189600D01*
X202500Y164000D02*
Y189600D01*
Y164000D02*
X228000D01*
X204709Y177386D02*
X212583D01*
X211795Y175417D02*
X218882D01*
X217701Y177386D02*
X225575D01*
X215339Y173055D02*
Y175417D01*
X230500Y189600D02*
X256000D01*
Y164000D02*
Y189600D01*
X230500Y164000D02*
Y189600D01*
Y164000D02*
X256000D01*
X232709Y177386D02*
X240583D01*
X239795Y175417D02*
X246882D01*
X245701Y177386D02*
X253575D01*
X243339Y173055D02*
Y175417D01*
X258500Y189600D02*
X284000D01*
Y164000D02*
Y189600D01*
X258500Y164000D02*
Y189600D01*
Y164000D02*
X284000D01*
X260709Y177386D02*
X268583D01*
X267795Y175417D02*
X274882D01*
X273701Y177386D02*
X281575D01*
X271339Y173055D02*
Y175417D01*
X189500Y362000D02*
X190500D01*
Y363000D01*
X192500Y362000D02*
X193500D01*
Y363000D01*
X188500Y364000D02*
X190500Y362000D01*
X188500Y364000D02*
X189500Y365000D01*
X188500Y366000D02*
X189500Y365000D01*
X191500Y364000D02*
X193500Y362000D01*
X191500Y364000D02*
X192500Y365000D01*
X190500Y367000D02*
X192500Y365000D01*
X184500Y374000D02*
X195500D01*
X188500Y370000D02*
X192500Y374000D01*
X188500Y370000D02*
Y378000D01*
Y372000D02*
Y372307D01*
Y378000D02*
X192500Y374000D01*
Y370000D02*
Y378000D01*
X189500Y340000D02*
X190500D01*
Y341000D01*
X192500Y340000D02*
X193500D01*
Y341000D01*
X188500Y342000D02*
X190500Y340000D01*
X188500Y342000D02*
X189500Y343000D01*
X188500Y344000D02*
X189500Y343000D01*
X191500Y342000D02*
X193500Y340000D01*
X191500Y342000D02*
X192500Y343000D01*
X190500Y345000D02*
X192500Y343000D01*
X184500Y352000D02*
X195500D01*
X188500Y348000D02*
X192500Y352000D01*
X188500Y348000D02*
Y356000D01*
Y350000D02*
Y350307D01*
Y356000D02*
X192500Y352000D01*
Y348000D02*
Y356000D01*
X189500Y318000D02*
X190500D01*
Y319000D01*
X192500Y318000D02*
X193500D01*
Y319000D01*
X188500Y320000D02*
X190500Y318000D01*
X188500Y320000D02*
X189500Y321000D01*
X188500Y322000D02*
X189500Y321000D01*
X191500Y320000D02*
X193500Y318000D01*
X191500Y320000D02*
X192500Y321000D01*
X190500Y323000D02*
X192500Y321000D01*
X184500Y330000D02*
X195500D01*
X188500Y326000D02*
X192500Y330000D01*
X188500Y326000D02*
Y334000D01*
Y328000D02*
Y328307D01*
Y334000D02*
X192500Y330000D01*
Y326000D02*
Y334000D01*
X189500Y296000D02*
X190500D01*
Y297000D01*
X192500Y296000D02*
X193500D01*
Y297000D01*
X188500Y298000D02*
X190500Y296000D01*
X188500Y298000D02*
X189500Y299000D01*
X188500Y300000D02*
X189500Y299000D01*
X191500Y298000D02*
X193500Y296000D01*
X191500Y298000D02*
X192500Y299000D01*
X190500Y301000D02*
X192500Y299000D01*
X184500Y308000D02*
X195500D01*
X188500Y304000D02*
X192500Y308000D01*
X188500Y304000D02*
Y312000D01*
Y306000D02*
Y306307D01*
Y312000D02*
X192500Y308000D01*
Y304000D02*
Y312000D01*
X189500Y274000D02*
X190500D01*
Y275000D01*
X192500Y274000D02*
X193500D01*
Y275000D01*
X188500Y276000D02*
X190500Y274000D01*
X188500Y276000D02*
X189500Y277000D01*
X188500Y278000D02*
X189500Y277000D01*
X191500Y276000D02*
X193500Y274000D01*
X191500Y276000D02*
X192500Y277000D01*
X190500Y279000D02*
X192500Y277000D01*
X184500Y286000D02*
X195500D01*
X188500Y282000D02*
X192500Y286000D01*
X188500Y282000D02*
Y290000D01*
Y284000D02*
Y284307D01*
Y290000D02*
X192500Y286000D01*
Y282000D02*
Y290000D01*
X189500Y252000D02*
X190500D01*
Y253000D01*
X192500Y252000D02*
X193500D01*
Y253000D01*
X188500Y254000D02*
X190500Y252000D01*
X188500Y254000D02*
X189500Y255000D01*
X188500Y256000D02*
X189500Y255000D01*
X191500Y254000D02*
X193500Y252000D01*
X191500Y254000D02*
X192500Y255000D01*
X190500Y257000D02*
X192500Y255000D01*
X184500Y264000D02*
X195500D01*
X188500Y260000D02*
X192500Y264000D01*
X188500Y260000D02*
Y268000D01*
Y262000D02*
Y262307D01*
Y268000D02*
X192500Y264000D01*
Y260000D02*
Y268000D01*
X189500Y230000D02*
X190500D01*
Y231000D01*
X192500Y230000D02*
X193500D01*
Y231000D01*
X188500Y232000D02*
X190500Y230000D01*
X188500Y232000D02*
X189500Y233000D01*
X188500Y234000D02*
X189500Y233000D01*
X191500Y232000D02*
X193500Y230000D01*
X191500Y232000D02*
X192500Y233000D01*
X190500Y235000D02*
X192500Y233000D01*
X184500Y242000D02*
X195500D01*
X188500Y238000D02*
X192500Y242000D01*
X188500Y238000D02*
Y246000D01*
Y240000D02*
Y240307D01*
Y246000D02*
X192500Y242000D01*
Y238000D02*
Y246000D01*
X189500Y208000D02*
X190500D01*
Y209000D01*
X192500Y208000D02*
X193500D01*
Y209000D01*
X188500Y210000D02*
X190500Y208000D01*
X188500Y210000D02*
X189500Y211000D01*
X188500Y212000D02*
X189500Y211000D01*
X191500Y210000D02*
X193500Y208000D01*
X191500Y210000D02*
X192500Y211000D01*
X190500Y213000D02*
X192500Y211000D01*
X184500Y220000D02*
X195500D01*
X188500Y216000D02*
X192500Y220000D01*
X188500Y216000D02*
Y224000D01*
Y218000D02*
Y218307D01*
Y224000D02*
X192500Y220000D01*
Y216000D02*
Y224000D01*
X288500Y189600D02*
X314000D01*
Y164000D02*
Y189600D01*
X288500Y164000D02*
Y189600D01*
Y164000D02*
X314000D01*
X290709Y177386D02*
X298583D01*
X297795Y175417D02*
X304882D01*
X303701Y177386D02*
X311575D01*
X301339Y173055D02*
Y175417D01*
D45*
X297878Y234500D02*
X320925D01*
X297878Y254500D02*
X320925D01*
D46*
X339528Y349480D02*
X337560D01*
X338544D01*
Y343577D01*
X339528Y344561D01*
X340433Y335072D02*
X339449Y334088D01*
X337481D01*
X336497Y335072D01*
Y336056D01*
X337481Y337040D01*
X338465D01*
X337481D01*
X336497Y338024D01*
Y339008D01*
X337481Y339992D01*
X339449D01*
X340433Y339008D01*
X417406Y240795D02*
Y238827D01*
Y239811D01*
X423309D01*
X422325Y240795D01*
X423309Y194222D02*
Y198158D01*
X420357D01*
X421341Y196190D01*
Y195206D01*
X420357Y194222D01*
X418390D01*
X417406Y195206D01*
Y197174D01*
X418390Y198158D01*
X455397Y203610D02*
X454413Y202626D01*
Y200658D01*
X455397Y199674D01*
X459333D01*
X460317Y200658D01*
Y202626D01*
X459333Y203610D01*
X458349D01*
X457365Y202626D01*
Y199674D01*
X460317Y232391D02*
X459333Y234359D01*
X457365Y236327D01*
X455397D01*
X454413Y235343D01*
Y233375D01*
X455397Y232391D01*
X456381D01*
X457365Y233375D01*
Y236327D01*
D47*
X421940Y343660D02*
D03*
X467940D02*
D03*
D48*
X189340Y373940D02*
D03*
Y351940D02*
D03*
Y329940D02*
D03*
Y307940D02*
D03*
Y285940D02*
D03*
Y263940D02*
D03*
Y241940D02*
D03*
Y219940D02*
D03*
M02*
